<svg width="54" height="54" viewBox="0 0 54 54" fill="none" xmlns="http://www.w3.org/2000/svg">
<path d="M26.568 53.1365C22.92 53.1365 19.488 52.4645 16.272 51.1205C13.056 49.7285 10.224 47.8085 7.77603 45.3605C5.32803 42.9125 3.40803 40.0805 2.01603 36.8645C0.672032 33.6485 3.15011e-05 30.2165 3.15011e-05 26.5685C3.15011e-05 22.8725 0.672032 19.4405 2.01603 16.2725C3.40803 13.0565 5.32803 10.2245 7.77603 7.77646C10.224 5.32846 13.056 3.43246 16.272 2.08846C19.488 0.69646 22.92 0.000460148 26.568 0.000460148C30.264 0.000460148 33.696 0.69646 36.864 2.08846C40.08 3.43246 42.912 5.32846 45.36 7.77646C47.808 10.2245 49.704 13.0565 51.048 16.2725C52.44 19.4405 53.136 22.8725 53.136 26.5685C53.136 30.2165 52.44 33.6485 51.048 36.8645C49.704 40.0805 47.808 42.9125 45.36 45.3605C42.912 47.8085 40.08 49.7285 36.864 51.1205C33.696 52.4645 30.264 53.1365 26.568 53.1365ZM26.568 47.0885C29.352 47.0885 31.968 46.5605 34.416 45.5045C36.864 44.4485 39.024 42.9845 40.896 41.1125C42.816 39.2405 44.304 37.0565 45.36 34.5605C46.416 32.0645 46.944 29.4005 46.944 26.5685C46.944 23.7365 46.416 21.0725 45.36 18.5765C44.304 16.0805 42.816 13.8965 40.896 12.0245C39.024 10.1525 36.864 8.68846 34.416 7.63246C31.968 6.57646 29.352 6.04846 26.568 6.04846C23.784 6.04846 21.168 6.57646 18.72 7.63246C16.272 8.68846 14.088 10.1525 12.168 12.0245C10.296 13.8965 8.83203 16.0805 7.77603 18.5765C6.72003 21.0725 6.19203 23.7365 6.19203 26.5685C6.19203 29.4005 6.72003 32.0645 7.77603 34.5605C8.83203 37.0565 10.296 39.2405 12.168 41.1125C14.088 42.9845 16.272 44.4485 18.72 45.5045C21.168 46.5605 23.784 47.0885 26.568 47.0885ZM26.856 41.6165C24.024 41.6165 21.504 40.9925 19.296 39.7445C17.136 38.4485 15.432 36.6725 14.184 34.4165C12.984 32.1125 12.384 29.4965 12.384 26.5685C12.384 23.5925 12.984 21.0005 14.184 18.7925C15.432 16.5365 17.136 14.7845 19.296 13.5365C21.504 12.2405 24.024 11.5925 26.856 11.5925C29.256 11.5925 31.416 12.0725 33.336 13.0325C35.256 13.9445 36.816 15.2645 38.016 16.9925C39.216 18.6725 39.912 20.5925 40.104 22.7525L33.768 23.1125C33.528 21.3365 32.76 19.8965 31.464 18.7925C30.216 17.6885 28.68 17.1365 26.856 17.1365C25.272 17.1365 23.856 17.5445 22.608 18.3605C21.408 19.1285 20.448 20.2325 19.728 21.6725C19.056 23.0645 18.72 24.6965 18.72 26.5685C18.72 28.4405 19.056 30.0965 19.728 31.5365C20.448 32.9765 21.408 34.1045 22.608 34.9205C23.856 35.6885 25.272 36.0725 26.856 36.0725C28.104 36.0725 29.232 35.8085 30.24 35.2805C31.296 34.7045 32.136 33.9365 32.76 32.9765C33.432 31.9685 33.864 30.8165 34.056 29.5205L40.392 29.8805C40.152 32.1365 39.408 34.1525 38.16 35.9285C36.96 37.7045 35.376 39.0965 33.408 40.1045C31.488 41.1125 29.304 41.6165 26.856 41.6165Z" fill="#231F20"/>
<path d="M26.568 53.1365C22.92 53.1365 19.488 52.4645 16.272 51.1205C13.056 49.7285 10.224 47.8085 7.77603 45.3605C5.32803 42.9125 3.40803 40.0805 2.01603 36.8645C0.672032 33.6485 3.15011e-05 30.2165 3.15011e-05 26.5685C3.15011e-05 22.8725 0.672032 19.4405 2.01603 16.2725C3.40803 13.0565 5.32803 10.2245 7.77603 7.77646C10.224 5.32846 13.056 3.43246 16.272 2.08846C19.488 0.69646 22.92 0.000460148 26.568 0.000460148C30.264 0.000460148 33.696 0.69646 36.864 2.08846C40.08 3.43246 42.912 5.32846 45.36 7.77646C47.808 10.2245 49.704 13.0565 51.048 16.2725C52.44 19.4405 53.136 22.8725 53.136 26.5685C53.136 30.2165 52.44 33.6485 51.048 36.8645C49.704 40.0805 47.808 42.9125 45.36 45.3605C42.912 47.8085 40.08 49.7285 36.864 51.1205C33.696 52.4645 30.264 53.1365 26.568 53.1365ZM26.568 47.0885C29.352 47.0885 31.968 46.5605 34.416 45.5045C36.864 44.4485 39.024 42.9845 40.896 41.1125C42.816 39.2405 44.304 37.0565 45.36 34.5605C46.416 32.0645 46.944 29.4005 46.944 26.5685C46.944 23.7365 46.416 21.0725 45.36 18.5765C44.304 16.0805 42.816 13.8965 40.896 12.0245C39.024 10.1525 36.864 8.68846 34.416 7.63246C31.968 6.57646 29.352 6.04846 26.568 6.04846C23.784 6.04846 21.168 6.57646 18.72 7.63246C16.272 8.68846 14.088 10.1525 12.168 12.0245C10.296 13.8965 8.83203 16.0805 7.77603 18.5765C6.72003 21.0725 6.19203 23.7365 6.19203 26.5685C6.19203 29.4005 6.72003 32.0645 7.77603 34.5605C8.83203 37.0565 10.296 39.2405 12.168 41.1125C14.088 42.9845 16.272 44.4485 18.72 45.5045C21.168 46.5605 23.784 47.0885 26.568 47.0885ZM26.856 41.6165C24.024 41.6165 21.504 40.9925 19.296 39.7445C17.136 38.4485 15.432 36.6725 14.184 34.4165C12.984 32.1125 12.384 29.4965 12.384 26.5685C12.384 23.5925 12.984 21.0005 14.184 18.7925C15.432 16.5365 17.136 14.7845 19.296 13.5365C21.504 12.2405 24.024 11.5925 26.856 11.5925C29.256 11.5925 31.416 12.0725 33.336 13.0325C35.256 13.9445 36.816 15.2645 38.016 16.9925C39.216 18.6725 39.912 20.5925 40.104 22.7525L33.768 23.1125C33.528 21.3365 32.76 19.8965 31.464 18.7925C30.216 17.6885 28.68 17.1365 26.856 17.1365C25.272 17.1365 23.856 17.5445 22.608 18.3605C21.408 19.1285 20.448 20.2325 19.728 21.6725C19.056 23.0645 18.72 24.6965 18.72 26.5685C18.72 28.4405 19.056 30.0965 19.728 31.5365C20.448 32.9765 21.408 34.1045 22.608 34.9205C23.856 35.6885 25.272 36.0725 26.856 36.0725C28.104 36.0725 29.232 35.8085 30.24 35.2805C31.296 34.7045 32.136 33.9365 32.76 32.9765C33.432 31.9685 33.864 30.8165 34.056 29.5205L40.392 29.8805C40.152 32.1365 39.408 34.1525 38.16 35.9285C36.96 37.7045 35.376 39.0965 33.408 40.1045C31.488 41.1125 29.304 41.6165 26.856 41.6165Z" fill="#717171"/>
</svg>
