<svg width="54" height="54" viewBox="0 0 54 54" fill="none" xmlns="http://www.w3.org/2000/svg">
<path d="M26.568 53.136C22.92 53.136 19.488 52.464 16.272 51.12C13.056 49.728 10.224 47.808 7.776 45.36C5.328 42.912 3.408 40.08 2.016 36.864C0.672 33.648 0 30.216 0 26.568C0 22.872 0.672 19.44 2.016 16.272C3.408 13.056 5.328 10.224 7.776 7.776C10.224 5.328 13.056 3.432 16.272 2.088C19.488 0.696 22.92 0 26.568 0C30.264 0 33.696 0.696 36.864 2.088C40.08 3.432 42.912 5.328 45.36 7.776C47.808 10.224 49.704 13.056 51.048 16.272C52.44 19.44 53.136 22.872 53.136 26.568C53.136 30.216 52.44 33.648 51.048 36.864C49.704 40.08 47.808 42.912 45.36 45.36C42.912 47.808 40.08 49.728 36.864 51.12C33.696 52.464 30.264 53.136 26.568 53.136ZM26.568 47.088C29.352 47.088 31.968 46.56 34.416 45.504C36.864 44.448 39.024 42.984 40.896 41.112C42.816 39.24 44.304 37.056 45.36 34.56C46.416 32.064 46.944 29.4 46.944 26.568C46.944 23.736 46.416 21.072 45.36 18.576C44.304 16.08 42.816 13.896 40.896 12.024C39.024 10.152 36.864 8.688 34.416 7.632C31.968 6.576 29.352 6.048 26.568 6.048C23.784 6.048 21.168 6.576 18.72 7.632C16.272 8.688 14.088 10.152 12.168 12.024C10.296 13.896 8.832 16.08 7.776 18.576C6.72 21.072 6.192 23.736 6.192 26.568C6.192 29.4 6.72 32.064 7.776 34.56C8.832 37.056 10.296 39.24 12.168 41.112C14.088 42.984 16.272 44.448 18.72 45.504C21.168 46.56 23.784 47.088 26.568 47.088Z" fill="#231F20"/>
<path d="M26.568 53.136C22.92 53.136 19.488 52.464 16.272 51.12C13.056 49.728 10.224 47.808 7.776 45.36C5.328 42.912 3.408 40.08 2.016 36.864C0.672 33.648 0 30.216 0 26.568C0 22.872 0.672 19.44 2.016 16.272C3.408 13.056 5.328 10.224 7.776 7.776C10.224 5.328 13.056 3.432 16.272 2.088C19.488 0.696 22.92 0 26.568 0C30.264 0 33.696 0.696 36.864 2.088C40.08 3.432 42.912 5.328 45.36 7.776C47.808 10.224 49.704 13.056 51.048 16.272C52.44 19.44 53.136 22.872 53.136 26.568C53.136 30.216 52.44 33.648 51.048 36.864C49.704 40.08 47.808 42.912 45.36 45.36C42.912 47.808 40.08 49.728 36.864 51.12C33.696 52.464 30.264 53.136 26.568 53.136ZM26.568 47.088C29.352 47.088 31.968 46.56 34.416 45.504C36.864 44.448 39.024 42.984 40.896 41.112C42.816 39.24 44.304 37.056 45.36 34.56C46.416 32.064 46.944 29.4 46.944 26.568C46.944 23.736 46.416 21.072 45.36 18.576C44.304 16.08 42.816 13.896 40.896 12.024C39.024 10.152 36.864 8.688 34.416 7.632C31.968 6.576 29.352 6.048 26.568 6.048C23.784 6.048 21.168 6.576 18.72 7.632C16.272 8.688 14.088 10.152 12.168 12.024C10.296 13.896 8.832 16.08 7.776 18.576C6.72 21.072 6.192 23.736 6.192 26.568C6.192 29.4 6.72 32.064 7.776 34.56C8.832 37.056 10.296 39.24 12.168 41.112C14.088 42.984 16.272 44.448 18.72 45.504C21.168 46.56 23.784 47.088 26.568 47.088Z" fill="#DE1111"/>
<path d="M17 37L37 17" stroke="black" stroke-width="7" stroke-linejoin="round"/>
<path d="M17 37L37 17" stroke="#DE1111" stroke-width="7" stroke-linejoin="round"/>
<path d="M37 37L17 17" stroke="black" stroke-width="7" stroke-linejoin="round"/>
<path d="M37 37L17 17" stroke="#DE1111" stroke-width="7" stroke-linejoin="round"/>
</svg>
