<svg width="175" height="78" viewBox="0 0 175 78" fill="none" xmlns="http://www.w3.org/2000/svg">
<path d="M23.36 9.39988C22.4 13.2399 21.2133 16.5065 19.8 19.1999L16.88 16.9999C19.28 12.5199 20.7733 6.91988 21.36 0.19988L24.76 0.679881C24.6 2.33322 24.3733 4.09322 24.08 5.95988H37.6V8.71988C37.3067 10.3465 36.8667 12.0665 36.28 13.8799C35.6933 15.6665 35 17.3732 34.2 18.9999L31.08 17.5199C31.7467 16.2665 32.3333 14.9199 32.84 13.4799C33.3467 12.0399 33.7333 10.6799 34 9.39988H23.36ZM14.2 31.3199C13.56 30.1199 12.6 28.3732 11.32 26.0799C9.26667 30.0532 6.72 33.5732 3.68 36.6399L1.28 33.3999C4.58667 30.1999 7.2 26.5465 9.12 22.4399C6.74667 18.6265 4.32 15.0665 1.84 11.7599L4.56 9.59988C6.53333 12.2665 8.57333 15.2132 10.68 18.4399C11.88 14.8399 12.6533 10.8932 13 6.59988H2.2V3.23988H16.52V5.87988C16.1733 11.7999 15.0267 17.2399 13.08 22.1999C14.84 25.0265 16.2 27.2799 17.16 28.9599L14.2 31.3199ZM28.56 16.2799C28.56 18.5999 28.8533 20.6932 29.44 22.5599C30.0267 24.4265 31.04 26.2799 32.48 28.1199C33.9467 29.9599 35.9867 31.8932 38.6 33.9199L36.52 37.1999C33.3467 34.6665 31 32.2932 29.48 30.0799C27.96 27.8665 27.1333 25.4132 27 22.7199H26.68C26.52 25.3599 25.72 27.7999 24.28 30.0399C22.84 32.2532 20.6133 34.6399 17.6 37.1999L15.4 33.9999C17.9067 31.9999 19.8667 30.0799 21.28 28.2399C22.6933 26.3999 23.68 24.5332 24.24 22.6399C24.8267 20.7465 25.12 18.6265 25.12 16.2799V12.1199H28.56V16.2799ZM63.76 24.7199C61.3867 25.6265 58.1067 26.7199 53.92 27.9999L53.04 24.4799C53.4933 24.3199 53.8 24.1465 53.96 23.9599C54.1467 23.7732 54.24 23.4799 54.24 23.0799V3.03988C55.6267 2.79988 57.1467 2.41322 58.8 1.87988C60.4533 1.34655 61.9867 0.719881 63.4 -0.000119686L64.84 2.55988H77.4V23.6799C77.4 24.9332 77.1467 25.8265 76.64 26.3599C76.1333 26.8932 75.32 27.1599 74.2 27.1599H70.04L69.4 23.7199H73.88V5.87988H68.04V31.0799H64.52V3.19988C63.5067 3.73321 62.36 4.21322 61.08 4.63988C59.8267 5.06655 58.72 5.38655 57.76 5.59988V23.1999C59.8133 22.5865 61.6267 21.9599 63.2 21.3199L63.76 24.7199ZM48.56 10.4799C47.2267 8.05321 45.44 5.45321 43.2 2.67988L46.16 0.679881C47.04 1.74655 47.96 2.98655 48.92 4.39988C49.9067 5.78655 50.7867 7.15988 51.56 8.51988L48.56 10.4799ZM78.84 32.7599L78.2 36.1599H60.24C58.16 36.1599 56.48 36.0399 55.2 35.7999C53.9467 35.5865 52.92 35.2399 52.12 34.7599C51.3467 34.2799 50.56 33.6132 49.76 32.7599C49.4933 32.4665 49.28 32.2799 49.12 32.1999C48.96 32.0932 48.8 32.0399 48.64 32.0399C48.32 32.0399 47.8133 32.4132 47.12 33.1599C46.4267 33.9065 45.44 35.1332 44.16 36.8399L41.48 34.2399C43.4533 31.5465 45.1467 29.8132 46.56 29.0399V17.1999H41.84V13.8799H50.2V29.0399C50.5467 29.2265 50.88 29.5065 51.2 29.8799C51.84 30.5999 52.4933 31.1599 53.16 31.5599C53.8533 31.9599 54.7333 32.2665 55.8 32.4799C56.8933 32.6665 58.32 32.7599 60.08 32.7599H78.84Z" fill="#231F20"/>
<path d="M9.04 76.8799L1.52 48.4799H6.12L11.64 70.9199L17.16 48.4799H21.56L27.08 70.9199L32.56 48.4799H37.24L29.68 76.8799H24.64L19.36 56.1599L14.08 76.8799H9.04ZM48.7131 77.3599C46.6331 77.3599 44.8331 76.9065 43.3131 75.9999C41.8198 75.0932 40.6598 73.7999 39.8331 72.1199C39.0331 70.4399 38.6331 68.4799 38.6331 66.2399C38.6331 63.9999 39.0331 62.0532 39.8331 60.3999C40.6598 58.7199 41.8198 57.4265 43.3131 56.5199C44.8065 55.5865 46.5665 55.1199 48.5931 55.1199C50.5131 55.1199 52.2065 55.5732 53.6731 56.4799C55.1398 57.3599 56.2731 58.6399 57.0731 60.3199C57.8998 61.9999 58.3131 64.0265 58.3131 66.3999V67.4799H43.0331C43.1398 69.5599 43.6865 71.1199 44.6731 72.1599C45.6865 73.1999 47.0465 73.7199 48.7531 73.7199C50.0065 73.7199 51.0465 73.4265 51.8731 72.8399C52.6998 72.2532 53.2731 71.4665 53.5931 70.4799L57.9931 70.7599C57.4331 72.7332 56.3265 74.3332 54.6731 75.5599C53.0465 76.7599 51.0598 77.3599 48.7131 77.3599ZM43.0331 64.2799H53.8331C53.6998 62.3865 53.1531 60.9865 52.1931 60.0799C51.2598 59.1732 50.0598 58.7199 48.5931 58.7199C47.0731 58.7199 45.8198 59.1999 44.8331 60.1599C43.8731 61.0932 43.2731 62.4665 43.0331 64.2799ZM67.4447 76.8799C66.058 76.8799 64.938 76.5199 64.0847 75.7999C63.2314 75.0799 62.8047 73.9332 62.8047 72.3599V48.4799H67.0447V71.9599C67.0447 72.4399 67.1647 72.7999 67.4047 73.0399C67.6714 73.2799 68.0447 73.3999 68.5247 73.3999H70.2047V76.8799H67.4447ZM82.5803 77.3599C80.5536 77.3599 78.7803 76.9065 77.2603 75.9999C75.7403 75.0932 74.567 73.7999 73.7403 72.1199C72.9136 70.4399 72.5003 68.4799 72.5003 66.2399C72.5003 63.9999 72.9136 62.0532 73.7403 60.3999C74.567 58.7199 75.7403 57.4265 77.2603 56.5199C78.7803 55.5865 80.5536 55.1199 82.5803 55.1199C84.3136 55.1199 85.847 55.4265 87.1803 56.0399C88.5403 56.6265 89.6336 57.4932 90.4603 58.6399C91.3136 59.7865 91.8603 61.1865 92.1003 62.8399L87.6603 63.0799C87.447 61.6932 86.887 60.6399 85.9803 59.9199C85.0736 59.1732 83.9403 58.7999 82.5803 58.7999C80.7936 58.7999 79.3936 59.4665 78.3803 60.7999C77.3936 62.1065 76.9003 63.9199 76.9003 66.2399C76.9003 68.5599 77.3936 70.3865 78.3803 71.7199C79.3936 73.0265 80.7936 73.6799 82.5803 73.6799C83.9403 73.6799 85.0736 73.3065 85.9803 72.5599C86.887 71.7865 87.447 70.6265 87.6603 69.0799L92.1003 69.3199C91.8603 70.9465 91.3136 72.3599 90.4603 73.5599C89.6336 74.7599 88.5403 75.6932 87.1803 76.3599C85.847 77.0265 84.3136 77.3599 82.5803 77.3599ZM104.729 77.3599C102.702 77.3599 100.929 76.9065 99.4088 75.9999C97.8888 75.0932 96.7154 73.7999 95.8888 72.1199C95.0621 70.4399 94.6488 68.4799 94.6488 66.2399C94.6488 63.9732 95.0621 62.0132 95.8888 60.3599C96.7154 58.7065 97.8888 57.4265 99.4088 56.5199C100.929 55.5865 102.702 55.1199 104.729 55.1199C106.755 55.1199 108.529 55.5865 110.049 56.5199C111.569 57.4265 112.742 58.7065 113.569 60.3599C114.395 62.0132 114.809 63.9732 114.809 66.2399C114.809 68.4799 114.395 70.4399 113.569 72.1199C112.742 73.7999 111.569 75.0932 110.049 75.9999C108.529 76.9065 106.755 77.3599 104.729 77.3599ZM104.729 73.6799C106.542 73.6799 107.942 73.0265 108.929 71.7199C109.915 70.3865 110.409 68.5599 110.409 66.2399C110.409 63.9199 109.915 62.1065 108.929 60.7999C107.942 59.4665 106.542 58.7999 104.729 58.7999C102.942 58.7999 101.542 59.4665 100.529 60.7999C99.5421 62.1065 99.0488 63.9199 99.0488 66.2399C99.0488 68.5599 99.5421 70.3865 100.529 71.7199C101.542 73.0265 102.942 73.6799 104.729 73.6799ZM119.094 76.8799V55.5999H122.974L123.094 60.8799L122.614 60.7199C122.854 59.5465 123.267 58.5465 123.854 57.7199C124.467 56.8932 125.214 56.2532 126.094 55.7999C126.974 55.3465 127.934 55.1199 128.974 55.1199C130.787 55.1199 132.267 55.6399 133.414 56.6799C134.56 57.6932 135.28 59.0932 135.574 60.8799H134.894C135.134 59.6265 135.534 58.5865 136.094 57.7599C136.68 56.9065 137.427 56.2532 138.334 55.7999C139.24 55.3465 140.267 55.1199 141.414 55.1199C142.907 55.1199 144.174 55.4399 145.214 56.0799C146.28 56.6932 147.08 57.5999 147.614 58.7999C148.174 59.9999 148.454 61.4665 148.454 63.1999V76.8799H144.214V64.2399C144.214 62.3999 143.88 61.0132 143.214 60.0799C142.547 59.1465 141.534 58.6799 140.174 58.6799C139.294 58.6799 138.52 58.9065 137.854 59.3599C137.187 59.8132 136.667 60.4665 136.294 61.3199C135.947 62.1732 135.774 63.1999 135.774 64.3999V76.8799H131.734V64.3999C131.734 62.5865 131.427 61.1865 130.814 60.1999C130.227 59.1865 129.214 58.6799 127.774 58.6799C126.867 58.6799 126.08 58.9065 125.414 59.3599C124.774 59.8132 124.267 60.4799 123.894 61.3599C123.52 62.2132 123.334 63.2265 123.334 64.3999V76.8799H119.094ZM162.776 77.3599C160.696 77.3599 158.896 76.9065 157.376 75.9999C155.882 75.0932 154.722 73.7999 153.896 72.1199C153.096 70.4399 152.696 68.4799 152.696 66.2399C152.696 63.9999 153.096 62.0532 153.896 60.3999C154.722 58.7199 155.882 57.4265 157.376 56.5199C158.869 55.5865 160.629 55.1199 162.656 55.1199C164.576 55.1199 166.269 55.5732 167.736 56.4799C169.202 57.3599 170.336 58.6399 171.136 60.3199C171.962 61.9999 172.376 64.0265 172.376 66.3999V67.4799H157.096C157.202 69.5599 157.749 71.1199 158.736 72.1599C159.749 73.1999 161.109 73.7199 162.816 73.7199C164.069 73.7199 165.109 73.4265 165.936 72.8399C166.762 72.2532 167.336 71.4665 167.656 70.4799L172.056 70.7599C171.496 72.7332 170.389 74.3332 168.736 75.5599C167.109 76.7599 165.122 77.3599 162.776 77.3599ZM157.096 64.2799H167.896C167.762 62.3865 167.216 60.9865 166.256 60.0799C165.322 59.1732 164.122 58.7199 162.656 58.7199C161.136 58.7199 159.882 59.1999 158.896 60.1599C157.936 61.0932 157.336 62.4665 157.096 64.2799Z" fill="#717171"/>
</svg>
