<svg width="18" height="16" viewBox="0 0 18 16" fill="none" xmlns="http://www.w3.org/2000/svg">
<path d="M0.620709 11.9987C1.47159 11.7233 2.34857 11.6127 3.21949 11.6633C4.15029 11.7119 5.01949 12.1256 5.6554 12.7354C5.72547 12.8025 5.79462 12.8738 5.85907 12.9465C5.89377 12.986 5.9116 13.0394 5.90991 13.0935C5.90814 13.1478 5.88711 13.1984 5.84997 13.2355C5.81283 13.2727 5.7622 13.2937 5.70796 13.2955C5.6538 13.2972 5.60044 13.2793 5.56094 13.2446C5.49748 13.1894 5.42889 13.1349 5.36009 13.0843C4.72893 12.6187 3.95796 12.3814 3.21949 12.439C2.45319 12.4917 1.69444 12.693 1.02115 13.0122C0.946412 13.0481 0.872784 13.0856 0.806179 13.1232C0.675122 13.195 0.524007 13.2094 0.383771 13.1583C0.243666 13.1075 0.125824 12.9953 0.0586485 12.8514C-0.00851256 12.7075 -0.0188751 12.5452 0.0321303 12.4051C0.0830175 12.2648 0.191182 12.1582 0.330421 12.1039C0.428718 12.0645 0.524377 12.0306 0.620709 11.9987Z" fill="#231F20"/>
<path d="M16.5839 11.9987C15.733 11.7233 14.856 11.6127 13.9851 11.6633C13.0543 11.7119 12.1851 12.1256 11.5492 12.7354C11.4791 12.8025 11.41 12.8738 11.3455 12.9465C11.3108 12.986 11.293 13.0394 11.2947 13.0935C11.2965 13.1478 11.3175 13.1984 11.3546 13.2355C11.3918 13.2727 11.4424 13.2937 11.4966 13.2955C11.5508 13.2972 11.6041 13.2793 11.6437 13.2446C11.7071 13.1894 11.7757 13.1349 11.8445 13.0843C12.4757 12.6187 13.2466 12.3814 13.9851 12.439C14.7514 12.4917 15.5101 12.693 16.1834 13.0122C16.2582 13.0481 16.3318 13.0856 16.3984 13.1232C16.5295 13.195 16.6806 13.2094 16.8208 13.1583C16.9609 13.1075 17.0788 12.9953 17.1459 12.8514C17.2131 12.7075 17.2235 12.5452 17.1725 12.4051C17.1216 12.2648 17.0134 12.1582 16.8742 12.1039C16.7759 12.0645 16.6802 12.0306 16.5839 11.9987Z" fill="#231F20"/>
<path d="M3.22349 13.3369C4.40529 13.3694 5.22748 14.1068 5.856 14.8954C6.48686 14.1046 7.31347 13.3657 8.49982 13.3369C8.50206 13.3369 8.50433 13.3369 8.50657 13.3369C9.69035 13.3676 10.5142 14.106 11.1436 14.8955C11.7744 14.1046 12.601 13.3652 13.7876 13.3369C13.7882 13.3369 13.7889 13.3369 13.7895 13.3369C14.7122 13.3364 15.5247 13.8035 16.0831 14.3898C16.3262 14.6456 16.534 14.9226 16.6979 15.2461C16.732 15.3183 16.7447 15.4011 16.727 15.4803C16.7094 15.5596 16.6636 15.6283 16.5981 15.6726C16.5325 15.7168 16.4514 15.7336 16.3713 15.7203C16.2912 15.707 16.2194 15.6641 16.1651 15.6054C15.9717 15.4082 15.7383 15.2217 15.5031 15.0631C14.951 14.6912 14.3553 14.4594 13.7889 14.4617C13.7885 14.4617 13.788 14.4617 13.7876 14.4617C13.0077 14.4415 11.9709 14.8258 11.4101 15.6054L11.277 15.8028C11.2133 15.8973 11.0743 15.8973 11.0106 15.8028L10.8774 15.6054C10.3175 14.8271 9.2826 14.4436 8.50406 14.4617C8.50266 14.4617 8.50122 14.4617 8.49982 14.4617C7.71983 14.4409 6.68317 14.8259 6.12244 15.6054L5.98921 15.8029C5.92551 15.8973 5.7865 15.8973 5.7228 15.8029L5.58957 15.6054C5.03042 14.8281 3.9969 14.4449 3.21925 14.4617C3.21686 14.4617 3.21442 14.4617 3.21203 14.4617C2.64524 14.4587 2.04885 14.6905 1.49635 15.0628C1.26125 15.2215 1.02792 15.4081 0.834652 15.6054C0.780436 15.6641 0.70848 15.7071 0.628313 15.7204C0.548194 15.7338 0.467139 15.7169 0.401574 15.6727C0.336021 15.6285 0.290227 15.5596 0.272592 15.4803C0.254914 15.401 0.267649 15.3183 0.301778 15.2461C0.465737 14.9227 0.673749 14.6459 0.916874 14.3901C1.47564 13.8036 2.28862 13.3362 3.21203 13.3369C3.21583 13.3369 3.21969 13.3369 3.22349 13.3369Z" fill="#231F20"/>
<path d="M16.4757 2.85254C16.8085 2.85254 17.0782 3.12231 17.0782 3.45508C17.0782 3.78786 16.8085 4.05763 16.4757 4.05763H0.809575C0.476799 4.05763 0.207031 3.78786 0.207031 3.45508C0.207031 3.12231 0.476799 2.85254 0.809575 2.85254H16.4757Z" fill="#231F20"/>
<path d="M8 11.5688V0.642713C8 0.287752 8.28775 0 8.64271 0C8.99767 0 9.28543 0.287752 9.28543 0.642713V11.5688C9.28543 11.9238 8.99767 12.2115 8.64271 12.2115C8.28775 12.2115 8 11.9238 8 11.5688Z" fill="#231F20"/>
<path d="M8.95461 5.0752C8.83007 4.99597 8.67925 4.96711 8.53409 4.99675C8.38896 5.02636 8.26162 5.11173 8.17978 5.23447C8.09794 5.35723 8.06797 5.50773 8.09646 5.65311C8.12495 5.79849 8.20971 5.92655 8.33073 6.01103C8.5479 6.16174 8.77222 6.29433 8.99776 6.41413C10.3471 7.10761 11.7957 7.51291 13.3425 7.54218C13.8466 7.54031 14.3645 7.54611 14.8967 7.49903C14.5337 8.22558 14.0245 8.90116 13.4274 9.37601C12.9155 9.77832 12.3611 10.1123 11.7735 10.3443C11.575 10.4229 11.3741 10.4889 11.1621 10.5475C10.9978 10.5931 10.8584 10.7023 10.7745 10.8507C10.6906 10.999 10.6691 11.1746 10.7147 11.3388C10.7603 11.5031 10.8695 11.6425 11.0179 11.7264C11.1662 11.8102 11.3418 11.8318 11.506 11.7862C11.7503 11.7189 12.004 11.6358 12.246 11.5398C12.9674 11.2548 13.6279 10.8535 14.2217 10.3868C15.3763 9.44301 16.1072 8.23383 16.5335 6.83701L16.6835 6.28678C16.7493 6.04523 16.5259 5.82448 16.2852 5.89326L15.7368 6.04994C15.0286 6.25927 14.1929 6.26382 13.3425 6.27558C12.0608 6.27576 10.703 5.94195 9.52013 5.38542C9.32337 5.2906 9.13105 5.18671 8.95461 5.0752Z" fill="#231F20"/>
<path d="M8.33054 5.0752C8.45508 4.99597 8.6059 4.96711 8.75107 4.99675C8.8962 5.02636 9.02354 5.11173 9.10538 5.23447C9.18722 5.35723 9.21719 5.50773 9.1887 5.65311C9.16021 5.79849 9.07545 5.92655 8.95443 6.01103C8.73726 6.16174 8.51293 6.29433 8.28739 6.41413C6.93809 7.10761 5.4895 7.51291 3.94265 7.54218C3.43853 7.54031 2.92063 7.54611 2.38843 7.49903C2.75143 8.22558 3.26069 8.90116 3.85776 9.37601C4.36963 9.77832 4.92403 10.1123 5.51161 10.3443C5.71012 10.4229 5.91102 10.4889 6.1231 10.5475C6.28734 10.5931 6.4268 10.7023 6.51067 10.8507C6.59451 10.999 6.61605 11.1746 6.57046 11.3388C6.52483 11.5031 6.4157 11.6425 6.2673 11.7264C6.11894 11.8102 5.94335 11.8318 5.77915 11.7862C5.53491 11.7189 5.28114 11.6358 5.03915 11.5398C4.31772 11.2548 3.65728 10.8535 3.06347 10.3868C1.90888 9.44301 1.17793 8.23383 0.751677 6.83701L0.601664 6.28678C0.535807 6.04523 0.759255 5.82448 0.999993 5.89326L1.54832 6.04994C2.25656 6.25927 3.09227 6.26382 3.94265 6.27558C5.22433 6.27576 6.5822 5.94195 7.76503 5.38542C7.96179 5.2906 8.15411 5.18671 8.33054 5.0752Z" fill="#231F20"/>
</svg>
