<svg width="16" height="16" viewBox="0 0 16 16" fill="none" xmlns="http://www.w3.org/2000/svg">
<path fill-rule="evenodd" clip-rule="evenodd" d="M12.7224 1.54195C14.1921 2.61873 15.2804 4.18519 15.7477 6.00072H13.0973C12.706 5.00374 12.0305 4.14961 11.1707 3.53769C10.2757 2.90077 9.18117 2.52627 7.99987 2.52627C5.41166 2.52627 3.24332 4.32274 2.67306 6.73673H3.68744L6.10516 4.31901L7.99987 6.21371L9.89457 4.31901L12.3123 6.73673H13.327H15.9006C15.9658 7.14817 15.9997 7.57006 15.9997 7.99987C15.9997 12.4181 12.4181 15.9997 7.99987 15.9997C7.75996 15.9997 7.52254 15.9892 7.28803 15.9685C3.87707 15.6678 1.08296 13.2271 0.252052 9.99901H2.9024C3.29369 10.996 3.96926 11.8501 4.82906 12.462C5.72401 13.099 6.81856 13.4735 7.99987 13.4735C10.5881 13.4735 12.7564 11.677 13.3267 9.263H11.2663L9.89457 7.89131L7.99987 9.78602L6.10516 7.89131L4.73347 9.263H2.67274H0.0991577C0.033895 8.85156 0 8.42967 0 7.99987C0 3.58166 3.58166 0 7.99987 0C9.76671 0 11.3991 0.572515 12.7224 1.54195Z" fill="#231F20"/>
<path fill-rule="evenodd" clip-rule="evenodd" d="M11.1707 3.53769C10.276 2.90082 9.18169 2.52627 7.99987 2.52627C4.97688 2.52627 2.52627 4.97688 2.52627 7.99987C2.52627 8.43461 2.57696 8.85752 2.67274 9.263H0.0991577C0.033895 8.85156 0 8.42967 0 7.99987C0 3.58166 3.58166 0 7.99987 0C9.7662 0 11.3988 0.572452 12.7224 1.54195C12.7453 1.55877 12.7682 1.57572 12.791 1.59278L12.8183 1.61334C14.2394 2.6874 15.2906 4.22492 15.7477 6.00072H13.0973C12.7178 5.03358 12.0707 4.20087 11.2474 3.59329C11.2226 3.57501 11.1958 3.55557 11.1707 3.53769ZM13.327 6.73673C13.4228 7.14221 13.4735 7.56512 13.4735 7.99987C13.4735 11.0228 11.0228 13.4735 7.99987 13.4735C6.81804 13.4735 5.7237 13.0989 4.82906 12.462C4.81288 12.4505 4.79676 12.4389 4.7807 12.4272L4.75345 12.4072C4.65298 12.3331 4.55515 12.2556 4.46009 12.175C3.77572 11.5944 3.23584 10.8486 2.9024 9.99901H0.252052C0.926974 12.6223 2.89893 14.7251 5.44367 15.5826C6.03092 15.7805 6.64867 15.9121 7.28803 15.9685C7.52254 15.9892 7.75996 15.9997 7.99987 15.9997C12.4181 15.9997 15.9997 12.4181 15.9997 7.99987C15.9997 7.57006 15.9658 7.14817 15.9006 6.73673H13.327Z" fill="#231F20"/>
</svg>
