<svg width="22" height="16" viewBox="0 0 22 16" fill="none" xmlns="http://www.w3.org/2000/svg">
<rect x="8.94092" y="14.4316" width="3.29406" height="1.5686" fill="#231F20"/>
<rect x="2.35303" width="7.21557" height="1.5686" fill="#231F20"/>
<rect x="11.6074" width="7.21557" height="1.5686" fill="#231F20"/>
<rect x="9.56836" y="7.5293" width="2.03918" height="7.68615" fill="#231F20"/>
<path d="M5.96045 1.56934H8.31335L11.6074 9.25548H9.56823L5.96045 1.56934Z" fill="#231F20"/>
<path d="M15.2153 1.56934H12.8624L9.56837 9.25548H11.6075L15.2153 1.56934Z" fill="#231F20"/>
<path d="M3.76464 3.1377H5.91266L6.64894 4.7063H3.76464C1.41174 4.7063 0.54901 7.8435 0.54901 9.4121C0.54901 10.4317 0.705871 11.2944 0.941161 12.0003C0.888874 11.5297 0.784301 10.3533 0.784301 9.4121C0.862731 7.97422 1.61566 5.09845 3.68621 5.09845H6.83301L7.5693 6.66705H3.68621C1.86664 6.66705 1.25488 8.9076 1.25488 10.3533C1.25488 11.1062 1.33331 12.0003 1.64703 12.5493C1.49017 11.8434 1.49017 11.2944 1.49017 10.3533C1.49017 8.15722 3.05877 7.0592 3.60778 7.0592H7.75337L8.48965 8.6278H3.60778C2.03918 8.6278 2.03918 10.8238 2.03918 11.6081C2.03918 12.2356 2.19604 14.7453 5.17638 14.7453H6.74498C6.99596 14.7453 7.0587 14.5362 7.05871 14.4316V13.4905C7.05871 13.2395 6.84956 13.1767 6.74498 13.1767H4.7058C3.57641 13.1767 3.29406 12.2356 3.29406 11.765V10.4317C3.29406 9.96111 3.57641 9.01995 4.7058 9.01995H8.78417V10.5886H5.17638C4.92541 10.5886 4.86266 10.7977 4.86266 10.9023V11.6081C4.86266 11.8591 5.07181 11.9219 5.17638 11.9219H7.21557C8.34496 11.9219 8.62731 12.863 8.62731 13.3336V14.5885C8.62731 15.0591 8.34496 16.0002 7.21557 16.0002H5.17638C3.05877 16.0002 2.82348 15.5296 2.19604 15.0591C1.5686 14.5885 0 12.4709 0 9.4121C0 6.82391 1.0039 3.1377 3.76464 3.1377Z" fill="#231F20"/>
<path fill-rule="evenodd" clip-rule="evenodd" d="M15.4203 3.1377H17.5684C20.3291 3.1377 21.333 6.82391 21.333 9.4121C21.333 12.4709 19.7644 14.5885 19.137 15.0591C19.0506 15.1239 18.9716 15.1887 18.8941 15.2522C18.409 15.6503 17.9826 16.0002 16.1566 16.0002H14.1174H12.5488V10.5886V9.01995H16.1566C17.286 9.01995 18.0389 9.88268 18.0389 10.9023V13.3336C18.0389 13.684 17.8824 14.2954 17.3361 14.5848C19.1813 14.0213 19.2938 12.1396 19.2938 11.6081C19.2938 10.8238 19.2938 8.6278 17.7252 8.6278H12.8434L13.5796 7.0592H17.7252C18.2742 7.0592 19.8428 8.15722 19.8428 10.3533C19.8428 11.2944 19.8428 11.8434 19.686 12.5493C19.9997 12.0003 20.0781 11.1062 20.0781 10.3533C20.0781 8.9076 19.4664 6.66705 17.6468 6.66705H13.7637L14.5 5.09845H17.6468C19.7173 5.09845 20.4703 7.97422 20.5487 9.4121C20.5487 10.3533 20.4441 11.5297 20.3918 12.0003C20.6271 11.2944 20.784 10.4317 20.784 9.4121C20.784 7.8435 19.9213 4.7063 17.5684 4.7063H14.6841L15.4203 3.1377ZM14.1174 14.7453H15.2155H16.1566C16.322 14.7453 16.4787 14.7376 16.6272 14.7229L16.4703 13.3336V11.216C16.4703 10.8238 16.2351 10.5886 15.8429 10.5886H14.1174V14.7453Z" fill="#231F20"/>
<path d="M16.6272 14.7229C16.4787 14.7376 16.322 14.7453 16.1566 14.7453H15.2155C15.8429 14.7453 16.4703 13.961 16.4703 13.3336L16.6272 14.7229Z" fill="#231F20"/>
</svg>
