<svg width="26" height="29" viewBox="0 0 26 29" fill="none" xmlns="http://www.w3.org/2000/svg">
<path d="M24 0C24.5523 0 25 0.447715 25 1C25 1.55228 24.5523 2 24 2H2C1.44772 2 1 1.55228 1 1C1 0.447715 1.44772 0 2 0H24Z" fill="#231F20"/>
<path d="M24 8C24.5523 8 25 8.44772 25 9C25 9.55228 24.5523 10 24 10H2C1.44772 10 1 9.55228 1 9C1 8.44772 1.44772 8 2 8H24Z" fill="#231F20"/>
<path d="M24 16C24.5523 16 25 16.4477 25 17C25 17.5523 24.5523 18 24 18H2C1.44772 18 1 17.5523 1 17C1 16.4477 1.44772 16 2 16H24Z" fill="#231F20"/>
<path d="M3.46697 28.128C2.95497 28.128 2.5043 28.0107 2.11497 27.776C1.72564 27.536 1.42163 27.1947 1.20297 26.752C0.984302 26.3093 0.874968 25.7813 0.874968 25.168C0.874968 24.56 0.981635 24.0347 1.19497 23.592C1.41363 23.144 1.71763 22.8 2.10697 22.56C2.4963 22.3147 2.9523 22.192 3.47497 22.192C4.17897 22.192 4.72564 22.368 5.11497 22.72C5.5043 23.072 5.75764 23.56 5.87497 24.184L4.97097 24.232C4.8963 23.8427 4.7363 23.5387 4.49097 23.32C4.24564 23.096 3.90697 22.984 3.47497 22.984C3.1283 22.984 2.82697 23.072 2.57097 23.248C2.3203 23.424 2.12297 23.6747 1.97897 24C1.8403 24.3253 1.77097 24.7147 1.77097 25.168C1.77097 25.6213 1.8403 26.0107 1.97897 26.336C2.12297 26.6613 2.32297 26.9093 2.57897 27.08C2.83497 27.2507 3.13097 27.336 3.46697 27.336C3.92564 27.336 4.2803 27.216 4.53097 26.976C4.78697 26.7307 4.94697 26.3947 5.01097 25.968L5.91497 26.016C5.84564 26.448 5.70697 26.8213 5.49897 27.136C5.29097 27.4507 5.0163 27.696 4.67497 27.872C4.33364 28.0427 3.93097 28.128 3.46697 28.128ZM6.60378 28V22.32H7.46778V27.68L7.01178 27.208H10.2358V28H6.60378ZM12.957 28.128C12.4077 28.128 11.9357 28.0107 11.541 27.776C11.1464 27.536 10.8424 27.1947 10.629 26.752C10.4157 26.3093 10.309 25.7813 10.309 25.168C10.309 24.5547 10.4157 24.0267 10.629 23.584C10.8424 23.136 11.1464 22.792 11.541 22.552C11.9357 22.312 12.4077 22.192 12.957 22.192C13.5117 22.192 13.9864 22.312 14.381 22.552C14.781 22.792 15.085 23.136 15.293 23.584C15.5064 24.0267 15.613 24.5547 15.613 25.168C15.613 25.7813 15.5064 26.3093 15.293 26.752C15.085 27.1947 14.781 27.536 14.381 27.776C13.9864 28.0107 13.5117 28.128 12.957 28.128ZM12.957 27.336C13.325 27.336 13.6397 27.2507 13.901 27.08C14.1677 26.9093 14.3704 26.664 14.509 26.344C14.6477 26.0187 14.717 25.6267 14.717 25.168C14.717 24.7093 14.6477 24.3173 14.509 23.992C14.3704 23.6667 14.1677 23.4187 13.901 23.248C13.6397 23.072 13.325 22.984 12.957 22.984C12.5944 22.984 12.2824 23.072 12.021 23.248C11.7597 23.4187 11.557 23.6667 11.413 23.992C11.2744 24.3173 11.205 24.7093 11.205 25.168C11.205 25.6267 11.2744 26.0187 11.413 26.344C11.557 26.664 11.7597 26.9093 12.021 27.08C12.2824 27.2507 12.5944 27.336 12.957 27.336ZM18.4608 28.128C18.0075 28.128 17.6128 28.0453 17.2768 27.88C16.9462 27.7147 16.6848 27.4853 16.4928 27.192C16.3008 26.8987 16.1888 26.5573 16.1568 26.168L17.0448 26.112C17.0822 26.3787 17.1595 26.6053 17.2768 26.792C17.3942 26.9733 17.5515 27.112 17.7488 27.208C17.9515 27.2987 18.1942 27.344 18.4768 27.344C18.7222 27.344 18.9302 27.3147 19.1008 27.256C19.2768 27.192 19.4102 27.0987 19.5008 26.976C19.5915 26.8533 19.6368 26.704 19.6368 26.528C19.6368 26.368 19.5968 26.2267 19.5168 26.104C19.4422 25.976 19.2955 25.8613 19.0768 25.76C18.8635 25.6533 18.5488 25.5493 18.1328 25.448C17.6795 25.336 17.3168 25.2133 17.0448 25.08C16.7728 24.9467 16.5755 24.7813 16.4528 24.584C16.3355 24.3813 16.2768 24.1333 16.2768 23.84C16.2768 23.5147 16.3542 23.2293 16.5088 22.984C16.6688 22.7333 16.8955 22.5387 17.1888 22.4C17.4822 22.2613 17.8342 22.192 18.2448 22.192C18.6768 22.192 19.0448 22.272 19.3488 22.432C19.6582 22.592 19.9008 22.8107 20.0768 23.088C20.2582 23.3653 20.3702 23.6827 20.4128 24.04L19.5248 24.088C19.4982 23.8693 19.4315 23.6773 19.3248 23.512C19.2182 23.3413 19.0742 23.2107 18.8928 23.12C18.7115 23.024 18.4902 22.976 18.2288 22.976C17.8982 22.976 17.6368 23.0533 17.4448 23.208C17.2582 23.3573 17.1648 23.5573 17.1648 23.808C17.1648 23.968 17.2022 24.104 17.2768 24.216C17.3568 24.3227 17.4955 24.416 17.6928 24.496C17.8955 24.576 18.1808 24.6613 18.5488 24.752C19.0395 24.864 19.4288 25.0027 19.7168 25.168C20.0102 25.328 20.2182 25.5173 20.3408 25.736C20.4635 25.9547 20.5248 26.2027 20.5248 26.48C20.5248 26.816 20.4368 27.1093 20.2608 27.36C20.0902 27.6053 19.8502 27.7947 19.5408 27.928C19.2315 28.0613 18.8715 28.128 18.4608 28.128ZM21.29 28V22.32H24.986V23.112H22.154V24.768H24.89V25.536H22.154V27.208H25.05V28H21.29Z" fill="#231F20"/>
</svg>
