<svg width="329" height="267" viewBox="0 0 329 267" fill="none" xmlns="http://www.w3.org/2000/svg">
<mask id="mask0_884_2356" style="mask-type:alpha" maskUnits="userSpaceOnUse" x="7" y="8" width="252" height="164">
<path d="M257 170.164L106.373 19.5366C100.371 13.5355 92.2321 10.1641 83.7452 10.1641H7" stroke="url(#paint0_radial_884_2356)" stroke-width="4"/>
</mask>
<g mask="url(#mask0_884_2356)">
<path d="M257 170.164L106.373 19.5366C100.371 13.5355 92.2321 10.1641 83.7452 10.1641H-13" stroke="#717171" stroke-width="4"/>
<path d="M257 170.164L106.373 19.5366C100.371 13.5355 92.2321 10.1641 83.7452 10.1641H-13" stroke="white" stroke-width="2" stroke-dasharray="10 10"/>
</g>
<path d="M197 110.164L176.373 89.5366C170.371 83.5355 167 75.3962 167 66.9092V34.1641C167 20.9092 177.745 10.1641 191 10.1641H287.5" stroke="#717171" stroke-width="4"/>
<path d="M197 110.164L176.373 89.5366C170.371 83.5355 167 75.3962 167 66.9092V34.1641C167 20.9092 177.745 10.1641 191 10.1641H287.5" stroke="white" stroke-width="2" stroke-dasharray="10 10"/>
<rect x="193" y="106.164" width="8" height="8" rx="4" fill="white"/>
<rect x="193" y="106.164" width="8" height="8" rx="4" stroke="#717171" stroke-width="2"/>
<rect x="283" y="6.16406" width="8" height="8" rx="4" fill="white"/>
<rect x="283" y="6.16406" width="8" height="8" rx="4" stroke="#717171" stroke-width="2"/>
<path d="M162.6 119.896C161.768 119.048 161.104 118.14 160.608 117.172C160.12 116.196 159.756 115.092 159.516 113.86C159.284 112.62 159.152 111.148 159.12 109.444L160.092 109.384C160.124 111.024 160.244 112.424 160.452 113.584C160.66 114.736 160.988 115.756 161.436 116.644C161.892 117.532 162.508 118.356 163.284 119.116L162.6 119.896ZM152.376 119.164C153.072 118.428 153.632 117.62 154.056 116.74C154.488 115.86 154.808 114.84 155.016 113.68C155.224 112.52 155.336 111.144 155.352 109.552L156.324 109.636C156.292 111.308 156.16 112.76 155.928 113.992C155.696 115.224 155.348 116.316 154.884 117.268C154.42 118.22 153.808 119.096 153.048 119.896L152.376 119.164ZM168.48 117.064C169.464 116.36 170.192 115.64 170.664 114.904C171.144 114.16 171.424 113.292 171.504 112.3H168.708V111.436H171.528V109.204H172.476V111.436H175.656V112.3H172.464C172.432 112.876 172.332 113.436 172.164 113.98L172.236 114.04L172.464 113.848C172.52 113.792 172.588 113.764 172.668 113.764C172.788 113.764 172.904 113.828 173.016 113.956L175.728 117.268L174.972 117.916L172.224 114.52C172.176 114.456 172.124 114.424 172.068 114.424C172.028 114.424 171.988 114.456 171.948 114.52C171.708 115.128 171.348 115.704 170.868 116.248C170.396 116.792 169.796 117.332 169.068 117.868L168.48 117.064ZM167.52 112.072C167.256 111.704 166.94 111.308 166.572 110.884C166.204 110.46 165.868 110.108 165.564 109.828L166.26 109.24C166.556 109.528 166.888 109.884 167.256 110.308C167.632 110.732 167.956 111.132 168.228 111.508L167.52 112.072ZM176.028 118.924L175.86 119.788H170.856C170.232 119.788 169.728 119.748 169.344 119.668C168.96 119.588 168.64 119.468 168.384 119.308C168.136 119.156 167.872 118.936 167.592 118.648C167.496 118.544 167.416 118.476 167.352 118.444C167.296 118.404 167.236 118.384 167.172 118.384C167.06 118.384 166.884 118.504 166.644 118.744C166.404 118.984 166.06 119.384 165.612 119.944L164.952 119.284C165.68 118.34 166.268 117.776 166.716 117.592V114.04H165.024V113.2H167.64V117.64C167.744 117.696 167.864 117.796 168 117.94C168.232 118.196 168.456 118.392 168.672 118.528C168.888 118.664 169.16 118.764 169.488 118.828C169.824 118.892 170.268 118.924 170.82 118.924H176.028ZM180.204 117.316L180.984 117.256V110.62H181.74V118.756H180.984V118.06L177.888 118.3V110.62H178.644V117.436L179.412 117.376V109.132H180.204V117.316ZM185.736 109.156C185.936 109.804 186.28 110.464 186.768 111.136C187.264 111.808 187.904 112.48 188.688 113.152L188.184 113.896C187.352 113.176 186.692 112.472 186.204 111.784C185.716 111.088 185.404 110.392 185.268 109.696H185.196C185.06 110.44 184.772 111.156 184.332 111.844C183.9 112.532 183.292 113.224 182.508 113.92L182.004 113.164C183.42 111.956 184.332 110.62 184.74 109.156H185.736ZM185.856 114.256C185.384 113.664 184.88 113.104 184.344 112.576L184.92 112.036C185.456 112.588 185.956 113.152 186.42 113.728L185.856 114.256ZM182.664 115.396V114.616H187.872V115.276C187.288 116.348 186.608 117.392 185.832 118.408C186.184 118.736 186.584 119.128 187.032 119.584L186.42 120.172C185.612 119.252 184.484 118.208 183.036 117.04L183.6 116.464C184.088 116.848 184.624 117.3 185.208 117.82C185.752 117.132 186.296 116.324 186.84 115.396H182.664Z" fill="#231F20"/>
<path d="M161.541 128.164V123.194H163.249C163.837 123.194 164.278 123.301 164.572 123.516C164.866 123.731 165.013 124.069 165.013 124.531C165.013 124.746 164.967 124.935 164.873 125.098C164.78 125.261 164.647 125.39 164.474 125.483C164.302 125.572 164.096 125.616 163.858 125.616L163.851 125.574C164.276 125.574 164.61 125.688 164.852 125.917C165.1 126.141 165.223 126.435 165.223 126.799C165.223 127.252 165.076 127.592 164.782 127.821C164.488 128.05 164.071 128.164 163.529 128.164H161.541ZM162.143 127.576H163.529C163.87 127.576 164.131 127.506 164.313 127.366C164.5 127.226 164.593 127.025 164.593 126.764C164.593 126.503 164.5 126.3 164.313 126.155C164.131 126.006 163.87 125.931 163.529 125.931H162.143V127.576ZM162.143 125.343H163.249C163.613 125.343 163.893 125.275 164.089 125.14C164.285 125 164.383 124.806 164.383 124.559C164.383 124.298 164.288 124.104 164.096 123.978C163.91 123.847 163.627 123.782 163.249 123.782H162.143V125.343ZM167.162 128.248C166.779 128.248 166.473 128.159 166.245 127.982C166.021 127.805 165.909 127.557 165.909 127.24C165.909 126.923 166.002 126.673 166.189 126.491C166.375 126.309 166.672 126.181 167.078 126.106L168.394 125.861C168.394 125.548 168.319 125.315 168.17 125.161C168.025 125.007 167.806 124.93 167.512 124.93C167.255 124.93 167.052 124.988 166.903 125.105C166.753 125.217 166.651 125.38 166.595 125.595L165.972 125.546C166.042 125.196 166.21 124.914 166.476 124.699C166.746 124.48 167.092 124.37 167.512 124.37C167.988 124.37 168.352 124.505 168.604 124.776C168.856 125.042 168.982 125.411 168.982 125.882V127.415C168.982 127.499 168.996 127.56 169.024 127.597C169.056 127.63 169.108 127.646 169.178 127.646H169.325V128.164C169.306 128.169 169.276 128.171 169.234 128.171C169.192 128.176 169.147 128.178 169.101 128.178C168.933 128.178 168.795 128.152 168.688 128.101C168.585 128.045 168.51 127.961 168.464 127.849C168.417 127.732 168.394 127.581 168.394 127.394L168.464 127.408C168.431 127.567 168.352 127.711 168.226 127.842C168.1 127.968 167.943 128.068 167.757 128.143C167.57 128.213 167.372 128.248 167.162 128.248ZM167.218 127.73C167.465 127.73 167.675 127.683 167.848 127.59C168.025 127.492 168.16 127.361 168.254 127.198C168.347 127.03 168.394 126.843 168.394 126.638V126.372L167.19 126.596C166.938 126.643 166.763 126.715 166.665 126.813C166.571 126.906 166.525 127.03 166.525 127.184C166.525 127.357 166.585 127.492 166.707 127.59C166.833 127.683 167.003 127.73 167.218 127.73ZM171.291 128.248C170.969 128.248 170.689 128.169 170.451 128.01C170.218 127.851 170.038 127.627 169.912 127.338C169.786 127.049 169.723 126.706 169.723 126.309C169.723 125.912 169.786 125.569 169.912 125.28C170.038 124.991 170.218 124.767 170.451 124.608C170.689 124.449 170.969 124.37 171.291 124.37C171.538 124.37 171.765 124.424 171.97 124.531C172.175 124.634 172.329 124.781 172.432 124.972V123.194H173.02V128.164H172.488L172.467 127.604C172.364 127.805 172.208 127.963 171.998 128.08C171.788 128.192 171.552 128.248 171.291 128.248ZM171.41 127.688C171.629 127.688 171.814 127.632 171.963 127.52C172.117 127.408 172.234 127.249 172.313 127.044C172.392 126.834 172.432 126.589 172.432 126.309C172.432 126.02 172.392 125.772 172.313 125.567C172.234 125.362 172.117 125.205 171.963 125.098C171.814 124.986 171.629 124.93 171.41 124.93C171.083 124.93 170.822 125.054 170.626 125.301C170.435 125.544 170.339 125.88 170.339 126.309C170.339 126.734 170.435 127.07 170.626 127.317C170.822 127.564 171.083 127.688 171.41 127.688ZM175.071 128.248C174.688 128.248 174.382 128.159 174.154 127.982C173.93 127.805 173.818 127.557 173.818 127.24C173.818 126.923 173.911 126.673 174.098 126.491C174.284 126.309 174.581 126.181 174.987 126.106L176.303 125.861C176.303 125.548 176.228 125.315 176.079 125.161C175.934 125.007 175.715 124.93 175.421 124.93C175.164 124.93 174.961 124.988 174.812 125.105C174.662 125.217 174.56 125.38 174.504 125.595L173.881 125.546C173.951 125.196 174.119 124.914 174.385 124.699C174.655 124.48 175.001 124.37 175.421 124.37C175.897 124.37 176.261 124.505 176.513 124.776C176.765 125.042 176.891 125.411 176.891 125.882V127.415C176.891 127.499 176.905 127.56 176.933 127.597C176.965 127.63 177.017 127.646 177.087 127.646H177.234V128.164C177.215 128.169 177.185 128.171 177.143 128.171C177.101 128.176 177.056 128.178 177.01 128.178C176.842 128.178 176.704 128.152 176.597 128.101C176.494 128.045 176.419 127.961 176.373 127.849C176.326 127.732 176.303 127.581 176.303 127.394L176.373 127.408C176.34 127.567 176.261 127.711 176.135 127.842C176.009 127.968 175.852 128.068 175.666 128.143C175.479 128.213 175.281 128.248 175.071 128.248ZM175.127 127.73C175.374 127.73 175.584 127.683 175.757 127.59C175.934 127.492 176.069 127.361 176.163 127.198C176.256 127.03 176.303 126.843 176.303 126.638V126.372L175.099 126.596C174.847 126.643 174.672 126.715 174.574 126.813C174.48 126.906 174.434 127.03 174.434 127.184C174.434 127.357 174.494 127.492 174.616 127.59C174.742 127.683 174.912 127.73 175.127 127.73ZM178.585 128.164C178.37 128.164 178.195 128.108 178.06 127.996C177.925 127.884 177.857 127.707 177.857 127.464V123.194H178.445V127.415C178.445 127.49 178.464 127.548 178.501 127.59C178.543 127.627 178.601 127.646 178.676 127.646H178.998V128.164H178.585ZM179.668 128.164V124.454H180.256V128.164H179.668ZM179.654 123.873V123.187H180.27V123.873H179.654ZM181.418 128.164V124.454H181.957L181.978 125.399L181.908 125.336C181.955 125.117 182.037 124.937 182.153 124.797C182.27 124.652 182.41 124.545 182.573 124.475C182.741 124.405 182.921 124.37 183.112 124.37C183.397 124.37 183.63 124.433 183.812 124.559C183.999 124.685 184.137 124.855 184.225 125.07C184.319 125.28 184.365 125.516 184.365 125.777V128.164H183.777V125.945C183.777 125.716 183.749 125.525 183.693 125.371C183.642 125.212 183.558 125.093 183.441 125.014C183.325 124.93 183.173 124.888 182.986 124.888C182.702 124.888 182.466 124.979 182.279 125.161C182.097 125.338 182.006 125.6 182.006 125.945V128.164H181.418ZM186.811 129.298C186.545 129.298 186.304 129.254 186.09 129.165C185.875 129.076 185.695 128.95 185.551 128.787C185.406 128.624 185.308 128.435 185.257 128.22L185.873 128.178C185.929 128.351 186.027 128.486 186.167 128.584C186.311 128.687 186.526 128.738 186.811 128.738C187.147 128.738 187.403 128.67 187.581 128.535C187.763 128.4 187.854 128.197 187.854 127.926V127.324C187.765 127.52 187.623 127.676 187.427 127.793C187.231 127.91 187.011 127.968 186.769 127.968C186.456 127.968 186.176 127.891 185.929 127.737C185.686 127.583 185.495 127.371 185.355 127.1C185.219 126.829 185.152 126.519 185.152 126.169C185.152 125.814 185.219 125.504 185.355 125.238C185.49 124.967 185.677 124.755 185.915 124.601C186.157 124.447 186.433 124.37 186.741 124.37C187.002 124.37 187.235 124.431 187.441 124.552C187.651 124.673 187.798 124.837 187.882 125.042V124.454H188.442V127.912C188.442 128.201 188.376 128.449 188.246 128.654C188.115 128.864 187.928 129.023 187.686 129.13C187.443 129.242 187.151 129.298 186.811 129.298ZM186.797 127.408C187.114 127.408 187.368 127.298 187.56 127.079C187.751 126.855 187.849 126.552 187.854 126.169C187.858 125.912 187.816 125.693 187.728 125.511C187.644 125.324 187.52 125.182 187.357 125.084C187.198 124.981 187.011 124.93 186.797 124.93C186.47 124.93 186.216 125.042 186.034 125.266C185.856 125.485 185.768 125.786 185.768 126.169C185.768 126.552 185.859 126.855 186.041 127.079C186.227 127.298 186.479 127.408 186.797 127.408Z" fill="#231F20"/>
<rect x="193" y="106.164" width="8" height="8" rx="4" fill="white"/>
<rect x="193" y="106.164" width="8" height="8" rx="4" stroke="#717171" stroke-width="2"/>
<path d="M162.6 119.896C161.768 119.048 161.104 118.14 160.608 117.172C160.12 116.196 159.756 115.092 159.516 113.86C159.284 112.62 159.152 111.148 159.12 109.444L160.092 109.384C160.124 111.024 160.244 112.424 160.452 113.584C160.66 114.736 160.988 115.756 161.436 116.644C161.892 117.532 162.508 118.356 163.284 119.116L162.6 119.896ZM152.376 119.164C153.072 118.428 153.632 117.62 154.056 116.74C154.488 115.86 154.808 114.84 155.016 113.68C155.224 112.52 155.336 111.144 155.352 109.552L156.324 109.636C156.292 111.308 156.16 112.76 155.928 113.992C155.696 115.224 155.348 116.316 154.884 117.268C154.42 118.22 153.808 119.096 153.048 119.896L152.376 119.164ZM168.48 117.064C169.464 116.36 170.192 115.64 170.664 114.904C171.144 114.16 171.424 113.292 171.504 112.3H168.708V111.436H171.528V109.204H172.476V111.436H175.656V112.3H172.464C172.432 112.876 172.332 113.436 172.164 113.98L172.236 114.04L172.464 113.848C172.52 113.792 172.588 113.764 172.668 113.764C172.788 113.764 172.904 113.828 173.016 113.956L175.728 117.268L174.972 117.916L172.224 114.52C172.176 114.456 172.124 114.424 172.068 114.424C172.028 114.424 171.988 114.456 171.948 114.52C171.708 115.128 171.348 115.704 170.868 116.248C170.396 116.792 169.796 117.332 169.068 117.868L168.48 117.064ZM167.52 112.072C167.256 111.704 166.94 111.308 166.572 110.884C166.204 110.46 165.868 110.108 165.564 109.828L166.26 109.24C166.556 109.528 166.888 109.884 167.256 110.308C167.632 110.732 167.956 111.132 168.228 111.508L167.52 112.072ZM176.028 118.924L175.86 119.788H170.856C170.232 119.788 169.728 119.748 169.344 119.668C168.96 119.588 168.64 119.468 168.384 119.308C168.136 119.156 167.872 118.936 167.592 118.648C167.496 118.544 167.416 118.476 167.352 118.444C167.296 118.404 167.236 118.384 167.172 118.384C167.06 118.384 166.884 118.504 166.644 118.744C166.404 118.984 166.06 119.384 165.612 119.944L164.952 119.284C165.68 118.34 166.268 117.776 166.716 117.592V114.04H165.024V113.2H167.64V117.64C167.744 117.696 167.864 117.796 168 117.94C168.232 118.196 168.456 118.392 168.672 118.528C168.888 118.664 169.16 118.764 169.488 118.828C169.824 118.892 170.268 118.924 170.82 118.924H176.028ZM180.204 117.316L180.984 117.256V110.62H181.74V118.756H180.984V118.06L177.888 118.3V110.62H178.644V117.436L179.412 117.376V109.132H180.204V117.316ZM185.736 109.156C185.936 109.804 186.28 110.464 186.768 111.136C187.264 111.808 187.904 112.48 188.688 113.152L188.184 113.896C187.352 113.176 186.692 112.472 186.204 111.784C185.716 111.088 185.404 110.392 185.268 109.696H185.196C185.06 110.44 184.772 111.156 184.332 111.844C183.9 112.532 183.292 113.224 182.508 113.92L182.004 113.164C183.42 111.956 184.332 110.62 184.74 109.156H185.736ZM185.856 114.256C185.384 113.664 184.88 113.104 184.344 112.576L184.92 112.036C185.456 112.588 185.956 113.152 186.42 113.728L185.856 114.256ZM182.664 115.396V114.616H187.872V115.276C187.288 116.348 186.608 117.392 185.832 118.408C186.184 118.736 186.584 119.128 187.032 119.584L186.42 120.172C185.612 119.252 184.484 118.208 183.036 117.04L183.6 116.464C184.088 116.848 184.624 117.3 185.208 117.82C185.752 117.132 186.296 116.324 186.84 115.396H182.664Z" fill="#231F20"/>
<path d="M161.541 128.164V123.194H163.249C163.837 123.194 164.278 123.301 164.572 123.516C164.866 123.731 165.013 124.069 165.013 124.531C165.013 124.746 164.967 124.935 164.873 125.098C164.78 125.261 164.647 125.39 164.474 125.483C164.302 125.572 164.096 125.616 163.858 125.616L163.851 125.574C164.276 125.574 164.61 125.688 164.852 125.917C165.1 126.141 165.223 126.435 165.223 126.799C165.223 127.252 165.076 127.592 164.782 127.821C164.488 128.05 164.071 128.164 163.529 128.164H161.541ZM162.143 127.576H163.529C163.87 127.576 164.131 127.506 164.313 127.366C164.5 127.226 164.593 127.025 164.593 126.764C164.593 126.503 164.5 126.3 164.313 126.155C164.131 126.006 163.87 125.931 163.529 125.931H162.143V127.576ZM162.143 125.343H163.249C163.613 125.343 163.893 125.275 164.089 125.14C164.285 125 164.383 124.806 164.383 124.559C164.383 124.298 164.288 124.104 164.096 123.978C163.91 123.847 163.627 123.782 163.249 123.782H162.143V125.343ZM167.162 128.248C166.779 128.248 166.473 128.159 166.245 127.982C166.021 127.805 165.909 127.557 165.909 127.24C165.909 126.923 166.002 126.673 166.189 126.491C166.375 126.309 166.672 126.181 167.078 126.106L168.394 125.861C168.394 125.548 168.319 125.315 168.17 125.161C168.025 125.007 167.806 124.93 167.512 124.93C167.255 124.93 167.052 124.988 166.903 125.105C166.753 125.217 166.651 125.38 166.595 125.595L165.972 125.546C166.042 125.196 166.21 124.914 166.476 124.699C166.746 124.48 167.092 124.37 167.512 124.37C167.988 124.37 168.352 124.505 168.604 124.776C168.856 125.042 168.982 125.411 168.982 125.882V127.415C168.982 127.499 168.996 127.56 169.024 127.597C169.056 127.63 169.108 127.646 169.178 127.646H169.325V128.164C169.306 128.169 169.276 128.171 169.234 128.171C169.192 128.176 169.147 128.178 169.101 128.178C168.933 128.178 168.795 128.152 168.688 128.101C168.585 128.045 168.51 127.961 168.464 127.849C168.417 127.732 168.394 127.581 168.394 127.394L168.464 127.408C168.431 127.567 168.352 127.711 168.226 127.842C168.1 127.968 167.943 128.068 167.757 128.143C167.57 128.213 167.372 128.248 167.162 128.248ZM167.218 127.73C167.465 127.73 167.675 127.683 167.848 127.59C168.025 127.492 168.16 127.361 168.254 127.198C168.347 127.03 168.394 126.843 168.394 126.638V126.372L167.19 126.596C166.938 126.643 166.763 126.715 166.665 126.813C166.571 126.906 166.525 127.03 166.525 127.184C166.525 127.357 166.585 127.492 166.707 127.59C166.833 127.683 167.003 127.73 167.218 127.73ZM171.291 128.248C170.969 128.248 170.689 128.169 170.451 128.01C170.218 127.851 170.038 127.627 169.912 127.338C169.786 127.049 169.723 126.706 169.723 126.309C169.723 125.912 169.786 125.569 169.912 125.28C170.038 124.991 170.218 124.767 170.451 124.608C170.689 124.449 170.969 124.37 171.291 124.37C171.538 124.37 171.765 124.424 171.97 124.531C172.175 124.634 172.329 124.781 172.432 124.972V123.194H173.02V128.164H172.488L172.467 127.604C172.364 127.805 172.208 127.963 171.998 128.08C171.788 128.192 171.552 128.248 171.291 128.248ZM171.41 127.688C171.629 127.688 171.814 127.632 171.963 127.52C172.117 127.408 172.234 127.249 172.313 127.044C172.392 126.834 172.432 126.589 172.432 126.309C172.432 126.02 172.392 125.772 172.313 125.567C172.234 125.362 172.117 125.205 171.963 125.098C171.814 124.986 171.629 124.93 171.41 124.93C171.083 124.93 170.822 125.054 170.626 125.301C170.435 125.544 170.339 125.88 170.339 126.309C170.339 126.734 170.435 127.07 170.626 127.317C170.822 127.564 171.083 127.688 171.41 127.688ZM175.071 128.248C174.688 128.248 174.382 128.159 174.154 127.982C173.93 127.805 173.818 127.557 173.818 127.24C173.818 126.923 173.911 126.673 174.098 126.491C174.284 126.309 174.581 126.181 174.987 126.106L176.303 125.861C176.303 125.548 176.228 125.315 176.079 125.161C175.934 125.007 175.715 124.93 175.421 124.93C175.164 124.93 174.961 124.988 174.812 125.105C174.662 125.217 174.56 125.38 174.504 125.595L173.881 125.546C173.951 125.196 174.119 124.914 174.385 124.699C174.655 124.48 175.001 124.37 175.421 124.37C175.897 124.37 176.261 124.505 176.513 124.776C176.765 125.042 176.891 125.411 176.891 125.882V127.415C176.891 127.499 176.905 127.56 176.933 127.597C176.965 127.63 177.017 127.646 177.087 127.646H177.234V128.164C177.215 128.169 177.185 128.171 177.143 128.171C177.101 128.176 177.056 128.178 177.01 128.178C176.842 128.178 176.704 128.152 176.597 128.101C176.494 128.045 176.419 127.961 176.373 127.849C176.326 127.732 176.303 127.581 176.303 127.394L176.373 127.408C176.34 127.567 176.261 127.711 176.135 127.842C176.009 127.968 175.852 128.068 175.666 128.143C175.479 128.213 175.281 128.248 175.071 128.248ZM175.127 127.73C175.374 127.73 175.584 127.683 175.757 127.59C175.934 127.492 176.069 127.361 176.163 127.198C176.256 127.03 176.303 126.843 176.303 126.638V126.372L175.099 126.596C174.847 126.643 174.672 126.715 174.574 126.813C174.48 126.906 174.434 127.03 174.434 127.184C174.434 127.357 174.494 127.492 174.616 127.59C174.742 127.683 174.912 127.73 175.127 127.73ZM178.585 128.164C178.37 128.164 178.195 128.108 178.06 127.996C177.925 127.884 177.857 127.707 177.857 127.464V123.194H178.445V127.415C178.445 127.49 178.464 127.548 178.501 127.59C178.543 127.627 178.601 127.646 178.676 127.646H178.998V128.164H178.585ZM179.668 128.164V124.454H180.256V128.164H179.668ZM179.654 123.873V123.187H180.27V123.873H179.654ZM181.418 128.164V124.454H181.957L181.978 125.399L181.908 125.336C181.955 125.117 182.037 124.937 182.153 124.797C182.27 124.652 182.41 124.545 182.573 124.475C182.741 124.405 182.921 124.37 183.112 124.37C183.397 124.37 183.63 124.433 183.812 124.559C183.999 124.685 184.137 124.855 184.225 125.07C184.319 125.28 184.365 125.516 184.365 125.777V128.164H183.777V125.945C183.777 125.716 183.749 125.525 183.693 125.371C183.642 125.212 183.558 125.093 183.441 125.014C183.325 124.93 183.173 124.888 182.986 124.888C182.702 124.888 182.466 124.979 182.279 125.161C182.097 125.338 182.006 125.6 182.006 125.945V128.164H181.418ZM186.811 129.298C186.545 129.298 186.304 129.254 186.09 129.165C185.875 129.076 185.695 128.95 185.551 128.787C185.406 128.624 185.308 128.435 185.257 128.22L185.873 128.178C185.929 128.351 186.027 128.486 186.167 128.584C186.311 128.687 186.526 128.738 186.811 128.738C187.147 128.738 187.403 128.67 187.581 128.535C187.763 128.4 187.854 128.197 187.854 127.926V127.324C187.765 127.52 187.623 127.676 187.427 127.793C187.231 127.91 187.011 127.968 186.769 127.968C186.456 127.968 186.176 127.891 185.929 127.737C185.686 127.583 185.495 127.371 185.355 127.1C185.219 126.829 185.152 126.519 185.152 126.169C185.152 125.814 185.219 125.504 185.355 125.238C185.49 124.967 185.677 124.755 185.915 124.601C186.157 124.447 186.433 124.37 186.741 124.37C187.002 124.37 187.235 124.431 187.441 124.552C187.651 124.673 187.798 124.837 187.882 125.042V124.454H188.442V127.912C188.442 128.201 188.376 128.449 188.246 128.654C188.115 128.864 187.928 129.023 187.686 129.13C187.443 129.242 187.151 129.298 186.811 129.298ZM186.797 127.408C187.114 127.408 187.368 127.298 187.56 127.079C187.751 126.855 187.849 126.552 187.854 126.169C187.858 125.912 187.816 125.693 187.728 125.511C187.644 125.324 187.52 125.182 187.357 125.084C187.198 124.981 187.011 124.93 186.797 124.93C186.47 124.93 186.216 125.042 186.034 125.266C185.856 125.485 185.768 125.786 185.768 126.169C185.768 126.552 185.859 126.855 186.041 127.079C186.227 127.298 186.479 127.408 186.797 127.408Z" fill="#231F20"/>
<rect x="123" y="36.1641" width="8" height="8" rx="4" fill="white"/>
<rect x="123" y="36.1641" width="8" height="8" rx="4" stroke="#717171" stroke-width="2"/>
<path d="M104.848 39.8761V40.6321H95.632V43.0921C95.632 44.8601 95.556 46.2721 95.404 47.3281C95.26 48.3841 94.984 49.3041 94.576 50.0881L93.808 49.4881C94.184 48.7921 94.436 47.9681 94.564 47.0161C94.7 46.0561 94.768 44.7361 94.768 43.0561V39.8761H99.388C99.244 39.6201 99.096 39.3921 98.944 39.1921L99.76 38.9281C99.944 39.2001 100.128 39.5161 100.312 39.8761H104.848ZM103.996 43.9201V45.5281H100.732C100.828 45.8401 100.968 46.1401 101.152 46.4281C101.336 46.7081 101.588 46.9881 101.908 47.2681C102.684 46.7721 103.32 46.2601 103.816 45.7321L104.416 46.2241C103.872 46.7681 103.232 47.2721 102.496 47.7361C103.088 48.1521 103.888 48.5961 104.896 49.0681L104.476 49.8001C103.54 49.3441 102.8 48.9241 102.256 48.5401C101.72 48.1561 101.328 47.7881 101.08 47.4361C100.84 47.0761 100.68 46.6841 100.6 46.2601H100.516V49.2481C100.516 49.5601 100.444 49.7841 100.3 49.9201C100.156 50.0561 99.928 50.1241 99.616 50.1241H98.452L98.26 49.3681H99.7V47.8201C98.716 48.3801 97.468 48.9481 95.956 49.5241L95.656 48.7681C96.384 48.5281 97.1 48.2561 97.804 47.9521C98.516 47.6401 99.148 47.3201 99.7 46.9921V45.5281H96.496V44.8201H99.7V43.9201H96.052V43.1881H99.7V42.3481H96.568V41.6401H99.688V40.9801H100.528V41.6401H103.996V43.1881H104.92V43.9201H103.996ZM103.168 42.3481H100.516V43.1881H103.168V42.3481ZM100.516 43.9201V44.8201H103.168V43.9201H100.516ZM96.796 45.8521C97.444 46.1321 98.064 46.4881 98.656 46.9201L98.2 47.4841C97.648 47.1001 97.04 46.7561 96.376 46.4521L96.796 45.8521ZM117.412 40.3921V41.2201H108.436V42.9841C108.436 44.5921 108.344 45.9641 108.16 47.1001C107.976 48.2361 107.664 49.2041 107.224 50.0041L106.432 49.3921C106.816 48.6961 107.092 47.8481 107.26 46.8481C107.428 45.8481 107.512 44.5801 107.512 43.0441V40.3921H112.132C111.996 40.1361 111.784 39.8001 111.496 39.3841L112.336 39.0121C112.624 39.4361 112.884 39.8961 113.116 40.3921H117.412ZM116.872 45.3001H113.452V48.8521H117.364V49.6921H108.58V48.8521H112.516V45.3001H109.288V44.4601H112.516V41.9041H113.452V44.4601H116.872V45.3001Z" fill="#231F20"/>
<path d="M78.6811 58.1641V53.1941H79.2831V55.6651L81.5161 53.1941H82.2791L80.3331 55.3501L82.4121 58.1641H81.6771L79.9271 55.7981L79.2831 56.5051V58.1641H78.6811ZM84.0073 58.2481C83.6246 58.2481 83.319 58.1594 83.0903 57.9821C82.8663 57.8047 82.7543 57.5574 82.7543 57.2401C82.7543 56.9227 82.8476 56.6731 83.0343 56.4911C83.221 56.3091 83.5173 56.1807 83.9233 56.1061L85.2393 55.8611C85.2393 55.5484 85.1646 55.3151 85.0153 55.1611C84.8706 55.0071 84.6513 54.9301 84.3573 54.9301C84.1006 54.9301 83.8976 54.9884 83.7483 55.1051C83.599 55.2171 83.4963 55.3804 83.4403 55.5951L82.8173 55.5461C82.8873 55.1961 83.0553 54.9137 83.3213 54.6991C83.592 54.4797 83.9373 54.3701 84.3573 54.3701C84.8333 54.3701 85.1973 54.5054 85.4493 54.7761C85.7013 55.0421 85.8273 55.4107 85.8273 55.8821V57.4151C85.8273 57.4991 85.8413 57.5597 85.8693 57.5971C85.902 57.6297 85.9533 57.6461 86.0233 57.6461H86.1703V58.1641C86.1516 58.1687 86.1213 58.1711 86.0793 58.1711C86.0373 58.1757 85.993 58.1781 85.9463 58.1781C85.7783 58.1781 85.6406 58.1524 85.5333 58.1011C85.4306 58.0451 85.356 57.9611 85.3093 57.8491C85.2626 57.7324 85.2393 57.5807 85.2393 57.3941L85.3093 57.4081C85.2766 57.5667 85.1973 57.7114 85.0713 57.8421C84.9453 57.9681 84.789 58.0684 84.6023 58.1431C84.4156 58.2131 84.2173 58.2481 84.0073 58.2481ZM84.0633 57.7301C84.3106 57.7301 84.5206 57.6834 84.6933 57.5901C84.8706 57.4921 85.006 57.3614 85.0993 57.1981C85.1926 57.0301 85.2393 56.8434 85.2393 56.6381V56.3721L84.0353 56.5961C83.7833 56.6427 83.6083 56.7151 83.5103 56.8131C83.417 56.9064 83.3703 57.0301 83.3703 57.1841C83.3703 57.3567 83.431 57.4921 83.5523 57.5901C83.6783 57.6834 83.8486 57.7301 84.0633 57.7301ZM86.8344 58.1641V54.4541H87.3734L87.3944 55.3991L87.3244 55.3361C87.3711 55.1167 87.4527 54.9371 87.5694 54.7971C87.6861 54.6524 87.8261 54.5451 87.9894 54.4751C88.1574 54.4051 88.3371 54.3701 88.5284 54.3701C88.8131 54.3701 89.0464 54.4331 89.2284 54.5591C89.4151 54.6851 89.5527 54.8554 89.6414 55.0701C89.7347 55.2801 89.7814 55.5157 89.7814 55.7771V58.1641H89.1934V55.9451C89.1934 55.7164 89.1654 55.5251 89.1094 55.3711C89.0581 55.2124 88.9741 55.0934 88.8574 55.0141C88.7407 54.9301 88.5891 54.8881 88.4024 54.8881C88.1177 54.8881 87.8821 54.9791 87.6954 55.1611C87.5134 55.3384 87.4224 55.5997 87.4224 55.9451V58.1641H86.8344ZM92.2268 59.2981C91.9608 59.2981 91.7204 59.2537 91.5058 59.1651C91.2911 59.0764 91.1114 58.9504 90.9668 58.7871C90.8221 58.6237 90.7241 58.4347 90.6728 58.2201L91.2888 58.1781C91.3448 58.3507 91.4428 58.4861 91.5828 58.5841C91.7274 58.6867 91.9421 58.7381 92.2268 58.7381C92.5628 58.7381 92.8194 58.6704 92.9968 58.5351C93.1788 58.3997 93.2698 58.1967 93.2698 57.9261V57.3241C93.1811 57.5201 93.0388 57.6764 92.8428 57.7931C92.6468 57.9097 92.4274 57.9681 92.1848 57.9681C91.8721 57.9681 91.5921 57.8911 91.3448 57.7371C91.1021 57.5831 90.9108 57.3707 90.7708 57.1001C90.6354 56.8294 90.5678 56.5191 90.5678 56.1691C90.5678 55.8144 90.6354 55.5041 90.7708 55.2381C90.9061 54.9674 91.0928 54.7551 91.3308 54.6011C91.5734 54.4471 91.8488 54.3701 92.1568 54.3701C92.4181 54.3701 92.6514 54.4307 92.8568 54.5521C93.0668 54.6734 93.2138 54.8367 93.2978 55.0421V54.4541H93.8578V57.9121C93.8578 58.2014 93.7924 58.4487 93.6618 58.6541C93.5311 58.8641 93.3444 59.0227 93.1018 59.1301C92.8591 59.2421 92.5674 59.2981 92.2268 59.2981ZM92.2128 57.4081C92.5301 57.4081 92.7844 57.2984 92.9758 57.0791C93.1671 56.8551 93.2651 56.5517 93.2698 56.1691C93.2744 55.9124 93.2324 55.6931 93.1438 55.5111C93.0598 55.3244 92.9361 55.1821 92.7728 55.0841C92.6141 54.9814 92.4274 54.9301 92.2128 54.9301C91.8861 54.9301 91.6318 55.0421 91.4498 55.2661C91.2724 55.4854 91.1838 55.7864 91.1838 56.1691C91.1838 56.5517 91.2748 56.8551 91.4568 57.0791C91.6434 57.2984 91.8954 57.4081 92.2128 57.4081ZM94.7047 58.1641V57.5761L97.0497 54.9721H94.7747V54.4541H97.6937V55.0421L95.3487 57.6461H97.7497V58.1641H94.7047ZM98.5991 58.1641V53.1941H99.1871V55.2731L99.1171 55.2591C99.1637 55.0537 99.2431 54.8857 99.3551 54.7551C99.4671 54.6244 99.6047 54.5287 99.7681 54.4681C99.9314 54.4027 100.111 54.3701 100.307 54.3701C100.573 54.3701 100.797 54.4307 100.979 54.5521C101.166 54.6687 101.306 54.8344 101.399 55.0491C101.497 55.2591 101.546 55.5017 101.546 55.7771V58.1641H100.958V55.9451C100.958 55.5857 100.893 55.3197 100.762 55.1471C100.636 54.9744 100.442 54.8881 100.181 54.8881C99.8824 54.8881 99.6421 54.9791 99.4601 55.1611C99.2781 55.3431 99.1871 55.6067 99.1871 55.9521V58.1641H98.5991ZM103.782 58.2481C103.413 58.2481 103.117 58.1244 102.893 57.8771C102.674 57.6251 102.564 57.2797 102.564 56.8411V54.4541H103.152V56.6801C103.152 57.0394 103.215 57.3054 103.341 57.4781C103.472 57.6461 103.67 57.7301 103.936 57.7301C104.23 57.7301 104.461 57.6367 104.629 57.4501C104.797 57.2587 104.881 56.9974 104.881 56.6661V54.4541H105.469V58.1641H104.909V57.2471L105 57.2961C104.925 57.5994 104.783 57.8351 104.573 58.0031C104.363 58.1664 104.099 58.2481 103.782 58.2481ZM107.591 58.2481C107.209 58.2481 106.903 58.1594 106.674 57.9821C106.45 57.8047 106.338 57.5574 106.338 57.2401C106.338 56.9227 106.432 56.6731 106.618 56.4911C106.805 56.3091 107.101 56.1807 107.507 56.1061L108.823 55.8611C108.823 55.5484 108.749 55.3151 108.599 55.1611C108.455 55.0071 108.235 54.9301 107.941 54.9301C107.685 54.9301 107.482 54.9884 107.332 55.1051C107.183 55.2171 107.08 55.3804 107.024 55.5951L106.401 55.5461C106.471 55.1961 106.639 54.9137 106.905 54.6991C107.176 54.4797 107.521 54.3701 107.941 54.3701C108.417 54.3701 108.781 54.5054 109.033 54.7761C109.285 55.0421 109.411 55.4107 109.411 55.8821V57.4151C109.411 57.4991 109.425 57.5597 109.453 57.5971C109.486 57.6297 109.537 57.6461 109.607 57.6461H109.754V58.1641C109.736 58.1687 109.705 58.1711 109.663 58.1711C109.621 58.1757 109.577 58.1781 109.53 58.1781C109.362 58.1781 109.225 58.1524 109.117 58.1011C109.015 58.0451 108.94 57.9611 108.893 57.8491C108.847 57.7324 108.823 57.5807 108.823 57.3941L108.893 57.4081C108.861 57.5667 108.781 57.7114 108.655 57.8421C108.529 57.9681 108.373 58.0684 108.186 58.1431C108 58.2131 107.801 58.2481 107.591 58.2481ZM107.647 57.7301C107.895 57.7301 108.105 57.6834 108.277 57.5901C108.455 57.4921 108.59 57.3614 108.683 57.1981C108.777 57.0301 108.823 56.8434 108.823 56.6381V56.3721L107.619 56.5961C107.367 56.6427 107.192 56.7151 107.094 56.8131C107.001 56.9064 106.954 57.0301 106.954 57.1841C106.954 57.3567 107.015 57.4921 107.136 57.5901C107.262 57.6834 107.433 57.7301 107.647 57.7301ZM110.418 58.1641V54.4541H110.957L110.978 55.3991L110.908 55.3361C110.955 55.1167 111.037 54.9371 111.153 54.7971C111.27 54.6524 111.41 54.5451 111.573 54.4751C111.741 54.4051 111.921 54.3701 112.112 54.3701C112.397 54.3701 112.63 54.4331 112.812 54.5591C112.999 54.6851 113.137 54.8554 113.225 55.0701C113.319 55.2801 113.365 55.5157 113.365 55.7771V58.1641H112.777V55.9451C112.777 55.7164 112.749 55.5251 112.693 55.3711C112.642 55.2124 112.558 55.0934 112.441 55.0141C112.325 54.9301 112.173 54.8881 111.986 54.8881C111.702 54.8881 111.466 54.9791 111.279 55.1611C111.097 55.3384 111.006 55.5997 111.006 55.9451V58.1641H110.418ZM115.811 59.2981C115.545 59.2981 115.304 59.2537 115.09 59.1651C114.875 59.0764 114.695 58.9504 114.551 58.7871C114.406 58.6237 114.308 58.4347 114.257 58.2201L114.873 58.1781C114.929 58.3507 115.027 58.4861 115.167 58.5841C115.311 58.6867 115.526 58.7381 115.811 58.7381C116.147 58.7381 116.403 58.6704 116.581 58.5351C116.763 58.3997 116.854 58.1967 116.854 57.9261V57.3241C116.765 57.5201 116.623 57.6764 116.427 57.7931C116.231 57.9097 116.011 57.9681 115.769 57.9681C115.456 57.9681 115.176 57.8911 114.929 57.7371C114.686 57.5831 114.495 57.3707 114.355 57.1001C114.219 56.8294 114.152 56.5191 114.152 56.1691C114.152 55.8144 114.219 55.5041 114.355 55.2381C114.49 54.9674 114.677 54.7551 114.915 54.6011C115.157 54.4471 115.433 54.3701 115.741 54.3701C116.002 54.3701 116.235 54.4307 116.441 54.5521C116.651 54.6734 116.798 54.8367 116.882 55.0421V54.4541H117.442V57.9121C117.442 58.2014 117.376 58.4487 117.246 58.6541C117.115 58.8641 116.928 59.0227 116.686 59.1301C116.443 59.2421 116.151 59.2981 115.811 59.2981ZM115.797 57.4081C116.114 57.4081 116.368 57.2984 116.56 57.0791C116.751 56.8551 116.849 56.5517 116.854 56.1691C116.858 55.9124 116.816 55.6931 116.728 55.5111C116.644 55.3244 116.52 55.1821 116.357 55.0841C116.198 54.9814 116.011 54.9301 115.797 54.9301C115.47 54.9301 115.216 55.0421 115.034 55.2661C114.856 55.4854 114.768 55.7864 114.768 56.1691C114.768 56.5517 114.859 56.8551 115.041 57.0791C115.227 57.2984 115.479 57.4081 115.797 57.4081Z" fill="#231F20"/>
<path d="M303.764 1.74006C302.804 1.86006 301.804 1.94406 300.764 1.99206L300.644 1.17606C303.268 1.04006 305.376 0.752062 306.968 0.312062L307.316 1.08006C306.54 1.28806 305.644 1.46806 304.628 1.62006V3.98406H307.136V4.77606H304.628V7.72806H307.34V8.53206H301.064V3.25206H301.94V7.72806H303.764V1.74006ZM307.556 9.97206L307.364 10.8121H302.756C300.964 10.8121 299.556 10.3001 298.532 9.27606C298.092 9.94806 297.54 10.5241 296.876 11.0041L296.372 10.2601C297.004 9.81206 297.536 9.26406 297.968 8.61606C297.432 7.89606 296.992 6.93206 296.648 5.72406L297.428 5.47206C297.7 6.42406 298.032 7.20406 298.424 7.81206C298.832 6.94006 299.104 5.92006 299.24 4.75206H296.744V3.99606C297.088 3.63606 297.448 3.22406 297.824 2.76006C298.2 2.28806 298.54 1.82806 298.844 1.38006H296.624V0.600062H299.864V1.27206C299.416 1.99206 298.732 2.90006 297.812 3.99606H300.08V4.54806C299.928 6.06006 299.56 7.38406 298.976 8.52006C299.416 8.99206 299.956 9.35206 300.596 9.60006C301.236 9.84806 302.008 9.97206 302.912 9.97206H307.556ZM320.048 1.33206V2.19606H310.976V4.00806C310.976 5.64006 310.888 7.02006 310.712 8.14806C310.536 9.27606 310.236 10.2361 309.812 11.0281L309.02 10.4161C309.396 9.72006 309.664 8.87606 309.824 7.88406C309.992 6.88406 310.076 5.60806 310.076 4.05606V1.33206H314.72C314.576 1.07606 314.372 0.752062 314.108 0.360062L314.936 6.17504e-05C315.216 0.408062 315.468 0.852062 315.692 1.33206H320.048ZM316.076 5.82006C316.244 6.67606 316.64 7.43606 317.264 8.10006C317.888 8.75606 318.848 9.43606 320.144 10.1401L319.64 10.9561C318.712 10.4201 317.96 9.92406 317.384 9.46806C316.816 9.01206 316.38 8.53606 316.076 8.04006C315.772 7.53606 315.592 6.98006 315.536 6.37206H315.452C315.38 6.99606 315.204 7.55606 314.924 8.05206C314.644 8.54006 314.232 9.01606 313.688 9.48006C313.152 9.93606 312.436 10.4281 311.54 10.9561L311.048 10.1401C312.304 9.44406 313.224 8.76806 313.808 8.11206C314.4 7.44806 314.776 6.68406 314.936 5.82006H311.516V4.99206H315.02C315.028 4.89606 315.032 4.74806 315.032 4.54806V2.66406H315.956V4.54806C315.956 4.74806 315.96 4.89606 315.968 4.99206H319.82V5.82006H316.076Z" fill="#231F20"/>
<path d="M297.715 19.1641V17.1341L295.958 14.1941H296.672L298.016 16.5181L299.36 14.1941H300.074L298.317 17.1341V19.1641H297.715ZM301.177 19.2481C300.795 19.2481 300.489 19.1594 300.26 18.9821C300.036 18.8047 299.924 18.5574 299.924 18.2401C299.924 17.9227 300.018 17.6731 300.204 17.4911C300.391 17.3091 300.687 17.1807 301.093 17.1061L302.409 16.8611C302.409 16.5484 302.335 16.3151 302.185 16.1611C302.041 16.0071 301.821 15.9301 301.527 15.9301C301.271 15.9301 301.068 15.9884 300.918 16.1051C300.769 16.2171 300.666 16.3804 300.61 16.5951L299.987 16.5461C300.057 16.1961 300.225 15.9137 300.491 15.6991C300.762 15.4797 301.107 15.3701 301.527 15.3701C302.003 15.3701 302.367 15.5054 302.619 15.7761C302.871 16.0421 302.997 16.4107 302.997 16.8821V18.4151C302.997 18.4991 303.011 18.5597 303.039 18.5971C303.072 18.6297 303.123 18.6461 303.193 18.6461H303.34V19.1641C303.322 19.1687 303.291 19.1711 303.249 19.1711C303.207 19.1757 303.163 19.1781 303.116 19.1781C302.948 19.1781 302.811 19.1524 302.703 19.1011C302.601 19.0451 302.526 18.9611 302.479 18.8491C302.433 18.7324 302.409 18.5807 302.409 18.3941L302.479 18.4081C302.447 18.5667 302.367 18.7114 302.241 18.8421C302.115 18.9681 301.959 19.0684 301.772 19.1431C301.586 19.2131 301.387 19.2481 301.177 19.2481ZM301.233 18.7301C301.481 18.7301 301.691 18.6834 301.863 18.5901C302.041 18.4921 302.176 18.3614 302.269 18.1981C302.363 18.0301 302.409 17.8434 302.409 17.6381V17.3721L301.205 17.5961C300.953 17.6427 300.778 17.7151 300.68 17.8131C300.587 17.9064 300.54 18.0301 300.54 18.1841C300.54 18.3567 300.601 18.4921 300.722 18.5901C300.848 18.6834 301.019 18.7301 301.233 18.7301ZM304.004 19.1641V15.4541H304.543L304.564 16.3991L304.494 16.3361C304.541 16.1167 304.623 15.9371 304.739 15.7971C304.856 15.6524 304.996 15.5451 305.159 15.4751C305.327 15.4051 305.507 15.3701 305.698 15.3701C305.983 15.3701 306.216 15.4331 306.398 15.5591C306.585 15.6851 306.723 15.8554 306.811 16.0701C306.905 16.2801 306.951 16.5157 306.951 16.7771V19.1641H306.363V16.9451C306.363 16.7164 306.335 16.5251 306.279 16.3711C306.228 16.2124 306.144 16.0934 306.027 16.0141C305.911 15.9301 305.759 15.8881 305.572 15.8881C305.288 15.8881 305.052 15.9791 304.865 16.1611C304.683 16.3384 304.592 16.5997 304.592 16.9451V19.1641H304.004ZM311.035 20.2141H310.447V18.3661L310.531 18.4641C310.489 18.6227 310.409 18.7604 310.293 18.8771C310.181 18.9937 310.041 19.0847 309.873 19.1501C309.709 19.2154 309.532 19.2481 309.341 19.2481C308.972 19.2481 308.669 19.1571 308.431 18.9751C308.197 18.7931 308.022 18.5551 307.906 18.2611C307.794 17.9671 307.738 17.6497 307.738 17.3091C307.738 16.9684 307.794 16.6511 307.906 16.3571C308.022 16.0631 308.197 15.8251 308.431 15.6431C308.669 15.4611 308.972 15.3701 309.341 15.3701C309.63 15.3701 309.882 15.4424 310.097 15.5871C310.316 15.7271 310.47 15.9347 310.559 16.2101L310.475 16.2521L310.489 15.4541H311.035V20.2141ZM309.397 18.6881C309.616 18.6881 309.803 18.6367 309.957 18.5341C310.115 18.4314 310.237 18.2774 310.321 18.0721C310.405 17.8667 310.447 17.6124 310.447 17.3091C310.447 17.0057 310.402 16.7514 310.314 16.5461C310.23 16.3407 310.108 16.1867 309.95 16.0841C309.796 15.9814 309.611 15.9301 309.397 15.9301C309.075 15.9301 308.82 16.0514 308.634 16.2941C308.447 16.5367 308.354 16.8751 308.354 17.3091C308.354 17.7431 308.447 18.0814 308.634 18.3241C308.82 18.5667 309.075 18.6881 309.397 18.6881ZM312.05 19.1641V15.4541H312.638V19.1641H312.05ZM312.036 14.8731V14.1871H312.652V14.8731H312.036ZM313.8 19.1641V15.4541H314.339L314.36 16.3991L314.29 16.3361C314.337 16.1167 314.419 15.9371 314.535 15.7971C314.652 15.6524 314.792 15.5451 314.955 15.4751C315.123 15.4051 315.303 15.3701 315.494 15.3701C315.779 15.3701 316.012 15.4331 316.194 15.5591C316.381 15.6851 316.519 15.8554 316.607 16.0701C316.701 16.2801 316.747 16.5157 316.747 16.7771V19.1641H316.159V16.9451C316.159 16.7164 316.131 16.5251 316.075 16.3711C316.024 16.2124 315.94 16.0934 315.823 16.0141C315.707 15.9301 315.555 15.8881 315.368 15.8881C315.084 15.8881 314.848 15.9791 314.661 16.1611C314.479 16.3384 314.388 16.5997 314.388 16.9451V19.1641H313.8ZM319.193 20.2981C318.927 20.2981 318.686 20.2537 318.472 20.1651C318.257 20.0764 318.077 19.9504 317.933 19.7871C317.788 19.6237 317.69 19.4347 317.639 19.2201L318.255 19.1781C318.311 19.3507 318.409 19.4861 318.549 19.5841C318.693 19.6867 318.908 19.7381 319.193 19.7381C319.529 19.7381 319.785 19.6704 319.963 19.5351C320.145 19.3997 320.236 19.1967 320.236 18.9261V18.3241C320.147 18.5201 320.005 18.6764 319.809 18.7931C319.613 18.9097 319.393 18.9681 319.151 18.9681C318.838 18.9681 318.558 18.8911 318.311 18.7371C318.068 18.5831 317.877 18.3707 317.737 18.1001C317.601 17.8294 317.534 17.5191 317.534 17.1691C317.534 16.8144 317.601 16.5041 317.737 16.2381C317.872 15.9674 318.059 15.7551 318.297 15.6011C318.539 15.4471 318.815 15.3701 319.123 15.3701C319.384 15.3701 319.617 15.4307 319.823 15.5521C320.033 15.6734 320.18 15.8367 320.264 16.0421V15.4541H320.824V18.9121C320.824 19.2014 320.758 19.4487 320.628 19.6541C320.497 19.8641 320.31 20.0227 320.068 20.1301C319.825 20.2421 319.533 20.2981 319.193 20.2981ZM319.179 18.4081C319.496 18.4081 319.75 18.2984 319.942 18.0791C320.133 17.8551 320.231 17.5517 320.236 17.1691C320.24 16.9124 320.198 16.6931 320.11 16.5111C320.026 16.3244 319.902 16.1821 319.739 16.0841C319.58 15.9814 319.393 15.9301 319.179 15.9301C318.852 15.9301 318.598 16.0421 318.416 16.2661C318.238 16.4854 318.15 16.7864 318.15 17.1691C318.15 17.5517 318.241 17.8551 318.423 18.0791C318.609 18.2984 318.861 18.4081 319.179 18.4081Z" fill="#231F20"/>
<path d="M136.393 201.387L134.773 203.547L125.566 196.689C125.458 196.617 125.377 196.581 125.323 196.581C125.197 196.581 125.134 196.698 125.134 196.932V210.108H122.488V196.203C120.058 199.101 116.881 201.567 112.957 203.601L111.607 201.387C114.739 199.803 117.331 197.994 119.383 195.96C121.435 193.908 122.884 191.694 123.73 189.318H111.931V186.834H136.069V189.318H126.376C126.034 190.38 125.62 191.379 125.134 192.315V195.528H125.323L125.836 194.88C126.088 194.592 126.322 194.448 126.538 194.448C126.7 194.448 126.889 194.529 127.105 194.691L136.393 201.387ZM153.457 196.716V206.544H163.15V208.974H138.85V206.544H142.927V189.966H145.546V206.544H150.811V185.835H153.457V194.286H162.124V196.716H153.457ZM188.179 202.899L190.366 203.547V207.354C190.366 208.308 190.186 208.965 189.826 209.325C189.466 209.685 188.809 209.865 187.855 209.865H179.107C177.847 209.865 176.947 209.604 176.407 209.082C175.885 208.56 175.624 207.669 175.624 206.409V195.771L173.707 196.284L173.437 195.123H170.953V203.304C172.429 202.728 173.518 202.287 174.22 201.981L174.517 204.276C172.285 205.338 169.468 206.373 166.066 207.381L165.418 205.086C166.588 204.762 167.65 204.438 168.604 204.114V195.123H165.796V192.801H168.604V185.565H170.953V192.801H173.464V194.043L175.624 193.449V187.428H178V192.801L181.186 191.937V185.565H183.535V191.289L189.745 189.615C189.727 191.883 189.691 193.683 189.637 195.015C189.601 196.329 189.52 197.562 189.394 198.714C189.268 199.83 188.98 200.622 188.53 201.09C188.08 201.558 187.324 201.792 186.262 201.792H184.939L184.318 199.605H185.884C186.352 199.605 186.676 199.524 186.856 199.362C187.036 199.182 187.144 198.858 187.18 198.39C187.324 196.896 187.414 194.961 187.45 192.585L183.535 193.638V204.087H181.186V194.259L178 195.123V205.977C178 206.625 178.108 207.057 178.324 207.273C178.558 207.489 179.017 207.597 179.701 207.597H188.179V202.899ZM203.11 206.301C200.986 207.633 198.817 208.785 196.603 209.757L195.793 207.732C196.135 207.552 196.378 207.345 196.522 207.111C196.684 206.877 196.765 206.553 196.765 206.139V200.901H192.769V198.741H196.765V195.636H194.794V193.746C194.524 194.16 194.173 194.655 193.741 195.231L192.229 193.368C193.075 192.432 193.831 191.271 194.497 189.885C195.181 188.481 195.721 186.942 196.117 185.268L198.358 185.943C198.124 186.753 197.836 187.608 197.494 188.508H202.597V190.722H196.522C196.126 191.55 195.604 192.477 194.956 193.503H202.003V195.636H199.087V198.741H202.678V200.901H199.087V206.139C200.221 205.563 201.319 204.96 202.381 204.33L203.11 206.301ZM211.642 199.092C211.966 200.748 212.596 202.287 213.532 203.709C214.468 205.113 215.836 206.58 217.636 208.11L216.205 210.351C214.189 208.533 212.713 206.805 211.777 205.167C210.841 203.529 210.337 201.72 210.265 199.74H210.049C209.995 201.702 209.527 203.52 208.645 205.194C207.763 206.85 206.377 208.569 204.487 210.351L203.083 208.11C204.757 206.58 206.035 205.104 206.917 203.682C207.799 202.26 208.393 200.73 208.699 199.092H203.11V196.851H208.969C209.005 196.095 209.023 195.519 209.023 195.123V192.18H206.188C205.756 193.674 205.243 194.952 204.649 196.014L202.813 194.502C203.389 193.494 203.866 192.279 204.244 190.857C204.64 189.435 204.928 187.995 205.108 186.537L207.187 186.942C207.079 187.842 206.926 188.85 206.728 189.966H209.023V185.565H211.291V189.966H216.637V192.18H211.291V195.123C211.291 195.519 211.309 196.095 211.345 196.851H217.231V199.092H211.642Z" fill="#231F20"/>
<path d="M7.652 235.364C9.20933 234.831 10.6333 234.297 11.924 233.764L12.148 234.916C10.4733 235.62 8.468 236.345 6.132 237.092L5.764 235.972C6.04133 235.865 6.22267 235.737 6.308 235.588C6.39333 235.428 6.436 235.183 6.436 234.852V222.82H7.652V227.604H11.828V228.756H7.652V235.364ZM18.372 232.068L19.54 232.404V235.78C19.54 236.217 19.4387 236.532 19.236 236.724C19.044 236.927 18.7293 237.028 18.292 237.028H15.028C14.2707 237.028 13.732 236.868 13.412 236.548C13.092 236.239 12.932 235.721 12.932 234.996V222.82H14.148V228.356C15.0227 227.951 15.8493 227.481 16.628 226.948C17.4173 226.415 18.116 225.86 18.724 225.284L19.524 226.196C18.8733 226.804 18.068 227.412 17.108 228.02C16.1587 228.617 15.172 229.156 14.148 229.636V234.868C14.148 235.241 14.2227 235.503 14.372 235.652C14.532 235.791 14.8093 235.86 15.204 235.86H18.372V232.068ZM35.62 230.644H21.38V229.364H35.62V230.644ZM41.716 222.82C41.5773 223.311 41.3907 223.801 41.156 224.292H43.604V236.004C43.604 236.42 43.5187 236.713 43.348 236.884C43.1773 237.055 42.884 237.14 42.468 237.14H40.884L40.58 236.052H42.516V230.324H39.252C39.22 231.881 39.1187 233.231 38.948 234.372C38.7773 235.503 38.5107 236.532 38.148 237.46L37.204 236.692C37.524 235.849 37.7533 234.932 37.892 233.94C38.0413 232.937 38.132 231.732 38.164 230.324H37.348V229.316H38.18V228.212V224.292H40.036C40.2707 223.695 40.452 223.14 40.58 222.628L41.716 222.82ZM46.596 225.012C46.596 226.025 46.4467 226.857 46.148 227.508C45.86 228.159 45.364 228.751 44.66 229.284L43.972 228.372C44.5587 227.956 44.9587 227.503 45.172 227.012C45.3853 226.511 45.492 225.823 45.492 224.948V223.268H50.228V227.012C50.228 227.225 50.2653 227.375 50.34 227.46C50.4147 227.535 50.5587 227.572 50.772 227.572H51.972V228.612H50.516C49.9933 228.612 49.6253 228.505 49.412 228.292C49.2093 228.079 49.108 227.695 49.108 227.14V224.276H46.596V225.012ZM39.284 229.316H42.516V225.284H39.284V228.132V229.316ZM41.124 228.708C40.6867 227.78 40.2387 226.969 39.78 226.276L40.564 225.812C40.788 226.121 41.028 226.505 41.284 226.964C41.54 227.423 41.7587 227.844 41.94 228.228L41.124 228.708ZM51.492 237.396C50.1587 236.756 49.0013 236.025 48.02 235.204C46.9747 236.1 45.7427 236.836 44.324 237.412L43.812 236.356C45.1133 235.833 46.228 235.193 47.156 234.436C46.3027 233.593 45.556 232.644 44.916 231.588L45.86 230.996C46.468 232.02 47.1773 232.916 47.988 233.684C48.852 232.809 49.476 231.833 49.86 230.756H44.532V229.7H51.108V230.58C50.6707 232.02 49.9187 233.305 48.852 234.436C49.716 235.14 50.7667 235.769 52.004 236.324L51.492 237.396ZM41.108 234.388C40.7027 233.321 40.2653 232.372 39.796 231.54L40.628 231.092C41.0653 231.775 41.5133 232.719 41.972 233.924L41.108 234.388ZM67.252 225.188V227.236C67.252 228.345 67.2147 229.561 67.14 230.884C67.076 232.196 66.9747 233.348 66.836 234.34C66.708 235.353 66.452 236.079 66.068 236.516C65.684 236.953 65.0653 237.172 64.212 237.172H62.1L61.78 236.004H64.084C64.5853 236.004 64.948 235.871 65.172 235.604C65.396 235.337 65.5507 234.895 65.636 234.276C65.7747 233.38 65.876 232.287 65.94 230.996C66.004 229.705 66.036 228.457 66.036 227.252V226.34H61.828C61.22 227.652 60.5373 228.767 59.78 229.684L58.996 228.884V236.004H54.884V237.364H53.684V224.612H55.428C55.6627 224.1 55.876 223.449 56.068 222.66L57.204 222.932C57.044 223.54 56.8413 224.1 56.596 224.612H58.996V228.708C59.668 227.887 60.244 226.948 60.724 225.892C61.2147 224.836 61.5827 223.753 61.828 222.644L62.964 222.932C62.8147 223.615 62.5907 224.367 62.292 225.188H67.252ZM57.828 229.524V225.684H54.868V229.524H57.828ZM63.604 233.22C63.284 232.537 62.9 231.817 62.452 231.06C62.0147 230.303 61.5773 229.625 61.14 229.028L62.052 228.356C62.4893 228.932 62.932 229.604 63.38 230.372C63.828 231.129 64.228 231.865 64.58 232.58L63.604 233.22ZM54.868 230.596V234.932H57.828V230.596H54.868ZM72.932 227.46C73.124 227.129 73.3907 226.633 73.732 225.972L74.692 226.484C74.1373 227.561 73.5293 228.601 72.868 229.604C72.2067 230.596 71.6093 231.369 71.076 231.924C71.78 231.753 72.8093 231.476 74.164 231.092L74.356 232.132C72.788 232.58 71.236 232.964 69.7 233.284L69.364 232.292C69.7587 231.961 70.2067 231.476 70.708 230.836C71.2093 230.196 71.7213 229.46 72.244 228.628C71.38 228.809 70.4627 228.964 69.492 229.092L69.204 228.068C69.62 227.631 70.0893 226.905 70.612 225.892C71.1453 224.868 71.604 223.807 71.988 222.708L73.044 223.092C72.692 224.009 72.3027 224.895 71.876 225.748C71.4493 226.601 71.0387 227.316 70.644 227.892C71.476 227.775 72.2387 227.631 72.932 227.46ZM82.916 233.396L83.908 233.892L83.62 236.404C83.588 236.681 83.492 236.895 83.332 237.044C83.1827 237.204 82.9853 237.284 82.74 237.284C82.5587 237.284 82.356 237.236 82.132 237.14C81.0333 236.671 80.116 235.801 79.38 234.532C78.132 235.268 76.7347 235.865 75.188 236.324L74.74 235.268C76.2867 234.852 77.668 234.292 78.884 233.588C78.5 232.756 78.18 231.796 77.924 230.708L74.98 231.188L74.804 230.116L77.7 229.652C77.5827 229.023 77.4813 228.26 77.396 227.364L75.06 227.684L74.9 226.644L77.316 226.324C77.2733 225.652 77.252 224.852 77.252 223.924V222.804H78.372V223.924C78.372 224.788 78.3933 225.54 78.436 226.18L82.884 225.588L83.028 226.612L78.516 227.22C78.5693 227.849 78.6653 228.601 78.804 229.476L83.46 228.74L83.62 229.764L79.028 230.516C79.2413 231.423 79.508 232.249 79.828 232.996C80.82 232.313 81.6787 231.556 82.404 230.724L83.188 231.396C82.3667 232.335 81.412 233.183 80.324 233.94C80.9747 235.039 81.7427 235.78 82.628 236.164L82.916 233.396ZM81.508 225.46C81.156 225.151 80.74 224.825 80.26 224.484C79.78 224.143 79.3587 223.887 78.996 223.716L79.604 222.932C79.988 223.135 80.4147 223.396 80.884 223.716C81.3533 224.036 81.7693 224.351 82.132 224.66L81.508 225.46ZM69.124 235.428C70.9907 235.023 72.7187 234.564 74.308 234.052L74.516 235.14C72.788 235.673 71.092 236.132 69.428 236.516L69.124 235.428ZM96.692 228.292C97.588 228.932 98.7027 229.572 100.036 230.212L99.476 231.22C98.036 230.505 96.8147 229.775 95.812 229.028C94.7347 229.849 93.3427 230.628 91.636 231.364L91.076 230.388C92.644 229.737 93.9293 229.049 94.932 228.324C94.2173 227.695 93.604 227.044 93.092 226.372C92.6227 226.895 92.0787 227.401 91.46 227.892L90.804 227.044C91.5933 226.425 92.26 225.748 92.804 225.012C93.348 224.276 93.7693 223.513 94.068 222.724L95.156 222.884C95.028 223.268 94.8467 223.7 94.612 224.18H99.012V224.98C98.468 226.26 97.6947 227.364 96.692 228.292ZM89.172 234.724C89.908 234.521 90.5853 234.308 91.204 234.084L91.3 235.108C90.468 235.439 89.572 235.732 88.612 235.988C87.6627 236.233 86.5427 236.489 85.252 236.756L85.076 235.62L85.94 235.46V229.412H86.964V235.252C87.2307 235.199 87.62 235.108 88.132 234.98V228.1H85.892V223.268H90.676V228.1H89.172V230.5H91.06V231.524H89.172V234.724ZM89.668 224.308H86.964V227.092H89.668V224.308ZM93.796 225.508C94.3827 226.308 95.0547 227.012 95.812 227.62C96.6653 226.863 97.2947 226.052 97.7 225.188H94.004L93.796 225.508ZM93.492 237.38H92.388V231.108H98.724V237.38H97.62V236.436H93.492V237.38ZM97.62 232.148H93.492V235.364H97.62V232.148ZM101.652 237.444V223.22H115.348V237.444H114.18V236.484H102.836V237.444H101.652ZM102.82 235.412H114.18V224.26H102.82V235.412ZM103.444 230.276C105.033 229.935 106.447 229.497 107.684 228.964C106.991 228.505 106.399 228.015 105.908 227.492C105.364 227.972 104.783 228.377 104.164 228.708L103.604 227.828C104.372 227.444 105.06 226.969 105.668 226.404C106.276 225.839 106.735 225.247 107.044 224.628L108.036 224.964C107.919 225.188 107.721 225.497 107.444 225.892H112.196V226.692C111.609 227.545 110.783 228.313 109.716 228.996C110.815 229.519 112.111 229.951 113.604 230.292L113.204 231.268C111.54 230.863 110.036 230.297 108.692 229.572C107.359 230.265 105.721 230.836 103.78 231.284L103.444 230.276ZM106.628 226.82C107.193 227.428 107.892 227.977 108.724 228.468C109.641 227.967 110.345 227.417 110.836 226.82H106.644H106.628ZM106.74 230.548C108.105 230.793 109.551 231.151 111.076 231.62L110.66 232.548C109.017 232.015 107.572 231.647 106.324 231.444L106.74 230.548ZM105.268 232.34C107.561 232.703 109.849 233.22 112.132 233.892L111.748 234.868C109.615 234.185 107.343 233.663 104.932 233.3L105.268 232.34ZM131.588 224.452H124.948V226.084H130.244V232.516H124.756C124.543 233.529 124.084 234.372 123.38 235.044C124.244 235.449 125.305 235.732 126.564 235.892C127.823 236.052 129.497 236.127 131.588 236.116L131.46 237.22C129.135 237.209 127.289 237.097 125.924 236.884C124.569 236.671 123.407 236.297 122.436 235.764C121.305 236.457 119.716 236.948 117.668 237.236L117.348 236.196C119.076 235.929 120.42 235.556 121.38 235.076C120.847 234.671 120.281 234.164 119.684 233.556L120.484 232.836C121.124 233.508 121.743 234.047 122.34 234.452C122.948 233.951 123.359 233.305 123.572 232.516H118.756V226.084H123.796V224.452H117.412V223.38H131.588V224.452ZM123.796 228.804V227.06H119.892V228.804H123.796ZM129.124 228.804V227.06H124.948V228.804H129.124ZM119.892 231.54H123.748C123.78 231.231 123.796 230.916 123.796 230.596V229.732H119.892V231.54ZM129.124 231.54V229.732H124.948V230.564C124.948 230.895 124.932 231.22 124.9 231.54H129.124ZM145.396 229.268H140.996V231.796H146.212V232.868H140.996V235.764H147.14V236.884H133.86V235.764H139.748V232.868H134.788V231.796H139.748V229.268H135.636V228.18C135.156 228.457 134.463 228.825 133.556 229.284L132.916 228.132C134.868 227.215 136.351 226.335 137.364 225.492C138.388 224.639 139.129 223.727 139.588 222.756H141.156C141.593 223.705 142.351 224.607 143.428 225.46C144.516 226.313 146.068 227.209 148.084 228.148L147.46 229.284C146.713 228.932 146.025 228.58 145.396 228.228V229.268ZM140.308 223.364C140.084 224.217 139.593 225.033 138.836 225.812C138.089 226.591 137.023 227.38 135.636 228.18H145.3C143.849 227.38 142.729 226.591 141.94 225.812C141.161 225.033 140.655 224.217 140.42 223.364H140.308ZM163.78 224.468H157.204C157.001 225.161 156.777 225.785 156.532 226.34H162.9V237.364H161.732V236.34H151.268V237.364H150.1V226.34H155.3C155.556 225.764 155.791 225.14 156.004 224.468H149.22V223.38H163.78V224.468ZM153.62 227.364H151.268V235.316H153.62V227.364ZM154.724 229.3H158.1V227.364H154.724V229.3ZM159.204 235.316H161.732V227.364H159.204V235.316ZM154.724 232.276H158.1V230.26H154.724V232.276ZM158.1 233.236H154.724V235.316H158.1V233.236ZM180.5 230.724H164.5V229.444H180.5V230.724ZM196.5 230.724H180.5V229.444H196.5V230.724ZM204.98 227.796V233.316H208.26V234.42H204.98V237.38H203.748V234.42H200.66V233.316H203.748V227.796H203.636C203.497 228.927 202.985 230.031 202.1 231.108C201.215 232.185 199.817 233.396 197.908 234.74L197.14 233.748C198.847 232.575 200.212 231.428 201.236 230.308C202.26 229.188 202.964 228.009 203.348 226.772H197.46V225.62H203.748V222.788H204.98V225.62H211.54V226.772H205.396C205.78 227.988 206.505 229.156 207.572 230.276C208.649 231.396 210.079 232.559 211.86 233.764L211.14 234.756C209.156 233.359 207.684 232.127 206.724 231.06C205.775 229.983 205.231 228.895 205.092 227.796H204.98ZM213.652 237.444V223.22H227.348V237.444H226.18V236.484H214.836V237.444H213.652ZM214.82 235.412H226.18V224.26H214.82V235.412ZM215.444 230.276C217.033 229.935 218.447 229.497 219.684 228.964C218.991 228.505 218.399 228.015 217.908 227.492C217.364 227.972 216.783 228.377 216.164 228.708L215.604 227.828C216.372 227.444 217.06 226.969 217.668 226.404C218.276 225.839 218.735 225.247 219.044 224.628L220.036 224.964C219.919 225.188 219.721 225.497 219.444 225.892H224.196V226.692C223.609 227.545 222.783 228.313 221.716 228.996C222.815 229.519 224.111 229.951 225.604 230.292L225.204 231.268C223.54 230.863 222.036 230.297 220.692 229.572C219.359 230.265 217.721 230.836 215.78 231.284L215.444 230.276ZM218.628 226.82C219.193 227.428 219.892 227.977 220.724 228.468C221.641 227.967 222.345 227.417 222.836 226.82H218.644H218.628ZM218.74 230.548C220.105 230.793 221.551 231.151 223.076 231.62L222.66 232.548C221.017 232.015 219.572 231.647 218.324 231.444L218.74 230.548ZM217.268 232.34C219.561 232.703 221.849 233.22 224.132 233.892L223.748 234.868C221.615 234.185 219.343 233.663 216.932 233.3L217.268 232.34ZM232.404 226.724C232.073 226.223 231.679 225.689 231.22 225.124C230.772 224.548 230.356 224.063 229.972 223.668L230.916 222.932C231.289 223.337 231.705 223.828 232.164 224.404C232.623 224.969 233.023 225.508 233.364 226.02L232.404 226.724ZM233.428 231.316C234.633 230.42 235.641 229.439 236.452 228.372C237.263 227.305 237.849 226.089 238.212 224.724H233.78V223.62H243.428V224.724H239.476C239.337 225.247 239.177 225.732 238.996 226.18V227.636H239.092L239.348 227.38C239.455 227.273 239.567 227.22 239.684 227.22C239.823 227.22 239.945 227.284 240.052 227.412L243.892 231.172L243.044 232.036L239.204 228.228C239.161 228.196 239.124 228.18 239.092 228.18C239.028 228.18 238.996 228.223 238.996 228.308V234.948H237.812V228.42C236.895 229.807 235.684 231.092 234.18 232.276L233.428 231.316ZM244.004 235.86L243.78 237.012H237.06C236.228 237.012 235.556 236.959 235.044 236.852C234.532 236.745 234.111 236.585 233.78 236.372C233.449 236.169 233.097 235.876 232.724 235.492C232.596 235.353 232.489 235.263 232.404 235.22C232.329 235.167 232.249 235.14 232.164 235.14C232.025 235.14 231.796 235.3 231.476 235.62C231.156 235.929 230.697 236.457 230.1 237.204L229.22 236.324C230.18 235.108 230.959 234.372 231.556 234.116V229.332H229.332V228.212H232.788V234.148C232.959 234.255 233.119 234.388 233.268 234.548C233.577 234.879 233.876 235.135 234.164 235.316C234.452 235.497 234.815 235.636 235.252 235.732C235.7 235.817 236.287 235.86 237.012 235.86H244.004ZM258.26 233.572L259.412 233.924V235.828C259.412 236.223 259.311 236.516 259.108 236.708C258.905 236.911 258.575 237.012 258.116 237.012H249.748C249.161 237.012 248.703 236.943 248.372 236.804C248.041 236.676 247.801 236.463 247.652 236.164C247.513 235.876 247.444 235.471 247.444 234.948V227.988H247.476V227.716C246.996 228.228 246.473 228.703 245.908 229.14L245.14 228.132C246.121 227.396 246.943 226.548 247.604 225.588C248.265 224.628 248.745 223.599 249.044 222.5L250.26 222.756C250.121 223.3 249.956 223.785 249.764 224.212H258.724V224.98C258.724 226.271 258.681 227.497 258.596 228.66C258.521 229.823 258.415 230.751 258.276 231.444C258.148 232.084 257.924 232.527 257.604 232.772C257.295 233.017 256.831 233.14 256.212 233.14H255.156L254.884 232.068H255.956C256.34 232.068 256.612 231.999 256.772 231.86C256.932 231.721 257.049 231.444 257.124 231.028C257.231 230.473 257.316 229.684 257.38 228.66C257.444 227.625 257.481 226.505 257.492 225.3H249.236C248.82 226.025 248.351 226.697 247.828 227.316H254.66V232.308H248.644V234.868C248.644 235.252 248.719 235.519 248.868 235.668C249.017 235.807 249.3 235.876 249.716 235.876H258.26V233.572ZM248.644 231.236H253.476V228.404H248.644V231.236ZM269.14 222.804C269.577 223.561 270.34 224.271 271.428 224.932C272.516 225.583 274.052 226.239 276.036 226.9L275.54 228.036C273.396 227.268 271.759 226.521 270.628 225.796C269.497 225.06 268.761 224.255 268.42 223.38H268.308C267.967 224.255 267.252 225.06 266.164 225.796C265.087 226.532 263.519 227.279 261.46 228.036L260.964 226.9C262.873 226.249 264.34 225.599 265.364 224.948C266.399 224.297 267.145 223.583 267.604 222.804H269.14ZM267.316 225.444C268.297 225.892 269.337 226.42 270.436 227.028L269.86 227.972C268.879 227.385 267.817 226.841 266.676 226.34L267.316 225.444ZM273.492 229.38C272.991 230.287 272.383 231.108 271.668 231.844H273.972V237.364H272.772V236.644H264.228V237.364H263.028V231.844H270.148C270.991 231.055 271.62 230.292 272.036 229.556H263.06V228.516H273.492V229.38ZM264.228 235.588H272.772V232.884H264.228V235.588ZM281.652 226.9V222.804H282.868V237.364H281.652V233.252C280.361 234.041 278.959 234.703 277.444 235.236L277.06 234.068C278.937 233.439 280.468 232.719 281.652 231.908V228.052H277.236V226.9H281.652ZM290.404 236.084V232.276L291.556 232.628V236.036C291.556 236.473 291.46 236.783 291.268 236.964C291.087 237.156 290.777 237.252 290.34 237.252H287.556C286.82 237.252 286.297 237.097 285.988 236.788C285.679 236.489 285.524 235.977 285.524 235.252V222.804H286.74V228.34C288.276 227.551 289.615 226.58 290.756 225.428L291.556 226.292C290.969 226.879 290.255 227.465 289.412 228.052C288.569 228.628 287.679 229.156 286.74 229.636V235.14C286.74 235.503 286.809 235.753 286.948 235.892C287.097 236.02 287.364 236.084 287.748 236.084H290.404ZM307.748 224.5V225.604H293.252V224.5H300.052C299.817 224.031 299.54 223.54 299.22 223.028L300.324 222.596C300.772 223.385 301.103 224.02 301.316 224.5H307.748ZM305.796 231.316H301.204V235.876C301.204 236.335 301.092 236.671 300.868 236.884C300.655 237.097 300.313 237.204 299.844 237.204H297.828L297.556 236.1H299.988V231.316H295.204V226.82H305.796V231.316ZM304.612 227.876H296.388V230.26H304.612V227.876ZM297.828 232.74C297.391 233.519 296.836 234.265 296.164 234.98C295.503 235.695 294.772 236.329 293.972 236.884L293.22 235.972C294.041 235.417 294.745 234.836 295.332 234.228C295.929 233.609 296.431 232.927 296.836 232.18L297.828 232.74ZM304.084 232.292C305.396 233.444 306.607 234.697 307.716 236.052L306.82 236.852C306.223 236.095 305.641 235.417 305.076 234.82C304.511 234.223 303.903 233.636 303.252 233.06L304.084 232.292ZM323.236 224.708V225.844H312.116V227.476C312.116 229.62 311.972 231.497 311.684 233.108C311.407 234.708 310.932 236.068 310.26 237.188L309.14 236.276C309.748 235.295 310.175 234.116 310.42 232.74C310.676 231.353 310.804 229.636 310.804 227.588V224.708H316.548C316.271 224.153 315.956 223.604 315.604 223.06L316.852 222.644C317.289 223.305 317.652 223.993 317.94 224.708H323.236ZM112.148 249.764C111.465 248.857 110.777 248.089 110.084 247.46L110.948 246.74C111.663 247.38 112.351 248.132 113.012 248.996L112.148 249.764ZM113.748 247.3H123.156V259.876C123.156 260.313 123.06 260.623 122.868 260.804C122.676 260.996 122.335 261.092 121.844 261.092H120.02L119.748 260.02H121.972V248.404H113.748V247.3ZM120.724 255.22V258.948H116.34V259.716H115.332V255.22H117.508V253.652H114.708V252.692H117.508V251.14C116.751 251.236 115.993 251.3 115.236 251.332L115.06 250.42C117.215 250.335 119.033 250.068 120.516 249.62L120.852 250.5C120.265 250.671 119.492 250.836 118.532 250.996V252.692H121.284V253.652H118.532V255.22H120.724ZM114.068 252.228C113.492 251.695 112.809 251.156 112.02 250.612L112.644 249.892C113.423 250.393 114.116 250.921 114.724 251.476L114.068 252.228ZM110.996 261.348H109.812V250.196H110.996V261.348ZM113.604 254.836C112.943 254.271 112.249 253.743 111.524 253.252L112.132 252.5C112.921 253.012 113.62 253.535 114.228 254.068L113.604 254.836ZM111.588 258.916C111.983 258.5 112.377 258.004 112.772 257.428C113.167 256.841 113.519 256.239 113.828 255.62L114.724 256.068C114.233 257.22 113.449 258.42 112.372 259.668L111.588 258.916ZM116.34 258.004H119.716V256.164H116.34V258.004ZM139.252 249.188V251.236C139.252 252.345 139.215 253.561 139.14 254.884C139.076 256.196 138.975 257.348 138.836 258.34C138.708 259.353 138.452 260.079 138.068 260.516C137.684 260.953 137.065 261.172 136.212 261.172H134.1L133.78 260.004H136.084C136.585 260.004 136.948 259.871 137.172 259.604C137.396 259.337 137.551 258.895 137.636 258.276C137.775 257.38 137.876 256.287 137.94 254.996C138.004 253.705 138.036 252.457 138.036 251.252V250.34H133.828C133.22 251.652 132.537 252.767 131.78 253.684L130.996 252.884V260.004H126.884V261.364H125.684V248.612H127.428C127.663 248.1 127.876 247.449 128.068 246.66L129.204 246.932C129.044 247.54 128.841 248.1 128.596 248.612H130.996V252.708C131.668 251.887 132.244 250.948 132.724 249.892C133.215 248.836 133.583 247.753 133.828 246.644L134.964 246.932C134.815 247.615 134.591 248.367 134.292 249.188H139.252ZM129.828 253.524V249.684H126.868V253.524H129.828ZM135.604 257.22C135.284 256.537 134.9 255.817 134.452 255.06C134.015 254.303 133.577 253.625 133.14 253.028L134.052 252.356C134.489 252.932 134.932 253.604 135.38 254.372C135.828 255.129 136.228 255.865 136.58 256.58L135.604 257.22ZM126.868 254.596V258.932H129.828V254.596H126.868ZM155.684 250.164H149.012V252.356H154.628V258.372C154.628 258.852 154.511 259.204 154.276 259.428C154.052 259.641 153.7 259.748 153.22 259.748H150.852L150.516 258.612H153.396V253.476H149.012V261.364H147.732V253.476H143.716V259.94H142.484V252.356H147.732V250.164H141.332V249.028H148.372C147.935 248.356 147.471 247.748 146.98 247.204L147.988 246.564C148.479 247.119 148.985 247.791 149.508 248.58L148.772 249.028H155.684V250.164ZM165.06 248.692V249.796H157.428V248.692H161.044C160.756 248.105 160.447 247.561 160.116 247.06L161.14 246.58C161.567 247.241 161.897 247.839 162.132 248.372L161.396 248.692H165.06ZM169.716 252.58C170.303 253.177 170.761 253.791 171.092 254.42C171.433 255.039 171.604 255.711 171.604 256.436C171.604 257.268 171.401 257.919 170.996 258.388C170.591 258.857 169.967 259.092 169.124 259.092H168.164L167.924 257.892H168.916C169.492 257.892 169.887 257.769 170.1 257.524C170.324 257.268 170.436 256.852 170.436 256.276C170.436 255.689 170.255 255.103 169.892 254.516C169.54 253.919 169.044 253.295 168.404 252.644C169.236 251.225 169.855 249.828 170.26 248.452H167.14V261.364H165.972V247.348H171.46V248.308C171.076 249.695 170.495 251.119 169.716 252.58ZM162.9 250.164C163.721 251.071 164.516 252.18 165.284 253.492L164.42 254.228C163.78 253.097 162.98 251.945 162.02 250.772L162.9 250.164ZM160.5 250.644C159.924 252.169 159.039 253.449 157.844 254.484L157.108 253.556C158.164 252.671 158.943 251.561 159.444 250.228L160.5 250.644ZM163.78 253.524C163.407 254.644 162.948 255.673 162.404 256.612C163.14 257.433 163.913 258.383 164.724 259.46L163.844 260.308C163.151 259.337 162.452 258.436 161.748 257.604C160.756 259.001 159.433 260.255 157.78 261.364L157.124 260.356C158.756 259.321 160.041 258.116 160.98 256.74C160.383 256.079 159.663 255.332 158.82 254.5L159.604 253.732C160.319 254.415 160.985 255.081 161.604 255.732C162.031 254.964 162.404 254.095 162.724 253.124L163.78 253.524ZM175.444 249.7C174.943 250.713 174.377 251.62 173.748 252.42L172.98 251.54C173.513 250.943 173.988 250.228 174.404 249.396C174.82 248.553 175.145 247.641 175.38 246.66L176.468 246.98C176.308 247.535 176.121 248.084 175.908 248.628H179.188V249.7H175.444ZM184.26 254.66C184.441 255.737 184.82 256.719 185.396 257.604C185.972 258.489 186.82 259.401 187.94 260.34L187.252 261.428C186.015 260.329 185.108 259.279 184.532 258.276C183.967 257.263 183.657 256.175 183.604 255.012H183.492C183.471 256.153 183.188 257.236 182.644 258.26C182.111 259.273 181.268 260.329 180.116 261.428L179.428 260.34C180.473 259.412 181.263 258.5 181.796 257.604C182.329 256.708 182.681 255.727 182.852 254.66H179.412V253.572H182.964C182.985 253.167 182.996 252.857 182.996 252.644V250.612H181.076C180.777 251.583 180.463 252.356 180.132 252.932L179.252 252.212C179.604 251.615 179.897 250.879 180.132 250.004C180.377 249.129 180.548 248.271 180.644 247.428L181.652 247.62C181.577 248.303 181.476 248.943 181.348 249.54H182.996V246.788H184.116V249.54H187.364V250.612H184.116V252.644C184.116 252.857 184.127 253.167 184.148 253.572H187.716V254.66H184.26ZM179.444 258.964C178.121 259.785 176.863 260.463 175.668 260.996L175.236 260.052C175.439 259.935 175.583 259.817 175.668 259.7C175.753 259.572 175.796 259.38 175.796 259.124V255.716H173.284V254.676H175.796V252.58H174.484V251.556H178.82V252.58H176.916V254.676H179.236V255.716H176.916V259.22C177.513 258.911 178.228 258.511 179.06 258.02L179.444 258.964ZM200.692 252.292C201.588 252.932 202.703 253.572 204.036 254.212L203.476 255.22C202.036 254.505 200.815 253.775 199.812 253.028C198.735 253.849 197.343 254.628 195.636 255.364L195.076 254.388C196.644 253.737 197.929 253.049 198.932 252.324C198.217 251.695 197.604 251.044 197.092 250.372C196.623 250.895 196.079 251.401 195.46 251.892L194.804 251.044C195.593 250.425 196.26 249.748 196.804 249.012C197.348 248.276 197.769 247.513 198.068 246.724L199.156 246.884C199.028 247.268 198.847 247.7 198.612 248.18H203.012V248.98C202.468 250.26 201.695 251.364 200.692 252.292ZM193.172 258.724C193.908 258.521 194.585 258.308 195.204 258.084L195.3 259.108C194.468 259.439 193.572 259.732 192.612 259.988C191.663 260.233 190.543 260.489 189.252 260.756L189.076 259.62L189.94 259.46V253.412H190.964V259.252C191.231 259.199 191.62 259.108 192.132 258.98V252.1H189.892V247.268H194.676V252.1H193.172V254.5H195.06V255.524H193.172V258.724ZM193.668 248.308H190.964V251.092H193.668V248.308ZM197.796 249.508C198.383 250.308 199.055 251.012 199.812 251.62C200.665 250.863 201.295 250.052 201.7 249.188H198.004L197.796 249.508ZM197.492 261.38H196.388V255.108H202.724V261.38H201.62V260.436H197.492V261.38ZM201.62 256.148H197.492V259.364H201.62V256.148ZM207.748 261.348C207.033 261.348 206.457 261.14 206.02 260.724C205.583 260.308 205.364 259.732 205.364 258.996C205.364 258.26 205.583 257.684 206.02 257.268C206.457 256.852 207.033 256.644 207.748 256.644C208.463 256.644 209.039 256.852 209.476 257.268C209.924 257.684 210.148 258.26 210.148 258.996C210.148 259.732 209.929 260.308 209.492 260.724C209.055 261.14 208.473 261.348 207.748 261.348ZM207.748 260.372C208.153 260.372 208.473 260.265 208.708 260.052C208.953 259.839 209.076 259.556 209.076 259.204V258.804C209.076 258.441 208.953 258.153 208.708 257.94C208.473 257.727 208.153 257.62 207.748 257.62C207.353 257.62 207.033 257.727 206.788 257.94C206.553 258.153 206.436 258.441 206.436 258.804V259.204C206.436 259.556 206.553 259.839 206.788 260.052C207.033 260.265 207.353 260.372 207.748 260.372Z" fill="#717171"/>
<defs>
<radialGradient id="paint0_radial_884_2356" cx="0" cy="0" r="1" gradientUnits="userSpaceOnUse" gradientTransform="translate(142.5 54.6641) rotate(45.2491) scale(162.636 93.2042)">
<stop offset="0.720326" stop-color="#FF0000"/>
<stop offset="1" stop-color="#990000" stop-opacity="0"/>
</radialGradient>
</defs>
</svg>
