<svg width="329" height="250" viewBox="0 0 329 250" fill="none" xmlns="http://www.w3.org/2000/svg">
<path d="M52.5 150V0" stroke="url(#paint0_linear_884_2857)" stroke-width="16"/>
<rect x="40.5" y="58" width="24" height="24" rx="12" fill="white"/>
<rect x="40.5" y="58" width="24" height="24" rx="12" stroke="#003DA6" stroke-width="4"/>
<path d="M93.532 50.776H97.3V52.504H75.7V50.776H81.148C81.708 48.36 82.276 45.688 82.852 42.76H77.428V41.032H83.188C83.572 39 83.924 36.984 84.244 34.984H76.468V33.256H96.508V34.984H86.14C85.82 36.984 85.468 39 85.084 41.032H93.532V50.776ZM84.772 42.76C84.132 45.992 83.588 48.664 83.14 50.776H91.636V42.76H84.772ZM115.348 32.368C116.228 34.144 117.26 35.808 118.444 37.36C119.644 38.912 121.052 40.408 122.668 41.848L121.348 43.336C119.668 41.752 118.196 40.136 116.932 38.488C115.684 36.84 114.588 35.08 113.644 33.208L115.348 32.368ZM109.564 33.184C108.684 35.2 107.636 37.04 106.42 38.704C105.204 40.352 103.772 41.896 102.124 43.336L100.732 41.92C102.348 40.576 103.732 39.128 104.884 37.576C106.052 36.008 107.036 34.288 107.836 32.416L109.564 33.184ZM114.7 43.096C117.052 46.184 119.212 49.328 121.18 52.528L119.596 53.632L118.252 51.4C114.092 51.944 109.172 52.44 103.492 52.888L102.988 51.184C104.204 49.936 105.46 48.2 106.756 45.976C108.068 43.752 109.188 41.488 110.116 39.184L111.94 39.904C111.012 42.08 109.988 44.16 108.868 46.144C107.764 48.112 106.676 49.72 105.604 50.968C110.148 50.568 114.012 50.168 117.196 49.768C115.9 47.768 114.564 45.888 113.188 44.128L114.7 43.096ZM137.596 48.28V51.424H147.82V53.056H125.98V51.424H135.82V48.28H126.988V46.696H135.82V43.768H127.876V32.656H145.924V43.768H137.596V46.696H146.812V48.28H137.596ZM135.82 37.432V34.216H129.628V37.432H135.82ZM137.596 37.432H144.172V34.216H137.596V37.432ZM129.628 38.944V42.232H135.82V38.944H129.628ZM137.596 38.944V42.232H144.172V38.944H137.596Z" fill="#231F20"/>
<path d="M77.65 70L75.032 60.06H76.348L78.392 68.348L80.422 60.06H81.794L83.838 68.348L85.868 60.06H87.198L84.58 70H83.068L81.108 62.3L79.148 70H77.65ZM90.5931 70.168C89.8558 70.168 89.2631 69.9207 88.8151 69.426C88.3764 68.922 88.1571 68.2313 88.1571 67.354V62.58H89.3331V67.032C89.3331 67.7507 89.4591 68.2827 89.7111 68.628C89.9724 68.964 90.3691 69.132 90.9011 69.132C91.4891 69.132 91.9511 68.9453 92.2871 68.572C92.6231 68.1893 92.7911 67.6667 92.7911 67.004V62.58H93.9671V70H92.8471V68.166L93.0291 68.264C92.8798 68.8707 92.5951 69.342 92.1751 69.678C91.7551 70.0047 91.2278 70.168 90.5931 70.168ZM98.8871 72.268C98.3551 72.268 97.8745 72.1793 97.4451 72.002C97.0158 71.8247 96.6565 71.5727 96.3671 71.246C96.0778 70.9193 95.8818 70.5413 95.7791 70.112L97.0111 70.028C97.1231 70.3733 97.3191 70.644 97.5991 70.84C97.8885 71.0453 98.3178 71.148 98.8871 71.148C99.5591 71.148 100.072 71.0127 100.427 70.742C100.791 70.4713 100.973 70.0653 100.973 69.524V68.32C100.796 68.712 100.511 69.0247 100.119 69.258C99.7271 69.4913 99.2885 69.608 98.8031 69.608C98.1778 69.608 97.6178 69.454 97.1231 69.146C96.6378 68.838 96.2551 68.4133 95.9751 67.872C95.7045 67.3307 95.5691 66.71 95.5691 66.01C95.5691 65.3007 95.7045 64.68 95.9751 64.148C96.2458 63.6067 96.6191 63.182 97.0951 62.874C97.5805 62.566 98.1311 62.412 98.7471 62.412C99.2698 62.412 99.7365 62.5333 100.147 62.776C100.567 63.0187 100.861 63.3453 101.029 63.756V62.58H102.149V69.496C102.149 70.0747 102.018 70.5693 101.757 70.98C101.496 71.4 101.122 71.7173 100.637 71.932C100.152 72.156 99.5685 72.268 98.8871 72.268ZM98.8591 68.488C99.4938 68.488 100.002 68.2687 100.385 67.83C100.768 67.382 100.964 66.7753 100.973 66.01C100.982 65.4967 100.898 65.058 100.721 64.694C100.553 64.3207 100.306 64.036 99.9791 63.84C99.6618 63.6347 99.2885 63.532 98.8591 63.532C98.2058 63.532 97.6971 63.756 97.3331 64.204C96.9785 64.6427 96.8011 65.2447 96.8011 66.01C96.8011 66.7753 96.9831 67.382 97.3471 67.83C97.7205 68.2687 98.2245 68.488 98.8591 68.488ZM107.147 70.168C106.466 70.168 105.868 70.0093 105.355 69.692C104.842 69.3747 104.445 68.9267 104.165 68.348C103.885 67.76 103.745 67.074 103.745 66.29C103.745 65.4967 103.885 64.8107 104.165 64.232C104.445 63.6533 104.842 63.2053 105.355 62.888C105.868 62.5707 106.466 62.412 107.147 62.412C107.828 62.412 108.421 62.5707 108.925 62.888C109.438 63.2053 109.835 63.6533 110.115 64.232C110.395 64.8107 110.535 65.4967 110.535 66.29C110.535 67.074 110.395 67.76 110.115 68.348C109.835 68.9267 109.438 69.3747 108.925 69.692C108.421 70.0093 107.828 70.168 107.147 70.168ZM107.147 69.048C107.828 69.048 108.356 68.8053 108.729 68.32C109.112 67.8253 109.303 67.1487 109.303 66.29C109.303 65.4313 109.112 64.7593 108.729 64.274C108.356 63.7793 107.828 63.532 107.147 63.532C106.466 63.532 105.934 63.7793 105.551 64.274C105.168 64.7593 104.977 65.4313 104.977 66.29C104.977 67.1487 105.168 67.8253 105.551 68.32C105.934 68.8053 106.466 69.048 107.147 69.048ZM112.138 70V62.58H113.216L113.258 64.47L113.118 64.344C113.211 63.9053 113.374 63.546 113.608 63.266C113.841 62.9767 114.121 62.762 114.448 62.622C114.784 62.482 115.143 62.412 115.526 62.412C116.095 62.412 116.562 62.538 116.926 62.79C117.299 63.042 117.574 63.3827 117.752 63.812C117.938 64.232 118.032 64.7033 118.032 65.226V70H116.856V65.562C116.856 65.1047 116.8 64.722 116.688 64.414C116.585 64.0967 116.417 63.8587 116.184 63.7C115.95 63.532 115.647 63.448 115.274 63.448C114.704 63.448 114.233 63.63 113.86 63.994C113.496 64.3487 113.314 64.8713 113.314 65.562V70H112.138ZM122.922 72.268C122.39 72.268 121.91 72.1793 121.48 72.002C121.051 71.8247 120.692 71.5727 120.402 71.246C120.113 70.9193 119.917 70.5413 119.814 70.112L121.046 70.028C121.158 70.3733 121.354 70.644 121.634 70.84C121.924 71.0453 122.353 71.148 122.922 71.148C123.594 71.148 124.108 71.0127 124.462 70.742C124.826 70.4713 125.008 70.0653 125.008 69.524V68.32C124.831 68.712 124.546 69.0247 124.154 69.258C123.762 69.4913 123.324 69.608 122.838 69.608C122.213 69.608 121.653 69.454 121.158 69.146C120.673 68.838 120.29 68.4133 120.01 67.872C119.74 67.3307 119.604 66.71 119.604 66.01C119.604 65.3007 119.74 64.68 120.01 64.148C120.281 63.6067 120.654 63.182 121.13 62.874C121.616 62.566 122.166 62.412 122.782 62.412C123.305 62.412 123.772 62.5333 124.182 62.776C124.602 63.0187 124.896 63.3453 125.064 63.756V62.58H126.184V69.496C126.184 70.0747 126.054 70.5693 125.792 70.98C125.531 71.4 125.158 71.7173 124.672 71.932C124.187 72.156 123.604 72.268 122.922 72.268ZM122.894 68.488C123.529 68.488 124.038 68.2687 124.42 67.83C124.803 67.382 124.999 66.7753 125.008 66.01C125.018 65.4967 124.934 65.058 124.756 64.694C124.588 64.3207 124.341 64.036 124.014 63.84C123.697 63.6347 123.324 63.532 122.894 63.532C122.241 63.532 121.732 63.756 121.368 64.204C121.014 64.6427 120.836 65.2447 120.836 66.01C120.836 66.7753 121.018 67.382 121.382 67.83C121.756 68.2687 122.26 68.488 122.894 68.488ZM129.877 70C129.447 70 129.097 69.888 128.827 69.664C128.556 69.44 128.421 69.0853 128.421 68.6V60.06H129.597V68.502C129.597 68.6513 129.634 68.768 129.709 68.852C129.793 68.9267 129.909 68.964 130.059 68.964H130.703V70H129.877ZM132.044 70V62.58H133.22V70H132.044ZM132.016 61.418V60.046H133.248V61.418H132.016Z" fill="#231F20"/>
<path d="M75.592 87.922C75.592 86.5407 75.8393 85.2573 76.334 84.072C76.838 82.8867 77.4727 81.9673 78.238 81.314H79.47C78.686 82.0047 78.0467 82.91 77.552 84.03C77.0573 85.1407 76.81 86.2327 76.81 87.306V88.524C76.81 89.5973 77.0573 90.694 77.552 91.814C78.0467 92.9247 78.686 93.8253 79.47 94.516H78.238C77.7433 94.096 77.2953 93.55 76.894 92.878C76.4927 92.206 76.1753 91.4453 75.942 90.596C75.7087 89.7373 75.592 88.846 75.592 87.922ZM86.9399 92.36H92.9319V93.228H80.1919V92.36H85.9599V91.268H80.7519V90.428H85.9599V89.462H81.4659V84.926H85.9599V84.002H80.3459V83.162H85.9599V82.14C84.9799 82.168 83.4492 82.182 81.3679 82.182L81.1579 81.328C83.7525 81.328 85.8385 81.3047 87.4159 81.258C88.9932 81.202 90.3559 81.0807 91.5039 80.894L91.9239 81.734C90.6545 81.9207 88.9932 82.0467 86.9399 82.112V83.162H92.7779V84.002H86.9399V84.926H91.6299V89.462H86.9399V90.428H92.3719V91.268H86.9399V92.36ZM85.9599 85.724H82.4459V86.788H85.9599V85.724ZM90.6499 86.788V85.724H86.9399V86.788H90.6499ZM82.4459 87.558V88.664H85.9599V87.558H82.4459ZM86.9399 88.664H90.6499V87.558H86.9399V88.664ZM107.058 82.196V83.204H96.4739V85.318C96.4739 87.222 96.3712 88.832 96.1659 90.148C95.9605 91.464 95.6105 92.584 95.1159 93.508L94.1919 92.794C94.6305 91.982 94.9432 90.9973 95.1299 89.84C95.3259 88.6733 95.4239 87.1847 95.4239 85.374V82.196H100.842C100.674 81.8973 100.436 81.5193 100.128 81.062L101.094 80.642C101.421 81.118 101.715 81.636 101.976 82.196H107.058ZM102.424 87.432C102.62 88.4307 103.082 89.3173 103.81 90.092C104.538 90.8573 105.658 91.6507 107.17 92.472L106.582 93.424C105.499 92.7987 104.622 92.22 103.95 91.688C103.287 91.156 102.779 90.6007 102.424 90.022C102.069 89.434 101.859 88.7853 101.794 88.076H101.696C101.612 88.804 101.407 89.4573 101.08 90.036C100.753 90.6053 100.273 91.1607 99.6379 91.702C99.0125 92.234 98.1772 92.808 97.1319 93.424L96.5579 92.472C98.0232 91.66 99.0965 90.8713 99.7779 90.106C100.469 89.3313 100.907 88.44 101.094 87.432H97.1039V86.466H101.192C101.201 86.354 101.206 86.1813 101.206 85.948V83.75H102.284V85.948C102.284 86.1813 102.289 86.354 102.298 86.466H106.792V87.432H102.424ZM115.304 82.924V91.45H121.142V92.528H108.542V91.45H114.156V82.924H109.004V81.874H120.68V82.924H115.304ZM135.254 81.902V82.798H122.71V81.902H128.52C128.38 81.6313 128.198 81.3327 127.974 81.006L128.926 80.614C129.187 81.0527 129.421 81.482 129.626 81.902H135.254ZM132.44 83.316C132.132 83.9413 131.843 84.4547 131.572 84.856H134.596V92.304C134.596 92.668 134.507 92.934 134.33 93.102C134.153 93.27 133.868 93.354 133.476 93.354H131.586L131.334 92.458H133.56V85.738H124.446V93.55H123.396V84.856H130.382C130.811 84.2587 131.175 83.6147 131.474 82.924L132.44 83.316ZM126.378 82.924C126.714 83.3253 127.031 83.834 127.33 84.45L126.378 84.856C126.135 84.3147 125.832 83.806 125.468 83.33L126.378 82.924ZM128.268 86.76C127.885 87.096 127.428 87.4273 126.896 87.754C126.364 88.0713 125.785 88.356 125.16 88.608L124.726 87.81C125.911 87.3807 126.877 86.8207 127.624 86.13L128.268 86.76ZM132.832 88.58C131.908 87.9453 130.858 87.3713 129.682 86.858L130.214 86.13C131.409 86.6713 132.44 87.236 133.308 87.824L132.832 88.58ZM126.196 88.3H131.824V91.66H127.176V92.486H126.196V88.3ZM127.176 90.806H130.844V89.154H127.176V90.806ZM143.598 85.584C143.663 86.4987 143.897 87.3247 144.298 88.062C144.699 88.7993 145.315 89.5133 146.146 90.204C146.986 90.8947 148.115 91.632 149.534 92.416L148.918 93.41C147.583 92.6447 146.51 91.94 145.698 91.296C144.895 90.6427 144.279 89.9567 143.85 89.238C143.43 88.5193 143.178 87.7027 143.094 86.788H142.982C142.898 87.712 142.651 88.5333 142.24 89.252C141.839 89.9707 141.246 90.652 140.462 91.296C139.687 91.94 138.642 92.6447 137.326 93.41L136.71 92.416C138.101 91.6413 139.197 90.9087 140 90.218C140.812 89.518 141.405 88.804 141.778 88.076C142.161 87.3387 142.385 86.508 142.45 85.584H136.906V84.562H142.464V80.95H143.57V84.562H149.338V85.584H143.598ZM157.066 82.882C156.805 82.2753 156.441 81.6267 155.974 80.936L156.926 80.502C157.346 81.0993 157.71 81.7527 158.018 82.462L157.066 82.882ZM152.096 83.988V85.878H151.102V83.036H153.454C153.062 82.4107 152.637 81.8553 152.18 81.37L153.062 80.852C153.501 81.3 153.944 81.8787 154.392 82.588L153.524 83.036H159.642C160.295 82.2613 160.809 81.482 161.182 80.698L162.19 81.118C161.789 81.818 161.35 82.4573 160.874 83.036H163.422V85.878H162.414V83.988H152.096ZM163.548 88.776V89.728H157.892V92.402C157.892 92.738 157.813 92.9853 157.654 93.144C157.495 93.312 157.239 93.396 156.884 93.396H154.21L153.93 92.444H156.842V89.728H150.976V88.776H156.842V87.67C158.093 87.222 159.077 86.704 159.796 86.116H153.132V85.206H161.238V86.06C160.491 86.872 159.376 87.5907 157.892 88.216V88.776H163.548ZM168.238 87.922C168.238 88.846 168.121 89.7373 167.888 90.596C167.655 91.4453 167.337 92.206 166.936 92.878C166.544 93.55 166.101 94.096 165.606 94.516H164.36C165.153 93.8253 165.793 92.9247 166.278 91.814C166.773 90.7033 167.02 89.6067 167.02 88.524V87.306C167.02 86.2233 166.773 85.1267 166.278 84.016C165.793 82.9053 165.153 82.0047 164.36 81.314H165.606C166.362 81.9673 166.987 82.8867 167.482 84.072C167.986 85.2573 168.238 86.5407 168.238 87.922Z" fill="#8E8E8E"/>
<path d="M76.34 104.6C75.4133 103.207 74.95 101.773 74.95 100.3C74.95 98.82 75.4133 97.3867 76.34 96H77.09C76.2433 97.44 75.82 98.8733 75.82 100.3C75.82 101.013 75.9267 101.73 76.14 102.45C76.3533 103.163 76.67 103.88 77.09 104.6H76.34ZM80.7377 103.66C80.1043 103.66 79.5477 103.513 79.0677 103.22C78.5877 102.92 78.2143 102.493 77.9477 101.94C77.681 101.387 77.5477 100.727 77.5477 99.96C77.5477 99.1933 77.681 98.5333 77.9477 97.98C78.2143 97.42 78.5877 96.99 79.0677 96.69C79.5477 96.39 80.1043 96.24 80.7377 96.24C81.5977 96.24 82.2643 96.4567 82.7377 96.89C83.211 97.3233 83.521 97.9133 83.6677 98.66L82.7577 98.72C82.6577 98.2133 82.4443 97.8133 82.1177 97.52C81.791 97.2267 81.331 97.08 80.7377 97.08C80.2843 97.08 79.8843 97.1967 79.5377 97.43C79.1977 97.6567 78.931 97.9867 78.7377 98.42C78.5443 98.8467 78.4477 99.36 78.4477 99.96C78.4477 100.56 78.5443 101.073 78.7377 101.5C78.931 101.927 79.1977 102.253 79.5377 102.48C79.8843 102.707 80.2843 102.82 80.7377 102.82C81.3577 102.82 81.8377 102.66 82.1777 102.34C82.5177 102.013 82.731 101.573 82.8177 101.02L83.7277 101.08C83.641 101.593 83.471 102.043 83.2177 102.43C82.9643 102.817 82.6277 103.12 82.2077 103.34C81.7943 103.553 81.3043 103.66 80.7377 103.66ZM84.9484 103.5V96.4H85.7884V99.37L85.6884 99.35C85.7551 99.0567 85.8684 98.8167 86.0284 98.63C86.1884 98.4433 86.3851 98.3067 86.6184 98.22C86.8518 98.1267 87.1084 98.08 87.3884 98.08C87.7684 98.08 88.0884 98.1667 88.3484 98.34C88.6151 98.5067 88.8151 98.7433 88.9484 99.05C89.0884 99.35 89.1584 99.6967 89.1584 100.09V103.5H88.3184V100.33C88.3184 99.8167 88.2251 99.4367 88.0384 99.19C87.8584 98.9433 87.5818 98.82 87.2084 98.82C86.7818 98.82 86.4384 98.95 86.1784 99.21C85.9184 99.47 85.7884 99.8467 85.7884 100.34V103.5H84.9484ZM92.7118 103.62C92.2251 103.62 91.7985 103.507 91.4318 103.28C91.0651 103.053 90.7818 102.733 90.5818 102.32C90.3818 101.9 90.2818 101.41 90.2818 100.85C90.2818 100.283 90.3818 99.7933 90.5818 99.38C90.7818 98.9667 91.0651 98.6467 91.4318 98.42C91.7985 98.1933 92.2251 98.08 92.7118 98.08C93.1985 98.08 93.6218 98.1933 93.9818 98.42C94.3485 98.6467 94.6318 98.9667 94.8318 99.38C95.0318 99.7933 95.1318 100.283 95.1318 100.85C95.1318 101.41 95.0318 101.9 94.8318 102.32C94.6318 102.733 94.3485 103.053 93.9818 103.28C93.6218 103.507 93.1985 103.62 92.7118 103.62ZM92.7118 102.82C93.1985 102.82 93.5751 102.647 93.8418 102.3C94.1151 101.947 94.2518 101.463 94.2518 100.85C94.2518 100.237 94.1151 99.7567 93.8418 99.41C93.5751 99.0567 93.1985 98.88 92.7118 98.88C92.2251 98.88 91.8451 99.0567 91.5718 99.41C91.2985 99.7567 91.1618 100.237 91.1618 100.85C91.1618 101.463 91.2985 101.947 91.5718 102.3C91.8451 102.647 92.2251 102.82 92.7118 102.82ZM96.2766 103.5V98.2H97.0466L97.0766 99.55L96.9766 99.46C97.0432 99.1467 97.1599 98.89 97.3266 98.69C97.4932 98.4833 97.6932 98.33 97.9266 98.23C98.1666 98.13 98.4232 98.08 98.6966 98.08C99.1032 98.08 99.4366 98.17 99.6966 98.35C99.9632 98.53 100.16 98.7733 100.287 99.08C100.42 99.38 100.487 99.7167 100.487 100.09V103.5H99.6466V100.33C99.6466 100.003 99.6066 99.73 99.5266 99.51C99.4532 99.2833 99.3332 99.1133 99.1666 99C98.9999 98.88 98.7832 98.82 98.5166 98.82C98.1099 98.82 97.7732 98.95 97.5066 99.21C97.2466 99.4633 97.1166 99.8367 97.1166 100.33V103.5H96.2766ZM103.98 105.12C103.6 105.12 103.257 105.057 102.95 104.93C102.643 104.803 102.387 104.623 102.18 104.39C101.973 104.157 101.833 103.887 101.76 103.58L102.64 103.52C102.72 103.767 102.86 103.96 103.06 104.1C103.267 104.247 103.573 104.32 103.98 104.32C104.46 104.32 104.827 104.223 105.08 104.03C105.34 103.837 105.47 103.547 105.47 103.16V102.3C105.343 102.58 105.14 102.803 104.86 102.97C104.58 103.137 104.267 103.22 103.92 103.22C103.473 103.22 103.073 103.11 102.72 102.89C102.373 102.67 102.1 102.367 101.9 101.98C101.707 101.593 101.61 101.15 101.61 100.65C101.61 100.143 101.707 99.7 101.9 99.32C102.093 98.9333 102.36 98.63 102.7 98.41C103.047 98.19 103.44 98.08 103.88 98.08C104.253 98.08 104.587 98.1667 104.88 98.34C105.18 98.5133 105.39 98.7467 105.51 99.04V98.2H106.31V103.14C106.31 103.553 106.217 103.907 106.03 104.2C105.843 104.5 105.577 104.727 105.23 104.88C104.883 105.04 104.467 105.12 103.98 105.12ZM103.96 102.42C104.413 102.42 104.777 102.263 105.05 101.95C105.323 101.63 105.463 101.197 105.47 100.65C105.477 100.283 105.417 99.97 105.29 99.71C105.17 99.4433 104.993 99.24 104.76 99.1C104.533 98.9533 104.267 98.88 103.96 98.88C103.493 98.88 103.13 99.04 102.87 99.36C102.617 99.6733 102.49 100.103 102.49 100.65C102.49 101.197 102.62 101.63 102.88 101.95C103.147 102.263 103.507 102.42 103.96 102.42ZM112.16 105H111.32V102.36L111.44 102.5C111.38 102.727 111.266 102.923 111.1 103.09C110.94 103.257 110.74 103.387 110.5 103.48C110.266 103.573 110.013 103.62 109.74 103.62C109.213 103.62 108.78 103.49 108.44 103.23C108.106 102.97 107.856 102.63 107.69 102.21C107.53 101.79 107.45 101.337 107.45 100.85C107.45 100.363 107.53 99.91 107.69 99.49C107.856 99.07 108.106 98.73 108.44 98.47C108.78 98.21 109.213 98.08 109.74 98.08C110.153 98.08 110.513 98.1833 110.82 98.39C111.133 98.59 111.353 98.8867 111.48 99.28L111.36 99.34L111.38 98.2H112.16V105ZM109.82 102.82C110.133 102.82 110.4 102.747 110.62 102.6C110.846 102.453 111.02 102.233 111.14 101.94C111.26 101.647 111.32 101.283 111.32 100.85C111.32 100.417 111.256 100.053 111.13 99.76C111.01 99.4667 110.836 99.2467 110.61 99.1C110.39 98.9533 110.126 98.88 109.82 98.88C109.36 98.88 108.996 99.0533 108.73 99.4C108.463 99.7467 108.33 100.23 108.33 100.85C108.33 101.47 108.463 101.953 108.73 102.3C108.996 102.647 109.36 102.82 109.82 102.82ZM113.611 103.5V98.2H114.451V103.5H113.611ZM113.591 97.37V96.39H114.471V97.37H113.591ZM116.111 103.5V98.2H116.881L116.911 99.55L116.811 99.46C116.877 99.1467 116.994 98.89 117.161 98.69C117.327 98.4833 117.527 98.33 117.761 98.23C118.001 98.13 118.257 98.08 118.531 98.08C118.937 98.08 119.271 98.17 119.531 98.35C119.797 98.53 119.994 98.7733 120.121 99.08C120.254 99.38 120.321 99.7167 120.321 100.09V103.5H119.481V100.33C119.481 100.003 119.441 99.73 119.361 99.51C119.287 99.2833 119.167 99.1133 119.001 99C118.834 98.88 118.617 98.82 118.351 98.82C117.944 98.82 117.607 98.95 117.341 99.21C117.081 99.4633 116.951 99.8367 116.951 100.33V103.5H116.111ZM123.814 105.12C123.434 105.12 123.091 105.057 122.784 104.93C122.477 104.803 122.221 104.623 122.014 104.39C121.807 104.157 121.667 103.887 121.594 103.58L122.474 103.52C122.554 103.767 122.694 103.96 122.894 104.1C123.101 104.247 123.407 104.32 123.814 104.32C124.294 104.32 124.661 104.223 124.914 104.03C125.174 103.837 125.304 103.547 125.304 103.16V102.3C125.177 102.58 124.974 102.803 124.694 102.97C124.414 103.137 124.101 103.22 123.754 103.22C123.307 103.22 122.907 103.11 122.554 102.89C122.207 102.67 121.934 102.367 121.734 101.98C121.541 101.593 121.444 101.15 121.444 100.65C121.444 100.143 121.541 99.7 121.734 99.32C121.927 98.9333 122.194 98.63 122.534 98.41C122.881 98.19 123.274 98.08 123.714 98.08C124.087 98.08 124.421 98.1667 124.714 98.34C125.014 98.5133 125.224 98.7467 125.344 99.04V98.2H126.144V103.14C126.144 103.553 126.051 103.907 125.864 104.2C125.677 104.5 125.411 104.727 125.064 104.88C124.717 105.04 124.301 105.12 123.814 105.12ZM123.794 102.42C124.247 102.42 124.611 102.263 124.884 101.95C125.157 101.63 125.297 101.197 125.304 100.65C125.311 100.283 125.251 99.97 125.124 99.71C125.004 99.4433 124.827 99.24 124.594 99.1C124.367 98.9533 124.101 98.88 123.794 98.88C123.327 98.88 122.964 99.04 122.704 99.36C122.451 99.6733 122.324 100.103 122.324 100.65C122.324 101.197 122.454 101.63 122.714 101.95C122.981 102.263 123.341 102.42 123.794 102.42ZM131.771 103.5V97.24H129.561V96.4H134.841V97.24H132.631V103.5H131.771ZM137.028 103.62C136.528 103.62 136.095 103.507 135.728 103.28C135.368 103.053 135.088 102.733 134.888 102.32C134.695 101.9 134.598 101.41 134.598 100.85C134.598 100.29 134.695 99.8033 134.888 99.39C135.088 98.9767 135.365 98.6567 135.718 98.43C136.078 98.1967 136.502 98.08 136.988 98.08C137.448 98.08 137.855 98.19 138.208 98.41C138.562 98.6233 138.835 98.9367 139.028 99.35C139.228 99.7633 139.328 100.267 139.328 100.86V101.11H135.478C135.512 101.677 135.662 102.103 135.928 102.39C136.202 102.677 136.568 102.82 137.028 102.82C137.375 102.82 137.658 102.74 137.878 102.58C138.105 102.413 138.262 102.197 138.348 101.93L139.248 102C139.108 102.473 138.842 102.863 138.448 103.17C138.062 103.47 137.588 103.62 137.028 103.62ZM135.478 100.37H138.408C138.368 99.8567 138.218 99.48 137.958 99.24C137.705 99 137.382 98.88 136.988 98.88C136.582 98.88 136.245 99.0067 135.978 99.26C135.718 99.5067 135.552 99.8767 135.478 100.37ZM142.536 103.62C142.043 103.62 141.613 103.507 141.246 103.28C140.886 103.053 140.606 102.733 140.406 102.32C140.206 101.9 140.106 101.41 140.106 100.85C140.106 100.29 140.206 99.8033 140.406 99.39C140.606 98.9767 140.886 98.6567 141.246 98.43C141.613 98.1967 142.043 98.08 142.536 98.08C142.943 98.08 143.303 98.1533 143.616 98.3C143.936 98.44 144.196 98.6467 144.396 98.92C144.596 99.1933 144.726 99.5267 144.786 99.92L143.906 99.98C143.846 99.6267 143.693 99.3567 143.446 99.17C143.199 98.9767 142.896 98.88 142.536 98.88C142.049 98.88 141.669 99.0567 141.396 99.41C141.123 99.7567 140.986 100.237 140.986 100.85C140.986 101.463 141.123 101.947 141.396 102.3C141.669 102.647 142.049 102.82 142.536 102.82C142.896 102.82 143.199 102.72 143.446 102.52C143.693 102.32 143.846 102.02 143.906 101.62L144.786 101.68C144.726 102.073 144.596 102.417 144.396 102.71C144.196 102.997 143.936 103.22 143.616 103.38C143.303 103.54 142.943 103.62 142.536 103.62ZM145.827 103.5V96.4H146.667V99.37L146.567 99.35C146.634 99.0567 146.747 98.8167 146.907 98.63C147.067 98.4433 147.264 98.3067 147.497 98.22C147.731 98.1267 147.987 98.08 148.267 98.08C148.647 98.08 148.967 98.1667 149.227 98.34C149.494 98.5067 149.694 98.7433 149.827 99.05C149.967 99.35 150.037 99.6967 150.037 100.09V103.5H149.197V100.33C149.197 99.8167 149.104 99.4367 148.917 99.19C148.737 98.9433 148.461 98.82 148.087 98.82C147.661 98.82 147.317 98.95 147.057 99.21C146.797 99.47 146.667 99.8467 146.667 100.34V103.5H145.827ZM151.443 103.5V98.2H152.213L152.243 99.55L152.143 99.46C152.209 99.1467 152.326 98.89 152.493 98.69C152.659 98.4833 152.859 98.33 153.093 98.23C153.333 98.13 153.589 98.08 153.863 98.08C154.269 98.08 154.603 98.17 154.863 98.35C155.129 98.53 155.326 98.7733 155.453 99.08C155.586 99.38 155.653 99.7167 155.653 100.09V103.5H154.813V100.33C154.813 100.003 154.773 99.73 154.693 99.51C154.619 99.2833 154.499 99.1133 154.333 99C154.166 98.88 153.949 98.82 153.683 98.82C153.276 98.82 152.939 98.95 152.673 99.21C152.413 99.4633 152.283 99.8367 152.283 100.33V103.5H151.443ZM159.206 103.62C158.719 103.62 158.293 103.507 157.926 103.28C157.559 103.053 157.276 102.733 157.076 102.32C156.876 101.9 156.776 101.41 156.776 100.85C156.776 100.283 156.876 99.7933 157.076 99.38C157.276 98.9667 157.559 98.6467 157.926 98.42C158.293 98.1933 158.719 98.08 159.206 98.08C159.693 98.08 160.116 98.1933 160.476 98.42C160.843 98.6467 161.126 98.9667 161.326 99.38C161.526 99.7933 161.626 100.283 161.626 100.85C161.626 101.41 161.526 101.9 161.326 102.32C161.126 102.733 160.843 103.053 160.476 103.28C160.116 103.507 159.693 103.62 159.206 103.62ZM159.206 102.82C159.693 102.82 160.069 102.647 160.336 102.3C160.609 101.947 160.746 101.463 160.746 100.85C160.746 100.237 160.609 99.7567 160.336 99.41C160.069 99.0567 159.693 98.88 159.206 98.88C158.719 98.88 158.339 99.0567 158.066 99.41C157.793 99.7567 157.656 100.237 157.656 100.85C157.656 101.463 157.793 101.947 158.066 102.3C158.339 102.647 158.719 102.82 159.206 102.82ZM163.86 103.5C163.553 103.5 163.303 103.42 163.11 103.26C162.916 103.1 162.82 102.847 162.82 102.5V96.4H163.66V102.43C163.66 102.537 163.686 102.62 163.74 102.68C163.8 102.733 163.883 102.76 163.99 102.76H164.45V103.5H163.86ZM167.497 103.62C167.01 103.62 166.584 103.507 166.217 103.28C165.85 103.053 165.567 102.733 165.367 102.32C165.167 101.9 165.067 101.41 165.067 100.85C165.067 100.283 165.167 99.7933 165.367 99.38C165.567 98.9667 165.85 98.6467 166.217 98.42C166.584 98.1933 167.01 98.08 167.497 98.08C167.984 98.08 168.407 98.1933 168.767 98.42C169.134 98.6467 169.417 98.9667 169.617 99.38C169.817 99.7933 169.917 100.283 169.917 100.85C169.917 101.41 169.817 101.9 169.617 102.32C169.417 102.733 169.134 103.053 168.767 103.28C168.407 103.507 167.984 103.62 167.497 103.62ZM167.497 102.82C167.984 102.82 168.36 102.647 168.627 102.3C168.9 101.947 169.037 101.463 169.037 100.85C169.037 100.237 168.9 99.7567 168.627 99.41C168.36 99.0567 167.984 98.88 167.497 98.88C167.01 98.88 166.63 99.0567 166.357 99.41C166.084 99.7567 165.947 100.237 165.947 100.85C165.947 101.463 166.084 101.947 166.357 102.3C166.63 102.647 167.01 102.82 167.497 102.82ZM173.072 105.12C172.692 105.12 172.348 105.057 172.042 104.93C171.735 104.803 171.478 104.623 171.272 104.39C171.065 104.157 170.925 103.887 170.852 103.58L171.732 103.52C171.812 103.767 171.952 103.96 172.152 104.1C172.358 104.247 172.665 104.32 173.072 104.32C173.552 104.32 173.918 104.223 174.172 104.03C174.432 103.837 174.562 103.547 174.562 103.16V102.3C174.435 102.58 174.232 102.803 173.952 102.97C173.672 103.137 173.358 103.22 173.012 103.22C172.565 103.22 172.165 103.11 171.812 102.89C171.465 102.67 171.192 102.367 170.992 101.98C170.798 101.593 170.702 101.15 170.702 100.65C170.702 100.143 170.798 99.7 170.992 99.32C171.185 98.9333 171.452 98.63 171.792 98.41C172.138 98.19 172.532 98.08 172.972 98.08C173.345 98.08 173.678 98.1667 173.972 98.34C174.272 98.5133 174.482 98.7467 174.602 99.04V98.2H175.402V103.14C175.402 103.553 175.308 103.907 175.122 104.2C174.935 104.5 174.668 104.727 174.322 104.88C173.975 105.04 173.558 105.12 173.072 105.12ZM173.052 102.42C173.505 102.42 173.868 102.263 174.142 101.95C174.415 101.63 174.555 101.197 174.562 100.65C174.568 100.283 174.508 99.97 174.382 99.71C174.262 99.4433 174.085 99.24 173.852 99.1C173.625 98.9533 173.358 98.88 173.052 98.88C172.585 98.88 172.222 99.04 171.962 99.36C171.708 99.6733 171.582 100.103 171.582 100.65C171.582 101.197 171.712 101.63 171.972 101.95C172.238 102.263 172.598 102.42 173.052 102.42ZM177.034 105V104.26H177.644C177.831 104.26 177.967 104.23 178.054 104.17C178.147 104.117 178.217 104.027 178.264 103.9L178.454 103.4H178.164L176.224 98.2H177.144L178.724 102.62L180.234 98.2H181.154L179.004 104.17C178.904 104.457 178.754 104.667 178.554 104.8C178.354 104.933 178.077 105 177.724 105H177.034ZM186.475 103.66C185.795 103.66 185.258 103.497 184.865 103.17C184.472 102.837 184.275 102.367 184.275 101.76C184.275 101.453 184.318 101.183 184.405 100.95C184.492 100.71 184.635 100.48 184.835 100.26C185.042 100.04 185.322 99.8067 185.675 99.56C185.522 99.36 185.392 99.1733 185.285 99C185.178 98.82 185.095 98.64 185.035 98.46C184.982 98.28 184.955 98.0867 184.955 97.88C184.955 97.3667 185.108 96.9667 185.415 96.68C185.728 96.3867 186.155 96.24 186.695 96.24C187.048 96.24 187.348 96.3033 187.595 96.43C187.842 96.55 188.028 96.7233 188.155 96.95C188.288 97.1767 188.355 97.4467 188.355 97.76C188.355 98.14 188.242 98.4833 188.015 98.79C187.788 99.09 187.408 99.4167 186.875 99.77L188.495 101.84C188.735 101.507 188.855 101 188.855 100.32L189.695 100.4C189.688 100.8 189.622 101.187 189.495 101.56C189.375 101.933 189.218 102.237 189.025 102.47L189.875 103.5H188.865L188.495 103.05C188.302 103.237 188.035 103.387 187.695 103.5C187.362 103.607 186.955 103.66 186.475 103.66ZM186.575 102.86C186.915 102.86 187.198 102.82 187.425 102.74C187.652 102.66 187.822 102.56 187.935 102.44L186.175 100.22C185.815 100.467 185.558 100.707 185.405 100.94C185.252 101.173 185.175 101.447 185.175 101.76C185.175 102.093 185.285 102.36 185.505 102.56C185.732 102.76 186.088 102.86 186.575 102.86ZM186.415 99.16C186.668 99 186.872 98.8533 187.025 98.72C187.178 98.58 187.288 98.4367 187.355 98.29C187.422 98.1433 187.455 97.9867 187.455 97.82C187.455 97.58 187.388 97.3967 187.255 97.27C187.122 97.1433 186.935 97.08 186.695 97.08C186.428 97.08 186.222 97.15 186.075 97.29C185.928 97.43 185.855 97.6267 185.855 97.88C185.855 98.0133 185.872 98.1467 185.905 98.28C185.938 98.4067 185.995 98.54 186.075 98.68C186.162 98.82 186.275 98.98 186.415 99.16ZM193.496 103.5V96.4H195.936C196.776 96.4 197.406 96.5533 197.826 96.86C198.246 97.1667 198.456 97.65 198.456 98.31C198.456 98.6167 198.39 98.8867 198.256 99.12C198.123 99.3533 197.933 99.5367 197.686 99.67C197.44 99.7967 197.146 99.86 196.806 99.86L196.796 99.8C197.403 99.8 197.88 99.9633 198.226 100.29C198.58 100.61 198.756 101.03 198.756 101.55C198.756 102.197 198.546 102.683 198.126 103.01C197.706 103.337 197.11 103.5 196.336 103.5H193.496ZM194.356 102.66H196.336C196.823 102.66 197.196 102.56 197.456 102.36C197.723 102.16 197.856 101.873 197.856 101.5C197.856 101.127 197.723 100.837 197.456 100.63C197.196 100.417 196.823 100.31 196.336 100.31H194.356V102.66ZM194.356 99.47H195.936C196.456 99.47 196.856 99.3733 197.136 99.18C197.416 98.98 197.556 98.7033 197.556 98.35C197.556 97.9767 197.42 97.7 197.146 97.52C196.88 97.3333 196.476 97.24 195.936 97.24H194.356V99.47ZM201.796 103.62C201.269 103.62 200.846 103.443 200.526 103.09C200.213 102.73 200.056 102.237 200.056 101.61V98.2H200.896V101.38C200.896 101.893 200.986 102.273 201.166 102.52C201.353 102.76 201.636 102.88 202.016 102.88C202.436 102.88 202.766 102.747 203.006 102.48C203.246 102.207 203.366 101.833 203.366 101.36V98.2H204.206V103.5H203.406V102.19L203.536 102.26C203.429 102.693 203.226 103.03 202.926 103.27C202.626 103.503 202.249 103.62 201.796 103.62ZM207.64 103.62C207.153 103.62 206.743 103.543 206.41 103.39C206.083 103.237 205.83 103.027 205.65 102.76C205.477 102.487 205.377 102.177 205.35 101.83L206.23 101.77C206.283 102.09 206.413 102.347 206.62 102.54C206.833 102.727 207.173 102.82 207.64 102.82C208 102.82 208.277 102.763 208.47 102.65C208.67 102.53 208.77 102.34 208.77 102.08C208.77 101.94 208.737 101.823 208.67 101.73C208.61 101.637 208.487 101.557 208.3 101.49C208.113 101.417 207.84 101.347 207.48 101.28C206.987 101.187 206.6 101.07 206.32 100.93C206.04 100.79 205.843 100.62 205.73 100.42C205.617 100.22 205.56 99.98 205.56 99.7C205.56 99.2267 205.733 98.84 206.08 98.54C206.433 98.2333 206.93 98.08 207.57 98.08C208.037 98.08 208.417 98.1633 208.71 98.33C209.01 98.49 209.237 98.7 209.39 98.96C209.543 99.22 209.637 99.4933 209.67 99.78L208.79 99.84C208.777 99.6733 208.727 99.5167 208.64 99.37C208.553 99.2233 208.423 99.1067 208.25 99.02C208.077 98.9267 207.843 98.88 207.55 98.88C207.17 98.88 206.89 98.9533 206.71 99.1C206.53 99.2467 206.44 99.4333 206.44 99.66C206.44 99.8333 206.473 99.9767 206.54 100.09C206.613 100.197 206.737 100.287 206.91 100.36C207.09 100.427 207.333 100.487 207.64 100.54C208.16 100.627 208.567 100.737 208.86 100.87C209.153 101.003 209.357 101.17 209.47 101.37C209.59 101.563 209.65 101.8 209.65 102.08C209.65 102.567 209.46 102.947 209.08 103.22C208.707 103.487 208.227 103.62 207.64 103.62ZM210.808 103.5V98.2H211.648V103.5H210.808ZM210.788 97.37V96.39H211.668V97.37H210.788ZM213.308 103.5V98.2H214.078L214.108 99.55L214.008 99.46C214.074 99.1467 214.191 98.89 214.358 98.69C214.524 98.4833 214.724 98.33 214.958 98.23C215.198 98.13 215.454 98.08 215.728 98.08C216.134 98.08 216.468 98.17 216.728 98.35C216.994 98.53 217.191 98.7733 217.318 99.08C217.451 99.38 217.518 99.7167 217.518 100.09V103.5H216.678V100.33C216.678 100.003 216.638 99.73 216.558 99.51C216.484 99.2833 216.364 99.1133 216.198 99C216.031 98.88 215.814 98.82 215.548 98.82C215.141 98.82 214.804 98.95 214.538 99.21C214.278 99.4633 214.148 99.8367 214.148 100.33V103.5H213.308ZM221.071 103.62C220.571 103.62 220.138 103.507 219.771 103.28C219.411 103.053 219.131 102.733 218.931 102.32C218.738 101.9 218.641 101.41 218.641 100.85C218.641 100.29 218.738 99.8033 218.931 99.39C219.131 98.9767 219.408 98.6567 219.761 98.43C220.121 98.1967 220.545 98.08 221.031 98.08C221.491 98.08 221.898 98.19 222.251 98.41C222.605 98.6233 222.878 98.9367 223.071 99.35C223.271 99.7633 223.371 100.267 223.371 100.86V101.11H219.521C219.555 101.677 219.705 102.103 219.971 102.39C220.245 102.677 220.611 102.82 221.071 102.82C221.418 102.82 221.701 102.74 221.921 102.58C222.148 102.413 222.305 102.197 222.391 101.93L223.291 102C223.151 102.473 222.885 102.863 222.491 103.17C222.105 103.47 221.631 103.62 221.071 103.62ZM219.521 100.37H222.451C222.411 99.8567 222.261 99.48 222.001 99.24C221.748 99 221.425 98.88 221.031 98.88C220.625 98.88 220.288 99.0067 220.021 99.26C219.761 99.5067 219.595 99.8767 219.521 100.37ZM226.439 103.62C225.952 103.62 225.542 103.543 225.209 103.39C224.882 103.237 224.629 103.027 224.449 102.76C224.276 102.487 224.176 102.177 224.149 101.83L225.029 101.77C225.082 102.09 225.212 102.347 225.419 102.54C225.632 102.727 225.972 102.82 226.439 102.82C226.799 102.82 227.076 102.763 227.269 102.65C227.469 102.53 227.569 102.34 227.569 102.08C227.569 101.94 227.536 101.823 227.469 101.73C227.409 101.637 227.286 101.557 227.099 101.49C226.912 101.417 226.639 101.347 226.279 101.28C225.786 101.187 225.399 101.07 225.119 100.93C224.839 100.79 224.642 100.62 224.529 100.42C224.416 100.22 224.359 99.98 224.359 99.7C224.359 99.2267 224.532 98.84 224.879 98.54C225.232 98.2333 225.729 98.08 226.369 98.08C226.836 98.08 227.216 98.1633 227.509 98.33C227.809 98.49 228.036 98.7 228.189 98.96C228.342 99.22 228.436 99.4933 228.469 99.78L227.589 99.84C227.576 99.6733 227.526 99.5167 227.439 99.37C227.352 99.2233 227.222 99.1067 227.049 99.02C226.876 98.9267 226.642 98.88 226.349 98.88C225.969 98.88 225.689 98.9533 225.509 99.1C225.329 99.2467 225.239 99.4333 225.239 99.66C225.239 99.8333 225.272 99.9767 225.339 100.09C225.412 100.197 225.536 100.287 225.709 100.36C225.889 100.427 226.132 100.487 226.439 100.54C226.959 100.627 227.366 100.737 227.659 100.87C227.952 101.003 228.156 101.17 228.269 101.37C228.389 101.563 228.449 101.8 228.449 102.08C228.449 102.567 228.259 102.947 227.879 103.22C227.506 103.487 227.026 103.62 226.439 103.62ZM231.537 103.62C231.05 103.62 230.64 103.543 230.307 103.39C229.98 103.237 229.727 103.027 229.547 102.76C229.373 102.487 229.273 102.177 229.247 101.83L230.127 101.77C230.18 102.09 230.31 102.347 230.517 102.54C230.73 102.727 231.07 102.82 231.537 102.82C231.897 102.82 232.173 102.763 232.367 102.65C232.567 102.53 232.667 102.34 232.667 102.08C232.667 101.94 232.633 101.823 232.567 101.73C232.507 101.637 232.383 101.557 232.197 101.49C232.01 101.417 231.737 101.347 231.377 101.28C230.883 101.187 230.497 101.07 230.217 100.93C229.937 100.79 229.74 100.62 229.627 100.42C229.513 100.22 229.457 99.98 229.457 99.7C229.457 99.2267 229.63 98.84 229.977 98.54C230.33 98.2333 230.827 98.08 231.467 98.08C231.933 98.08 232.313 98.1633 232.607 98.33C232.907 98.49 233.133 98.7 233.287 98.96C233.44 99.22 233.533 99.4933 233.567 99.78L232.687 99.84C232.673 99.6733 232.623 99.5167 232.537 99.37C232.45 99.2233 232.32 99.1067 232.147 99.02C231.973 98.9267 231.74 98.88 231.447 98.88C231.067 98.88 230.787 98.9533 230.607 99.1C230.427 99.2467 230.337 99.4333 230.337 99.66C230.337 99.8333 230.37 99.9767 230.437 100.09C230.51 100.197 230.633 100.287 230.807 100.36C230.987 100.427 231.23 100.487 231.537 100.54C232.057 100.627 232.463 100.737 232.757 100.87C233.05 101.003 233.253 101.17 233.367 101.37C233.487 101.563 233.547 101.8 233.547 102.08C233.547 102.567 233.357 102.947 232.977 103.22C232.603 103.487 232.123 103.62 231.537 103.62ZM239.952 103.66C239.405 103.66 238.929 103.553 238.522 103.34C238.122 103.127 237.812 102.823 237.592 102.43C237.379 102.03 237.272 101.56 237.272 101.02V96.4H238.132V101.02C238.132 101.593 238.289 102.037 238.602 102.35C238.922 102.663 239.372 102.82 239.952 102.82C240.525 102.82 240.969 102.663 241.282 102.35C241.602 102.037 241.762 101.593 241.762 101.02V96.4H242.622V101.02C242.622 101.56 242.512 102.03 242.292 102.43C242.079 102.823 241.772 103.127 241.372 103.34C240.972 103.553 240.499 103.66 239.952 103.66ZM244.196 103.5V98.2H244.966L244.996 99.55L244.896 99.46C244.963 99.1467 245.08 98.89 245.246 98.69C245.413 98.4833 245.613 98.33 245.846 98.23C246.086 98.13 246.343 98.08 246.616 98.08C247.023 98.08 247.356 98.17 247.616 98.35C247.883 98.53 248.08 98.7733 248.206 99.08C248.34 99.38 248.406 99.7167 248.406 100.09V103.5H247.566V100.33C247.566 100.003 247.526 99.73 247.446 99.51C247.373 99.2833 247.253 99.1133 247.086 99C246.92 98.88 246.703 98.82 246.436 98.82C246.03 98.82 245.693 98.95 245.426 99.21C245.166 99.4633 245.036 99.8367 245.036 100.33V103.5H244.196ZM249.948 103.5V98.2H250.788V103.5H249.948ZM249.928 97.37V96.39H250.808V97.37H249.928ZM253.642 103.5L251.712 98.2H252.632L254.172 102.64L255.712 98.2H256.632L254.702 103.5H253.642ZM259.46 103.62C258.96 103.62 258.527 103.507 258.16 103.28C257.8 103.053 257.52 102.733 257.32 102.32C257.127 101.9 257.03 101.41 257.03 100.85C257.03 100.29 257.127 99.8033 257.32 99.39C257.52 98.9767 257.797 98.6567 258.15 98.43C258.51 98.1967 258.933 98.08 259.42 98.08C259.88 98.08 260.287 98.19 260.64 98.41C260.993 98.6233 261.267 98.9367 261.46 99.35C261.66 99.7633 261.76 100.267 261.76 100.86V101.11H257.91C257.943 101.677 258.093 102.103 258.36 102.39C258.633 102.677 259 102.82 259.46 102.82C259.807 102.82 260.09 102.74 260.31 102.58C260.537 102.413 260.693 102.197 260.78 101.93L261.68 102C261.54 102.473 261.273 102.863 260.88 103.17C260.493 103.47 260.02 103.62 259.46 103.62ZM257.91 100.37H260.84C260.8 99.8567 260.65 99.48 260.39 99.24C260.137 99 259.813 98.88 259.42 98.88C259.013 98.88 258.677 99.0067 258.41 99.26C258.15 99.5067 257.983 99.8767 257.91 100.37ZM262.898 103.5V98.2H263.638L263.678 99.54L263.598 99.51C263.664 99.0567 263.808 98.7267 264.028 98.52C264.254 98.3067 264.554 98.2 264.928 98.2H265.448V99H264.938C264.671 99 264.448 99.05 264.268 99.15C264.094 99.2433 263.961 99.3867 263.868 99.58C263.781 99.7667 263.738 100.007 263.738 100.3V103.5H262.898ZM268.216 103.62C267.73 103.62 267.32 103.543 266.986 103.39C266.66 103.237 266.406 103.027 266.226 102.76C266.053 102.487 265.953 102.177 265.926 101.83L266.806 101.77C266.86 102.09 266.99 102.347 267.196 102.54C267.41 102.727 267.75 102.82 268.216 102.82C268.576 102.82 268.853 102.763 269.046 102.65C269.246 102.53 269.346 102.34 269.346 102.08C269.346 101.94 269.313 101.823 269.246 101.73C269.186 101.637 269.063 101.557 268.876 101.49C268.69 101.417 268.416 101.347 268.056 101.28C267.563 101.187 267.176 101.07 266.896 100.93C266.616 100.79 266.42 100.62 266.306 100.42C266.193 100.22 266.136 99.98 266.136 99.7C266.136 99.2267 266.31 98.84 266.656 98.54C267.01 98.2333 267.506 98.08 268.146 98.08C268.613 98.08 268.993 98.1633 269.286 98.33C269.586 98.49 269.813 98.7 269.966 98.96C270.12 99.22 270.213 99.4933 270.246 99.78L269.366 99.84C269.353 99.6733 269.303 99.5167 269.216 99.37C269.13 99.2233 269 99.1067 268.826 99.02C268.653 98.9267 268.42 98.88 268.126 98.88C267.746 98.88 267.466 98.9533 267.286 99.1C267.106 99.2467 267.016 99.4333 267.016 99.66C267.016 99.8333 267.05 99.9767 267.116 100.09C267.19 100.197 267.313 100.287 267.486 100.36C267.666 100.427 267.91 100.487 268.216 100.54C268.736 100.627 269.143 100.737 269.436 100.87C269.73 101.003 269.933 101.17 270.046 101.37C270.166 101.563 270.226 101.8 270.226 102.08C270.226 102.567 270.036 102.947 269.656 103.22C269.283 103.487 268.803 103.62 268.216 103.62ZM271.384 103.5V98.2H272.224V103.5H271.384ZM271.364 97.37V96.39H272.244V97.37H271.364ZM275.365 103.5C274.885 103.5 274.528 103.39 274.295 103.17C274.068 102.95 273.955 102.607 273.955 102.14V96.96H274.795V102.12C274.795 102.36 274.848 102.527 274.955 102.62C275.062 102.713 275.225 102.76 275.445 102.76H276.205V103.5H275.365ZM273.175 98.94V98.2H276.205V98.94H273.175ZM277.473 105V104.26H278.083C278.27 104.26 278.407 104.23 278.493 104.17C278.587 104.117 278.657 104.027 278.703 103.9L278.893 103.4H278.603L276.663 98.2H277.583L279.163 102.62L280.673 98.2H281.593L279.443 104.17C279.343 104.457 279.193 104.667 278.993 104.8C278.793 104.933 278.517 105 278.163 105H277.473ZM282.714 104.6H281.964C282.384 103.88 282.701 103.163 282.914 102.45C283.128 101.73 283.234 101.013 283.234 100.3C283.234 98.8733 282.811 97.44 281.964 96H282.714C283.641 97.3867 284.104 98.82 284.104 100.3C284.104 101.773 283.641 103.207 282.714 104.6Z" fill="#8E8E8E"/>
<path d="M136.312 187.302V189.192H130.534V191.46C130.534 192.306 130.345 192.9 129.967 193.242C129.607 193.602 128.995 193.782 128.131 193.782H124.189L123.568 191.865H128.212V189.192H118.357C119.599 189.966 120.805 190.893 121.975 191.973L120.382 193.377C119.194 192.207 117.853 191.163 116.359 190.245L117.547 189.192H111.715V187.302H128.212V185.682H114.01V175.152H120.868V173.586H111.985V171.696H118.843C118.465 171.03 117.988 170.355 117.412 169.671L119.491 168.969C119.977 169.527 120.508 170.238 121.084 171.102L119.599 171.696H126.673C127.393 170.688 127.942 169.797 128.32 169.023L130.48 169.563C129.94 170.499 129.49 171.21 129.13 171.696H136.042V173.586H127.24V175.152H133.99V185.682H130.534V187.302H136.312ZM122.893 173.586V175.071V175.152H125.215V173.586H122.893ZM116.359 176.907V181.173H131.668V180.147H127.267C126.547 180.147 126.025 180.003 125.701 179.715C125.377 179.409 125.215 178.923 125.215 178.257V176.907H122.704C122.47 177.807 121.993 178.581 121.273 179.229C120.553 179.877 119.482 180.471 118.06 181.011L117.061 179.418C118.159 179.04 118.978 178.662 119.518 178.284C120.058 177.906 120.427 177.447 120.625 176.907H116.359ZM131.668 176.907H127.24V178.014C127.24 178.374 127.438 178.554 127.834 178.554H131.668V176.907ZM131.668 182.712H116.359V183.954H131.668V182.712ZM151.972 191.541H163.339V193.539H138.661V191.541H149.596V189.732H139.741V187.842H149.596V186.195H141.037V177.393H149.596V175.827H139.012V173.937H149.596V172.209C147.742 172.245 144.862 172.263 140.956 172.263L140.47 170.319C145.348 170.319 149.353 170.274 152.485 170.184C155.635 170.076 158.335 169.851 160.585 169.509L161.584 171.48C159.244 171.804 156.04 172.029 151.972 172.155V173.937H162.988V175.827H151.972V177.393H160.909V186.195H151.972V187.842H162.259V189.732H151.972V191.541ZM149.596 179.175H143.359V180.93H149.596V179.175ZM158.587 180.93V179.175H151.972V180.93H158.587ZM143.359 182.604V184.44H149.596V182.604H143.359ZM151.972 184.44H158.587V182.604H151.972V184.44ZM167.902 170.319H190.069V172.668H170.521V176.826C170.521 180.534 170.287 183.81 169.819 186.654C169.351 189.48 168.568 191.91 167.47 193.944L165.337 191.973C166.291 190.263 166.957 188.202 167.335 185.79C167.713 183.36 167.902 180.354 167.902 176.772V170.319ZM180.727 177.501V178.095H189.178C189.16 183.441 188.926 187.302 188.476 189.678C188.224 191.028 187.738 192 187.018 192.594C186.316 193.188 185.272 193.485 183.886 193.485H180.565L179.971 191.109H183.535C184.309 191.109 184.867 190.974 185.209 190.704C185.551 190.416 185.794 189.903 185.938 189.165C186.118 188.337 186.262 187.131 186.37 185.547C186.478 183.945 186.541 182.226 186.559 180.39H180.619C180.457 182.55 180.061 184.431 179.431 186.033C178.819 187.617 177.91 189.048 176.704 190.326C175.516 191.604 173.932 192.828 171.952 193.998L170.521 191.838C172.249 190.83 173.626 189.804 174.652 188.76C175.696 187.698 176.488 186.51 177.028 185.196C177.568 183.864 177.919 182.262 178.081 180.39H171.925V178.095H178.189V177.501V173.937H180.727V177.501ZM216.61 193.647C213.586 193.593 210.967 193.341 208.753 192.891C206.539 192.459 204.55 191.748 202.786 190.758C200.878 192.27 197.872 193.314 193.768 193.89L192.877 191.568C196.405 191.082 198.961 190.317 200.545 189.273C199.123 188.193 197.674 186.708 196.198 184.818L198.115 183.495C199.429 185.187 200.824 186.555 202.3 187.599C202.696 187.023 202.993 186.366 203.191 185.628C203.389 184.872 203.506 184.008 203.542 183.036H194.416V172.938H203.569V169.401H206.134V172.938H215.611V183.036H206.107C206.017 185.502 205.486 187.464 204.514 188.922C206.08 189.714 207.862 190.29 209.86 190.65C211.858 191.01 214.252 191.226 217.042 191.298L216.61 193.647ZM203.569 175.26H196.927V180.714H203.569V175.26ZM213.1 180.714V175.26H206.134V180.714H213.1Z" fill="#231F20"/>
<path d="M12.98 211.632V217.152H16.26V218.256H12.98V221.216H11.748V218.256H8.66V217.152H11.748V211.632H11.636C11.4973 212.763 10.9853 213.867 10.1 214.944C9.21467 216.021 7.81733 217.232 5.908 218.576L5.14 217.584C6.84667 216.411 8.212 215.264 9.236 214.144C10.26 213.024 10.964 211.845 11.348 210.608H5.46V209.456H11.748V206.624H12.98V209.456H19.54V210.608H13.396C13.78 211.824 14.5053 212.992 15.572 214.112C16.6493 215.232 18.0787 216.395 19.86 217.6L19.14 218.592C17.156 217.195 15.684 215.963 14.724 214.896C13.7747 213.819 13.2307 212.731 13.092 211.632H12.98ZM21.652 221.28V207.056H35.348V221.28H34.18V220.32H22.836V221.28H21.652ZM22.82 219.248H34.18V208.096H22.82V219.248ZM23.444 214.112C25.0333 213.771 26.4467 213.333 27.684 212.8C26.9907 212.341 26.3987 211.851 25.908 211.328C25.364 211.808 24.7827 212.213 24.164 212.544L23.604 211.664C24.372 211.28 25.06 210.805 25.668 210.24C26.276 209.675 26.7347 209.083 27.044 208.464L28.036 208.8C27.9187 209.024 27.7213 209.333 27.444 209.728H32.196V210.528C31.6093 211.381 30.7827 212.149 29.716 212.832C30.8147 213.355 32.1107 213.787 33.604 214.128L33.204 215.104C31.54 214.699 30.036 214.133 28.692 213.408C27.3587 214.101 25.7213 214.672 23.78 215.12L23.444 214.112ZM26.628 210.656C27.1933 211.264 27.892 211.813 28.724 212.304C29.6413 211.803 30.3453 211.253 30.836 210.656H26.644H26.628ZM26.74 214.384C28.1053 214.629 29.5507 214.987 31.076 215.456L30.66 216.384C29.0173 215.851 27.572 215.483 26.324 215.28L26.74 214.384ZM25.268 216.176C27.5613 216.539 29.8493 217.056 32.132 217.728L31.748 218.704C29.6147 218.021 27.3427 217.499 24.932 217.136L25.268 216.176ZM41.348 206.784C41.0707 208.128 40.66 209.413 40.116 210.64V221.2H38.98V212.768C38.532 213.472 38.0467 214.096 37.524 214.64L36.868 213.6C37.6893 212.693 38.372 211.664 38.916 210.512C39.4707 209.349 39.924 207.995 40.276 206.448L41.348 206.784ZM47.364 215.184C47.748 215.92 48.3187 216.613 49.076 217.264C49.844 217.904 50.8253 218.581 52.02 219.296L51.412 220.384C50.164 219.637 49.1667 218.901 48.42 218.176C47.6733 217.451 47.22 216.693 47.06 215.904H46.932V221.216H45.78V215.904H45.668C45.3373 217.483 43.908 218.981 41.38 220.4L40.788 219.328C41.972 218.677 42.9373 218.016 43.684 217.344C44.4413 216.672 45.0067 215.952 45.38 215.184H40.948V214.064H45.78V212.288H42.068V207.104H50.756V212.288H46.932V214.064H51.812V215.184H47.364ZM49.556 208.192H43.252V211.2H49.556V208.192ZM60.564 207.104H67.316C67.316 208.149 67.3 208.965 67.268 209.552C67.2467 210.139 67.1933 210.715 67.108 211.28C67.0333 211.909 66.8307 212.347 66.5 212.592C66.1693 212.837 65.636 212.96 64.9 212.96H63.716L63.444 211.92H64.756C65.172 211.92 65.4653 211.856 65.636 211.728C65.8173 211.6 65.9293 211.365 65.972 211.024C66.036 210.619 66.0787 210.208 66.1 209.792C66.132 209.376 66.148 208.827 66.148 208.144H63.732C63.668 209.413 63.412 210.443 62.964 211.232C62.516 212.011 61.7907 212.731 60.788 213.392L60.148 212.416L60.212 212.384L59.22 212.864L58.82 212C58.0627 212.288 57.3 212.544 56.532 212.768C55.764 212.992 54.852 213.237 53.796 213.504L53.476 212.528C53.7 212.453 53.8493 212.363 53.924 212.256C54.0093 212.139 54.052 211.957 54.052 211.712V207.52C55.0227 207.467 55.9933 207.36 56.964 207.2C57.9453 207.04 58.8093 206.848 59.556 206.624L60.004 207.616C59.3533 207.808 58.5907 207.984 57.716 208.144C56.8413 208.304 56.004 208.416 55.204 208.48V212.096C56.324 211.787 57.3747 211.451 58.356 211.088C57.8973 210.256 57.5613 209.675 57.348 209.344L58.308 208.848C58.5853 209.253 58.916 209.808 59.3 210.512C59.684 211.205 59.9933 211.824 60.228 212.368C60.804 211.995 61.252 211.627 61.572 211.264C61.9027 210.901 62.148 210.48 62.308 210C62.468 209.509 62.5693 208.891 62.612 208.144H60.564V207.104ZM55.924 221.2H54.74V213.792H66.26V221.2H65.076V220.32H55.924V221.2ZM59.812 216.624V214.72H55.924V216.624H59.812ZM60.948 216.624H65.076V214.72H60.948V216.624ZM59.812 217.536H55.924V219.376H59.812V217.536ZM60.948 217.536V219.376H65.076V217.536H60.948ZM72.58 220.784L72.292 219.552H76.1V211.776C77.1773 211.381 78.1853 210.907 79.124 210.352C80.0733 209.797 80.8093 209.243 81.332 208.688H69.828V207.456H83.14V208.448C82.596 209.237 81.828 209.979 80.836 210.672C79.8547 211.365 78.7027 212 77.38 212.576V219.312C77.38 219.835 77.2627 220.208 77.028 220.432C76.7933 220.667 76.42 220.784 75.908 220.784H72.58ZM97.396 213.104H92.996V215.632H98.212V216.704H92.996V219.6H99.14V220.72H85.86V219.6H91.748V216.704H86.788V215.632H91.748V213.104H87.636V212.016C87.156 212.293 86.4627 212.661 85.556 213.12L84.916 211.968C86.868 211.051 88.3507 210.171 89.364 209.328C90.388 208.475 91.1293 207.563 91.588 206.592H93.156C93.5933 207.541 94.3507 208.443 95.428 209.296C96.516 210.149 98.068 211.045 100.084 211.984L99.46 213.12C98.7133 212.768 98.0253 212.416 97.396 212.064V213.104ZM92.308 207.2C92.084 208.053 91.5933 208.869 90.836 209.648C90.0893 210.427 89.0227 211.216 87.636 212.016H97.3C95.8493 211.216 94.7293 210.427 93.94 209.648C93.1613 208.869 92.6547 208.053 92.42 207.2H92.308ZM104.932 211.296C105.124 210.965 105.391 210.469 105.732 209.808L106.692 210.32C106.137 211.397 105.529 212.437 104.868 213.44C104.207 214.432 103.609 215.205 103.076 215.76C103.78 215.589 104.809 215.312 106.164 214.928L106.356 215.968C104.788 216.416 103.236 216.8 101.7 217.12L101.364 216.128C101.759 215.797 102.207 215.312 102.708 214.672C103.209 214.032 103.721 213.296 104.244 212.464C103.38 212.645 102.463 212.8 101.492 212.928L101.204 211.904C101.62 211.467 102.089 210.741 102.612 209.728C103.145 208.704 103.604 207.643 103.988 206.544L105.044 206.928C104.692 207.845 104.303 208.731 103.876 209.584C103.449 210.437 103.039 211.152 102.644 211.728C103.476 211.611 104.239 211.467 104.932 211.296ZM114.916 217.232L115.908 217.728L115.62 220.24C115.588 220.517 115.492 220.731 115.332 220.88C115.183 221.04 114.985 221.12 114.74 221.12C114.559 221.12 114.356 221.072 114.132 220.976C113.033 220.507 112.116 219.637 111.38 218.368C110.132 219.104 108.735 219.701 107.188 220.16L106.74 219.104C108.287 218.688 109.668 218.128 110.884 217.424C110.5 216.592 110.18 215.632 109.924 214.544L106.98 215.024L106.804 213.952L109.7 213.488C109.583 212.859 109.481 212.096 109.396 211.2L107.06 211.52L106.9 210.48L109.316 210.16C109.273 209.488 109.252 208.688 109.252 207.76V206.64H110.372V207.76C110.372 208.624 110.393 209.376 110.436 210.016L114.884 209.424L115.028 210.448L110.516 211.056C110.569 211.685 110.665 212.437 110.804 213.312L115.46 212.576L115.62 213.6L111.028 214.352C111.241 215.259 111.508 216.085 111.828 216.832C112.82 216.149 113.679 215.392 114.404 214.56L115.188 215.232C114.367 216.171 113.412 217.019 112.324 217.776C112.975 218.875 113.743 219.616 114.628 220L114.916 217.232ZM113.508 209.296C113.156 208.987 112.74 208.661 112.26 208.32C111.78 207.979 111.359 207.723 110.996 207.552L111.604 206.768C111.988 206.971 112.415 207.232 112.884 207.552C113.353 207.872 113.769 208.187 114.132 208.496L113.508 209.296ZM101.124 219.264C102.991 218.859 104.719 218.4 106.308 217.888L106.516 218.976C104.788 219.509 103.092 219.968 101.428 220.352L101.124 219.264ZM117.812 207.232H131.204V219.696C131.204 220.144 131.097 220.469 130.884 220.672C130.671 220.875 130.324 220.976 129.844 220.976H127.38L127.124 219.872H130.036V208.304H118.964V221.2H117.812V207.232ZM123.668 217.584C123.369 216.891 122.985 216.064 122.516 215.104C121.929 216.459 121.193 217.792 120.308 219.104L119.412 218.32C120.393 217.008 121.204 215.515 121.844 213.84C121.119 212.464 120.425 211.312 119.764 210.384L120.676 209.728C121.209 210.507 121.764 211.403 122.34 212.416C122.649 211.403 122.9 210.368 123.092 209.312L124.196 209.568C123.876 211.115 123.497 212.496 123.06 213.712C123.625 214.768 124.116 215.771 124.532 216.72L123.668 217.584ZM128.356 218.48C127.908 217.339 127.476 216.325 127.06 215.44C126.441 216.741 125.625 218.075 124.612 219.44L123.716 218.672C124.857 217.211 125.764 215.691 126.436 214.112C125.679 212.608 125.007 211.408 124.42 210.512L125.332 209.856C125.801 210.592 126.345 211.541 126.964 212.704C127.316 211.659 127.604 210.539 127.828 209.344L128.932 209.568C128.601 211.221 128.175 212.725 127.652 214.08C128.313 215.435 128.873 216.672 129.332 217.792L128.356 218.48ZM136.404 212.512C135.337 212.725 134.372 212.885 133.508 212.992L133.22 211.952C133.647 211.504 134.137 210.768 134.692 209.744C135.247 208.709 135.727 207.643 136.132 206.544L137.204 206.944C136.841 207.861 136.431 208.757 135.972 209.632C135.524 210.496 135.097 211.211 134.692 211.776C135.663 211.648 136.468 211.509 137.108 211.36C137.449 210.763 137.727 210.256 137.94 209.84L138.916 210.368C138.351 211.435 137.727 212.469 137.044 213.472C136.361 214.475 135.743 215.264 135.188 215.84C135.913 215.669 136.985 215.381 138.404 214.976L138.612 216.032C136.756 216.555 135.124 216.955 133.716 217.232L133.396 216.224C133.812 215.883 134.281 215.387 134.804 214.736C135.337 214.075 135.871 213.333 136.404 212.512ZM138.58 212.768C140.191 212.117 141.54 211.424 142.628 210.688C143.716 209.941 144.601 209.104 145.284 208.176H139.22V207.104H146.82V207.952C146.201 209.029 145.247 210.069 143.956 211.072L144.036 211.168L144.308 210.976C144.436 210.901 144.543 210.864 144.628 210.864C144.703 210.864 144.788 210.896 144.884 210.96L147.956 212.896L147.3 213.84L143.796 211.648C143.668 211.573 143.561 211.536 143.476 211.536C143.401 211.536 143.305 211.568 143.188 211.632C141.94 212.475 140.559 213.205 139.044 213.824L138.58 212.768ZM147.3 215.648H143.796V219.648H147.796V220.72H138.308V219.648H142.596V215.648H139.236V214.608H147.3V215.648ZM138.436 219.056C136.612 219.685 134.948 220.181 133.444 220.544L133.14 219.44C135.06 218.971 136.756 218.475 138.228 217.952L138.436 219.056ZM160.148 217.472V210.48H154.02V209.344H160.148V206.64H161.38V209.344H163.636V210.48H161.38V217.28C161.38 217.749 161.279 218.091 161.076 218.304C160.873 218.517 160.543 218.624 160.084 218.624H157.588L157.268 217.472H160.148ZM152.404 210.56C152.073 210.059 151.679 209.525 151.22 208.96C150.772 208.384 150.356 207.899 149.972 207.504L150.916 206.768C151.289 207.173 151.705 207.664 152.164 208.24C152.623 208.805 153.023 209.344 153.364 209.856L152.404 210.56ZM155.7 211.6C156.116 212.08 156.537 212.629 156.964 213.248C157.401 213.856 157.769 214.443 158.068 215.008L156.996 215.632C156.697 215.035 156.345 214.432 155.94 213.824C155.535 213.216 155.129 212.683 154.724 212.224L155.7 211.6ZM164.004 219.696L163.78 220.848H157.028C156.196 220.848 155.524 220.795 155.012 220.688C154.511 220.581 154.089 220.421 153.748 220.208C153.417 220.005 153.071 219.712 152.708 219.328C152.58 219.189 152.473 219.099 152.388 219.056C152.313 219.013 152.233 218.992 152.148 218.992C151.999 218.992 151.764 219.152 151.444 219.472C151.135 219.781 150.687 220.304 150.1 221.04L149.22 220.16C149.721 219.531 150.159 219.04 150.532 218.688C150.905 218.325 151.241 218.08 151.54 217.952V213.168H149.316V212.048H152.756V217.984C152.927 218.08 153.092 218.213 153.252 218.384C153.551 218.725 153.844 218.987 154.132 219.168C154.42 219.349 154.783 219.483 155.22 219.568C155.668 219.653 156.255 219.696 156.98 219.696H164.004ZM179.588 208.288H172.948V209.92H178.244V216.352H172.756C172.543 217.365 172.084 218.208 171.38 218.88C172.244 219.285 173.305 219.568 174.564 219.728C175.823 219.888 177.497 219.963 179.588 219.952L179.46 221.056C177.135 221.045 175.289 220.933 173.924 220.72C172.569 220.507 171.407 220.133 170.436 219.6C169.305 220.293 167.716 220.784 165.668 221.072L165.348 220.032C167.076 219.765 168.42 219.392 169.38 218.912C168.847 218.507 168.281 218 167.684 217.392L168.484 216.672C169.124 217.344 169.743 217.883 170.34 218.288C170.948 217.787 171.359 217.141 171.572 216.352H166.756V209.92H171.796V208.288H165.412V207.216H179.588V208.288ZM171.796 212.64V210.896H167.892V212.64H171.796ZM177.124 212.64V210.896H172.948V212.64H177.124ZM167.892 215.376H171.748C171.78 215.067 171.796 214.752 171.796 214.432V213.568H167.892V215.376ZM177.124 215.376V213.568H172.948V214.4C172.948 214.731 172.932 215.056 172.9 215.376H177.124ZM194.788 214.368V221.2H193.572V220.256H186.308V221.2H185.092V215.76C183.855 216.133 182.681 216.443 181.572 216.688L181.172 215.536C183.988 214.971 186.303 214.245 188.116 213.36C187.252 212.645 186.377 212.027 185.492 211.504L186.276 210.656C187.257 211.243 188.239 211.947 189.22 212.768C190.788 211.851 192.025 210.736 192.932 209.424H186.596C185.412 210.619 183.935 211.669 182.164 212.576L181.588 211.568C184.244 210.235 186.164 208.549 187.348 206.512L188.468 206.928C188.191 207.429 187.881 207.899 187.54 208.336H194.452V209.264C193.257 211.344 191.311 213.045 188.612 214.368H194.788ZM186.308 215.44V219.152H193.572V215.44H186.308ZM211.252 209.024V211.072C211.252 212.181 211.215 213.397 211.14 214.72C211.076 216.032 210.975 217.184 210.836 218.176C210.708 219.189 210.452 219.915 210.068 220.352C209.684 220.789 209.065 221.008 208.212 221.008H206.1L205.78 219.84H208.084C208.585 219.84 208.948 219.707 209.172 219.44C209.396 219.173 209.551 218.731 209.636 218.112C209.775 217.216 209.876 216.123 209.94 214.832C210.004 213.541 210.036 212.293 210.036 211.088V210.176H205.828C205.22 211.488 204.537 212.603 203.78 213.52L202.996 212.72V219.84H198.884V221.2H197.684V208.448H199.428C199.663 207.936 199.876 207.285 200.068 206.496L201.204 206.768C201.044 207.376 200.841 207.936 200.596 208.448H202.996V212.544C203.668 211.723 204.244 210.784 204.724 209.728C205.215 208.672 205.583 207.589 205.828 206.48L206.964 206.768C206.815 207.451 206.591 208.203 206.292 209.024H211.252ZM201.828 213.36V209.52H198.868V213.36H201.828ZM207.604 217.056C207.284 216.373 206.9 215.653 206.452 214.896C206.015 214.139 205.577 213.461 205.14 212.864L206.052 212.192C206.489 212.768 206.932 213.44 207.38 214.208C207.828 214.965 208.228 215.701 208.58 216.416L207.604 217.056ZM198.868 214.432V218.768H201.828V214.432H198.868ZM216.436 209.12H219.396V210.208H213.3V209.12H216.308C215.892 208.267 215.503 207.552 215.14 206.976L216.196 206.496C216.623 207.232 217.001 207.968 217.332 208.704L216.436 209.12ZM227.764 209.424V210.48H223.652V213.488H227.108V221.136H225.972V220.224H220.98V221.136H219.86V213.488H222.5V206.656H223.652V209.424H227.764ZM218.996 217.536L219.14 218.624C217.22 219.307 215.279 219.819 213.316 220.16L213.044 219.008C214.132 218.816 215.204 218.592 216.26 218.336C216.548 217.333 216.815 216.181 217.06 214.88C217.316 213.568 217.519 212.32 217.668 211.136L218.772 211.36C218.655 212.341 218.479 213.429 218.244 214.624C218.009 215.808 217.753 216.939 217.476 218.016L218.996 217.536ZM214.82 211.2C215.225 213.067 215.535 215.003 215.748 217.008L214.66 217.232C214.436 215.067 214.132 213.152 213.748 211.488L214.82 211.2ZM220.98 219.184H225.972V214.528H220.98V219.184ZM236.948 211.456H242.052V216.416H230.948V211.456H235.7V206.64H236.948V208.512H243.06V209.6H236.948V211.456ZM232.164 215.312H240.82V212.544H232.164V215.312ZM241.636 217.152C242.511 218.336 243.204 219.515 243.716 220.688L242.596 221.216C242.084 220.011 241.423 218.805 240.612 217.6L241.636 217.152ZM229.3 220.496C230.26 219.483 231.001 218.379 231.524 217.184L232.58 217.616C232.1 218.821 231.343 220.021 230.308 221.216L229.3 220.496ZM238.516 217.424C239.007 218.597 239.38 219.744 239.636 220.864L238.388 221.136C238.175 220.059 237.844 218.907 237.396 217.68L238.516 217.424ZM235.284 217.568C235.497 218.603 235.652 219.76 235.748 221.04L234.516 221.168C234.463 220.144 234.335 218.981 234.132 217.68L235.284 217.568ZM246.468 207.104H259.604V208.192H254.276C254.191 208.64 254.025 209.173 253.78 209.792H258.356V216.064H254.372V219.952C254.372 220.357 254.281 220.645 254.1 220.816C253.919 220.997 253.615 221.088 253.188 221.088H251.092L250.836 220.016H253.188V216.064H249.14V209.792H252.548C252.804 209.109 252.969 208.576 253.044 208.192H247.668V210.72C247.668 213.045 247.545 215.061 247.3 216.768C247.055 218.475 246.623 219.941 246.004 221.168L244.996 220.336C245.551 219.248 245.935 217.936 246.148 216.4C246.361 214.864 246.468 212.965 246.468 210.704V207.104ZM257.188 212.4V210.8H250.292V212.4H257.188ZM250.292 215.072H257.188V213.36H250.292V215.072ZM251.476 217.328C251.092 217.989 250.623 218.619 250.068 219.216C249.513 219.803 248.943 220.299 248.356 220.704L247.492 219.856C248.1 219.461 248.66 219.003 249.172 218.48C249.684 217.947 250.116 217.381 250.468 216.784L251.476 217.328ZM256.66 216.784C257.151 217.211 257.657 217.717 258.18 218.304C258.703 218.88 259.161 219.445 259.556 220L258.612 220.736C258.26 220.213 257.817 219.648 257.284 219.04C256.761 218.432 256.249 217.888 255.748 217.408L256.66 216.784ZM274.788 214.368V221.2H273.572V220.256H266.308V221.2H265.092V215.76C263.855 216.133 262.681 216.443 261.572 216.688L261.172 215.536C263.988 214.971 266.303 214.245 268.116 213.36C267.252 212.645 266.377 212.027 265.492 211.504L266.276 210.656C267.257 211.243 268.239 211.947 269.22 212.768C270.788 211.851 272.025 210.736 272.932 209.424H266.596C265.412 210.619 263.935 211.669 262.164 212.576L261.588 211.568C264.244 210.235 266.164 208.549 267.348 206.512L268.468 206.928C268.191 207.429 267.881 207.899 267.54 208.336H274.452V209.264C273.257 211.344 271.311 213.045 268.612 214.368H274.788ZM266.308 215.44V219.152H273.572V215.44H266.308ZM279.748 221.184C279.033 221.184 278.457 220.976 278.02 220.56C277.583 220.144 277.364 219.568 277.364 218.832C277.364 218.096 277.583 217.52 278.02 217.104C278.457 216.688 279.033 216.48 279.748 216.48C280.463 216.48 281.039 216.688 281.476 217.104C281.924 217.52 282.148 218.096 282.148 218.832C282.148 219.568 281.929 220.144 281.492 220.56C281.055 220.976 280.473 221.184 279.748 221.184ZM279.748 220.208C280.153 220.208 280.473 220.101 280.708 219.888C280.953 219.675 281.076 219.392 281.076 219.04V218.64C281.076 218.277 280.953 217.989 280.708 217.776C280.473 217.563 280.153 217.456 279.748 217.456C279.353 217.456 279.033 217.563 278.788 217.776C278.553 217.989 278.436 218.277 278.436 218.64V219.04C278.436 219.392 278.553 219.675 278.788 219.888C279.033 220.101 279.353 220.208 279.748 220.208ZM305.94 208.224H300.58V216.432H299.428V207.152H307.124V216.432H305.94V208.224ZM298.756 217.616C297.071 218.352 295.279 218.965 293.38 219.456L293.124 218.32C294.095 218.075 294.841 217.872 295.364 217.712V213.136H293.38V212.048H295.364V208.384H293.236V207.296H298.564V208.384H296.516V212.048H298.468V213.136H296.516V217.344C297.209 217.12 297.935 216.864 298.692 216.576L298.756 217.616ZM306.804 217.472L307.86 217.824V219.696C307.86 220.112 307.769 220.411 307.588 220.592C307.407 220.784 307.103 220.88 306.676 220.88H304.964C304.388 220.88 303.977 220.763 303.732 220.528C303.497 220.293 303.38 219.904 303.38 219.36V215.616C303.06 216.843 302.489 217.899 301.668 218.784C300.847 219.659 299.663 220.469 298.116 221.216L297.572 220.192C298.927 219.531 299.961 218.853 300.676 218.16C301.401 217.467 301.908 216.64 302.196 215.68C302.484 214.72 302.628 213.472 302.628 211.936V209.584H303.764V211.92C303.764 213.147 303.673 214.208 303.492 215.104H304.516V219.312C304.516 219.493 304.548 219.621 304.612 219.696C304.687 219.76 304.815 219.792 304.996 219.792H306.804V217.472ZM313.332 206.784C313.065 208.043 312.692 209.237 312.212 210.368V221.2H311.06V212.592C310.58 213.36 310.052 214.043 309.476 214.64L308.82 213.6C309.652 212.683 310.345 211.648 310.9 210.496C311.455 209.344 311.908 207.995 312.26 206.448L313.332 206.784ZM323.62 221.216C321.06 220.811 318.921 220.08 317.204 219.024C316.767 219.483 316.239 219.888 315.62 220.24C315.012 220.603 314.287 220.933 313.444 221.232L312.916 220.208C313.684 219.941 314.34 219.664 314.884 219.376C315.428 219.077 315.887 218.747 316.26 218.384C315.545 217.829 314.921 217.205 314.388 216.512L315.236 215.824C315.727 216.443 316.308 217.003 316.98 217.504C317.343 216.939 317.604 216.251 317.764 215.44H313.972V210.704H318.036V209.152H313.396V208.112H318.036V206.48H319.188V208.112H323.796V209.152H319.188V210.704H323.236V215.44H318.916C318.724 216.496 318.393 217.392 317.924 218.128C319.524 219.056 321.545 219.712 323.988 220.096L323.62 221.216ZM315.092 214.448H317.924C317.999 213.765 318.036 212.933 318.036 211.952V211.696H315.092V214.448ZM322.116 211.696H319.188V211.984C319.188 212.944 319.151 213.765 319.076 214.448H322.116V211.696ZM94.596 231.216H106.852V243.856C106.852 244.261 106.751 244.56 106.548 244.752C106.345 244.944 106.036 245.04 105.62 245.04H103.348L103.076 243.888H105.652V240.192H101.252V244.864H100.052V240.192H95.684C95.588 241.259 95.4173 242.176 95.172 242.944C94.9373 243.712 94.596 244.448 94.148 245.152L93.156 244.288C93.5507 243.68 93.8493 243.051 94.052 242.4C94.2547 241.739 94.3933 240.987 94.468 240.144C94.5533 239.301 94.596 238.229 94.596 236.928V231.216ZM100.052 235.184V232.288H95.796V235.184H100.052ZM101.252 235.184H105.652V232.288H101.252V235.184ZM100.052 239.152V236.224H95.796V236.928C95.796 237.739 95.78 238.48 95.748 239.152H100.052ZM101.252 236.224V239.152H105.652V236.224H101.252ZM122.788 238.368V245.2H121.572V244.256H114.308V245.2H113.092V239.76C111.855 240.133 110.681 240.443 109.572 240.688L109.172 239.536C111.988 238.971 114.303 238.245 116.116 237.36C115.252 236.645 114.377 236.027 113.492 235.504L114.276 234.656C115.257 235.243 116.239 235.947 117.22 236.768C118.788 235.851 120.025 234.736 120.932 233.424H114.596C113.412 234.619 111.935 235.669 110.164 236.576L109.588 235.568C112.244 234.235 114.164 232.549 115.348 230.512L116.468 230.928C116.191 231.429 115.881 231.899 115.54 232.336H122.452V233.264C121.257 235.344 119.311 237.045 116.612 238.368H122.788ZM114.308 239.44V243.152H121.572V239.44H114.308ZM130.964 236.16C131.551 235.403 132.052 234.539 132.468 233.568C132.884 232.597 133.193 231.589 133.396 230.544L134.516 230.784C134.335 231.552 134.137 232.245 133.924 232.864H139.7V233.824C139.465 234.699 139.076 235.627 138.532 236.608L137.524 236.128C137.951 235.456 138.287 234.725 138.532 233.936H133.508C133.06 235.024 132.511 236.021 131.86 236.928L130.964 236.16ZM131.284 239.952L130.548 240.816L128.996 238.256C128.921 238.16 128.884 238.176 128.884 238.304V245.28H127.828V238.16H127.7C127.636 238.917 127.444 239.648 127.124 240.352C126.815 241.045 126.329 241.781 125.668 242.56L125.044 241.392C125.865 240.443 126.484 239.536 126.9 238.672C127.316 237.797 127.572 236.928 127.668 236.064H125.188V234.992H127.812V232.704C127.364 232.811 126.644 232.955 125.652 233.136L125.396 232.112C126.26 231.995 127.156 231.808 128.084 231.552C129.012 231.296 129.807 231.003 130.468 230.672L131.028 231.6C130.473 231.899 129.759 232.176 128.884 232.432V234.992H130.836V236.064H128.884V237.616H128.98L129.22 237.36C129.305 237.264 129.385 237.216 129.46 237.216C129.535 237.216 129.604 237.269 129.668 237.376L131.284 239.952ZM134.868 243.856V234.944H136.02V243.68C136.02 244.117 135.919 244.437 135.716 244.64C135.524 244.843 135.22 244.944 134.804 244.944H133.236L132.932 243.856H134.868ZM138.148 237.264C138.468 238.053 138.788 238.96 139.108 239.984C139.439 241.008 139.7 241.931 139.892 242.752L138.82 243.2C138.639 242.379 138.383 241.445 138.052 240.4C137.732 239.355 137.417 238.437 137.108 237.648L138.148 237.264ZM133.748 237.584C133.588 238.555 133.337 239.525 132.996 240.496C132.655 241.456 132.244 242.347 131.764 243.168L130.804 242.48C131.711 240.987 132.335 239.275 132.676 237.344L133.748 237.584ZM149.38 235.424C148.911 234.731 148.367 234.011 147.748 233.264C147.14 232.507 146.564 231.861 146.02 231.328L146.932 230.544C147.497 231.088 148.095 231.739 148.724 232.496C149.353 233.253 149.903 233.979 150.372 234.672L149.38 235.424ZM155.94 244.352L154.916 245.152L152.196 241.04C152.132 240.944 152.073 240.896 152.02 240.896C151.956 240.896 151.892 240.944 151.828 241.04H151.812C151.204 241.851 150.441 242.587 149.524 243.248C148.607 243.909 147.492 244.539 146.18 245.136L145.556 243.984C147.561 243.088 149.081 242.123 150.116 241.088C151.161 240.053 151.897 238.736 152.324 237.136C152.751 235.525 152.964 233.36 152.964 230.64H154.244C154.244 232.891 154.095 234.795 153.796 236.352C153.497 237.899 152.996 239.232 152.292 240.352L152.372 240.448L152.644 240.288C152.751 240.213 152.857 240.176 152.964 240.176C153.113 240.176 153.247 240.267 153.364 240.448L155.94 244.352ZM148.212 239.968C146.655 241.141 144.74 242.331 142.468 243.536L141.924 242.464C142.18 242.304 142.351 242.155 142.436 242.016C142.521 241.867 142.564 241.627 142.564 241.296V231.04H143.828V241.408C145.097 240.672 146.367 239.851 147.636 238.944L148.212 239.968ZM160.884 244.672L160.58 243.424H164.084V230.64H165.38V243.264C165.38 243.765 165.268 244.123 165.044 244.336C164.82 244.56 164.452 244.672 163.94 244.672H160.884ZM157.14 240.88C158.004 239.835 158.708 238.693 159.252 237.456C159.796 236.208 160.196 234.933 160.452 233.632L161.7 233.92C161.049 236.96 159.897 239.552 158.244 241.696L157.14 240.88ZM170.66 241.936C170.255 240.656 169.775 239.317 169.22 237.92C168.665 236.523 168.116 235.275 167.572 234.176L168.724 233.696C169.289 234.805 169.86 236.075 170.436 237.504C171.023 238.923 171.492 240.213 171.844 241.376L170.66 241.936ZM174.804 233.456V235.808H173.652V232.4H180.132C179.929 232.005 179.641 231.499 179.268 230.88L180.34 230.432C180.713 231.04 181.055 231.696 181.364 232.4H187.396V235.808H186.228V233.456H174.804ZM187.684 239.2V240.288H181.172V243.728C181.172 244.165 181.076 244.48 180.884 244.672C180.692 244.875 180.367 244.976 179.908 244.976H176.932L176.612 243.856H179.972V240.288H173.316V239.2H179.972V237.968C181.455 237.403 182.617 236.779 183.46 236.096H175.78V235.04H185.028V236.08C184.143 237.029 182.857 237.856 181.172 238.56V239.2H187.684ZM201.956 230.784H203.156V243.6C203.156 244.08 203.049 244.421 202.836 244.624C202.623 244.837 202.281 244.944 201.812 244.944H199.396L199.06 243.744H201.956V230.784ZM189.764 232.256V231.184H197.38V232.256H193.396C193.311 232.981 193.183 233.675 193.012 234.336H196.82V235.2C196.521 237.419 195.881 239.328 194.9 240.928C193.929 242.517 192.559 243.931 190.788 245.168L190.068 244.176C191.764 243.024 193.065 241.712 193.972 240.24C193.332 239.579 192.607 238.955 191.796 238.368L192.468 237.456C193.161 237.968 193.855 238.533 194.548 239.152C195.071 238.043 195.423 236.795 195.604 235.408H192.676C192.079 237.061 191.188 238.491 190.004 239.696L189.236 238.768C190.089 237.915 190.761 236.939 191.252 235.84C191.743 234.731 192.047 233.536 192.164 232.256H189.764ZM198.42 231.584H199.588V241.856H198.42V231.584ZM217.764 242.976V238.736H218.996V245.104H217.764V244.16L206.004 244.4V238.736H207.236V243.184L211.748 243.088V237.2H206.452V231.712H207.684V236.064H211.748V230.672H212.996V236.064H217.332V231.712H218.548V237.2H212.996V243.072L217.764 242.976ZM223.748 245.184C223.033 245.184 222.457 244.976 222.02 244.56C221.583 244.144 221.364 243.568 221.364 242.832C221.364 242.096 221.583 241.52 222.02 241.104C222.457 240.688 223.033 240.48 223.748 240.48C224.463 240.48 225.039 240.688 225.476 241.104C225.924 241.52 226.148 242.096 226.148 242.832C226.148 243.568 225.929 244.144 225.492 244.56C225.055 244.976 224.473 245.184 223.748 245.184ZM223.748 244.208C224.153 244.208 224.473 244.101 224.708 243.888C224.953 243.675 225.076 243.392 225.076 243.04V242.64C225.076 242.277 224.953 241.989 224.708 241.776C224.473 241.563 224.153 241.456 223.748 241.456C223.353 241.456 223.033 241.563 222.788 241.776C222.553 241.989 222.436 242.277 222.436 242.64V243.04C222.436 243.392 222.553 243.675 222.788 243.888C223.033 244.101 223.353 244.208 223.748 244.208Z" fill="#717171"/>
<defs>
<linearGradient id="paint0_linear_884_2857" x1="53" y1="0" x2="53" y2="150" gradientUnits="userSpaceOnUse">
<stop stop-color="#003DA6" stop-opacity="0"/>
<stop offset="0.2" stop-color="#003DA6"/>
<stop offset="0.8" stop-color="#003DA6"/>
<stop offset="1" stop-color="#003DA6" stop-opacity="0"/>
</linearGradient>
</defs>
</svg>
