<svg width="62" height="51" viewBox="0 0 62 51" fill="none" xmlns="http://www.w3.org/2000/svg">
<path d="M34.3975 33.8204C30.3235 33.2309 22.9266 33.1222 16.9943 35.5539C16.0003 35.9614 15.0125 36.5189 14.052 37.1827C15.0125 37.4765 15.9509 37.6898 16.8451 37.8129C22.8301 38.6368 31.3441 35.6371 34.3975 33.8204Z" fill="#047C51"/>
<path d="M19.589 24.8289C23.2909 29.6034 30.9445 32.9837 34.3975 33.8204C31.9826 30.5386 24.4612 24.5663 18.1887 22.6322C18.6151 23.438 19.0831 24.1766 19.589 24.8289Z" fill="#09563B"/>
<path d="M34.4042 32.5902C34.4392 28.1753 34.4984 20.699 31.587 15.4737C31.4837 15.2883 31.3741 15.1046 31.2586 14.9226C30.0213 20.8105 31.7465 28.3109 34.3975 33.8204C34.3975 33.4449 34.4007 33.0334 34.4042 32.5911L34.4042 32.5902Z" fill="#09563B"/>
<path d="M34.3975 33.8204C37.5964 31.5747 43.7955 25.1917 45.4503 19.0367C45.6872 18.1556 45.8374 17.2261 45.9163 16.2686C44.719 16.8759 43.6162 17.5667 42.6422 18.3348C37.6266 22.2907 34.8246 30.2683 34.3975 33.8204Z" fill="#047C51"/>
<path d="M15.8688 4.81384C14.5522 10.4181 15.6083 17.7562 18.1887 22.6322C24.4612 24.5663 31.9826 30.5386 34.3975 33.8204C31.7465 28.3109 30.0213 20.8105 31.2586 14.9226C27.906 9.63892 19.5823 5.80958 15.8688 4.81384Z" fill="#08795E"/>
<path d="M16.9943 35.5539C22.9266 33.1222 30.3235 33.2309 34.3975 33.8204C30.9445 32.9837 23.2909 29.6034 19.589 24.8289C19.0831 24.1766 18.6151 23.438 18.1887 22.6322C18.1243 22.6124 18.0601 22.593 17.996 22.574C11.885 20.7636 3.46625 24.785 1.98176e-08 26.7351C2.93216 31.5858 8.81848 35.5813 14.052 37.1827C15.0125 36.5189 16.0003 35.9614 16.9943 35.5539Z" fill="#00AA82"/>
<path d="M23.3004 47.4189C29.0139 44.5622 33.6732 38.2359 34.3975 33.8204C31.3441 35.6371 22.8301 38.6368 16.8451 37.8129C15.9509 37.6898 15.0125 37.4765 14.052 37.1827C9.31427 40.4568 5.24211 46.3162 4.37416 49.5071C11.1337 50.9189 17.967 50.0856 23.3004 47.4189Z" fill="#4FD2B3"/>
<path d="M42.809 -3.17325e-08C39.6632 1.65144 34.5828 6.55329 32.1533 12.0848C31.7633 12.9727 31.4684 13.9245 31.2586 14.9226C31.3741 15.1046 31.4837 15.2883 31.587 15.4737C34.4984 20.699 34.4392 28.1753 34.4042 32.5902L34.4042 32.5911C34.4007 33.0334 34.3975 33.4449 34.3975 33.8204C34.8246 30.2683 37.6266 22.2907 42.6422 18.3348C43.6162 17.5667 44.719 16.8759 45.9163 16.2686C46.4064 10.3195 44.1432 3.2851 42.809 -3.17325e-08Z" fill="#00AA82"/>
<path d="M45.4503 19.0367C43.7955 25.1917 37.5964 31.5747 34.3975 33.8204L34.5425 33.8164C38.6877 33.704 46.1248 33.5023 51.4498 29.6145C56.5974 25.8563 60.9391 17.2147 61.315 13.2553C56.0469 12.9208 50.3375 14.0259 45.9163 16.2686C45.8374 17.2261 45.6872 18.1556 45.4503 19.0367Z" fill="#4FD2B3"/>
</svg>
