<svg width="360" height="335" viewBox="0 0 360 335" fill="none" xmlns="http://www.w3.org/2000/svg">
<mask id="mask0_811_2408" style="mask-type:alpha" maskUnits="userSpaceOnUse" x="0" y="0" width="360" height="335">
<path d="M148.423 81.1641C149.233 81.9742 149.688 83.0731 149.688 84.2188V95.04C149.688 95.8351 149.043 96.4795 148.248 96.4795H126.648C121.081 96.4795 116.568 100.993 116.568 106.56V154.821C116.568 158.258 117.934 161.555 120.364 163.985L132.583 176.204C135.013 178.634 138.31 180 141.747 180H237.528V192.261C237.528 193.406 237.073 194.505 236.263 195.315L226.924 204.654C226.114 205.464 225.015 205.92 223.869 205.92H185.688C180.121 205.92 175.608 210.433 175.608 216V226.821C175.609 230.258 176.974 233.555 179.404 235.985L190.183 246.764C190.993 247.574 191.448 248.673 191.448 249.818V263.52C191.448 264.315 190.803 264.96 190.008 264.96H171.288C165.721 264.96 161.208 269.473 161.208 275.04V298.08C161.208 298.875 160.563 299.52 159.768 299.52H51.7676C46.2008 299.52 41.6885 304.033 41.6885 309.6V332.64H50.3281V309.6C50.3282 308.805 50.9725 308.16 51.7676 308.16H159.768C165.334 308.16 169.847 303.647 169.848 298.08V275.04C169.848 274.245 170.493 273.6 171.288 273.6H190.008C195.575 273.6 200.088 269.087 200.088 263.52V249.818C200.088 246.381 198.722 243.085 196.292 240.654L185.514 229.876C184.704 229.066 184.248 227.967 184.248 226.821V216C184.248 215.205 184.893 214.56 185.688 214.56H223.869C227.306 214.56 230.603 213.194 233.033 210.764L242.372 201.425C244.802 198.994 246.168 195.698 246.168 192.261V136.8C246.168 136.005 246.813 135.359 247.608 135.359H261.31C262.455 135.359 263.554 135.815 264.364 136.625L275.143 147.403C277.573 149.834 280.869 151.199 284.307 151.199H331.869C335.306 151.199 338.603 149.834 341.033 147.403L351.812 136.625C354.243 134.195 355.608 130.898 355.608 127.461V34.5596C355.608 33.7644 356.253 33.1202 357.048 33.1201H359.934L360 334.943H0V7.19922H54.6484V0H67.2588L148.423 81.1641ZM153.514 76.0723C155.674 78.2327 156.888 81.1635 156.888 84.2188V95.04C156.888 99.8116 153.02 103.68 148.248 103.68H126.648C125.058 103.68 123.768 104.969 123.768 106.56V154.821C123.768 156.349 124.375 157.813 125.455 158.894L137.674 171.112C138.754 172.193 140.219 172.8 141.747 172.8H236.088C237.678 172.8 238.968 171.51 238.968 169.92V136.8C238.968 132.028 242.837 128.16 247.608 128.16H261.31C264.365 128.16 267.295 129.374 269.455 131.534L280.233 142.312C281.314 143.393 282.779 144 284.307 144H331.869C333.397 144 334.862 143.393 335.942 142.312L346.721 131.534C347.801 130.454 348.408 128.989 348.408 127.461V34.5596C348.408 29.7879 352.276 25.92 357.048 25.9199H359.932L359.934 31.6797H357.048C355.457 31.6798 354.168 32.9691 354.168 34.5596V127.461C354.168 130.516 352.954 133.446 350.794 135.606L340.015 146.386C337.854 148.546 334.924 149.76 331.869 149.76H284.307C281.252 149.76 278.321 148.546 276.161 146.386L265.382 135.606C264.302 134.527 262.837 133.92 261.31 133.92H247.608C246.018 133.92 244.728 135.209 244.728 136.8V192.261C244.728 195.316 243.514 198.247 241.354 200.407L232.015 209.745C229.854 211.906 226.924 213.12 223.869 213.12H185.688C184.098 213.12 182.808 214.409 182.808 216V226.821C182.808 228.349 183.415 229.813 184.495 230.894L195.273 241.673C197.434 243.833 198.648 246.763 198.648 249.818V263.52C198.648 268.291 194.78 272.16 190.008 272.16H171.288C169.698 272.16 168.408 273.449 168.408 275.04V298.08C168.408 302.852 164.539 306.72 159.768 306.72H51.7676C50.1772 306.72 48.8877 308.009 48.8877 309.6V318.239H43.1279V309.6C43.128 304.828 46.9961 300.96 51.7676 300.96H159.768C161.358 300.96 162.648 299.67 162.648 298.08V275.04C162.648 270.268 166.516 266.399 171.288 266.399H190.008C191.598 266.399 192.888 265.11 192.888 263.52V249.818C192.888 248.291 192.281 246.825 191.201 245.745L180.422 234.967C178.262 232.806 177.048 229.876 177.048 226.821V216C177.048 211.228 180.917 207.359 185.688 207.359H223.869C225.397 207.359 226.862 206.753 227.942 205.673L237.281 196.334C238.361 195.254 238.968 193.788 238.968 192.261V181.439C238.968 179.849 237.678 178.56 236.088 178.56H141.747C138.692 178.56 135.761 177.346 133.601 175.186L121.382 162.967C119.222 160.806 118.008 157.876 118.008 154.821V106.56C118.008 101.788 121.877 97.9199 126.648 97.9199H148.248C149.838 97.9199 151.128 96.6304 151.128 95.04V84.2188C151.128 82.6911 150.521 81.2257 149.44 80.1455L69.2949 0H77.4414L153.514 76.0723ZM348.984 7.19922H359.928L359.932 24.4795H357.048C351.481 24.4796 346.968 28.9926 346.968 34.5596V127.461C346.968 128.607 346.513 129.706 345.703 130.516L334.924 141.294C334.114 142.104 333.015 142.56 331.869 142.56H284.307C283.161 142.56 282.062 142.104 281.252 141.294L270.474 130.516C268.043 128.085 264.747 126.72 261.31 126.72H247.608C242.041 126.72 237.528 131.233 237.528 136.8V171.359H141.747C140.602 171.359 139.503 170.905 138.692 170.095L126.474 157.876C125.664 157.066 125.208 155.967 125.208 154.821V106.56C125.208 105.764 125.853 105.12 126.648 105.12H148.248C153.815 105.12 158.328 100.607 158.328 95.04V84.2188C158.328 80.7817 156.963 77.4851 154.532 75.0547L79.4775 0H348.984V7.19922Z" fill="url(#paint0_linear_811_2408)"/>
</mask>
<g mask="url(#mask0_811_2408)">
<path opacity="0.5" fill-rule="evenodd" clip-rule="evenodd" d="M335.448 0.000976562V283.383C335.448 284.024 336.224 284.345 336.677 283.892L337.237 283.332C338.858 281.711 339.768 279.514 339.768 277.222V264.56C339.768 262.604 340.545 260.728 341.928 259.345C343.311 257.962 344.088 256.086 344.088 254.13V0.000976562H335.448Z" fill="#C8F7C8"/>
<path opacity="0.5" d="M341.928 0.000976562L341.928 251.59C341.928 253.882 341.018 256.079 339.397 257.7L338.837 258.26C338.383 258.713 337.608 258.392 337.608 257.751V0.000976562H341.928Z" fill="#9BE19B"/>
<path opacity="0.5" d="M263.942 167.987L294.881 137.048C295.962 135.968 296.568 134.503 296.568 132.975V0.000976562H308.088V134.909C308.088 137.965 306.875 140.895 304.714 143.055L273.775 173.994C272.695 175.074 272.088 176.539 272.088 178.067V317.789C272.088 320.845 270.875 323.775 268.714 325.935L263.027 331.623C262.119 332.53 260.568 331.887 260.568 330.604V176.133C260.568 173.077 261.782 170.147 263.942 167.987Z" fill="#C8F7C8"/>
<path opacity="0.5" d="M269.208 177.347V317.542C269.208 319.834 268.298 322.031 266.678 323.652L264.677 325.652C264.224 326.105 263.448 325.784 263.448 325.143V176.853C263.448 173.797 264.662 170.867 266.822 168.707L297.761 137.768C298.841 136.688 299.448 135.223 299.448 133.695V0.000976562H305.208V134.189C305.208 137.245 303.995 140.175 301.834 142.335L270.895 173.274C269.815 174.354 269.208 175.819 269.208 177.347Z" fill="#9BE19B"/>
<path opacity="0.5" d="M3.3021 87.3462L63.0409 27.6073C64.1211 26.5271 64.728 25.0621 64.728 23.5344V-18.7197H76.248V25.4685C76.248 28.5238 75.0343 31.454 72.8738 33.6144L13.135 93.3532C12.0548 94.4334 11.448 95.8985 11.448 97.4261V307.564C11.448 308.847 9.8969 309.489 8.98975 308.582L3.30211 302.894C1.14169 300.734 -0.0720215 297.804 -0.0720215 294.749V95.492C-0.0720215 92.4367 1.14169 89.5066 3.3021 87.3462Z" fill="#C8F7C8"/>
<path opacity="0.5" d="M8.56811 96.7061V302.102C8.56811 302.743 7.79256 303.065 7.33899 302.611L5.3387 300.611C3.71839 298.991 2.80811 296.793 2.80811 294.501V96.212C2.80811 93.1567 4.02181 90.2266 6.18223 88.0661L65.921 28.3273C67.0012 27.2471 67.6081 25.782 67.6081 24.2544V-18.7197H73.3681V24.7485C73.3681 27.8038 72.1544 30.734 69.994 32.8944L10.2552 92.6332C9.17496 93.7134 8.56811 95.1785 8.56811 96.7061Z" fill="#9BE19B"/>
<path opacity="0.5" d="M94.0221 83.7468L106.241 71.528C107.321 70.4478 107.928 68.9827 107.928 67.4551V0.000976562H119.448V69.3892C119.448 72.4445 118.234 75.3747 116.074 77.5351L103.855 89.7539C102.775 90.8341 102.168 92.2992 102.168 93.8268V222.255C102.168 223.783 102.775 225.248 103.855 226.328L111.754 234.227C113.914 236.387 115.128 239.317 115.128 242.373V320.669V329.761V333.484C115.128 334.767 113.577 335.41 112.67 334.503L107.928 329.761L106.982 328.815C104.822 326.655 103.608 323.724 103.608 320.669V244.307C103.608 242.779 103.001 241.314 101.921 240.234L94.0221 232.335C91.8617 230.175 90.6479 227.245 90.6479 224.189V91.8927C90.6479 88.8374 91.8617 85.9073 94.0221 83.7468Z" fill="#C8F7C8"/>
<path opacity="0.5" d="M93.5281 223.469C93.5281 226.525 94.7418 229.455 96.9022 231.615L104.801 239.514C105.881 240.594 106.488 242.059 106.488 243.587V318.982C106.488 321.274 107.398 323.471 109.019 325.092L111.019 327.092C111.473 327.545 112.248 327.224 112.248 326.583V243.093C112.248 240.037 111.034 237.107 108.874 234.947L100.975 227.048C99.8949 225.968 99.2881 224.503 99.2881 222.975V93.1068C99.2881 91.5792 99.8949 90.1141 100.975 89.0339L113.194 76.8151C115.354 74.6547 116.568 71.7245 116.568 68.6692V0.000976562H110.808V68.1751C110.808 69.7028 110.201 71.1678 109.121 72.248L96.9022 84.4669C94.7418 86.6273 93.5281 89.5574 93.5281 92.6127V223.469Z" fill="#9BE19B"/>
<path opacity="0.5" d="M42.1822 84.4664L80.321 46.3276C81.4013 45.2474 82.0081 43.7823 82.0081 42.2547V-1.43945H93.5281V44.1888C93.5281 47.2441 92.3144 50.1743 90.154 52.3347L52.0152 90.4735C50.935 91.5537 50.3281 93.0188 50.3281 94.5464V297.484C50.3281 298.767 48.777 299.409 47.8699 298.502L42.1822 292.815C40.0218 290.654 38.8081 287.724 38.8081 284.669V92.6123C38.8081 89.557 40.0218 86.6268 42.1822 84.4664Z" fill="#C8F7C8"/>
<path opacity="0.5" d="M47.448 93.8264V292.022C47.448 292.664 46.6724 292.985 46.2189 292.531L44.2186 290.531C42.5983 288.911 41.688 286.713 41.688 284.422V93.3323C41.688 90.277 42.9017 87.3468 45.0621 85.1864L83.2009 47.0476C84.2811 45.9674 84.888 44.5023 84.888 42.9747V-1.43945H90.648V43.4688C90.648 46.5241 89.4343 49.4543 87.2739 51.6147L49.1351 89.7535C48.0548 90.8337 47.448 92.2988 47.448 93.8264Z" fill="#9BE19B"/>
<path d="M46.0081 318.24V309.6C46.0081 306.419 48.5869 303.84 51.7681 303.84H159.768C162.949 303.84 165.528 301.261 165.528 298.08V275.04C165.528 271.859 168.107 269.28 171.288 269.28H190.008C193.189 269.28 195.768 266.701 195.768 263.52V249.819C195.768 247.527 194.858 245.33 193.237 243.709L182.459 232.93C180.838 231.31 179.928 229.112 179.928 226.821V216C179.928 212.819 182.507 210.24 185.688 210.24H223.869C226.161 210.24 228.358 209.33 229.979 207.709L239.317 198.37C240.938 196.75 241.848 194.552 241.848 192.261V136.8C241.848 133.619 244.427 131.04 247.608 131.04H261.309C263.601 131.04 265.798 131.95 267.419 133.57L278.197 144.349C279.818 145.97 282.015 146.88 284.307 146.88H331.869C334.161 146.88 336.358 145.97 337.979 144.349L348.757 133.57C350.378 131.95 351.288 129.752 351.288 127.461V34.5598C351.288 31.3786 353.867 28.7998 357.048 28.7998" stroke="#A4D1E4" stroke-width="5.76"/>
<path d="M357.048 28.7998H359.928" stroke="url(#paint1_linear_811_2408)" stroke-width="5.76"/>
<path d="M238.968 175.68H141.747C139.455 175.68 137.258 174.769 135.637 173.149L123.419 160.93C121.798 159.31 120.888 157.112 120.888 154.821V106.56C120.888 103.378 123.467 100.8 126.648 100.8H148.248C151.429 100.8 154.008 98.2207 154.008 95.0396V84.2184C154.008 81.9269 153.098 79.7293 151.477 78.109L71.136 -2.23242" stroke="#A4D1E4" stroke-width="5.76"/>
<path d="M233.208 175.68H236.088C239.269 175.68 241.848 178.259 241.848 181.44V184.32" stroke="#A4D1E4" stroke-width="5.76"/>
<path d="M233.208 175.68H236.088C239.269 175.68 241.848 173.101 241.848 169.92V167.04" stroke="#A4D1E4" stroke-width="5.76"/>
</g>
<path d="M142.488 113.761H160.632C162.541 113.761 164.088 112.214 164.088 110.305V46.0811" stroke="#F67599" stroke-width="1.152"/>
<path d="M46.0081 332.64V318.24" stroke="url(#paint2_linear_811_2408)" stroke-width="5.76"/>
<path d="M28.728 144.001H32.472" stroke="#8E8E8E" stroke-width="0.288" stroke-linecap="round" stroke-dasharray="0.29 0.58"/>
<path d="M28.728 144.001V204.481" stroke="#B6B6B6" stroke-width="0.576"/>
<path d="M181.368 161.281L184.248 164.161" stroke="#8E8E8E" stroke-width="0.288" stroke-linecap="round" stroke-dasharray="0.29 0.58"/>
<path d="M109.368 108.001H149.112C151.021 108.001 152.568 109.548 152.568 111.457V117.505C152.568 119.414 154.115 120.961 156.024 120.961H199.8L214.29 106.471C215.154 105.607 216.326 105.121 217.549 105.121H327.672C329.581 105.121 331.128 103.574 331.128 101.665V92.1611" stroke="#0057B7" stroke-width="1.152"/>
<path d="M109.368 108.001H149.112C151.021 108.001 152.568 109.548 152.568 111.457V117.505C152.568 119.414 154.115 120.961 156.024 120.961H199.8L214.29 106.471C215.154 105.607 216.326 105.121 217.549 105.121H327.672C329.581 105.121 331.128 103.574 331.128 101.665V92.1611" stroke="white" stroke-opacity="0.75" stroke-width="0.432"/>
<path d="M109.368 208.8V192.096C109.368 190.188 110.915 188.64 112.824 188.64H166.392C168.301 188.64 169.848 187.093 169.848 185.184V167.616C169.848 165.708 171.395 164.16 173.304 164.16H218.232C220.141 164.16 221.688 162.613 221.688 160.704V141.445C221.688 140.223 222.173 139.051 223.038 138.187L231.858 129.366C232.722 128.502 233.208 127.33 233.208 126.108V101.269C233.208 100.047 232.722 98.8749 231.858 98.0108L224.478 90.6301C223.613 89.7659 223.128 88.5939 223.128 87.3717V73.4404" stroke="#871F42" stroke-width="1.152"/>
<path d="M191.917 228.961H222.659C223.881 228.961 225.054 228.475 225.918 227.611L252.018 201.51C252.883 200.646 253.368 199.474 253.368 198.252V158.689C253.368 156.78 251.821 155.233 249.912 155.233H218.664C216.755 155.233 215.208 153.685 215.208 151.777V146.017C215.208 144.108 213.661 142.561 211.752 142.561H145.944C144.035 142.561 142.488 144.108 142.488 146.017V160.812C142.488 162.034 142.003 163.206 141.138 164.07L125.118 180.091C124.254 180.955 123.768 182.127 123.768 183.349V218.305C123.768 220.213 125.315 221.761 127.224 221.761H180.899C182.121 221.761 183.294 222.246 184.158 223.11L188.658 227.611C189.523 228.475 190.695 228.961 191.917 228.961Z" stroke="#F1A900" stroke-width="1.152"/>
<path d="M233.208 182.881V185.292C233.208 186.514 232.723 187.686 231.858 188.551L224.478 195.931C223.614 196.795 222.442 197.281 221.219 197.281H147.277C146.055 197.281 144.883 196.795 144.018 195.931L136.35 188.263C135.486 187.398 134.314 186.913 133.091 186.913H112.824C110.915 186.913 109.368 185.366 109.368 183.457V147.457C109.368 145.548 107.821 144.001 105.912 144.001H33.0481" stroke="#E4002B" stroke-width="1.152"/>
<path d="M214.488 197.281V186.337C214.488 184.428 212.941 182.881 211.032 182.881H191.917C190.695 182.881 189.522 183.366 188.658 184.231L174.078 198.811C173.213 199.675 172.728 200.847 172.728 202.07V242.785C172.728 244.694 171.181 246.241 169.272 246.241H154.584C152.675 246.241 151.128 247.788 151.128 249.697V309.025C151.128 310.934 152.675 312.481 154.584 312.481H172.728" stroke="#007B34" stroke-width="1.152"/>
<path d="M243 92.1608V51.8408" stroke="#003DA6" stroke-width="1.152"/>
<path d="M229.176 193.68L224.046 198.811C223.181 199.675 222.009 200.16 220.787 200.16H193.357C192.134 200.16 190.962 200.646 190.098 201.51L187.038 204.571C186.173 205.435 185.001 205.92 183.779 205.92H171.576C170.622 205.92 169.848 205.147 169.848 204.192V192.096C169.848 191.142 169.074 190.368 168.12 190.368H160.344C159.39 190.368 158.616 191.142 158.616 192.096V220.608V232.704C158.616 234.613 160.163 236.16 162.072 236.16H172.259C173.481 236.16 174.653 236.646 175.518 237.51L185.778 247.771C186.642 248.635 187.128 249.807 187.128 251.029V278.891C187.128 280.114 186.642 281.286 185.778 282.15L176.958 290.971C176.093 291.835 174.921 292.32 173.699 292.32H129.816C128.862 292.32 128.088 293.094 128.088 294.048V296.64" stroke="#2CD5C5" stroke-width="1.152"/>
<path d="M286.488 227.521V209.377C286.488 207.468 284.941 205.921 283.032 205.921H243.757C242.535 205.921 241.363 205.435 240.498 204.571L224.766 188.838C223.902 187.974 223.416 186.802 223.416 185.58V158.689C223.416 157.734 222.642 156.961 221.688 156.961H156.888C155.934 156.961 155.16 156.187 155.16 155.233V140.15C155.16 138.927 154.675 137.755 153.81 136.891L143.838 126.918C142.974 126.054 142.488 124.882 142.488 123.66V89.8568C142.488 87.9481 140.941 86.4008 139.032 86.4008H114.157C112.935 86.4008 111.763 85.9153 110.898 85.0512L100.638 74.7905C99.7736 73.9263 99.2881 72.7542 99.2881 71.5321V51.8408" stroke="#F67599" stroke-width="1.152"/>
<path d="M172.728 312.481H180.899C182.121 312.481 183.294 311.995 184.158 311.131L201.618 293.671C202.483 292.806 202.968 291.634 202.968 290.412V228.71C202.968 227.488 202.483 226.315 201.618 225.451L195.678 219.511C194.814 218.646 194.328 217.474 194.328 216.252V189.11C194.328 187.888 193.843 186.715 192.978 185.851L182.718 175.591C181.854 174.726 181.368 173.554 181.368 172.332V153.217C181.368 151.308 182.915 149.761 184.824 149.761H196.344C198.253 149.761 199.8 148.214 199.8 146.305V110.486C199.8 109.264 200.286 108.091 201.15 107.227L209.106 99.2706C209.971 98.4064 211.143 97.9209 212.365 97.9209H241.272C243.181 97.9209 244.728 96.3736 244.728 94.4649V88.4169C244.728 86.5082 246.275 84.9609 248.184 84.9609H250.488" stroke="#003DA6" stroke-width="1.152"/>
<path d="M194.328 236.161V228.71C194.328 227.488 194.813 226.316 195.678 225.451L201.618 219.511C202.482 218.647 202.968 217.474 202.968 216.252V137.27C202.968 136.048 203.453 134.876 204.318 134.011L224.658 113.671C225.522 112.807 226.694 112.321 227.917 112.321H251.352C253.261 112.321 254.808 110.774 254.808 108.865V90.1451C254.808 88.2364 253.261 86.6891 251.352 86.6891H167.544C166.59 86.6891 165.816 85.9154 165.816 84.9611V82.0811" stroke="#5F249E" stroke-width="1.152"/>
<path d="M283.608 204.192H290.232C292.141 204.192 293.688 205.74 293.688 207.648V219.744C293.688 221.653 295.235 223.2 297.144 223.2H299.448" stroke="#F67599" stroke-width="1.152"/>
<path d="M128.088 292.321L128.088 218.198C128.088 216.976 128.573 215.804 129.438 214.939L144.018 200.359C144.882 199.495 146.054 199.009 147.277 199.009H155.16C156.114 199.009 156.888 198.235 156.888 197.281V140.15C156.888 138.928 157.373 137.756 158.238 136.891L192.978 102.151C193.842 101.287 194.328 100.115 194.328 98.8924V69.1211" stroke="#00A3E0" stroke-width="1.152"/>
<path d="M128.088 292.32H66.7441C64.8354 292.32 63.2881 293.868 63.2881 295.776V313.92" stroke="#007DCE" stroke-width="1.152"/>
<path d="M33.0481 144.001L33.0481 20.1611" stroke="#685BC7" stroke-width="1.152"/>
<path d="M33.0481 144.001L33.0481 20.1611" stroke="white" stroke-opacity="0.75" stroke-width="0.432"/>
<rect x="232.344" y="182.017" width="1.728" height="1.728" rx="0.864" fill="white"/>
<rect x="232.344" y="182.017" width="1.728" height="1.728" rx="0.864" stroke="#E01735" stroke-width="0.288"/>
<rect x="184.824" y="196.417" width="1.728" height="1.728" rx="0.864" fill="white"/>
<rect x="184.824" y="196.417" width="1.728" height="1.728" rx="0.864" stroke="#E01735" stroke-width="0.288"/>
<rect x="163.224" y="196.417" width="1.728" height="1.728" rx="0.864" fill="white"/>
<rect x="163.224" y="196.417" width="1.728" height="1.728" rx="0.864" stroke="#E01735" stroke-width="0.288"/>
<rect x="143.064" y="194.977" width="1.728" height="1.728" rx="0.864" fill="white"/>
<rect x="143.064" y="194.977" width="1.728" height="1.728" rx="0.864" stroke="#E01735" stroke-width="0.288"/>
<rect x="141.624" y="200.88" width="1.728" height="1.728" rx="0.864" fill="white"/>
<rect x="141.624" y="200.88" width="1.728" height="1.728" rx="0.864" stroke="#00A3E0" stroke-width="0.288"/>
<rect x="135.864" y="206.64" width="1.728" height="1.728" rx="0.864" fill="white"/>
<rect x="135.864" y="206.64" width="1.728" height="1.728" rx="0.864" stroke="#00A3E0" stroke-width="0.288"/>
<rect x="130.104" y="212.401" width="1.728" height="1.728" rx="0.864" fill="white"/>
<rect x="130.104" y="212.401" width="1.728" height="1.728" rx="0.864" stroke="#00A3E0" stroke-width="0.288"/>
<rect x="127.224" y="230.977" width="1.728" height="1.728" rx="0.864" fill="white"/>
<rect x="127.224" y="230.977" width="1.728" height="1.728" rx="0.864" stroke="#00A3E0" stroke-width="0.288"/>
<rect x="127.224" y="241.056" width="1.728" height="1.728" rx="0.864" fill="white"/>
<rect x="127.224" y="241.056" width="1.728" height="1.728" rx="0.864" stroke="#00A3E0" stroke-width="0.288"/>
<rect x="127.224" y="251.136" width="1.728" height="1.728" rx="0.864" fill="white"/>
<rect x="127.224" y="251.136" width="1.728" height="1.728" rx="0.864" stroke="#00A3E0" stroke-width="0.288"/>
<rect x="127.224" y="261.216" width="1.728" height="1.728" rx="0.864" fill="white"/>
<rect x="127.224" y="261.216" width="1.728" height="1.728" rx="0.864" stroke="#00A3E0" stroke-width="0.288"/>
<rect x="127.224" y="271.296" width="1.728" height="1.728" rx="0.864" fill="white"/>
<rect x="127.224" y="271.296" width="1.728" height="1.728" rx="0.864" stroke="#00A3E0" stroke-width="0.288"/>
<rect x="127.224" y="281.377" width="1.728" height="1.728" rx="0.864" fill="white"/>
<rect x="127.224" y="281.377" width="1.728" height="1.728" rx="0.864" stroke="#00A3E0" stroke-width="0.288"/>
<rect x="138.744" y="190.657" width="1.728" height="1.728" rx="0.864" fill="white"/>
<rect x="138.744" y="190.657" width="1.728" height="1.728" rx="0.864" stroke="#E01735" stroke-width="0.288"/>
<rect x="108.504" y="179.136" width="1.728" height="1.728" rx="0.864" fill="white"/>
<rect x="108.504" y="179.136" width="1.728" height="1.728" rx="0.864" stroke="#E01735" stroke-width="0.288"/>
<rect x="108.504" y="171.937" width="1.728" height="1.728" rx="0.864" fill="white"/>
<rect x="108.504" y="171.937" width="1.728" height="1.728" rx="0.864" stroke="#E01735" stroke-width="0.288"/>
<rect x="108.504" y="157.537" width="1.728" height="1.728" rx="0.864" fill="white"/>
<rect x="108.504" y="157.537" width="1.728" height="1.728" rx="0.864" stroke="#E01735" stroke-width="0.288"/>
<rect x="108.504" y="164.737" width="1.728" height="1.728" rx="0.864" fill="white"/>
<rect x="108.504" y="164.737" width="1.728" height="1.728" rx="0.864" stroke="#E01735" stroke-width="0.288"/>
<rect x="108.504" y="150.336" width="1.728" height="1.728" rx="0.864" fill="white"/>
<rect x="108.504" y="150.336" width="1.728" height="1.728" rx="0.864" stroke="#E01735" stroke-width="0.288"/>
<rect x="84.024" y="143.136" width="1.728" height="1.728" rx="0.864" fill="white"/>
<rect x="84.024" y="143.136" width="1.728" height="1.728" rx="0.864" stroke="#E01735" stroke-width="0.288"/>
<rect x="76.824" y="143.136" width="1.728" height="1.728" rx="0.864" fill="white"/>
<rect x="76.824" y="143.136" width="1.728" height="1.728" rx="0.864" stroke="#E01735" stroke-width="0.288"/>
<rect x="69.6241" y="143.136" width="1.728" height="1.728" rx="0.864" fill="white"/>
<rect x="69.6241" y="143.136" width="1.728" height="1.728" rx="0.864" stroke="#E01735" stroke-width="0.288"/>
<rect x="62.4241" y="143.136" width="1.728" height="1.728" rx="0.864" fill="white"/>
<rect x="62.4241" y="143.136" width="1.728" height="1.728" rx="0.864" stroke="#E01735" stroke-width="0.288"/>
<rect x="55.2239" y="143.136" width="1.728" height="1.728" rx="0.864" fill="white"/>
<rect x="55.2239" y="143.136" width="1.728" height="1.728" rx="0.864" stroke="#E01735" stroke-width="0.288"/>
<rect x="226.512" y="192.214" width="2.304" height="4.032" rx="0.864" transform="rotate(-45 226.512 192.214)" fill="white" stroke="#231F20" stroke-width="0.432"/>
<rect x="213.336" y="196.129" width="2.304" height="2.304" rx="0.864" fill="white" stroke="#231F20" stroke-width="0.432"/>
<rect x="188.856" y="181.729" width="2.304" height="2.304" rx="0.864" fill="white" stroke="#231F20" stroke-width="0.432"/>
<rect x="193.176" y="196.129" width="2.304" height="2.304" rx="0.864" fill="white" stroke="#231F20" stroke-width="0.432"/>
<rect x="174.456" y="196.129" width="2.304" height="2.304" rx="0.864" fill="white" stroke="#231F20" stroke-width="0.432"/>
<rect x="171.576" y="220.608" width="2.304" height="2.304" rx="0.864" fill="white" stroke="#231F20" stroke-width="0.432"/>
<rect x="171.576" y="235.009" width="2.304" height="2.304" rx="0.864" fill="white" stroke="#231F20" stroke-width="0.432"/>
<rect x="157.464" y="220.608" width="2.304" height="2.304" rx="0.864" fill="white" stroke="#231F20" stroke-width="0.432"/>
<rect x="187.704" y="202.176" width="1.728" height="1.728" rx="0.864" fill="white"/>
<rect x="187.704" y="202.176" width="1.728" height="1.728" rx="0.864" stroke="#2CD5C5" stroke-width="0.288"/>
<rect x="199.8" y="221.329" width="2.304" height="2.304" rx="0.864" transform="rotate(90 199.8 221.329)" fill="white" stroke="#231F20" stroke-width="0.432"/>
<rect x="193.176" y="227.809" width="2.304" height="2.304" rx="0.864" fill="white" stroke="#231F20" stroke-width="0.432"/>
<rect x="201.816" y="227.809" width="2.304" height="2.304" rx="0.864" fill="white" stroke="#231F20" stroke-width="0.432"/>
<rect x="246.456" y="204.769" width="2.304" height="2.304" rx="0.864" fill="white" stroke="#231F20" stroke-width="0.432"/>
<rect x="213.624" y="189.216" width="1.728" height="1.728" rx="0.864" fill="white"/>
<rect x="213.624" y="189.216" width="1.728" height="1.728" rx="0.864" stroke="#007B34" stroke-width="0.288"/>
<rect x="213.624" y="184.897" width="1.728" height="1.728" rx="0.864" fill="white"/>
<rect x="213.624" y="184.897" width="1.728" height="1.728" rx="0.864" stroke="#007B34" stroke-width="0.288"/>
<rect x="209.304" y="182.017" width="1.728" height="1.728" rx="0.864" fill="white"/>
<rect x="209.304" y="182.017" width="1.728" height="1.728" rx="0.864" stroke="#007B34" stroke-width="0.288"/>
<rect x="184.104" y="187.056" width="1.728" height="1.728" rx="0.864" fill="white"/>
<rect x="184.104" y="187.056" width="1.728" height="1.728" rx="0.864" stroke="#007B34" stroke-width="0.288"/>
<rect x="179.784" y="191.377" width="1.728" height="1.728" rx="0.864" fill="white"/>
<rect x="179.784" y="191.377" width="1.728" height="1.728" rx="0.864" stroke="#007B34" stroke-width="0.288"/>
<rect x="171.864" y="212.401" width="1.728" height="1.728" rx="0.864" fill="white"/>
<rect x="171.864" y="212.401" width="1.728" height="1.728" rx="0.864" stroke="#007B34" stroke-width="0.288"/>
<rect x="201.816" y="181.729" width="2.304" height="2.304" rx="0.864" fill="white" stroke="#231F20" stroke-width="0.432"/>
<rect x="201.816" y="163.009" width="2.304" height="2.304" rx="0.864" fill="white" stroke="#231F20" stroke-width="0.432"/>
<rect x="180.216" y="155.809" width="2.304" height="2.304" rx="0.864" fill="white" stroke="#231F20" stroke-width="0.432"/>
<rect x="201.816" y="155.809" width="2.304" height="2.304" rx="0.864" fill="white" stroke="#231F20" stroke-width="0.432"/>
<rect x="202.104" y="187.777" width="1.728" height="1.728" rx="0.864" fill="white"/>
<rect x="202.104" y="187.777" width="1.728" height="1.728" rx="0.864" stroke="#5F249E" stroke-width="0.288"/>
<rect x="217.944" y="199.296" width="1.728" height="1.728" rx="0.864" fill="white"/>
<rect x="217.944" y="199.296" width="1.728" height="1.728" rx="0.864" stroke="#2CD5C5" stroke-width="0.288"/>
<rect x="209.304" y="199.296" width="1.728" height="1.728" rx="0.864" fill="white"/>
<rect x="209.304" y="199.296" width="1.728" height="1.728" rx="0.864" stroke="#2CD5C5" stroke-width="0.288"/>
<rect x="193.464" y="215.136" width="1.728" height="1.728" rx="0.864" fill="white"/>
<rect x="193.464" y="215.136" width="1.728" height="1.728" rx="0.864" stroke="#003DA6" stroke-width="0.288"/>
<rect x="202.104" y="215.136" width="1.728" height="1.728" rx="0.864" fill="white"/>
<rect x="202.104" y="215.136" width="1.728" height="1.728" rx="0.864" stroke="#5F249E" stroke-width="0.288"/>
<rect x="194.904" y="224.497" width="1.728" height="1.728" rx="0.864" fill="white"/>
<rect x="194.904" y="224.497" width="1.728" height="1.728" rx="0.864" stroke="#5F249E" stroke-width="0.288"/>
<rect x="193.464" y="235.296" width="1.728" height="1.728" rx="0.864" fill="white"/>
<rect x="193.464" y="235.296" width="1.728" height="1.728" rx="0.864" stroke="#5F249E" stroke-width="0.288"/>
<rect x="194.904" y="218.737" width="1.728" height="1.728" rx="0.864" fill="white"/>
<rect x="194.904" y="218.737" width="1.728" height="1.728" rx="0.864" stroke="#003DA6" stroke-width="0.288"/>
<rect x="202.104" y="236.737" width="1.728" height="1.728" rx="0.864" fill="white"/>
<rect x="202.104" y="236.737" width="1.728" height="1.728" rx="0.864" stroke="#003DA6" stroke-width="0.288"/>
<rect x="202.104" y="243.937" width="1.728" height="1.728" rx="0.864" fill="white"/>
<rect x="202.104" y="243.937" width="1.728" height="1.728" rx="0.864" stroke="#003DA6" stroke-width="0.288"/>
<rect x="202.104" y="251.136" width="1.728" height="1.728" rx="0.864" fill="white"/>
<rect x="202.104" y="251.136" width="1.728" height="1.728" rx="0.864" stroke="#003DA6" stroke-width="0.288"/>
<rect x="202.104" y="258.336" width="1.728" height="1.728" rx="0.864" fill="white"/>
<rect x="202.104" y="258.336" width="1.728" height="1.728" rx="0.864" stroke="#003DA6" stroke-width="0.288"/>
<rect x="202.104" y="265.537" width="1.728" height="1.728" rx="0.864" fill="white"/>
<rect x="202.104" y="265.537" width="1.728" height="1.728" rx="0.864" stroke="#003DA6" stroke-width="0.288"/>
<rect x="202.104" y="272.737" width="1.728" height="1.728" rx="0.864" fill="white"/>
<rect x="202.104" y="272.737" width="1.728" height="1.728" rx="0.864" stroke="#003DA6" stroke-width="0.288"/>
<rect x="202.104" y="279.937" width="1.728" height="1.728" rx="0.864" fill="white"/>
<rect x="202.104" y="279.937" width="1.728" height="1.728" rx="0.864" stroke="#003DA6" stroke-width="0.288"/>
<rect x="202.104" y="287.136" width="1.728" height="1.728" rx="0.864" fill="white"/>
<rect x="202.104" y="287.136" width="1.728" height="1.728" rx="0.864" stroke="#003DA6" stroke-width="0.288"/>
<rect x="199.224" y="294.336" width="1.728" height="1.728" rx="0.864" fill="white"/>
<rect x="199.224" y="294.336" width="1.728" height="1.728" rx="0.864" stroke="#003DA6" stroke-width="0.288"/>
<rect x="192.024" y="301.537" width="1.728" height="1.728" rx="0.864" fill="white"/>
<rect x="192.024" y="301.537" width="1.728" height="1.728" rx="0.864" stroke="#003DA6" stroke-width="0.288"/>
<rect x="184.824" y="308.737" width="1.728" height="1.728" rx="0.864" fill="white"/>
<rect x="184.824" y="308.737" width="1.728" height="1.728" rx="0.864" stroke="#003DA6" stroke-width="0.288"/>
<rect x="177.624" y="311.617" width="1.728" height="1.728" rx="0.864" fill="white"/>
<rect x="177.624" y="311.617" width="1.728" height="1.728" rx="0.864" stroke="#003DA6" stroke-width="0.288"/>
<rect x="201.816" y="196.129" width="2.304" height="5.184" rx="0.864" fill="white" stroke="#231F20" stroke-width="0.432"/>
<rect x="180.504" y="167.617" width="1.728" height="1.728" rx="0.864" fill="white"/>
<rect x="180.504" y="167.617" width="1.728" height="1.728" rx="0.864" stroke="#003DA6" stroke-width="0.288"/>
<rect x="183.384" y="163.296" width="1.728" height="1.728" rx="0.864" fill="white"/>
<rect x="183.384" y="163.296" width="1.728" height="1.728" rx="0.864" stroke="#871F42" stroke-width="0.288"/>
<rect x="213.624" y="163.296" width="1.728" height="1.728" rx="0.864" fill="white"/>
<rect x="213.624" y="163.296" width="1.728" height="1.728" rx="0.864" stroke="#871F42" stroke-width="0.288"/>
<rect x="174.744" y="163.296" width="1.728" height="1.728" rx="0.864" fill="white"/>
<rect x="174.744" y="163.296" width="1.728" height="1.728" rx="0.864" stroke="#871F42" stroke-width="0.288"/>
<rect x="168.984" y="167.617" width="1.728" height="1.728" rx="0.864" fill="white"/>
<rect x="168.984" y="167.617" width="1.728" height="1.728" rx="0.864" stroke="#871F42" stroke-width="0.288"/>
<rect x="168.984" y="182.017" width="1.728" height="1.728" rx="0.864" fill="white"/>
<rect x="168.984" y="182.017" width="1.728" height="1.728" rx="0.864" stroke="#871F42" stroke-width="0.288"/>
<rect x="145.944" y="187.777" width="1.728" height="1.728" rx="0.864" fill="white"/>
<rect x="145.944" y="187.777" width="1.728" height="1.728" rx="0.864" stroke="#871F42" stroke-width="0.288"/>
<rect x="180.504" y="160.417" width="1.728" height="1.728" rx="0.864" fill="white"/>
<rect x="180.504" y="160.417" width="1.728" height="1.728" rx="0.864" stroke="#003DA6" stroke-width="0.288"/>
<rect x="186.12" y="148.897" width="1.728" height="1.728" rx="0.864" fill="white"/>
<rect x="186.12" y="148.897" width="1.728" height="1.728" rx="0.864" stroke="#003DA6" stroke-width="0.288"/>
<rect x="180.504" y="152.065" width="1.728" height="1.728" rx="0.864" fill="white"/>
<rect x="180.504" y="152.065" width="1.728" height="1.728" rx="0.864" stroke="#003DA6" stroke-width="0.288"/>
<rect x="190.584" y="148.897" width="1.728" height="1.728" rx="0.864" fill="white"/>
<rect x="190.584" y="148.897" width="1.728" height="1.728" rx="0.864" stroke="#003DA6" stroke-width="0.288"/>
<rect x="194.184" y="156.096" width="1.728" height="1.728" rx="0.864" fill="white"/>
<rect x="194.184" y="156.096" width="1.728" height="1.728" rx="0.864" stroke="#F67599" stroke-width="0.288"/>
<rect x="168.264" y="156.096" width="1.728" height="1.728" rx="0.864" fill="white"/>
<rect x="168.264" y="156.096" width="1.728" height="1.728" rx="0.864" stroke="#F67599" stroke-width="0.288"/>
<rect x="151.416" y="134.497" width="1.728" height="1.728" rx="0.864" fill="white"/>
<rect x="151.416" y="134.497" width="1.728" height="1.728" rx="0.864" stroke="#F67599" stroke-width="0.288"/>
<rect x="147.096" y="130.176" width="1.728" height="1.728" rx="0.864" fill="white"/>
<rect x="147.096" y="130.176" width="1.728" height="1.728" rx="0.864" stroke="#F67599" stroke-width="0.288"/>
<rect x="142.776" y="125.857" width="1.728" height="1.728" rx="0.864" fill="white"/>
<rect x="142.776" y="125.857" width="1.728" height="1.728" rx="0.864" stroke="#F67599" stroke-width="0.288"/>
<rect x="141.624" y="119.377" width="1.728" height="1.728" rx="0.864" fill="white"/>
<rect x="141.624" y="119.377" width="1.728" height="1.728" rx="0.864" stroke="#F67599" stroke-width="0.288"/>
<rect x="222.552" y="164.737" width="1.728" height="1.728" rx="0.864" fill="white"/>
<rect x="222.552" y="164.737" width="1.728" height="1.728" rx="0.864" stroke="#F67599" stroke-width="0.288"/>
<rect x="194.904" y="148.897" width="1.728" height="1.728" rx="0.864" fill="white"/>
<rect x="194.904" y="148.897" width="1.728" height="1.728" rx="0.864" stroke="#003DA6" stroke-width="0.288"/>
<rect x="198.936" y="133.056" width="1.728" height="1.728" rx="0.864" fill="white"/>
<rect x="198.936" y="133.056" width="1.728" height="1.728" rx="0.864" stroke="#003DA6" stroke-width="0.288"/>
<rect x="198.936" y="128.737" width="1.728" height="1.728" rx="0.864" fill="white"/>
<rect x="198.936" y="128.737" width="1.728" height="1.728" rx="0.864" stroke="#003DA6" stroke-width="0.288"/>
<rect x="198.936" y="124.417" width="1.728" height="1.728" rx="0.864" fill="white"/>
<rect x="198.936" y="124.417" width="1.728" height="1.728" rx="0.864" stroke="#003DA6" stroke-width="0.288"/>
<rect x="198.936" y="112.897" width="1.728" height="1.728" rx="0.864" fill="white"/>
<rect x="198.936" y="112.897" width="1.728" height="1.728" rx="0.864" stroke="#003DA6" stroke-width="0.288"/>
<rect x="207.864" y="111.169" width="1.728" height="1.728" rx="0.864" fill="white"/>
<rect x="207.864" y="111.169" width="1.728" height="1.728" rx="0.864" stroke="#0057B7" stroke-width="0.288"/>
<rect x="186.264" y="120.096" width="1.728" height="1.728" rx="0.864" fill="white"/>
<rect x="186.264" y="120.096" width="1.728" height="1.728" rx="0.864" stroke="#0057B7" stroke-width="0.288"/>
<rect x="161.784" y="120.096" width="1.728" height="1.728" rx="0.864" fill="white"/>
<rect x="161.784" y="120.096" width="1.728" height="1.728" rx="0.864" stroke="#0057B7" stroke-width="0.288"/>
<rect x="132.264" y="107.136" width="1.728" height="1.728" rx="0.864" fill="white"/>
<rect x="132.264" y="107.136" width="1.728" height="1.728" rx="0.864" stroke="#0057B7" stroke-width="0.288"/>
<rect x="108.504" y="107.136" width="1.728" height="1.728" rx="0.864" fill="white"/>
<rect x="108.504" y="107.136" width="1.728" height="1.728" rx="0.864" stroke="#0057B7" stroke-width="0.288"/>
<rect x="217.944" y="104.256" width="1.728" height="1.728" rx="0.864" fill="white"/>
<rect x="217.944" y="104.256" width="1.728" height="1.728" rx="0.864" stroke="#0057B7" stroke-width="0.288"/>
<rect x="243.144" y="104.256" width="1.728" height="1.728" rx="0.864" fill="white"/>
<rect x="243.144" y="104.256" width="1.728" height="1.728" rx="0.864" stroke="#0057B7" stroke-width="0.288"/>
<rect x="317.304" y="104.256" width="1.728" height="1.728" rx="0.864" fill="white"/>
<rect x="317.304" y="104.256" width="1.728" height="1.728" rx="0.864" stroke="#0057B7" stroke-width="0.288"/>
<rect x="330.264" y="98.4966" width="1.728" height="1.728" rx="0.864" fill="white"/>
<rect x="330.264" y="98.4966" width="1.728" height="1.728" rx="0.864" stroke="#0057B7" stroke-width="0.288"/>
<rect x="330.264" y="91.2964" width="1.728" height="1.728" rx="0.864" fill="white"/>
<rect x="330.264" y="91.2964" width="1.728" height="1.728" rx="0.864" stroke="#0057B7" stroke-width="0.288"/>
<rect x="311.544" y="104.256" width="1.728" height="1.728" rx="0.864" fill="white"/>
<rect x="311.544" y="104.256" width="1.728" height="1.728" rx="0.864" stroke="#0057B7" stroke-width="0.288"/>
<rect x="201.384" y="105.264" width="1.728" height="1.728" rx="0.864" fill="white"/>
<rect x="201.384" y="105.264" width="1.728" height="1.728" rx="0.864" stroke="#003DA6" stroke-width="0.288"/>
<rect x="207.144" y="99.5044" width="1.728" height="1.728" rx="0.864" fill="white"/>
<rect x="207.144" y="99.5044" width="1.728" height="1.728" rx="0.864" stroke="#003DA6" stroke-width="0.288"/>
<rect x="216.504" y="97.0562" width="1.728" height="1.728" rx="0.864" fill="white"/>
<rect x="216.504" y="97.0562" width="1.728" height="1.728" rx="0.864" stroke="#003DA6" stroke-width="0.288"/>
<rect x="226.584" y="96.9126" width="1.728" height="1.728" rx="0.864" fill="white"/>
<rect x="226.584" y="96.9126" width="1.728" height="1.728" rx="0.864" stroke="#003DA6" stroke-width="0.288"/>
<rect x="238.104" y="96.9126" width="1.728" height="1.728" rx="0.864" fill="white"/>
<rect x="238.104" y="96.9126" width="1.728" height="1.728" rx="0.864" stroke="#003DA6" stroke-width="0.288"/>
<rect x="242.136" y="79.7769" width="1.728" height="1.728" rx="0.864" fill="white"/>
<rect x="242.136" y="79.7769" width="1.728" height="1.728" rx="0.864" stroke="#003DA6" stroke-width="0.288"/>
<rect x="163.224" y="74.0171" width="1.728" height="1.728" rx="0.864" fill="white"/>
<rect x="163.224" y="74.0171" width="1.728" height="1.728" rx="0.864" stroke="#F67599" stroke-width="0.288"/>
<rect x="163.224" y="107.136" width="1.728" height="1.728" rx="0.864" fill="white"/>
<rect x="163.224" y="107.136" width="1.728" height="1.728" rx="0.864" stroke="#F67599" stroke-width="0.288"/>
<rect x="242.136" y="74.0171" width="1.728" height="1.728" rx="0.864" fill="white"/>
<rect x="242.136" y="74.0171" width="1.728" height="1.728" rx="0.864" stroke="#003DA6" stroke-width="0.288"/>
<rect x="163.224" y="68.2564" width="1.728" height="1.728" rx="0.864" fill="white"/>
<rect x="163.224" y="68.2564" width="1.728" height="1.728" rx="0.864" stroke="#F67599" stroke-width="0.288"/>
<rect x="163.224" y="99.9371" width="1.728" height="1.728" rx="0.864" fill="white"/>
<rect x="163.224" y="99.9371" width="1.728" height="1.728" rx="0.864" stroke="#F67599" stroke-width="0.288"/>
<rect x="242.136" y="68.2564" width="1.728" height="1.728" rx="0.864" fill="white"/>
<rect x="242.136" y="68.2564" width="1.728" height="1.728" rx="0.864" stroke="#003DA6" stroke-width="0.288"/>
<rect x="163.224" y="62.4966" width="1.728" height="1.728" rx="0.864" fill="white"/>
<rect x="163.224" y="62.4966" width="1.728" height="1.728" rx="0.864" stroke="#F67599" stroke-width="0.288"/>
<rect x="163.224" y="92.7369" width="1.728" height="1.728" rx="0.864" fill="white"/>
<rect x="163.224" y="92.7369" width="1.728" height="1.728" rx="0.864" stroke="#F67599" stroke-width="0.288"/>
<rect x="242.136" y="62.4966" width="1.728" height="1.728" rx="0.864" fill="white"/>
<rect x="242.136" y="62.4966" width="1.728" height="1.728" rx="0.864" stroke="#003DA6" stroke-width="0.288"/>
<rect x="163.224" y="56.7369" width="1.728" height="1.728" rx="0.864" fill="white"/>
<rect x="163.224" y="56.7369" width="1.728" height="1.728" rx="0.864" stroke="#F67599" stroke-width="0.288"/>
<rect x="242.136" y="56.7369" width="1.728" height="1.728" rx="0.864" fill="white"/>
<rect x="242.136" y="56.7369" width="1.728" height="1.728" rx="0.864" stroke="#003DA6" stroke-width="0.288"/>
<rect x="163.224" y="50.9771" width="1.728" height="1.728" rx="0.864" fill="white"/>
<rect x="163.224" y="50.9771" width="1.728" height="1.728" rx="0.864" stroke="#F67599" stroke-width="0.288"/>
<rect x="242.136" y="50.9771" width="1.728" height="1.728" rx="0.864" fill="white"/>
<rect x="242.136" y="50.9771" width="1.728" height="1.728" rx="0.864" stroke="#003DA6" stroke-width="0.288"/>
<rect x="163.224" y="45.2164" width="1.728" height="1.728" rx="0.864" fill="white"/>
<rect x="163.224" y="45.2164" width="1.728" height="1.728" rx="0.864" stroke="#F67599" stroke-width="0.288"/>
<g clip-path="url(#clip0_811_2408)">
<path d="M183.581 161.378C183.581 161.433 183.537 161.477 183.483 161.477C183.428 161.477 183.385 161.433 183.385 161.378C183.385 161.324 183.428 161.28 183.483 161.28C183.537 161.28 183.581 161.324 183.581 161.378Z" fill="#8E8E8E"/>
<path d="M183.334 161.66C183.334 161.66 183.254 162.077 183.236 162.105C183.222 162.129 183.106 162.318 183.106 162.318C183.082 162.358 183.105 162.387 183.131 162.402C183.153 162.415 183.201 162.412 183.217 162.385C183.217 162.385 183.345 162.186 183.359 162.143C183.368 162.113 183.391 161.99 183.391 161.99C183.391 161.99 183.515 162.118 183.528 162.141C183.546 162.17 183.578 162.371 183.578 162.371C183.585 162.407 183.619 162.419 183.655 162.413C183.683 162.408 183.712 162.389 183.706 162.354C183.706 162.354 183.678 162.121 183.655 162.083C183.628 162.037 183.483 161.881 183.483 161.881L183.525 161.696C183.525 161.696 183.551 161.75 183.57 161.773C183.591 161.799 183.725 161.877 183.725 161.877C183.737 161.885 183.765 161.88 183.776 161.86C183.785 161.843 183.784 161.816 183.764 161.803C183.764 161.803 183.654 161.734 183.629 161.713C183.6 161.689 183.542 161.529 183.542 161.529C183.524 161.505 183.499 161.477 183.457 161.477C183.414 161.476 183.393 161.499 183.374 161.512C183.374 161.512 183.21 161.632 183.194 161.656C183.178 161.68 183.149 161.864 183.149 161.864C183.144 161.884 183.153 161.901 183.177 161.907C183.208 161.914 183.229 161.895 183.232 161.881C183.232 161.881 183.251 161.736 183.264 161.714C183.28 161.69 183.334 161.66 183.334 161.66L183.334 161.66Z" fill="#8E8E8E"/>
</g>
<rect x="162.936" y="187.488" width="2.304" height="4.032" rx="0.864" fill="white" stroke="#231F20" stroke-width="0.432"/>
<rect x="168.984" y="192.817" width="1.728" height="1.728" rx="0.864" fill="white"/>
<rect x="168.984" y="192.817" width="1.728" height="1.728" rx="0.864" stroke="#2CD5C5" stroke-width="0.288"/>
<rect x="176.184" y="205.056" width="1.728" height="1.728" rx="0.864" fill="white"/>
<rect x="176.184" y="205.056" width="1.728" height="1.728" rx="0.864" stroke="#2CD5C5" stroke-width="0.288"/>
<rect x="183.384" y="205.056" width="1.728" height="1.728" rx="0.864" fill="white"/>
<rect x="183.384" y="205.056" width="1.728" height="1.728" rx="0.864" stroke="#2CD5C5" stroke-width="0.288"/>
<rect x="149.976" y="196.129" width="2.304" height="4.032" rx="0.864" fill="white" stroke="#231F20" stroke-width="0.432"/>
<rect x="131.256" y="185.761" width="2.304" height="4.032" rx="0.864" fill="white" stroke="#231F20" stroke-width="0.432"/>
<rect x="122.616" y="185.761" width="2.304" height="4.032" rx="0.864" fill="white" stroke="#231F20" stroke-width="0.432"/>
<rect x="159.768" y="195.984" width="2.304" height="4.032" rx="0.864" transform="rotate(90 159.768 195.984)" fill="white" stroke="#231F20" stroke-width="0.432"/>
<rect x="158.04" y="141.408" width="2.304" height="4.032" rx="0.864" transform="rotate(90 158.04 141.408)" fill="white" stroke="#231F20" stroke-width="0.432"/>
<rect x="166.968" y="85.3926" width="2.304" height="4.032" rx="0.864" transform="rotate(90 166.968 85.3926)" fill="white" stroke="#231F20" stroke-width="0.432"/>
<rect x="166.968" y="79.6328" width="2.304" height="4.032" rx="0.864" transform="rotate(90 166.968 79.6328)" fill="white" stroke="#231F20" stroke-width="0.432"/>
<rect x="224.568" y="160.129" width="2.304" height="4.032" rx="0.864" transform="rotate(90 224.568 160.129)" fill="white" stroke="#231F20" stroke-width="0.432"/>
<rect x="220.536" y="154.081" width="2.304" height="4.032" rx="0.864" fill="white" stroke="#231F20" stroke-width="0.432"/>
<rect x="129.24" y="220.608" width="2.304" height="2.304" rx="0.864" transform="rotate(90 129.24 220.608)" fill="white" stroke="#231F20" stroke-width="0.432"/>
<rect x="155.736" y="187.488" width="2.304" height="2.304" rx="0.864" fill="white" stroke="#231F20" stroke-width="0.432"/>
<rect x="186.264" y="225.216" width="1.728" height="1.728" rx="0.864" fill="white"/>
<rect x="186.264" y="225.216" width="1.728" height="1.728" rx="0.864" stroke="#F1A900" stroke-width="0.288"/>
<rect x="122.904" y="196.417" width="1.728" height="1.728" rx="0.864" fill="white"/>
<rect x="122.904" y="196.417" width="1.728" height="1.728" rx="0.864" stroke="#F1A900" stroke-width="0.288"/>
<rect x="122.904" y="202.176" width="1.728" height="1.728" rx="0.864" fill="white"/>
<rect x="122.904" y="202.176" width="1.728" height="1.728" rx="0.864" stroke="#F1A900" stroke-width="0.288"/>
<rect x="122.904" y="207.937" width="1.728" height="1.728" rx="0.864" fill="white"/>
<rect x="122.904" y="207.937" width="1.728" height="1.728" rx="0.864" stroke="#F1A900" stroke-width="0.288"/>
<rect x="122.904" y="213.697" width="1.728" height="1.728" rx="0.864" fill="white"/>
<rect x="122.904" y="213.697" width="1.728" height="1.728" rx="0.864" stroke="#F1A900" stroke-width="0.288"/>
<rect x="133.704" y="220.897" width="1.728" height="1.728" rx="0.864" fill="white"/>
<rect x="133.704" y="220.897" width="1.728" height="1.728" rx="0.864" stroke="#F1A900" stroke-width="0.288"/>
<rect x="139.464" y="220.897" width="1.728" height="1.728" rx="0.864" fill="white"/>
<rect x="139.464" y="220.897" width="1.728" height="1.728" rx="0.864" stroke="#F1A900" stroke-width="0.288"/>
<rect x="145.224" y="220.897" width="1.728" height="1.728" rx="0.864" fill="white"/>
<rect x="145.224" y="220.897" width="1.728" height="1.728" rx="0.864" stroke="#F1A900" stroke-width="0.288"/>
<rect x="150.984" y="220.897" width="1.728" height="1.728" rx="0.864" fill="white"/>
<rect x="150.984" y="220.897" width="1.728" height="1.728" rx="0.864" stroke="#F1A900" stroke-width="0.288"/>
<rect x="167.544" y="245.377" width="1.728" height="1.728" rx="0.864" fill="white"/>
<rect x="167.544" y="245.377" width="1.728" height="1.728" rx="0.864" stroke="#007B34" stroke-width="0.288"/>
<rect x="161.784" y="245.377" width="1.728" height="1.728" rx="0.864" fill="white"/>
<rect x="161.784" y="245.377" width="1.728" height="1.728" rx="0.864" stroke="#007B34" stroke-width="0.288"/>
<rect x="156.024" y="245.377" width="1.728" height="1.728" rx="0.864" fill="white"/>
<rect x="156.024" y="245.377" width="1.728" height="1.728" rx="0.864" stroke="#007B34" stroke-width="0.288"/>
<rect x="150.264" y="251.136" width="1.728" height="1.728" rx="0.864" fill="white"/>
<rect x="150.264" y="251.136" width="1.728" height="1.728" rx="0.864" stroke="#007B34" stroke-width="0.288"/>
<rect x="150.264" y="256.897" width="1.728" height="1.728" rx="0.864" fill="white"/>
<rect x="150.264" y="256.897" width="1.728" height="1.728" rx="0.864" stroke="#007B34" stroke-width="0.288"/>
<rect x="150.264" y="262.657" width="1.728" height="1.728" rx="0.864" fill="white"/>
<rect x="150.264" y="262.657" width="1.728" height="1.728" rx="0.864" stroke="#007B34" stroke-width="0.288"/>
<rect x="150.264" y="268.417" width="1.728" height="1.728" rx="0.864" fill="white"/>
<rect x="150.264" y="268.417" width="1.728" height="1.728" rx="0.864" stroke="#007B34" stroke-width="0.288"/>
<rect x="150.264" y="274.176" width="1.728" height="1.728" rx="0.864" fill="white"/>
<rect x="150.264" y="274.176" width="1.728" height="1.728" rx="0.864" stroke="#007B34" stroke-width="0.288"/>
<rect x="150.264" y="279.937" width="1.728" height="1.728" rx="0.864" fill="white"/>
<rect x="150.264" y="279.937" width="1.728" height="1.728" rx="0.864" stroke="#007B34" stroke-width="0.288"/>
<rect x="150.264" y="285.697" width="1.728" height="1.728" rx="0.864" fill="white"/>
<rect x="150.264" y="285.697" width="1.728" height="1.728" rx="0.864" stroke="#007B34" stroke-width="0.288"/>
<rect x="161.064" y="311.617" width="1.728" height="1.728" rx="0.864" fill="white"/>
<rect x="161.064" y="311.617" width="1.728" height="1.728" rx="0.864" stroke="#007B34" stroke-width="0.288"/>
<rect x="164.664" y="235.296" width="1.728" height="1.728" rx="0.864" fill="white"/>
<rect x="164.664" y="235.296" width="1.728" height="1.728" rx="0.864" stroke="#2CD5C5" stroke-width="0.288"/>
<rect x="178.92" y="241.056" width="1.728" height="1.728" rx="0.864" fill="white"/>
<rect x="178.92" y="241.056" width="1.728" height="1.728" rx="0.864" stroke="#2CD5C5" stroke-width="0.288"/>
<rect x="184.104" y="246.096" width="1.728" height="1.728" rx="0.864" fill="white"/>
<rect x="184.104" y="246.096" width="1.728" height="1.728" rx="0.864" stroke="#2CD5C5" stroke-width="0.288"/>
<rect x="186.264" y="253.296" width="1.728" height="1.728" rx="0.864" fill="white"/>
<rect x="186.264" y="253.296" width="1.728" height="1.728" rx="0.864" stroke="#2CD5C5" stroke-width="0.288"/>
<rect x="186.264" y="259.777" width="1.728" height="1.728" rx="0.864" fill="white"/>
<rect x="186.264" y="259.777" width="1.728" height="1.728" rx="0.864" stroke="#2CD5C5" stroke-width="0.288"/>
<rect x="186.264" y="275.617" width="1.728" height="1.728" rx="0.864" fill="white"/>
<rect x="186.264" y="275.617" width="1.728" height="1.728" rx="0.864" stroke="#2CD5C5" stroke-width="0.288"/>
<rect x="183.384" y="282.817" width="1.728" height="1.728" rx="0.864" fill="white"/>
<rect x="183.384" y="282.817" width="1.728" height="1.728" rx="0.864" stroke="#2CD5C5" stroke-width="0.288"/>
<rect x="178.344" y="287.857" width="1.728" height="1.728" rx="0.864" fill="white"/>
<rect x="178.344" y="287.857" width="1.728" height="1.728" rx="0.864" stroke="#2CD5C5" stroke-width="0.288"/>
<rect x="171.864" y="291.457" width="1.728" height="1.728" rx="0.864" fill="white"/>
<rect x="171.864" y="291.457" width="1.728" height="1.728" rx="0.864" stroke="#2CD5C5" stroke-width="0.288"/>
<rect x="156.024" y="291.457" width="1.728" height="1.728" rx="0.864" fill="white"/>
<rect x="156.024" y="291.457" width="1.728" height="1.728" rx="0.864" stroke="#2CD5C5" stroke-width="0.288"/>
<rect x="142.344" y="291.457" width="1.728" height="1.728" rx="0.864" fill="white"/>
<rect x="142.344" y="291.457" width="1.728" height="1.728" rx="0.864" stroke="#2CD5C5" stroke-width="0.288"/>
<rect x="135.144" y="291.457" width="1.728" height="1.728" rx="0.864" fill="white"/>
<rect x="135.144" y="291.457" width="1.728" height="1.728" rx="0.864" stroke="#2CD5C5" stroke-width="0.288"/>
<rect x="120.024" y="291.457" width="1.728" height="1.728" rx="0.864" fill="white"/>
<rect x="120.024" y="291.457" width="1.728" height="1.728" rx="0.864" stroke="#007DCE" stroke-width="0.288"/>
<rect x="95.544" y="291.457" width="1.728" height="1.728" rx="0.864" fill="white"/>
<rect x="95.544" y="291.457" width="1.728" height="1.728" rx="0.864" stroke="#007DCE" stroke-width="0.288"/>
<rect x="86.9041" y="291.457" width="1.728" height="1.728" rx="0.864" fill="white"/>
<rect x="86.9041" y="291.457" width="1.728" height="1.728" rx="0.864" stroke="#007DCE" stroke-width="0.288"/>
<rect x="78.264" y="291.457" width="1.728" height="1.728" rx="0.864" fill="white"/>
<rect x="78.264" y="291.457" width="1.728" height="1.728" rx="0.864" stroke="#007DCE" stroke-width="0.288"/>
<rect x="69.6241" y="291.457" width="1.728" height="1.728" rx="0.864" fill="white"/>
<rect x="69.6241" y="291.457" width="1.728" height="1.728" rx="0.864" stroke="#007DCE" stroke-width="0.288"/>
<rect x="62.4241" y="297.216" width="1.728" height="1.728" rx="0.864" fill="white"/>
<rect x="62.4241" y="297.216" width="1.728" height="1.728" rx="0.864" stroke="#007DCE" stroke-width="0.288"/>
<rect x="62.4241" y="308.737" width="1.728" height="1.728" rx="0.864" fill="white"/>
<rect x="62.4241" y="308.737" width="1.728" height="1.728" rx="0.864" stroke="#007DCE" stroke-width="0.288"/>
<rect x="62.4241" y="313.056" width="1.728" height="1.728" rx="0.864" fill="white"/>
<rect x="62.4241" y="313.056" width="1.728" height="1.728" rx="0.864" stroke="#007DCE" stroke-width="0.288"/>
<rect x="127.224" y="295.777" width="1.728" height="1.728" rx="0.864" fill="white"/>
<rect x="127.224" y="295.777" width="1.728" height="1.728" rx="0.864" stroke="#2CD5C5" stroke-width="0.288"/>
<rect x="149.976" y="291.169" width="2.304" height="2.304" rx="0.864" fill="white" stroke="#231F20" stroke-width="0.432"/>
<rect x="171.576" y="311.329" width="2.304" height="2.304" rx="0.864" fill="white" stroke="#231F20" stroke-width="0.432"/>
<rect x="126.936" y="291.169" width="2.304" height="2.304" rx="0.864" fill="white" stroke="#231F20" stroke-width="0.432"/>
<rect x="108.504" y="196.417" width="1.728" height="1.728" rx="0.864" fill="white"/>
<rect x="108.504" y="196.417" width="1.728" height="1.728" rx="0.864" stroke="#871F42" stroke-width="0.288"/>
<rect x="108.504" y="202.176" width="1.728" height="1.728" rx="0.864" fill="white"/>
<rect x="108.504" y="202.176" width="1.728" height="1.728" rx="0.864" stroke="#871F42" stroke-width="0.288"/>
<rect x="108.504" y="207.937" width="1.728" height="1.728" rx="0.864" fill="white"/>
<rect x="108.504" y="207.937" width="1.728" height="1.728" rx="0.864" stroke="#871F42" stroke-width="0.288"/>
<rect x="31.896" y="142.849" width="2.304" height="2.304" rx="0.864" fill="white" stroke="#231F20" stroke-width="0.432"/>
<rect x="32.1839" y="128.737" width="1.728" height="1.728" rx="0.864" fill="white"/>
<rect x="32.1839" y="128.737" width="1.728" height="1.728" rx="0.864" stroke="#685BC7" stroke-width="0.288"/>
<rect x="32.1839" y="114.336" width="1.728" height="1.728" rx="0.864" fill="white"/>
<rect x="32.1839" y="114.336" width="1.728" height="1.728" rx="0.864" stroke="#685BC7" stroke-width="0.288"/>
<rect x="32.1839" y="99.9371" width="1.728" height="1.728" rx="0.864" fill="white"/>
<rect x="32.1839" y="99.9371" width="1.728" height="1.728" rx="0.864" stroke="#685BC7" stroke-width="0.288"/>
<rect x="32.1839" y="85.5367" width="1.728" height="1.728" rx="0.864" fill="white"/>
<rect x="32.1839" y="85.5367" width="1.728" height="1.728" rx="0.864" stroke="#685BC7" stroke-width="0.288"/>
<rect x="32.1839" y="40.897" width="1.728" height="1.728" rx="0.864" fill="white"/>
<rect x="32.1839" y="40.897" width="1.728" height="1.728" rx="0.864" stroke="#685BC7" stroke-width="0.288"/>
<rect x="32.1839" y="33.6968" width="1.728" height="1.728" rx="0.864" fill="white"/>
<rect x="32.1839" y="33.6968" width="1.728" height="1.728" rx="0.864" stroke="#685BC7" stroke-width="0.288"/>
<rect x="32.1839" y="26.4966" width="1.728" height="1.728" rx="0.864" fill="white"/>
<rect x="32.1839" y="26.4966" width="1.728" height="1.728" rx="0.864" stroke="#685BC7" stroke-width="0.288"/>
<rect x="32.1839" y="19.2964" width="1.728" height="1.728" rx="0.864" fill="white"/>
<rect x="32.1839" y="19.2964" width="1.728" height="1.728" rx="0.864" stroke="#685BC7" stroke-width="0.288"/>
<rect x="28.1519" y="143.424" width="1.152" height="1.152" rx="0.576" fill="white"/>
<rect x="28.1519" y="143.424" width="1.152" height="1.152" rx="0.576" stroke="#B6B6B6" stroke-width="0.288"/>
<rect x="28.1519" y="147.745" width="1.152" height="1.152" rx="0.576" fill="white"/>
<rect x="28.1519" y="147.745" width="1.152" height="1.152" rx="0.576" stroke="#B6B6B6" stroke-width="0.288"/>
<rect x="28.1519" y="152.065" width="1.152" height="1.152" rx="0.576" fill="white"/>
<rect x="28.1519" y="152.065" width="1.152" height="1.152" rx="0.576" stroke="#B6B6B6" stroke-width="0.288"/>
<rect x="28.1519" y="156.384" width="1.152" height="1.152" rx="0.576" fill="white"/>
<rect x="28.1519" y="156.384" width="1.152" height="1.152" rx="0.576" stroke="#B6B6B6" stroke-width="0.288"/>
<rect x="28.1519" y="160.705" width="1.152" height="1.152" rx="0.576" fill="white"/>
<rect x="28.1519" y="160.705" width="1.152" height="1.152" rx="0.576" stroke="#B6B6B6" stroke-width="0.288"/>
<rect x="28.1519" y="165.025" width="1.152" height="1.152" rx="0.576" fill="white"/>
<rect x="28.1519" y="165.025" width="1.152" height="1.152" rx="0.576" stroke="#B6B6B6" stroke-width="0.288"/>
<rect x="28.1519" y="169.344" width="1.152" height="1.152" rx="0.576" fill="white"/>
<rect x="28.1519" y="169.344" width="1.152" height="1.152" rx="0.576" stroke="#B6B6B6" stroke-width="0.288"/>
<rect x="28.1519" y="173.665" width="1.152" height="1.152" rx="0.576" fill="white"/>
<rect x="28.1519" y="173.665" width="1.152" height="1.152" rx="0.576" stroke="#B6B6B6" stroke-width="0.288"/>
<rect x="28.1519" y="177.985" width="1.152" height="1.152" rx="0.576" fill="white"/>
<rect x="28.1519" y="177.985" width="1.152" height="1.152" rx="0.576" stroke="#B6B6B6" stroke-width="0.288"/>
<rect x="28.1519" y="182.304" width="1.152" height="1.152" rx="0.576" fill="white"/>
<rect x="28.1519" y="182.304" width="1.152" height="1.152" rx="0.576" stroke="#B6B6B6" stroke-width="0.288"/>
<rect x="28.1519" y="186.625" width="1.152" height="1.152" rx="0.576" fill="white"/>
<rect x="28.1519" y="186.625" width="1.152" height="1.152" rx="0.576" stroke="#B6B6B6" stroke-width="0.288"/>
<rect x="28.1519" y="190.945" width="1.152" height="1.152" rx="0.576" fill="white"/>
<rect x="28.1519" y="190.945" width="1.152" height="1.152" rx="0.576" stroke="#B6B6B6" stroke-width="0.288"/>
<rect x="28.1519" y="195.264" width="1.152" height="1.152" rx="0.576" fill="white"/>
<rect x="28.1519" y="195.264" width="1.152" height="1.152" rx="0.576" stroke="#B6B6B6" stroke-width="0.288"/>
<rect x="28.1519" y="199.585" width="1.152" height="1.152" rx="0.576" fill="white"/>
<rect x="28.1519" y="199.585" width="1.152" height="1.152" rx="0.576" stroke="#B6B6B6" stroke-width="0.288"/>
<rect x="28.1519" y="203.905" width="1.152" height="1.152" rx="0.576" fill="white"/>
<rect x="28.1519" y="203.905" width="1.152" height="1.152" rx="0.576" stroke="#B6B6B6" stroke-width="0.288"/>
<g clip-path="url(#clip1_811_2408)">
<path d="M30.7968 142.515C30.7968 142.569 30.7529 142.613 30.6987 142.613C30.6445 142.613 30.6006 142.569 30.6006 142.515C30.6006 142.461 30.6445 142.417 30.6987 142.417C30.7529 142.417 30.7968 142.461 30.7968 142.515Z" fill="#8E8E8E"/>
<path d="M30.5499 142.797C30.5499 142.797 30.4697 143.213 30.4524 143.241C30.4376 143.265 30.3224 143.455 30.3224 143.455C30.2978 143.495 30.3211 143.524 30.3472 143.539C30.3694 143.552 30.4171 143.548 30.4328 143.521C30.4328 143.521 30.5607 143.323 30.5746 143.28C30.5843 143.25 30.6067 143.127 30.6067 143.127C30.6067 143.127 30.7309 143.255 30.7445 143.278C30.7617 143.307 30.7936 143.508 30.7936 143.508C30.8012 143.544 30.8354 143.556 30.871 143.55C30.8991 143.545 30.9285 143.526 30.922 143.491C30.922 143.491 30.8936 143.258 30.871 143.219C30.8441 143.174 30.6992 143.017 30.6992 143.017L30.7407 142.832C30.7407 142.832 30.7674 142.886 30.7861 142.91C30.8073 142.936 30.9409 143.013 30.9409 143.013C30.9531 143.022 30.9808 143.017 30.9918 142.996C31.0006 142.98 31.0002 142.953 30.9805 142.94C30.9805 142.94 30.8704 142.871 30.8446 142.849C30.8158 142.825 30.7577 142.666 30.7577 142.666C30.7397 142.641 30.715 142.614 30.6728 142.613C30.6302 142.613 30.6088 142.636 30.5897 142.649C30.5897 142.649 30.4265 142.768 30.4104 142.793C30.3941 142.817 30.3651 143 30.3651 143C30.3605 143.021 30.3687 143.038 30.3934 143.044C30.4236 143.051 30.4453 143.032 30.4481 143.017C30.4481 143.017 30.4668 142.873 30.4802 142.851C30.4959 142.826 30.5498 142.797 30.5498 142.797L30.5499 142.797Z" fill="#8E8E8E"/>
</g>
<rect x="225.144" y="226.657" width="1.728" height="1.728" rx="0.864" fill="white"/>
<rect x="225.144" y="226.657" width="1.728" height="1.728" rx="0.864" stroke="#F1A900" stroke-width="0.288"/>
<rect x="232.344" y="219.457" width="1.728" height="1.728" rx="0.864" fill="white"/>
<rect x="232.344" y="219.457" width="1.728" height="1.728" rx="0.864" stroke="#F1A900" stroke-width="0.288"/>
<rect x="239.544" y="212.256" width="1.728" height="1.728" rx="0.864" fill="white"/>
<rect x="239.544" y="212.256" width="1.728" height="1.728" rx="0.864" stroke="#F1A900" stroke-width="0.288"/>
<rect x="282.456" y="203.041" width="2.304" height="4.032" rx="0.864" fill="white" stroke="#231F20" stroke-width="0.432"/>
<rect x="285.624" y="209.377" width="1.728" height="1.728" rx="0.864" fill="white"/>
<rect x="285.624" y="209.377" width="1.728" height="1.728" rx="0.864" stroke="#F67599" stroke-width="0.288"/>
<rect x="285.624" y="215.136" width="1.728" height="1.728" rx="0.864" fill="white"/>
<rect x="285.624" y="215.136" width="1.728" height="1.728" rx="0.864" stroke="#F67599" stroke-width="0.288"/>
<rect x="292.824" y="215.136" width="1.728" height="1.728" rx="0.864" fill="white"/>
<rect x="292.824" y="215.136" width="1.728" height="1.728" rx="0.864" stroke="#F67599" stroke-width="0.288"/>
<rect x="292.824" y="209.377" width="1.728" height="1.728" rx="0.864" fill="white"/>
<rect x="292.824" y="209.377" width="1.728" height="1.728" rx="0.864" stroke="#F67599" stroke-width="0.288"/>
<rect x="285.624" y="226.657" width="1.728" height="1.728" rx="0.864" fill="white"/>
<rect x="285.624" y="226.657" width="1.728" height="1.728" rx="0.864" stroke="#F67599" stroke-width="0.288"/>
<rect x="298.584" y="222.336" width="1.728" height="1.728" rx="0.864" fill="white"/>
<rect x="298.584" y="222.336" width="1.728" height="1.728" rx="0.864" stroke="#F67599" stroke-width="0.288"/>
<rect x="204.12" y="141.408" width="2.304" height="5.472" rx="0.864" transform="rotate(90 204.12 141.408)" fill="white" stroke="#231F20" stroke-width="0.432"/>
<path d="M188.568 142.561V141.697C188.568 139.788 190.115 138.241 192.024 138.241H218.483C219.705 138.241 220.877 137.755 221.742 136.891L233.442 125.191C234.306 124.326 235.478 123.841 236.701 123.841H268.739C269.961 123.841 271.133 124.326 271.998 125.191L279.378 132.571C280.242 133.435 281.414 133.921 282.637 133.921H320.472C322.381 133.921 323.928 132.374 323.928 130.465V48.9609" stroke="#DC8633" stroke-width="1.152"/>
<rect x="155.736" y="163.009" width="2.304" height="2.304" rx="0.864" fill="white" stroke="#231F20" stroke-width="0.432"/>
<rect x="155.736" y="155.809" width="2.304" height="2.304" rx="0.864" fill="white" stroke="#231F20" stroke-width="0.432"/>
<rect x="141.336" y="112.608" width="2.304" height="2.304" rx="0.864" fill="white" stroke="#231F20" stroke-width="0.432"/>
<rect x="151.416" y="112.608" width="2.304" height="2.304" rx="0.864" fill="white" stroke="#231F20" stroke-width="0.432"/>
<rect x="141.336" y="106.849" width="2.304" height="2.304" rx="0.864" fill="white" stroke="#231F20" stroke-width="0.432"/>
<rect x="141.624" y="156.096" width="1.728" height="1.728" rx="0.864" fill="white"/>
<rect x="141.624" y="156.096" width="1.728" height="1.728" rx="0.864" stroke="#F1A900" stroke-width="0.288"/>
<rect x="187.416" y="141.408" width="2.304" height="2.304" rx="0.864" fill="white" stroke="#231F20" stroke-width="0.432"/>
<rect x="201.816" y="137.089" width="2.304" height="2.304" rx="0.864" fill="white" stroke="#231F20" stroke-width="0.432"/>
<rect x="198.648" y="119.809" width="2.304" height="2.304" rx="0.864" fill="white" stroke="#231F20" stroke-width="0.432"/>
<rect x="173.016" y="119.809" width="2.304" height="2.304" rx="0.864" fill="white" stroke="#231F20" stroke-width="0.432"/>
<rect x="232.056" y="111.169" width="2.304" height="2.304" rx="0.864" fill="white" stroke="#231F20" stroke-width="0.432"/>
<rect x="232.056" y="103.969" width="2.304" height="2.304" rx="0.864" fill="white" stroke="#231F20" stroke-width="0.432"/>
<rect x="221.976" y="85.5371" width="2.304" height="2.304" rx="0.864" fill="white" stroke="#231F20" stroke-width="0.432"/>
<rect x="193.176" y="85.5371" width="2.304" height="2.304" rx="0.864" fill="white" stroke="#231F20" stroke-width="0.432"/>
<rect x="253.656" y="103.969" width="2.304" height="2.304" rx="0.864" fill="white" stroke="#231F20" stroke-width="0.432"/>
<rect x="322.776" y="103.969" width="2.304" height="2.304" rx="0.864" fill="white" stroke="#231F20" stroke-width="0.432"/>
<rect x="252.504" y="163.296" width="1.728" height="1.728" rx="0.864" fill="white"/>
<rect x="252.504" y="163.296" width="1.728" height="1.728" rx="0.864" stroke="#F1A900" stroke-width="0.288"/>
<rect x="252.504" y="177.697" width="1.728" height="1.728" rx="0.864" fill="white"/>
<rect x="252.504" y="177.697" width="1.728" height="1.728" rx="0.864" stroke="#F1A900" stroke-width="0.288"/>
<rect x="252.504" y="192.096" width="1.728" height="1.728" rx="0.864" fill="white"/>
<rect x="252.504" y="192.096" width="1.728" height="1.728" rx="0.864" stroke="#F1A900" stroke-width="0.288"/>
<rect x="214.344" y="148.033" width="1.728" height="1.728" rx="0.864" fill="white"/>
<rect x="214.344" y="148.033" width="1.728" height="1.728" rx="0.864" stroke="#F1A900" stroke-width="0.288"/>
<rect x="167.544" y="141.697" width="1.728" height="1.728" rx="0.864" fill="white"/>
<rect x="167.544" y="141.697" width="1.728" height="1.728" rx="0.864" stroke="#F1A900" stroke-width="0.288"/>
<rect x="147.384" y="141.697" width="1.728" height="1.728" rx="0.864" fill="white"/>
<rect x="147.384" y="141.697" width="1.728" height="1.728" rx="0.864" stroke="#F1A900" stroke-width="0.288"/>
<rect x="141.624" y="148.897" width="1.728" height="1.728" rx="0.864" fill="white"/>
<rect x="141.624" y="148.897" width="1.728" height="1.728" rx="0.864" stroke="#F1A900" stroke-width="0.288"/>
<rect x="176.184" y="141.697" width="1.728" height="1.728" rx="0.864" fill="white"/>
<rect x="176.184" y="141.697" width="1.728" height="1.728" rx="0.864" stroke="#F1A900" stroke-width="0.288"/>
<rect x="127.224" y="176.256" width="1.728" height="1.728" rx="0.864" fill="white"/>
<rect x="127.224" y="176.256" width="1.728" height="1.728" rx="0.864" stroke="#F1A900" stroke-width="0.288"/>
<rect x="220.896" y="136.198" width="2.304" height="4.032" rx="0.864" transform="rotate(-45 220.896 136.198)" fill="white" stroke="#231F20" stroke-width="0.432"/>
<rect x="225.216" y="131.878" width="2.304" height="4.032" rx="0.864" transform="rotate(-45 225.216 131.878)" fill="white" stroke="#231F20" stroke-width="0.432"/>
<rect x="230.904" y="128.737" width="1.728" height="1.728" rx="0.864" fill="white"/>
<rect x="230.904" y="128.737" width="1.728" height="1.728" rx="0.864" stroke="#871F42" stroke-width="0.288"/>
<rect x="232.344" y="120.096" width="1.728" height="1.728" rx="0.864" fill="white"/>
<rect x="232.344" y="120.096" width="1.728" height="1.728" rx="0.864" stroke="#871F42" stroke-width="0.288"/>
<rect x="232.344" y="115.777" width="1.728" height="1.728" rx="0.864" fill="white"/>
<rect x="232.344" y="115.777" width="1.728" height="1.728" rx="0.864" stroke="#871F42" stroke-width="0.288"/>
<rect x="232.344" y="107.857" width="1.728" height="1.728" rx="0.864" fill="white"/>
<rect x="232.344" y="107.857" width="1.728" height="1.728" rx="0.864" stroke="#871F42" stroke-width="0.288"/>
<rect x="232.344" y="100.657" width="1.728" height="1.728" rx="0.864" fill="white"/>
<rect x="232.344" y="100.657" width="1.728" height="1.728" rx="0.864" stroke="#871F42" stroke-width="0.288"/>
<rect x="226.584" y="92.7369" width="1.728" height="1.728" rx="0.864" fill="white"/>
<rect x="226.584" y="92.7369" width="1.728" height="1.728" rx="0.864" stroke="#871F42" stroke-width="0.288"/>
<rect x="223.704" y="89.857" width="1.728" height="1.728" rx="0.864" fill="white"/>
<rect x="223.704" y="89.857" width="1.728" height="1.728" rx="0.864" stroke="#871F42" stroke-width="0.288"/>
<rect x="222.264" y="78.3365" width="1.728" height="1.728" rx="0.864" fill="white"/>
<rect x="222.264" y="78.3365" width="1.728" height="1.728" rx="0.864" stroke="#871F42" stroke-width="0.288"/>
<rect x="222.264" y="72.5767" width="1.728" height="1.728" rx="0.864" fill="white"/>
<rect x="222.264" y="72.5767" width="1.728" height="1.728" rx="0.864" stroke="#871F42" stroke-width="0.288"/>
<rect x="202.104" y="148.897" width="1.728" height="1.728" rx="0.864" fill="white"/>
<rect x="202.104" y="148.897" width="1.728" height="1.728" rx="0.864" stroke="#5F249E" stroke-width="0.288"/>
<rect x="212.184" y="124.417" width="1.728" height="1.728" rx="0.864" fill="white"/>
<rect x="212.184" y="124.417" width="1.728" height="1.728" rx="0.864" stroke="#5F249E" stroke-width="0.288"/>
<rect x="219.384" y="117.216" width="1.728" height="1.728" rx="0.864" fill="white"/>
<rect x="219.384" y="117.216" width="1.728" height="1.728" rx="0.864" stroke="#5F249E" stroke-width="0.288"/>
<rect x="243.864" y="111.457" width="1.728" height="1.728" rx="0.864" fill="white"/>
<rect x="243.864" y="111.457" width="1.728" height="1.728" rx="0.864" stroke="#5F249E" stroke-width="0.288"/>
<rect x="228.024" y="85.8248" width="1.728" height="1.728" rx="0.864" fill="white"/>
<rect x="228.024" y="85.8248" width="1.728" height="1.728" rx="0.864" stroke="#5F249E" stroke-width="0.288"/>
<rect x="207.864" y="85.8248" width="1.728" height="1.728" rx="0.864" fill="white"/>
<rect x="207.864" y="85.8248" width="1.728" height="1.728" rx="0.864" stroke="#5F249E" stroke-width="0.288"/>
<rect x="249.624" y="111.457" width="1.728" height="1.728" rx="0.864" fill="white"/>
<rect x="249.624" y="111.457" width="1.728" height="1.728" rx="0.864" stroke="#5F249E" stroke-width="0.288"/>
<rect x="235.224" y="85.8248" width="1.728" height="1.728" rx="0.864" fill="white"/>
<rect x="235.224" y="85.8248" width="1.728" height="1.728" rx="0.864" stroke="#5F249E" stroke-width="0.288"/>
<rect x="245.88" y="91.0088" width="2.304" height="4.032" rx="0.864" transform="rotate(90 245.88 91.0088)" fill="white" stroke="#231F20" stroke-width="0.432"/>
<rect x="249.336" y="83.8086" width="2.304" height="4.032" rx="0.864" fill="white" stroke="#231F20" stroke-width="0.432"/>
<rect x="158.904" y="134.497" width="1.728" height="1.728" rx="0.864" fill="white"/>
<rect x="158.904" y="134.497" width="1.728" height="1.728" rx="0.864" stroke="#00A3E0" stroke-width="0.288"/>
<rect x="163.224" y="130.176" width="1.728" height="1.728" rx="0.864" fill="white"/>
<rect x="163.224" y="130.176" width="1.728" height="1.728" rx="0.864" stroke="#00A3E0" stroke-width="0.288"/>
<rect x="167.544" y="125.857" width="1.728" height="1.728" rx="0.864" fill="white"/>
<rect x="167.544" y="125.857" width="1.728" height="1.728" rx="0.864" stroke="#00A3E0" stroke-width="0.288"/>
<rect x="177.624" y="115.777" width="1.728" height="1.728" rx="0.864" fill="white"/>
<rect x="177.624" y="115.777" width="1.728" height="1.728" rx="0.864" stroke="#00A3E0" stroke-width="0.288"/>
<rect x="181.944" y="111.457" width="1.728" height="1.728" rx="0.864" fill="white"/>
<rect x="181.944" y="111.457" width="1.728" height="1.728" rx="0.864" stroke="#00A3E0" stroke-width="0.288"/>
<rect x="186.264" y="107.136" width="1.728" height="1.728" rx="0.864" fill="white"/>
<rect x="186.264" y="107.136" width="1.728" height="1.728" rx="0.864" stroke="#00A3E0" stroke-width="0.288"/>
<rect x="190.584" y="102.817" width="1.728" height="1.728" rx="0.864" fill="white"/>
<rect x="190.584" y="102.817" width="1.728" height="1.728" rx="0.864" stroke="#00A3E0" stroke-width="0.288"/>
<rect x="193.464" y="97.0562" width="1.728" height="1.728" rx="0.864" fill="white"/>
<rect x="193.464" y="97.0562" width="1.728" height="1.728" rx="0.864" stroke="#00A3E0" stroke-width="0.288"/>
<rect x="193.464" y="91.2964" width="1.728" height="1.728" rx="0.864" fill="white"/>
<rect x="193.464" y="91.2964" width="1.728" height="1.728" rx="0.864" stroke="#00A3E0" stroke-width="0.288"/>
<rect x="193.464" y="79.7769" width="1.728" height="1.728" rx="0.864" fill="white"/>
<rect x="193.464" y="79.7769" width="1.728" height="1.728" rx="0.864" stroke="#00A3E0" stroke-width="0.288"/>
<rect x="193.464" y="74.0171" width="1.728" height="1.728" rx="0.864" fill="white"/>
<rect x="193.464" y="74.0171" width="1.728" height="1.728" rx="0.864" stroke="#00A3E0" stroke-width="0.288"/>
<rect x="193.464" y="68.2564" width="1.728" height="1.728" rx="0.864" fill="white"/>
<rect x="193.464" y="68.2564" width="1.728" height="1.728" rx="0.864" stroke="#00A3E0" stroke-width="0.288"/>
<rect x="240.984" y="122.977" width="1.728" height="1.728" rx="0.864" fill="white"/>
<rect x="240.984" y="122.977" width="1.728" height="1.728" rx="0.864" stroke="#DC8633" stroke-width="0.288"/>
<rect x="251.064" y="122.977" width="1.728" height="1.728" rx="0.864" fill="white"/>
<rect x="251.064" y="122.977" width="1.728" height="1.728" rx="0.864" stroke="#DC8633" stroke-width="0.288"/>
<rect x="261.144" y="122.977" width="1.728" height="1.728" rx="0.864" fill="white"/>
<rect x="261.144" y="122.977" width="1.728" height="1.728" rx="0.864" stroke="#DC8633" stroke-width="0.288"/>
<rect x="271.224" y="124.417" width="1.728" height="1.728" rx="0.864" fill="white"/>
<rect x="271.224" y="124.417" width="1.728" height="1.728" rx="0.864" stroke="#DC8633" stroke-width="0.288"/>
<rect x="278.424" y="131.617" width="1.728" height="1.728" rx="0.864" fill="white"/>
<rect x="278.424" y="131.617" width="1.728" height="1.728" rx="0.864" stroke="#DC8633" stroke-width="0.288"/>
<rect x="288.504" y="133.056" width="1.728" height="1.728" rx="0.864" fill="white"/>
<rect x="288.504" y="133.056" width="1.728" height="1.728" rx="0.864" stroke="#DC8633" stroke-width="0.288"/>
<rect x="314.424" y="133.056" width="1.728" height="1.728" rx="0.864" fill="white"/>
<rect x="314.424" y="133.056" width="1.728" height="1.728" rx="0.864" stroke="#DC8633" stroke-width="0.288"/>
<rect x="323.064" y="127.296" width="1.728" height="1.728" rx="0.864" fill="white"/>
<rect x="323.064" y="127.296" width="1.728" height="1.728" rx="0.864" stroke="#DC8633" stroke-width="0.288"/>
<rect x="323.064" y="121.537" width="1.728" height="1.728" rx="0.864" fill="white"/>
<rect x="323.064" y="121.537" width="1.728" height="1.728" rx="0.864" stroke="#DC8633" stroke-width="0.288"/>
<rect x="323.064" y="115.777" width="1.728" height="1.728" rx="0.864" fill="white"/>
<rect x="323.064" y="115.777" width="1.728" height="1.728" rx="0.864" stroke="#DC8633" stroke-width="0.288"/>
<rect x="323.064" y="110.017" width="1.728" height="1.728" rx="0.864" fill="white"/>
<rect x="323.064" y="110.017" width="1.728" height="1.728" rx="0.864" stroke="#DC8633" stroke-width="0.288"/>
<rect x="323.064" y="98.4966" width="1.728" height="1.728" rx="0.864" fill="white"/>
<rect x="323.064" y="98.4966" width="1.728" height="1.728" rx="0.864" stroke="#DC8633" stroke-width="0.288"/>
<rect x="323.064" y="91.2964" width="1.728" height="1.728" rx="0.864" fill="white"/>
<rect x="323.064" y="91.2964" width="1.728" height="1.728" rx="0.864" stroke="#DC8633" stroke-width="0.288"/>
<rect x="323.064" y="84.0962" width="1.728" height="1.728" rx="0.864" fill="white"/>
<rect x="323.064" y="84.0962" width="1.728" height="1.728" rx="0.864" stroke="#DC8633" stroke-width="0.288"/>
<rect x="323.064" y="76.897" width="1.728" height="1.728" rx="0.864" fill="white"/>
<rect x="323.064" y="76.897" width="1.728" height="1.728" rx="0.864" stroke="#DC8633" stroke-width="0.288"/>
<rect x="323.064" y="69.6968" width="1.728" height="1.728" rx="0.864" fill="white"/>
<rect x="323.064" y="69.6968" width="1.728" height="1.728" rx="0.864" stroke="#DC8633" stroke-width="0.288"/>
<rect x="323.064" y="62.4966" width="1.728" height="1.728" rx="0.864" fill="white"/>
<rect x="323.064" y="62.4966" width="1.728" height="1.728" rx="0.864" stroke="#DC8633" stroke-width="0.288"/>
<rect x="323.064" y="55.2964" width="1.728" height="1.728" rx="0.864" fill="white"/>
<rect x="323.064" y="55.2964" width="1.728" height="1.728" rx="0.864" stroke="#DC8633" stroke-width="0.288"/>
<rect x="323.064" y="48.0962" width="1.728" height="1.728" rx="0.864" fill="white"/>
<rect x="323.064" y="48.0962" width="1.728" height="1.728" rx="0.864" stroke="#DC8633" stroke-width="0.288"/>
<rect x="98.4241" y="68.2564" width="1.728" height="1.728" rx="0.864" fill="white"/>
<rect x="98.4241" y="68.2564" width="1.728" height="1.728" rx="0.864" stroke="#F67599" stroke-width="0.288"/>
<rect x="98.4241" y="62.4966" width="1.728" height="1.728" rx="0.864" fill="white"/>
<rect x="98.4241" y="62.4966" width="1.728" height="1.728" rx="0.864" stroke="#F67599" stroke-width="0.288"/>
<rect x="98.4241" y="56.7369" width="1.728" height="1.728" rx="0.864" fill="white"/>
<rect x="98.4241" y="56.7369" width="1.728" height="1.728" rx="0.864" stroke="#F67599" stroke-width="0.288"/>
<rect x="98.4241" y="50.9771" width="1.728" height="1.728" rx="0.864" fill="white"/>
<rect x="98.4241" y="50.9771" width="1.728" height="1.728" rx="0.864" stroke="#F67599" stroke-width="0.288"/>
<rect x="141.624" y="91.2964" width="1.728" height="1.728" rx="0.864" fill="white"/>
<rect x="141.624" y="91.2964" width="1.728" height="1.728" rx="0.864" stroke="#F67599" stroke-width="0.288"/>
<rect x="131.544" y="85.5367" width="1.728" height="1.728" rx="0.864" fill="white"/>
<rect x="131.544" y="85.5367" width="1.728" height="1.728" rx="0.864" stroke="#F67599" stroke-width="0.288"/>
<rect x="120.024" y="85.5367" width="1.728" height="1.728" rx="0.864" fill="white"/>
<rect x="120.024" y="85.5367" width="1.728" height="1.728" rx="0.864" stroke="#F67599" stroke-width="0.288"/>
<path d="M228.888 201.601L236.088 208.801" stroke="#255E76" stroke-width="0.432"/>
<circle cx="236.088" cy="208.8" r="0.432" fill="white" stroke="#255E76" stroke-width="0.216"/>
<circle cx="228.888" cy="201.601" r="0.432" fill="white" stroke="#255E76" stroke-width="0.216"/>
<defs>
<linearGradient id="paint0_linear_811_2408" x1="201.816" y1="0" x2="201.816" y2="7.19999" gradientUnits="userSpaceOnUse">
<stop stop-color="#666666" stop-opacity="0"/>
<stop offset="1" stop-color="#666666"/>
</linearGradient>
<linearGradient id="paint1_linear_811_2408" x1="357.08" y1="29.2997" x2="359.928" y2="29.2997" gradientUnits="userSpaceOnUse">
<stop stop-color="#A4D1E4"/>
<stop offset="1" stop-color="#A4D1E4" stop-opacity="0"/>
</linearGradient>
<linearGradient id="paint2_linear_811_2408" x1="46.5081" y1="318.24" x2="46.5081" y2="332.64" gradientUnits="userSpaceOnUse">
<stop stop-color="#A4D1E4"/>
<stop offset="1" stop-color="#A4D1E4" stop-opacity="0"/>
</linearGradient>
<clipPath id="clip0_811_2408">
<rect width="0.685311" height="1.152" fill="white" transform="translate(183.096 161.28)"/>
</clipPath>
<clipPath id="clip1_811_2408">
<rect width="0.685311" height="1.152" fill="white" transform="translate(30.312 142.417)"/>
</clipPath>
</defs>
</svg>
