<svg width="190" height="50" viewBox="0 0 190 50" fill="none" xmlns="http://www.w3.org/2000/svg">
<path d="M19 28.9309V0.202585H23.3594V27.3124L21.0586 24.9251H37.3256V28.9309H19Z" fill="black"/>
<path d="M38.8186 28.9306V7.40463H43.0973V28.9306H38.8186ZM38.7379 4.28902V0H43.178V4.28902H38.7379Z" fill="black"/>
<path d="M46.3235 28.9306V7.40463H50.2389L50.4004 13.1503L49.8756 12.8671C50.1178 11.4644 50.5753 10.3314 51.248 9.46821C51.9208 8.60501 52.7415 7.9711 53.7103 7.56648C54.679 7.13488 55.7285 6.91908 56.8587 6.91908C58.4733 6.91908 59.8054 7.28324 60.8549 8.01156C61.9312 8.71291 62.7385 9.68401 63.2767 10.9249C63.8418 12.1387 64.1244 13.5279 64.1244 15.0925V28.9306H59.8457V16.3873C59.8457 15.1195 59.7112 14.0539 59.4421 13.1908C59.173 12.3276 58.729 11.6667 58.11 11.2081C57.4911 10.7495 56.6838 10.5202 55.6882 10.5202C54.1812 10.5202 52.9568 11.0193 52.015 12.0173C51.0731 13.0154 50.6022 14.4721 50.6022 16.3873V28.9306H46.3235Z" fill="black"/>
<path d="M76.5205 29.4162C74.4215 29.4162 72.6051 28.9576 71.0712 28.0405C69.5643 27.1233 68.3937 25.815 67.5595 24.1156C66.7522 22.4162 66.3486 20.4335 66.3486 18.1676C66.3486 15.9017 66.7522 13.9326 67.5595 12.2601C68.3937 10.5607 69.5643 9.25241 71.0712 8.33526C72.5782 7.39114 74.3542 6.91908 76.3994 6.91908C78.3369 6.91908 80.0457 7.37765 81.5257 8.2948C83.0057 9.18497 84.1494 10.4798 84.9567 12.1792C85.7909 13.8786 86.208 15.9287 86.208 18.3295V19.422H70.7887C70.8963 21.526 71.448 23.104 72.4436 24.1561C73.4662 25.2081 74.8386 25.7341 76.5608 25.7341C77.8256 25.7341 78.8751 25.4374 79.7093 24.8439C80.5435 24.2505 81.1221 23.4547 81.445 22.4566L85.8851 22.7399C85.32 24.736 84.2032 26.3545 82.5348 27.5954C80.8933 28.8092 78.8885 29.4162 76.5205 29.4162ZM70.7887 16.185H81.6872C81.5526 14.2697 81.001 12.8536 80.0322 11.9364C79.0904 11.0193 77.8794 10.5607 76.3994 10.5607C74.8655 10.5607 73.6007 11.0462 72.6051 12.0173C71.6363 12.9615 71.0309 14.3507 70.7887 16.185Z" fill="black"/>
<path d="M97.1604 28.9306V0.202312H103.134L111.651 23.7919L120.168 0.202312H126.142V28.9306H121.783V7.89017L114.073 28.8902H109.229L101.52 7.89017V28.9306H97.1604Z" fill="black"/>
<path d="M136.229 29.4162C133.995 29.4162 132.206 28.9037 130.86 27.8786C129.542 26.8536 128.882 25.4104 128.882 23.5491C128.882 21.6879 129.434 20.2447 130.537 19.2197C131.668 18.1676 133.403 17.4123 135.744 16.9538L143.131 15.5376C143.131 13.8651 142.741 12.6243 141.961 11.815C141.18 10.9788 140.023 10.5607 138.489 10.5607C137.117 10.5607 136.04 10.8709 135.26 11.4913C134.48 12.0848 133.941 12.975 133.645 14.1619L129.246 13.8786C129.649 11.7206 130.645 10.0212 132.233 8.78035C133.847 7.5395 135.933 6.91908 138.489 6.91908C141.395 6.91908 143.602 7.70135 145.109 9.2659C146.643 10.8035 147.41 12.975 147.41 15.7803V24.1561C147.41 24.6686 147.491 25.0328 147.652 25.2486C147.84 25.4374 148.136 25.5318 148.54 25.5318H149.307V28.9306C149.172 28.9576 148.957 28.9846 148.661 29.0116C148.365 29.0385 148.056 29.052 147.733 29.052C146.818 29.052 146.024 28.9037 145.351 28.6069C144.705 28.3102 144.221 27.8247 143.898 27.1503C143.575 26.4489 143.414 25.5183 143.414 24.3584L143.858 24.5607C143.642 25.5048 143.172 26.341 142.445 27.0694C141.745 27.7977 140.844 28.3777 139.741 28.8092C138.664 29.2139 137.494 29.4162 136.229 29.4162ZM136.915 26.0173C138.207 26.0173 139.31 25.7746 140.225 25.289C141.14 24.7765 141.853 24.0751 142.364 23.185C142.875 22.2948 143.131 21.2832 143.131 20.1503V18.7746L136.834 19.9884C135.543 20.2312 134.628 20.6224 134.089 21.1619C133.578 21.6744 133.323 22.3353 133.323 23.1445C133.323 24.0617 133.632 24.7765 134.251 25.289C134.897 25.7746 135.785 26.0173 136.915 26.0173Z" fill="black"/>
<path d="M150.901 35V7.40463H154.938L155.059 12.0173L154.575 11.7746C155.113 10.183 156.001 8.98266 157.239 8.17341C158.476 7.33719 159.903 6.91908 161.517 6.91908C163.616 6.91908 165.338 7.44509 166.684 8.49711C168.056 9.52216 169.066 10.8844 169.711 12.5838C170.384 14.2832 170.72 16.1445 170.72 18.1676C170.72 20.1908 170.384 22.052 169.711 23.7514C169.066 25.4509 168.056 26.8266 166.684 27.8786C165.338 28.9037 163.616 29.4162 161.517 29.4162C160.441 29.4162 159.432 29.2274 158.49 28.8497C157.548 28.4721 156.741 27.9461 156.068 27.2717C155.422 26.5703 154.965 25.7476 154.696 24.8035L155.18 24.3179V35H150.901ZM160.75 25.6936C162.473 25.6936 163.818 25.0328 164.787 23.711C165.783 22.3892 166.28 20.5414 166.28 18.1676C166.28 15.7938 165.783 13.9461 164.787 12.6243C163.818 11.3025 162.473 10.6416 160.75 10.6416C159.62 10.6416 158.638 10.9249 157.804 11.4913C156.97 12.0308 156.324 12.8671 155.866 14C155.409 15.1329 155.18 16.5222 155.18 18.1676C155.18 19.8131 155.395 21.2023 155.826 22.3353C156.283 23.4682 156.929 24.3179 157.763 24.8844C158.624 25.4239 159.62 25.6936 160.75 25.6936Z" fill="black"/>
<path d="M181.322 29.4162C179.25 29.4162 177.514 29.106 176.115 28.4855C174.742 27.8651 173.693 27.0154 172.966 25.9364C172.24 24.8304 171.822 23.5626 171.715 22.1329L176.115 21.9306C176.33 23.1175 176.828 24.0617 177.608 24.763C178.388 25.4644 179.626 25.815 181.322 25.815C182.667 25.815 183.69 25.5992 184.389 25.1676C185.116 24.736 185.479 24.0482 185.479 23.104C185.479 22.5645 185.358 22.1195 185.116 21.7688C184.874 21.4181 184.403 21.1214 183.703 20.8786C183.003 20.6089 181.967 20.3526 180.595 20.1098C178.496 19.7052 176.855 19.2331 175.671 18.6936C174.513 18.1272 173.693 17.4393 173.208 16.6301C172.724 15.7938 172.482 14.7823 172.482 13.5954C172.482 11.6262 173.222 10.0212 174.702 8.78035C176.182 7.5395 178.321 6.91908 181.12 6.91908C183.084 6.91908 184.699 7.25626 185.964 7.93063C187.228 8.57803 188.184 9.44123 188.829 10.5202C189.475 11.5992 189.865 12.7592 190 14L185.6 14.2428C185.573 13.5684 185.385 12.948 185.035 12.3815C184.712 11.815 184.228 11.3699 183.582 11.0462C182.936 10.6956 182.089 10.5202 181.039 10.5202C179.64 10.5202 178.604 10.79 177.931 11.3295C177.258 11.869 176.922 12.5703 176.922 13.4335C176.922 14.0809 177.056 14.6069 177.325 15.0116C177.595 15.4162 178.065 15.7534 178.738 16.0231C179.411 16.2659 180.312 16.4817 181.443 16.6705C183.622 17.0212 185.331 17.4798 186.569 18.0462C187.807 18.5857 188.668 19.2736 189.152 20.1098C189.664 20.9191 189.919 21.9037 189.919 23.0636C189.919 25.0867 189.125 26.6513 187.538 27.7572C185.977 28.8632 183.905 29.4162 181.322 29.4162Z" fill="black"/>
<rect width="12" height="29" fill="#DE1111"/>
<path d="M4.29 47.18C3.894 47.18 3.536 47.12 3.216 47C2.896 46.884 2.618 46.722 2.382 46.514C2.15 46.306 1.958 46.068 1.806 45.8L1.968 45.56V47H0.954V38.36H2.052V42.482L1.836 42.236C2.096 41.852 2.426 41.54 2.826 41.3C3.23 41.06 3.714 40.94 4.278 40.94C4.866 40.94 5.382 41.08 5.826 41.36C6.274 41.64 6.622 42.016 6.87 42.488C7.122 42.96 7.248 43.484 7.248 44.06C7.248 44.5 7.176 44.91 7.032 45.29C6.888 45.666 6.684 45.996 6.42 46.28C6.16 46.564 5.85 46.786 5.49 46.946C5.13 47.102 4.73 47.18 4.29 47.18ZM4.092 46.184C4.488 46.184 4.838 46.098 5.142 45.926C5.45 45.75 5.69 45.504 5.862 45.188C6.038 44.868 6.126 44.492 6.126 44.06C6.126 43.624 6.038 43.248 5.862 42.932C5.69 42.612 5.45 42.366 5.142 42.194C4.838 42.022 4.488 41.936 4.092 41.936C3.696 41.936 3.344 42.022 3.036 42.194C2.732 42.366 2.492 42.612 2.316 42.932C2.14 43.248 2.052 43.624 2.052 44.06C2.052 44.492 2.14 44.868 2.316 45.188C2.492 45.504 2.732 45.75 3.036 45.926C3.344 46.098 3.696 46.184 4.092 46.184ZM8.94319 49.694C8.75119 49.694 8.56119 49.67 8.37319 49.622C8.18519 49.578 7.99519 49.498 7.80319 49.382L8.06119 48.428C8.18519 48.508 8.31919 48.568 8.46319 48.608C8.60719 48.648 8.73519 48.668 8.84719 48.668C9.14319 48.668 9.37319 48.596 9.53719 48.452C9.70119 48.308 9.83319 48.088 9.93319 47.792L10.1672 47.12L7.83919 41.12H9.05119L10.7912 45.86L12.4892 41.12H13.6592L11.0852 47.936C10.9092 48.4 10.7132 48.758 10.4972 49.01C10.2852 49.266 10.0512 49.444 9.79519 49.544C9.53919 49.644 9.25519 49.694 8.94319 49.694ZM63.6079 47.18C63.3039 47.18 63.0399 47.084 62.8159 46.892C62.5959 46.696 62.4859 46.436 62.4859 46.112C62.4859 45.892 62.5359 45.702 62.6359 45.542C62.7399 45.382 62.8759 45.258 63.0439 45.17C63.2159 45.082 63.4039 45.038 63.6079 45.038C63.9159 45.038 64.1799 45.136 64.3999 45.332C64.6239 45.524 64.7359 45.784 64.7359 46.112C64.7359 46.332 64.6839 46.522 64.5799 46.682C64.4759 46.842 64.3379 46.964 64.1659 47.048C63.9979 47.136 63.8119 47.18 63.6079 47.18ZM69.9525 47.18C69.0845 47.18 68.3205 47.002 67.6605 46.646C67.0005 46.286 66.4865 45.78 66.1185 45.128C65.7505 44.472 65.5665 43.702 65.5665 42.818C65.5665 42.174 65.6745 41.584 65.8905 41.048C66.1065 40.512 66.4125 40.048 66.8085 39.656C67.2045 39.26 67.6705 38.956 68.2065 38.744C68.7465 38.528 69.3365 38.42 69.9765 38.42C70.6565 38.42 71.2325 38.506 71.7045 38.678C72.1765 38.85 72.6005 39.092 72.9765 39.404L72.0765 40.862C71.8325 40.622 71.5425 40.442 71.2065 40.322C70.8745 40.202 70.5045 40.142 70.0965 40.142C69.6805 40.142 69.3065 40.204 68.9745 40.328C68.6465 40.452 68.3665 40.63 68.1345 40.862C67.9065 41.09 67.7305 41.368 67.6065 41.696C67.4865 42.02 67.4265 42.386 67.4265 42.794C67.4265 43.354 67.5345 43.832 67.7505 44.228C67.9705 44.62 68.2825 44.922 68.6865 45.134C69.0945 45.346 69.5805 45.452 70.1445 45.452C70.5365 45.452 70.9205 45.392 71.2965 45.272C71.6765 45.152 72.0345 44.96 72.3705 44.696L73.1865 46.19C72.7905 46.494 72.3265 46.736 71.7945 46.916C71.2625 47.092 70.6485 47.18 69.9525 47.18ZM74.2934 47V40.94H76.0454V47H74.2934ZM75.1694 39.98C74.8774 39.98 74.6254 39.89 74.4134 39.71C74.2014 39.526 74.0954 39.282 74.0954 38.978C74.0954 38.67 74.2014 38.426 74.4134 38.246C74.6254 38.062 74.8774 37.97 75.1694 37.97C75.4614 37.97 75.7134 38.062 75.9254 38.246C76.1374 38.426 76.2434 38.67 76.2434 38.978C76.2434 39.282 76.1374 39.526 75.9254 39.71C75.7134 39.89 75.4614 39.98 75.1694 39.98ZM80.3784 47.18C79.7304 47.18 79.2184 46.998 78.8424 46.634C78.4704 46.266 78.2844 45.712 78.2844 44.972V39.194H80.0364V40.94H81.5424V42.344H80.0364V44.654C80.0364 45.01 80.1104 45.26 80.2584 45.404C80.4064 45.548 80.6044 45.62 80.8524 45.62C80.9804 45.62 81.1044 45.606 81.2244 45.578C81.3484 45.546 81.4624 45.502 81.5664 45.446L81.8124 46.826C81.6324 46.926 81.4164 47.01 81.1644 47.078C80.9164 47.146 80.6544 47.18 80.3784 47.18ZM77.0544 42.344V40.94H78.4584V42.344H77.0544ZM83.833 49.682C83.577 49.682 83.325 49.656 83.077 49.604C82.829 49.552 82.595 49.466 82.375 49.346L82.753 47.87C82.881 47.942 83.021 47.998 83.173 48.038C83.329 48.078 83.473 48.098 83.605 48.098C83.845 48.098 84.043 48.046 84.199 47.942C84.355 47.838 84.471 47.668 84.547 47.432L84.673 47.048L82.309 40.94H84.211L85.663 45.272L87.073 40.94H88.927L86.383 47.69C86.183 48.194 85.953 48.59 85.693 48.878C85.433 49.17 85.147 49.376 84.835 49.496C84.523 49.62 84.189 49.682 83.833 49.682Z" fill="#383838"/>
<path d="M21.5189 47.18C20.6509 47.18 19.8869 47.002 19.2269 46.646C18.5669 46.286 18.0529 45.78 17.6849 45.128C17.3169 44.472 17.1329 43.702 17.1329 42.818C17.1329 42.174 17.2409 41.584 17.4569 41.048C17.6729 40.512 17.9789 40.048 18.3749 39.656C18.7709 39.26 19.2369 38.956 19.7729 38.744C20.3129 38.528 20.9029 38.42 21.5429 38.42C22.2229 38.42 22.7989 38.506 23.2709 38.678C23.7429 38.85 24.1669 39.092 24.5429 39.404L23.6429 40.862C23.3989 40.622 23.1089 40.442 22.7729 40.322C22.4409 40.202 22.0709 40.142 21.6629 40.142C21.2469 40.142 20.8729 40.204 20.5409 40.328C20.2129 40.452 19.9329 40.63 19.7009 40.862C19.4729 41.09 19.2969 41.368 19.1729 41.696C19.0529 42.02 18.9929 42.386 18.9929 42.794C18.9929 43.354 19.1009 43.832 19.3169 44.228C19.5369 44.62 19.8489 44.922 20.2529 45.134C20.6609 45.346 21.1469 45.452 21.7109 45.452C22.1029 45.452 22.4869 45.392 22.8629 45.272C23.2429 45.152 23.6009 44.96 23.9369 44.696L24.7529 46.19C24.3569 46.494 23.8929 46.736 23.3609 46.916C22.8289 47.092 22.2149 47.18 21.5189 47.18ZM25.8598 47V38.36H27.6118V42.26L27.2458 41.834C27.5098 41.494 27.8258 41.23 28.1938 41.042C28.5618 40.854 28.9598 40.76 29.3878 40.76C29.9518 40.76 30.4198 40.872 30.7918 41.096C31.1678 41.32 31.4478 41.612 31.6318 41.972C31.8198 42.332 31.9138 42.716 31.9138 43.124V47H30.1618V43.622C30.1618 43.246 30.0498 42.942 29.8258 42.71C29.6018 42.474 29.2938 42.354 28.9018 42.35C28.6378 42.35 28.4078 42.406 28.2118 42.518C28.0198 42.626 27.8718 42.784 27.7678 42.992C27.6638 43.196 27.6118 43.436 27.6118 43.712V47H25.8598ZM33.559 47V40.94H35.311V47H33.559ZM34.435 39.98C34.143 39.98 33.891 39.89 33.679 39.71C33.467 39.526 33.361 39.282 33.361 38.978C33.361 38.67 33.467 38.426 33.679 38.246C33.891 38.062 34.143 37.97 34.435 37.97C34.727 37.97 34.979 38.062 35.191 38.246C35.403 38.426 35.509 38.67 35.509 38.978C35.509 39.282 35.403 39.526 35.191 39.71C34.979 39.89 34.727 39.98 34.435 39.98ZM39.6441 47.18C38.9961 47.18 38.4841 46.998 38.1081 46.634C37.7361 46.266 37.5501 45.712 37.5501 44.972V39.194H39.3021V40.94H40.8081V42.344H39.3021V44.654C39.3021 45.01 39.3761 45.26 39.5241 45.404C39.6721 45.548 39.8701 45.62 40.1181 45.62C40.2461 45.62 40.3701 45.606 40.4901 45.578C40.6141 45.546 40.7281 45.502 40.8321 45.446L41.0781 46.826C40.8981 46.926 40.6821 47.01 40.4301 47.078C40.1821 47.146 39.9201 47.18 39.6441 47.18ZM36.3201 42.344V40.94H37.7241V42.344H36.3201ZM45.1512 47.18C44.4992 47.18 43.9212 47.034 43.4172 46.742C42.9132 46.45 42.5172 46.062 42.2292 45.578C41.9452 45.09 41.8032 44.554 41.8032 43.97C41.8032 43.542 41.8852 43.136 42.0492 42.752C42.2132 42.364 42.4452 42.022 42.7452 41.726C43.0452 41.426 43.3992 41.19 43.8072 41.018C44.2152 40.846 44.6632 40.76 45.1512 40.76C45.8032 40.76 46.3792 40.906 46.8792 41.198C47.3832 41.49 47.7772 41.88 48.0612 42.368C48.3492 42.852 48.4932 43.386 48.4932 43.97C48.4932 44.394 48.4112 44.8 48.2472 45.188C48.0832 45.576 47.8512 45.92 47.5512 46.22C47.2552 46.516 46.9032 46.75 46.4952 46.922C46.0872 47.094 45.6392 47.18 45.1512 47.18ZM45.1512 45.662C45.4592 45.662 45.7352 45.594 45.9792 45.458C46.2232 45.318 46.4152 45.122 46.5552 44.87C46.6952 44.614 46.7652 44.314 46.7652 43.97C46.7652 43.622 46.6952 43.322 46.5552 43.07C46.4192 42.818 46.2292 42.624 45.9852 42.488C45.7412 42.348 45.4632 42.278 45.1512 42.278C44.8392 42.278 44.5592 42.348 44.3112 42.488C44.0672 42.624 43.8752 42.818 43.7352 43.07C43.5992 43.322 43.5312 43.622 43.5312 43.97C43.5312 44.318 43.6012 44.618 43.7412 44.87C43.8812 45.122 44.0732 45.318 44.3172 45.458C44.5612 45.594 44.8392 45.662 45.1512 45.662ZM51.8918 47.174C51.3518 47.174 50.8538 47.104 50.3978 46.964C49.9418 46.82 49.5518 46.624 49.2278 46.376L49.7978 45.152C50.1138 45.368 50.4558 45.538 50.8238 45.662C51.1918 45.782 51.5458 45.842 51.8858 45.842C52.2218 45.842 52.4798 45.792 52.6598 45.692C52.8438 45.588 52.9358 45.44 52.9358 45.248C52.9358 45.076 52.8538 44.95 52.6898 44.87C52.5298 44.786 52.2178 44.696 51.7538 44.6C50.9538 44.456 50.3698 44.23 50.0018 43.922C49.6338 43.61 49.4498 43.182 49.4498 42.638C49.4498 42.254 49.5558 41.916 49.7678 41.624C49.9838 41.332 50.2798 41.106 50.6558 40.946C51.0318 40.782 51.4638 40.7 51.9518 40.7C52.4318 40.7 52.8838 40.766 53.3078 40.898C53.7358 41.026 54.1018 41.206 54.4058 41.438L53.8538 42.668C53.6938 42.54 53.5098 42.428 53.3018 42.332C53.0978 42.236 52.8818 42.162 52.6538 42.11C52.4298 42.054 52.2098 42.026 51.9938 42.026C51.7018 42.026 51.4658 42.076 51.2858 42.176C51.1058 42.272 51.0158 42.408 51.0158 42.584C51.0158 42.76 51.0978 42.89 51.2618 42.974C51.4258 43.058 51.7318 43.15 52.1798 43.25C53.0158 43.426 53.6098 43.66 53.9618 43.952C54.3178 44.24 54.4958 44.646 54.4958 45.17C54.4958 45.574 54.3858 45.926 54.1658 46.226C53.9498 46.526 53.6458 46.76 53.2538 46.928C52.8658 47.092 52.4118 47.174 51.8918 47.174ZM58.6801 47.18C58.0201 47.18 57.4401 47.046 56.9401 46.778C56.4401 46.51 56.0501 46.136 55.7701 45.656C55.4901 45.176 55.3501 44.614 55.3501 43.97C55.3501 43.502 55.4301 43.072 55.5901 42.68C55.7541 42.288 55.9821 41.95 56.2741 41.666C56.5701 41.378 56.9161 41.156 57.3121 41C57.7121 40.84 58.1501 40.76 58.6261 40.76C59.1501 40.76 59.6141 40.852 60.0181 41.036C60.4261 41.22 60.7641 41.478 61.0321 41.81C61.3001 42.138 61.4861 42.524 61.5901 42.968C61.6981 43.412 61.7081 43.894 61.6201 44.414H56.9761C56.9761 44.694 57.0481 44.938 57.1921 45.146C57.3401 45.354 57.5461 45.518 57.8101 45.638C58.0781 45.754 58.3901 45.812 58.7461 45.812C59.0981 45.812 59.4341 45.764 59.7541 45.668C60.0741 45.572 60.3761 45.426 60.6601 45.23L61.2421 46.43C61.0501 46.578 60.8101 46.71 60.5221 46.826C60.2341 46.938 59.9281 47.024 59.6041 47.084C59.2841 47.148 58.9761 47.18 58.6801 47.18ZM57.0781 43.208H59.9401C59.9281 42.852 59.8021 42.57 59.5621 42.362C59.3261 42.154 59.0001 42.05 58.5841 42.05C58.1681 42.05 57.8221 42.154 57.5461 42.362C57.2741 42.57 57.1181 42.852 57.0781 43.208Z" fill="url(#paint0_linear_892_4691)"/>
<defs>
<linearGradient id="paint0_linear_892_4691" x1="0" y1="43" x2="89" y2="43" gradientUnits="userSpaceOnUse">
<stop stop-color="#00AA82"/>
<stop offset="1" stop-color="#08795E"/>
</linearGradient>
</defs>
</svg>
