<svg width="12" height="29" viewBox="0 0 12 29" fill="none" xmlns="http://www.w3.org/2000/svg">
<rect x="12" y="27.8857" width="1.11541" height="12" transform="rotate(90 12 27.8857)" fill="#717171"/>
<rect x="12" y="7.80762" width="1.11541" height="12" transform="rotate(90 12 7.80762)" fill="#009B6B"/>
<rect x="12" y="8.92285" width="1.11541" height="12" transform="rotate(90 12 8.92285)" fill="#90C320"/>
<rect x="12" y="10.0391" width="1.11541" height="12" transform="rotate(90 12 10.0391)" fill="#019BC1"/>
<rect x="12" y="11.1543" width="1.11541" height="12" transform="rotate(90 12 11.1543)" fill="#ED796A"/>
<rect x="12" y="12.2695" width="1.11541" height="12" transform="rotate(90 12 12.2695)" fill="#C66B00"/>
<rect x="12" y="13.3848" width="1.11541" height="12" transform="rotate(90 12 13.3848)" fill="#F6E614"/>
<rect x="12" y="14.5" width="1.11541" height="12" transform="rotate(90 12 14.5)" fill="#D6A7A1"/>
<rect x="12" y="15.6152" width="1.11541" height="12" transform="rotate(90 12 15.6152)" fill="#6A347F"/>
<rect x="12" y="16.7314" width="1.11541" height="12" transform="rotate(90 12 16.7314)" fill="#77A22E"/>
<rect x="12" y="17.8467" width="1.11541" height="12" transform="rotate(90 12 17.8467)" fill="#01A9AA"/>
<rect x="12" y="18.9619" width="1.11541" height="12" transform="rotate(90 12 18.9619)" fill="#D6AAC1"/>
<rect x="12" y="20.0781" width="1.11541" height="12" transform="rotate(90 12 20.0781)" fill="#E46022"/>
<rect x="12" y="21.1924" width="1.11541" height="12" transform="rotate(90 12 21.1924)" fill="#E40177"/>
<rect x="12" y="22.3076" width="1.11541" height="12" transform="rotate(90 12 22.3076)" fill="#DE82B3"/>
<rect x="12" y="23.4238" width="1.11541" height="12" transform="rotate(90 12 23.4238)" fill="#B35A22"/>
<rect x="12" y="24.5391" width="1.11541" height="12" transform="rotate(90 12 24.5391)" fill="#A29BBC"/>
<rect x="12" y="25.6543" width="1.11541" height="12" transform="rotate(90 12 25.6543)" fill="#034BA0"/>
<rect x="12" y="26.7695" width="1.11541" height="12" transform="rotate(90 12 26.7695)" fill="#E50619"/>
<rect x="12" y="6.69238" width="1.11541" height="12" transform="rotate(90 12 6.69238)" fill="#FDCF6F"/>
<rect x="12" y="5.57715" width="1.11541" height="12" transform="rotate(90 12 5.57715)" fill="#D19708"/>
<rect x="12" y="4.46094" width="1.11541" height="12" transform="rotate(90 12 4.46094)" fill="#A71C81"/>
<rect x="12" y="3.34668" width="1.11541" height="12" transform="rotate(90 12 3.34668)" fill="#008E9C"/>
<rect x="12" y="2.23145" width="1.11541" height="12" transform="rotate(90 12 2.23145)" fill="#E70034"/>
<rect x="12" y="1.11523" width="1.11541" height="12" transform="rotate(90 12 1.11523)" fill="#156097"/>
<rect x="12" width="1.11541" height="12" transform="rotate(90 12 0)" fill="#C23931"/>
</svg>
