<svg width="12" height="29" viewBox="0 0 12 29" fill="none" xmlns="http://www.w3.org/2000/svg">
<rect width="12" height="1.07408" transform="matrix(-1 0 0 1 12 0)" fill="#E01735"/>
<rect width="12" height="1.07408" transform="matrix(-1 0 0 1 12 1.07422)" fill="#87C63F"/>
<rect width="12" height="1.07408" transform="matrix(-1 0 0 1 12 2.14746)" fill="#F9D108"/>
<rect width="12" height="1.07408" transform="matrix(-1 0 0 1 12 3.22168)" fill="#441D87"/>
<rect width="12" height="1.07408" transform="matrix(-1 0 0 1 12 4.29492)" fill="#944D9D"/>
<rect width="12" height="1.07408" transform="matrix(-1 0 0 1 12 5.37109)" fill="#D41971"/>
<rect width="12" height="1.07408" transform="matrix(-1 0 0 1 12 6.44531)" fill="#EE6E01"/>
<rect width="12" height="1.07408" transform="matrix(-1 0 0 1 12 7.51953)" fill="#159FD2"/>
<rect width="12" height="1.07408" transform="matrix(-1 0 0 1 12 8.59277)" fill="#78C6EC"/>
<rect width="12" height="1.07408" transform="matrix(-1 0 0 1 12 9.66699)" fill="#BDA7D0"/>
<rect width="12" height="1.07408" transform="matrix(-1 0 0 1 12 10.7402)" fill="#792032"/>
<rect width="12" height="1.07408" transform="matrix(-1 0 0 1 12 11.8145)" fill="#017960"/>
<rect width="12" height="1.07408" transform="matrix(-1 0 0 1 12 12.8877)" fill="#E697BF"/>
<rect width="12" height="1.07408" transform="matrix(-1 0 0 1 12 13.9619)" fill="#605E34"/>
<rect width="12" height="1.07408" transform="matrix(-1 0 0 1 12 15.0381)" fill="#C7B28F"/>
<rect width="12" height="1.07408" transform="matrix(-1 0 0 1 12 16.1123)" fill="#8CD1BE"/>
<rect width="12" height="1.07408" transform="matrix(-1 0 0 1 12 17.1855)" fill="#B37875"/>
<rect width="12" height="1.07408" transform="matrix(-1 0 0 1 12 18.2598)" fill="#C4984F"/>
<rect width="12" height="1.07408" transform="matrix(-1 0 0 1 12 20.4072)" fill="#5F376F"/>
<rect width="12" height="1.07408" transform="matrix(-1 0 0 1 12 21.4805)" fill="#B0D478"/>
<rect width="12" height="1.07408" transform="matrix(-1 0 0 1 12 22.5547)" fill="#B6B6B6"/>
<rect width="12" height="1.07408" transform="matrix(-1 0 0 1 12 23.6289)" fill="#888889"/>
<rect width="12" height="1.07408" transform="matrix(-1 0 0 1 12 24.7051)" fill="#B12534"/>
<rect width="12" height="1.07408" transform="matrix(-1 0 0 1 12 25.7783)" fill="#148E51"/>
<rect width="12" height="1.07408" transform="matrix(-1 0 0 1 12 26.8525)" fill="#2E8185"/>
<rect width="12" height="1.07408" transform="matrix(-1 0 0 1 12 27.9258)" fill="#D77E2C"/>
<rect width="12" height="1.07408" transform="matrix(-1 0 0 1 12 19.333)" fill="#F7AF00"/>
</svg>
