<svg width="188" height="188" viewBox="0 0 188 188" fill="none" xmlns="http://www.w3.org/2000/svg">
<path d="M44.7252 22.9249C45.6348 21.7326 47.358 18.5294 46.9745 15.255C46.8639 14.3331 46.2788 9.2062 46.6226 5.2687C46.9663 1.3312 49.2163 -0.981305 53.5429 2.26088L66.8549 14.0587C70.9846 14.3327 81.8268 15.6187 92.158 18.5705C105.072 22.2602 109.897 26.0929 115.148 28.7892C120.399 31.4855 125.933 29.6384 135.725 35.173C144.999 40.4145 145.617 45.7844 154.576 54.7762C155.077 55.279 155.604 55.7932 156.16 56.3192C166.662 66.2531 169.784 68.951 176.17 84.7033C182.556 100.456 190.909 123.185 183.833 143.739C176.17 165.999 118.696 184.893 88.3264 186.596C57.9571 188.299 30.0002 181.204 12.5365 173.824C-4.9271 166.445 2.30414 155.987 3.44141 150.53C4.57868 145.073 2.75929 138.479 3.44141 135.069C4.12352 131.658 7.76145 125.747 12.5365 112.33C16.3566 101.596 27.1604 91.0979 31.7077 87.5363C30.8252 86.4216 29.4133 85.0375 28.2242 82.2879C27.0352 79.5382 26.1496 75.259 25.8555 73.4631C25.2826 72.9831 23.8954 70.5555 22.9293 64.6847C21.7217 57.3461 24.2298 52.0048 26.0413 47.453C27.4904 43.8116 29.8772 39.5495 30.8894 37.8736M44.7252 22.9249L30.1911 16.8776C29.6759 16.6633 29.1049 17.0315 29.0871 17.5893C28.8364 25.4349 29.1574 30.0327 30.8894 37.8736M44.7252 22.9249C56.3232 27.2834 55.6671 35.5287 55.2922 37.8736C55.0629 39.3075 53.5002 44.4809 50.4737 47.2598C49.84 47.8417 49.1618 46.8758 49.4591 46.0684C49.7224 45.3535 49.853 44.5423 49.733 43.6625C49.2868 40.3903 48.1328 34.6392 46.9745 32.5073C45.8163 30.3754 44.0318 28.3797 40.8588 25.752C37.6858 23.1243 33.3417 21.472 32.6017 22.2156C31.8617 22.9593 32.1592 24.0996 33.0516 26.0332C33.9441 27.9667 35.9997 33.7963 35.9005 34.3913C35.8212 34.8672 32.5267 36.9111 30.8894 37.8736M148.799 54.0796C146.174 51.8708 138.337 47.453 127.982 47.453C120.247 47.453 95.7131 56.945 88.1984 60.8149C80.6836 64.6847 69.3854 70.727 62.3388 76.5074C58.6307 79.5493 55.1483 83.1208 52.6718 85.8769C50.7923 87.9684 48.0262 89.1058 45.2375 88.7449L35.9005 87.5363M39.2471 52.8825C37.1655 54.8106 33.5819 60.1463 35.9005 66.0648C38.7988 73.4631 39.6818 77.9846 38.3574 80.4569" stroke="#717171" stroke-width="2" stroke-dasharray="8 8"/>
<path d="M75.7842 111.301C75.2775 111.301 75.0242 111.048 75.0242 110.541C75.0242 110.034 75.2775 109.781 75.7842 109.781C76.2908 109.781 76.5442 110.034 76.5442 110.541C76.5442 111.048 76.2908 111.301 75.7842 111.301ZM74.2642 111.301C73.7575 111.301 73.5042 111.048 73.5042 110.541C73.5042 110.034 73.7575 109.781 74.2642 109.781C74.7708 109.781 75.0242 110.034 75.0242 110.541C75.0242 111.048 74.7708 111.301 74.2642 111.301ZM74.2642 112.821C73.7575 112.821 73.5042 112.568 73.5042 112.061C73.5042 111.554 73.7575 111.301 74.2642 111.301C74.7708 111.301 75.0242 111.554 75.0242 112.061C75.0242 112.568 74.7708 112.821 74.2642 112.821ZM75.7842 112.821C75.2775 112.821 75.0242 112.568 75.0242 112.061C75.0242 111.554 75.2775 111.301 75.7842 111.301C76.2908 111.301 76.5442 111.554 76.5442 112.061C76.5442 112.568 76.2908 112.821 75.7842 112.821ZM72.7442 114.341C72.2375 114.341 71.9842 114.088 71.9842 113.581C71.9842 113.074 72.2375 112.821 72.7442 112.821C73.2508 112.821 73.5042 113.074 73.5042 113.581C73.5042 114.088 73.2508 114.341 72.7442 114.341ZM74.2642 114.341C73.7575 114.341 73.5042 114.088 73.5042 113.581C73.5042 113.074 73.7575 112.821 74.2642 112.821C74.7708 112.821 75.0242 113.074 75.0242 113.581C75.0242 114.088 74.7708 114.341 74.2642 114.341ZM75.7842 114.341C75.2775 114.341 75.0242 114.088 75.0242 113.581C75.0242 113.074 75.2775 112.821 75.7842 112.821C76.2908 112.821 76.5442 113.074 76.5442 113.581C76.5442 114.088 76.2908 114.341 75.7842 114.341ZM74.2642 115.861C73.7575 115.861 73.5042 115.608 73.5042 115.101C73.5042 114.594 73.7575 114.341 74.2642 114.341C74.7708 114.341 75.0242 114.594 75.0242 115.101C75.0242 115.608 74.7708 115.861 74.2642 115.861ZM75.7842 115.861C75.2775 115.861 75.0242 115.608 75.0242 115.101C75.0242 114.594 75.2775 114.341 75.7842 114.341C76.2908 114.341 76.5442 114.594 76.5442 115.101C76.5442 115.608 76.2908 115.861 75.7842 115.861ZM72.7442 115.861C72.2375 115.861 71.9842 115.608 71.9842 115.101C71.9842 114.594 72.2375 114.341 72.7442 114.341C73.2508 114.341 73.5042 114.594 73.5042 115.101C73.5042 115.608 73.2508 115.861 72.7442 115.861ZM71.2242 115.861C70.7175 115.861 70.4642 115.608 70.4642 115.101C70.4642 114.594 70.7175 114.341 71.2242 114.341C71.7308 114.341 71.9842 114.594 71.9842 115.101C71.9842 115.608 71.7308 115.861 71.2242 115.861ZM72.7442 117.381C72.2375 117.381 71.9842 117.128 71.9842 116.621C71.9842 116.114 72.2375 115.861 72.7442 115.861C73.2508 115.861 73.5042 116.114 73.5042 116.621C73.5042 117.128 73.2508 117.381 72.7442 117.381ZM69.7042 117.381C69.1975 117.381 68.9442 117.128 68.9442 116.621C68.9442 116.114 69.1975 115.861 69.7042 115.861C70.2108 115.861 70.4642 116.114 70.4642 116.621C70.4642 117.128 70.2108 117.381 69.7042 117.381ZM74.2642 117.381C73.7575 117.381 73.5042 117.128 73.5042 116.621C73.5042 116.114 73.7575 115.861 74.2642 115.861C74.7708 115.861 75.0242 116.114 75.0242 116.621C75.0242 117.128 74.7708 117.381 74.2642 117.381ZM75.7842 117.381C75.2775 117.381 75.0242 117.128 75.0242 116.621C75.0242 116.114 75.2775 115.861 75.7842 115.861C76.2908 115.861 76.5442 116.114 76.5442 116.621C76.5442 117.128 76.2908 117.381 75.7842 117.381ZM71.2242 117.381C70.7175 117.381 70.4642 117.128 70.4642 116.621C70.4642 116.114 70.7175 115.861 71.2242 115.861C71.7308 115.861 71.9842 116.114 71.9842 116.621C71.9842 117.128 71.7308 117.381 71.2242 117.381ZM69.7042 118.901C69.1975 118.901 68.9442 118.648 68.9442 118.141C68.9442 117.634 69.1975 117.381 69.7042 117.381C70.2108 117.381 70.4642 117.634 70.4642 118.141C70.4642 118.648 70.2108 118.901 69.7042 118.901ZM68.1842 118.901C67.6775 118.901 67.4242 118.648 67.4242 118.141C67.4242 117.634 67.6775 117.381 68.1842 117.381C68.6908 117.381 68.9442 117.634 68.9442 118.141C68.9442 118.648 68.6908 118.901 68.1842 118.901ZM74.2642 118.901C73.7575 118.901 73.5042 118.648 73.5042 118.141C73.5042 117.634 73.7575 117.381 74.2642 117.381C74.7708 117.381 75.0242 117.634 75.0242 118.141C75.0242 118.648 74.7708 118.901 74.2642 118.901ZM75.7842 118.901C75.2775 118.901 75.0242 118.648 75.0242 118.141C75.0242 117.634 75.2775 117.381 75.7842 117.381C76.2908 117.381 76.5442 117.634 76.5442 118.141C76.5442 118.648 76.2908 118.901 75.7842 118.901ZM71.2242 118.901C70.7175 118.901 70.4642 118.648 70.4642 118.141C70.4642 117.634 70.7175 117.381 71.2242 117.381C71.7308 117.381 71.9842 117.634 71.9842 118.141C71.9842 118.648 71.7308 118.901 71.2242 118.901ZM69.7042 120.421C69.1975 120.421 68.9442 120.168 68.9442 119.661C68.9442 119.154 69.1975 118.901 69.7042 118.901C70.2108 118.901 70.4642 119.154 70.4642 119.661C70.4642 120.168 70.2108 120.421 69.7042 120.421ZM66.6642 120.421C66.1575 120.421 65.9042 120.168 65.9042 119.661C65.9042 119.154 66.1575 118.901 66.6642 118.901C67.1708 118.901 67.4242 119.154 67.4242 119.661C67.4242 120.168 67.1708 120.421 66.6642 120.421ZM68.1842 120.421C67.6775 120.421 67.4242 120.168 67.4242 119.661C67.4242 119.154 67.6775 118.901 68.1842 118.901C68.6908 118.901 68.9442 119.154 68.9442 119.661C68.9442 120.168 68.6908 120.421 68.1842 120.421ZM74.2642 120.421C73.7575 120.421 73.5042 120.168 73.5042 119.661C73.5042 119.154 73.7575 118.901 74.2642 118.901C74.7708 118.901 75.0242 119.154 75.0242 119.661C75.0242 120.168 74.7708 120.421 74.2642 120.421ZM75.7842 120.421C75.2775 120.421 75.0242 120.168 75.0242 119.661C75.0242 119.154 75.2775 118.901 75.7842 118.901C76.2908 118.901 76.5442 119.154 76.5442 119.661C76.5442 120.168 76.2908 120.421 75.7842 120.421ZM68.1842 121.941C67.6775 121.941 67.4242 121.688 67.4242 121.181C67.4242 120.674 67.6775 120.421 68.1842 120.421C68.6908 120.421 68.9442 120.674 68.9442 121.181C68.9442 121.688 68.6908 121.941 68.1842 121.941ZM65.1442 121.941C64.6375 121.941 64.3842 121.688 64.3842 121.181C64.3842 120.674 64.6375 120.421 65.1442 120.421C65.6508 120.421 65.9042 120.674 65.9042 121.181C65.9042 121.688 65.6508 121.941 65.1442 121.941ZM75.7842 121.941C75.2775 121.941 75.0242 121.688 75.0242 121.181C75.0242 120.674 75.2775 120.421 75.7842 120.421C76.2908 120.421 76.5442 120.674 76.5442 121.181C76.5442 121.688 76.2908 121.941 75.7842 121.941ZM74.2642 121.941C73.7575 121.941 73.5042 121.688 73.5042 121.181C73.5042 120.674 73.7575 120.421 74.2642 120.421C74.7708 120.421 75.0242 120.674 75.0242 121.181C75.0242 121.688 74.7708 121.941 74.2642 121.941ZM66.6642 121.941C66.1575 121.941 65.9042 121.688 65.9042 121.181C65.9042 120.674 66.1575 120.421 66.6642 120.421C67.1708 120.421 67.4242 120.674 67.4242 121.181C67.4242 121.688 67.1708 121.941 66.6642 121.941ZM65.1442 123.461C64.6375 123.461 64.3842 123.208 64.3842 122.701C64.3842 122.194 64.6375 121.941 65.1442 121.941C65.6508 121.941 65.9042 122.194 65.9042 122.701C65.9042 123.208 65.6508 123.461 65.1442 123.461ZM63.6242 123.461C63.1175 123.461 62.8642 123.208 62.8642 122.701C62.8642 122.194 63.1175 121.941 63.6242 121.941C64.1308 121.941 64.3842 122.194 64.3842 122.701C64.3842 123.208 64.1308 123.461 63.6242 123.461ZM74.2642 123.461C73.7575 123.461 73.5042 123.208 73.5042 122.701C73.5042 122.194 73.7575 121.941 74.2642 121.941C74.7708 121.941 75.0242 122.194 75.0242 122.701C75.0242 123.208 74.7708 123.461 74.2642 123.461ZM75.7842 123.461C75.2775 123.461 75.0242 123.208 75.0242 122.701C75.0242 122.194 75.2775 121.941 75.7842 121.941C76.2908 121.941 76.5442 122.194 76.5442 122.701C76.5442 123.208 76.2908 123.461 75.7842 123.461ZM66.6642 123.461C66.1575 123.461 65.9042 123.208 65.9042 122.701C65.9042 122.194 66.1575 121.941 66.6642 121.941C67.1708 121.941 67.4242 122.194 67.4242 122.701C67.4242 123.208 67.1708 123.461 66.6642 123.461ZM75.7842 124.981C75.2775 124.981 75.0242 124.728 75.0242 124.221C75.0242 123.714 75.2775 123.461 75.7842 123.461C76.2908 123.461 76.5442 123.714 76.5442 124.221C76.5442 124.728 76.2908 124.981 75.7842 124.981ZM63.6242 124.981C63.1175 124.981 62.8642 124.728 62.8642 124.221C62.8642 123.714 63.1175 123.461 63.6242 123.461C64.1308 123.461 64.3842 123.714 64.3842 124.221C64.3842 124.728 64.1308 124.981 63.6242 124.981ZM65.1442 124.981C64.6375 124.981 64.3842 124.728 64.3842 124.221C64.3842 123.714 64.6375 123.461 65.1442 123.461C65.6508 123.461 65.9042 123.714 65.9042 124.221C65.9042 124.728 65.6508 124.981 65.1442 124.981ZM62.1042 124.981C61.5975 124.981 61.3442 124.728 61.3442 124.221C61.3442 123.714 61.5975 123.461 62.1042 123.461C62.6108 123.461 62.8642 123.714 62.8642 124.221C62.8642 124.728 62.6108 124.981 62.1042 124.981ZM74.2642 124.981C73.7575 124.981 73.5042 124.728 73.5042 124.221C73.5042 123.714 73.7575 123.461 74.2642 123.461C74.7708 123.461 75.0242 123.714 75.0242 124.221C75.0242 124.728 74.7708 124.981 74.2642 124.981ZM75.7842 126.501C75.2775 126.501 75.0242 126.248 75.0242 125.741C75.0242 125.234 75.2775 124.981 75.7842 124.981C76.2908 124.981 76.5442 125.234 76.5442 125.741C76.5442 126.248 76.2908 126.501 75.7842 126.501ZM60.5842 126.501C60.0775 126.501 59.8242 126.248 59.8242 125.741C59.8242 125.234 60.0775 124.981 60.5842 124.981C61.0908 124.981 61.3442 125.234 61.3442 125.741C61.3442 126.248 61.0908 126.501 60.5842 126.501ZM63.6242 126.501C63.1175 126.501 62.8642 126.248 62.8642 125.741C62.8642 125.234 63.1175 124.981 63.6242 124.981C64.1308 124.981 64.3842 125.234 64.3842 125.741C64.3842 126.248 64.1308 126.501 63.6242 126.501ZM74.2642 126.501C73.7575 126.501 73.5042 126.248 73.5042 125.741C73.5042 125.234 73.7575 124.981 74.2642 124.981C74.7708 124.981 75.0242 125.234 75.0242 125.741C75.0242 126.248 74.7708 126.501 74.2642 126.501ZM62.1042 126.501C61.5975 126.501 61.3442 126.248 61.3442 125.741C61.3442 125.234 61.5975 124.981 62.1042 124.981C62.6108 124.981 62.8642 125.234 62.8642 125.741C62.8642 126.248 62.6108 126.501 62.1042 126.501ZM62.1042 128.021C61.5975 128.021 61.3442 127.768 61.3442 127.261C61.3442 126.754 61.5975 126.501 62.1042 126.501C62.6108 126.501 62.8642 126.754 62.8642 127.261C62.8642 127.768 62.6108 128.021 62.1042 128.021ZM60.5842 128.021C60.0775 128.021 59.8242 127.768 59.8242 127.261C59.8242 126.754 60.0775 126.501 60.5842 126.501C61.0908 126.501 61.3442 126.754 61.3442 127.261C61.3442 127.768 61.0908 128.021 60.5842 128.021ZM74.2642 128.021C73.7575 128.021 73.5042 127.768 73.5042 127.261C73.5042 126.754 73.7575 126.501 74.2642 126.501C74.7708 126.501 75.0242 126.754 75.0242 127.261C75.0242 127.768 74.7708 128.021 74.2642 128.021ZM75.7842 128.021C75.2775 128.021 75.0242 127.768 75.0242 127.261C75.0242 126.754 75.2775 126.501 75.7842 126.501C76.2908 126.501 76.5442 126.754 76.5442 127.261C76.5442 127.768 76.2908 128.021 75.7842 128.021ZM74.2642 129.541C73.7575 129.541 73.5042 129.288 73.5042 128.781C73.5042 128.274 73.7575 128.021 74.2642 128.021C74.7708 128.021 75.0242 128.274 75.0242 128.781C75.0242 129.288 74.7708 129.541 74.2642 129.541ZM59.0642 129.541C58.5575 129.541 58.3042 129.288 58.3042 128.781C58.3042 128.274 58.5575 128.021 59.0642 128.021C59.5708 128.021 59.8242 128.274 59.8242 128.781C59.8242 129.288 59.5708 129.541 59.0642 129.541ZM60.5842 129.541C60.0775 129.541 59.8242 129.288 59.8242 128.781C59.8242 128.274 60.0775 128.021 60.5842 128.021C61.0908 128.021 61.3442 128.274 61.3442 128.781C61.3442 129.288 61.0908 129.541 60.5842 129.541ZM75.7842 129.541C75.2775 129.541 75.0242 129.288 75.0242 128.781C75.0242 128.274 75.2775 128.021 75.7842 128.021C76.2908 128.021 76.5442 128.274 76.5442 128.781C76.5442 129.288 76.2908 129.541 75.7842 129.541ZM66.6642 131.061C66.1575 131.061 65.9042 130.808 65.9042 130.301C65.9042 129.794 66.1575 129.541 66.6642 129.541C67.1708 129.541 67.4242 129.794 67.4242 130.301C67.4242 130.808 67.1708 131.061 66.6642 131.061ZM65.1442 131.061C64.6375 131.061 64.3842 130.808 64.3842 130.301C64.3842 129.794 64.6375 129.541 65.1442 129.541C65.6508 129.541 65.9042 129.794 65.9042 130.301C65.9042 130.808 65.6508 131.061 65.1442 131.061ZM60.5842 131.061C60.0775 131.061 59.8242 130.808 59.8242 130.301C59.8242 129.794 60.0775 129.541 60.5842 129.541C61.0908 129.541 61.3442 129.794 61.3442 130.301C61.3442 130.808 61.0908 131.061 60.5842 131.061ZM62.1042 131.061C61.5975 131.061 61.3442 130.808 61.3442 130.301C61.3442 129.794 61.5975 129.541 62.1042 129.541C62.6108 129.541 62.8642 129.794 62.8642 130.301C62.8642 130.808 62.6108 131.061 62.1042 131.061ZM59.0642 131.061C58.5575 131.061 58.3042 130.808 58.3042 130.301C58.3042 129.794 58.5575 129.541 59.0642 129.541C59.5708 129.541 59.8242 129.794 59.8242 130.301C59.8242 130.808 59.5708 131.061 59.0642 131.061ZM78.8242 131.061C78.3175 131.061 78.0642 130.808 78.0642 130.301C78.0642 129.794 78.3175 129.541 78.8242 129.541C79.3308 129.541 79.5842 129.794 79.5842 130.301C79.5842 130.808 79.3308 131.061 78.8242 131.061ZM75.7842 131.061C75.2775 131.061 75.0242 130.808 75.0242 130.301C75.0242 129.794 75.2775 129.541 75.7842 129.541C76.2908 129.541 76.5442 129.794 76.5442 130.301C76.5442 130.808 76.2908 131.061 75.7842 131.061ZM63.6242 131.061C63.1175 131.061 62.8642 130.808 62.8642 130.301C62.8642 129.794 63.1175 129.541 63.6242 129.541C64.1308 129.541 64.3842 129.794 64.3842 130.301C64.3842 130.808 64.1308 131.061 63.6242 131.061ZM74.2642 131.061C73.7575 131.061 73.5042 130.808 73.5042 130.301C73.5042 129.794 73.7575 129.541 74.2642 129.541C74.7708 129.541 75.0242 129.794 75.0242 130.301C75.0242 130.808 74.7708 131.061 74.2642 131.061ZM77.3042 131.061C76.7975 131.061 76.5442 130.808 76.5442 130.301C76.5442 129.794 76.7975 129.541 77.3042 129.541C77.8108 129.541 78.0642 129.794 78.0642 130.301C78.0642 130.808 77.8108 131.061 77.3042 131.061ZM72.7442 131.061C72.2375 131.061 71.9842 130.808 71.9842 130.301C71.9842 129.794 72.2375 129.541 72.7442 129.541C73.2508 129.541 73.5042 129.794 73.5042 130.301C73.5042 130.808 73.2508 131.061 72.7442 131.061ZM71.2242 131.061C70.7175 131.061 70.4642 130.808 70.4642 130.301C70.4642 129.794 70.7175 129.541 71.2242 129.541C71.7308 129.541 71.9842 129.794 71.9842 130.301C71.9842 130.808 71.7308 131.061 71.2242 131.061ZM69.7042 131.061C69.1975 131.061 68.9442 130.808 68.9442 130.301C68.9442 129.794 69.1975 129.541 69.7042 129.541C70.2108 129.541 70.4642 129.794 70.4642 130.301C70.4642 130.808 70.2108 131.061 69.7042 131.061ZM68.1842 131.061C67.6775 131.061 67.4242 130.808 67.4242 130.301C67.4242 129.794 67.6775 129.541 68.1842 129.541C68.6908 129.541 68.9442 129.794 68.9442 130.301C68.9442 130.808 68.6908 131.061 68.1842 131.061ZM78.8242 132.581C78.3175 132.581 78.0642 132.328 78.0642 131.821C78.0642 131.314 78.3175 131.061 78.8242 131.061C79.3308 131.061 79.5842 131.314 79.5842 131.821C79.5842 132.328 79.3308 132.581 78.8242 132.581ZM59.0642 132.581C58.5575 132.581 58.3042 132.328 58.3042 131.821C58.3042 131.314 58.5575 131.061 59.0642 131.061C59.5708 131.061 59.8242 131.314 59.8242 131.821C59.8242 132.328 59.5708 132.581 59.0642 132.581ZM74.2642 132.581C73.7575 132.581 73.5042 132.328 73.5042 131.821C73.5042 131.314 73.7575 131.061 74.2642 131.061C74.7708 131.061 75.0242 131.314 75.0242 131.821C75.0242 132.328 74.7708 132.581 74.2642 132.581ZM60.5842 132.581C60.0775 132.581 59.8242 132.328 59.8242 131.821C59.8242 131.314 60.0775 131.061 60.5842 131.061C61.0908 131.061 61.3442 131.314 61.3442 131.821C61.3442 132.328 61.0908 132.581 60.5842 132.581ZM77.3042 132.581C76.7975 132.581 76.5442 132.328 76.5442 131.821C76.5442 131.314 76.7975 131.061 77.3042 131.061C77.8108 131.061 78.0642 131.314 78.0642 131.821C78.0642 132.328 77.8108 132.581 77.3042 132.581ZM72.7442 132.581C72.2375 132.581 71.9842 132.328 71.9842 131.821C71.9842 131.314 72.2375 131.061 72.7442 131.061C73.2508 131.061 73.5042 131.314 73.5042 131.821C73.5042 132.328 73.2508 132.581 72.7442 132.581ZM71.2242 132.581C70.7175 132.581 70.4642 132.328 70.4642 131.821C70.4642 131.314 70.7175 131.061 71.2242 131.061C71.7308 131.061 71.9842 131.314 71.9842 131.821C71.9842 132.328 71.7308 132.581 71.2242 132.581ZM69.7042 132.581C69.1975 132.581 68.9442 132.328 68.9442 131.821C68.9442 131.314 69.1975 131.061 69.7042 131.061C70.2108 131.061 70.4642 131.314 70.4642 131.821C70.4642 132.328 70.2108 132.581 69.7042 132.581ZM68.1842 132.581C67.6775 132.581 67.4242 132.328 67.4242 131.821C67.4242 131.314 67.6775 131.061 68.1842 131.061C68.6908 131.061 68.9442 131.314 68.9442 131.821C68.9442 132.328 68.6908 132.581 68.1842 132.581ZM66.6642 132.581C66.1575 132.581 65.9042 132.328 65.9042 131.821C65.9042 131.314 66.1575 131.061 66.6642 131.061C67.1708 131.061 67.4242 131.314 67.4242 131.821C67.4242 132.328 67.1708 132.581 66.6642 132.581ZM65.1442 132.581C64.6375 132.581 64.3842 132.328 64.3842 131.821C64.3842 131.314 64.6375 131.061 65.1442 131.061C65.6508 131.061 65.9042 131.314 65.9042 131.821C65.9042 132.328 65.6508 132.581 65.1442 132.581ZM63.6242 132.581C63.1175 132.581 62.8642 132.328 62.8642 131.821C62.8642 131.314 63.1175 131.061 63.6242 131.061C64.1308 131.061 64.3842 131.314 64.3842 131.821C64.3842 132.328 64.1308 132.581 63.6242 132.581ZM62.1042 132.581C61.5975 132.581 61.3442 132.328 61.3442 131.821C61.3442 131.314 61.5975 131.061 62.1042 131.061C62.6108 131.061 62.8642 131.314 62.8642 131.821C62.8642 132.328 62.6108 132.581 62.1042 132.581ZM75.7842 132.581C75.2775 132.581 75.0242 132.328 75.0242 131.821C75.0242 131.314 75.2775 131.061 75.7842 131.061C76.2908 131.061 76.5442 131.314 76.5442 131.821C76.5442 132.328 76.2908 132.581 75.7842 132.581ZM75.7842 134.101C75.2775 134.101 75.0242 133.848 75.0242 133.341C75.0242 132.834 75.2775 132.581 75.7842 132.581C76.2908 132.581 76.5442 132.834 76.5442 133.341C76.5442 133.848 76.2908 134.101 75.7842 134.101ZM74.2642 134.101C73.7575 134.101 73.5042 133.848 73.5042 133.341C73.5042 132.834 73.7575 132.581 74.2642 132.581C74.7708 132.581 75.0242 132.834 75.0242 133.341C75.0242 133.848 74.7708 134.101 74.2642 134.101ZM75.7842 135.621C75.2775 135.621 75.0242 135.368 75.0242 134.861C75.0242 134.354 75.2775 134.101 75.7842 134.101C76.2908 134.101 76.5442 134.354 76.5442 134.861C76.5442 135.368 76.2908 135.621 75.7842 135.621ZM74.2642 135.621C73.7575 135.621 73.5042 135.368 73.5042 134.861C73.5042 134.354 73.7575 134.101 74.2642 134.101C74.7708 134.101 75.0242 134.354 75.0242 134.861C75.0242 135.368 74.7708 135.621 74.2642 135.621ZM75.7842 137.141C75.2775 137.141 75.0242 136.888 75.0242 136.381C75.0242 135.874 75.2775 135.621 75.7842 135.621C76.2908 135.621 76.5442 135.874 76.5442 136.381C76.5442 136.888 76.2908 137.141 75.7842 137.141ZM74.2642 137.141C73.7575 137.141 73.5042 136.888 73.5042 136.381C73.5042 135.874 73.7575 135.621 74.2642 135.621C74.7708 135.621 75.0242 135.874 75.0242 136.381C75.0242 136.888 74.7708 137.141 74.2642 137.141ZM75.7842 138.661C75.2775 138.661 75.0242 138.408 75.0242 137.901C75.0242 137.394 75.2775 137.141 75.7842 137.141C76.2908 137.141 76.5442 137.394 76.5442 137.901C76.5442 138.408 76.2908 138.661 75.7842 138.661ZM74.2642 138.661C73.7575 138.661 73.5042 138.408 73.5042 137.901C73.5042 137.394 73.7575 137.141 74.2642 137.141C74.7708 137.141 75.0242 137.394 75.0242 137.901C75.0242 138.408 74.7708 138.661 74.2642 138.661ZM97.0479 111.301C96.5412 111.301 96.2879 111.048 96.2879 110.541C96.2879 110.034 96.5412 109.781 97.0479 109.781C97.5546 109.781 97.8079 110.034 97.8079 110.541C97.8079 111.048 97.5546 111.301 97.0479 111.301ZM95.5279 111.301C95.0212 111.301 94.7679 111.048 94.7679 110.541C94.7679 110.034 95.0212 109.781 95.5279 109.781C96.0346 109.781 96.2879 110.034 96.2879 110.541C96.2879 111.048 96.0346 111.301 95.5279 111.301ZM94.0079 111.301C93.5012 111.301 93.2479 111.048 93.2479 110.541C93.2479 110.034 93.5012 109.781 94.0079 109.781C94.5146 109.781 94.7679 110.034 94.7679 110.541C94.7679 111.048 94.5146 111.301 94.0079 111.301ZM92.4879 111.301C91.9812 111.301 91.7279 111.048 91.7279 110.541C91.7279 110.034 91.9812 109.781 92.4879 109.781C92.9946 109.781 93.2479 110.034 93.2479 110.541C93.2479 111.048 92.9946 111.301 92.4879 111.301ZM90.9679 111.301C90.4612 111.301 90.2079 111.048 90.2079 110.541C90.2079 110.034 90.4612 109.781 90.9679 109.781C91.4746 109.781 91.7279 110.034 91.7279 110.541C91.7279 111.048 91.4746 111.301 90.9679 111.301ZM100.088 112.821C99.5812 112.821 99.3279 112.568 99.3279 112.061C99.3279 111.554 99.5812 111.301 100.088 111.301C100.595 111.301 100.848 111.554 100.848 112.061C100.848 112.568 100.595 112.821 100.088 112.821ZM98.5679 112.821C98.0612 112.821 97.8079 112.568 97.8079 112.061C97.8079 111.554 98.0612 111.301 98.5679 111.301C99.0746 111.301 99.3279 111.554 99.3279 112.061C99.3279 112.568 99.0746 112.821 98.5679 112.821ZM97.0479 112.821C96.5412 112.821 96.2879 112.568 96.2879 112.061C96.2879 111.554 96.5412 111.301 97.0479 111.301C97.5546 111.301 97.8079 111.554 97.8079 112.061C97.8079 112.568 97.5546 112.821 97.0479 112.821ZM95.5279 112.821C95.0212 112.821 94.7679 112.568 94.7679 112.061C94.7679 111.554 95.0212 111.301 95.5279 111.301C96.0346 111.301 96.2879 111.554 96.2879 112.061C96.2879 112.568 96.0346 112.821 95.5279 112.821ZM94.0079 112.821C93.5012 112.821 93.2479 112.568 93.2479 112.061C93.2479 111.554 93.5012 111.301 94.0079 111.301C94.5146 111.301 94.7679 111.554 94.7679 112.061C94.7679 112.568 94.5146 112.821 94.0079 112.821ZM92.4879 112.821C91.9812 112.821 91.7279 112.568 91.7279 112.061C91.7279 111.554 91.9812 111.301 92.4879 111.301C92.9946 111.301 93.2479 111.554 93.2479 112.061C93.2479 112.568 92.9946 112.821 92.4879 112.821ZM90.9679 112.821C90.4612 112.821 90.2079 112.568 90.2079 112.061C90.2079 111.554 90.4612 111.301 90.9679 111.301C91.4746 111.301 91.7279 111.554 91.7279 112.061C91.7279 112.568 91.4746 112.821 90.9679 112.821ZM89.4479 112.821C88.9412 112.821 88.6879 112.568 88.6879 112.061C88.6879 111.554 88.9412 111.301 89.4479 111.301C89.9546 111.301 90.2079 111.554 90.2079 112.061C90.2079 112.568 89.9546 112.821 89.4479 112.821ZM87.9279 112.821C87.4212 112.821 87.1679 112.568 87.1679 112.061C87.1679 111.554 87.4212 111.301 87.9279 111.301C88.4346 111.301 88.6879 111.554 88.6879 112.061C88.6879 112.568 88.4346 112.821 87.9279 112.821ZM98.5679 114.341C98.0612 114.341 97.8079 114.088 97.8079 113.581C97.8079 113.074 98.0612 112.821 98.5679 112.821C99.0746 112.821 99.3279 113.074 99.3279 113.581C99.3279 114.088 99.0746 114.341 98.5679 114.341ZM89.4479 114.341C88.9412 114.341 88.6879 114.088 88.6879 113.581C88.6879 113.074 88.9412 112.821 89.4479 112.821C89.9546 112.821 90.2079 113.074 90.2079 113.581C90.2079 114.088 89.9546 114.341 89.4479 114.341ZM87.9279 114.341C87.4212 114.341 87.1679 114.088 87.1679 113.581C87.1679 113.074 87.4212 112.821 87.9279 112.821C88.4346 112.821 88.6879 113.074 88.6879 113.581C88.6879 114.088 88.4346 114.341 87.9279 114.341ZM100.088 114.341C99.5812 114.341 99.3279 114.088 99.3279 113.581C99.3279 113.074 99.5812 112.821 100.088 112.821C100.595 112.821 100.848 113.074 100.848 113.581C100.848 114.088 100.595 114.341 100.088 114.341ZM100.088 115.861C99.5812 115.861 99.3279 115.608 99.3279 115.101C99.3279 114.594 99.5812 114.341 100.088 114.341C100.595 114.341 100.848 114.594 100.848 115.101C100.848 115.608 100.595 115.861 100.088 115.861ZM87.9279 115.861C87.4212 115.861 87.1679 115.608 87.1679 115.101C87.1679 114.594 87.4212 114.341 87.9279 114.341C88.4346 114.341 88.6879 114.594 88.6879 115.101C88.6879 115.608 88.4346 115.861 87.9279 115.861ZM98.5679 115.861C98.0612 115.861 97.8079 115.608 97.8079 115.101C97.8079 114.594 98.0612 114.341 98.5679 114.341C99.0746 114.341 99.3279 114.594 99.3279 115.101C99.3279 115.608 99.0746 115.861 98.5679 115.861ZM101.608 115.861C101.101 115.861 100.848 115.608 100.848 115.101C100.848 114.594 101.101 114.341 101.608 114.341C102.115 114.341 102.368 114.594 102.368 115.101C102.368 115.608 102.115 115.861 101.608 115.861ZM86.4079 115.861C85.9012 115.861 85.6479 115.608 85.6479 115.101C85.6479 114.594 85.9012 114.341 86.4079 114.341C86.9146 114.341 87.1679 114.594 87.1679 115.101C87.1679 115.608 86.9146 115.861 86.4079 115.861ZM97.0479 117.381C96.5412 117.381 96.2879 117.128 96.2879 116.621C96.2879 116.114 96.5412 115.861 97.0479 115.861C97.5546 115.861 97.8079 116.114 97.8079 116.621C97.8079 117.128 97.5546 117.381 97.0479 117.381ZM98.5679 117.381C98.0612 117.381 97.8079 117.128 97.8079 116.621C97.8079 116.114 98.0612 115.861 98.5679 115.861C99.0746 115.861 99.3279 116.114 99.3279 116.621C99.3279 117.128 99.0746 117.381 98.5679 117.381ZM101.608 117.381C101.101 117.381 100.848 117.128 100.848 116.621C100.848 116.114 101.101 115.861 101.608 115.861C102.115 115.861 102.368 116.114 102.368 116.621C102.368 117.128 102.115 117.381 101.608 117.381ZM87.9279 117.381C87.4212 117.381 87.1679 117.128 87.1679 116.621C87.1679 116.114 87.4212 115.861 87.9279 115.861C88.4346 115.861 88.6879 116.114 88.6879 116.621C88.6879 117.128 88.4346 117.381 87.9279 117.381ZM100.088 117.381C99.5812 117.381 99.3279 117.128 99.3279 116.621C99.3279 116.114 99.5812 115.861 100.088 115.861C100.595 115.861 100.848 116.114 100.848 116.621C100.848 117.128 100.595 117.381 100.088 117.381ZM86.4079 117.381C85.9012 117.381 85.6479 117.128 85.6479 116.621C85.6479 116.114 85.9012 115.861 86.4079 115.861C86.9146 115.861 87.1679 116.114 87.1679 116.621C87.1679 117.128 86.9146 117.381 86.4079 117.381ZM103.128 118.901C102.621 118.901 102.368 118.648 102.368 118.141C102.368 117.634 102.621 117.381 103.128 117.381C103.635 117.381 103.888 117.634 103.888 118.141C103.888 118.648 103.635 118.901 103.128 118.901ZM84.8879 118.901C84.3812 118.901 84.1279 118.648 84.1279 118.141C84.1279 117.634 84.3812 117.381 84.8879 117.381C85.3946 117.381 85.6479 117.634 85.6479 118.141C85.6479 118.648 85.3946 118.901 84.8879 118.901ZM101.608 118.901C101.101 118.901 100.848 118.648 100.848 118.141C100.848 117.634 101.101 117.381 101.608 117.381C102.115 117.381 102.368 117.634 102.368 118.141C102.368 118.648 102.115 118.901 101.608 118.901ZM98.5679 118.901C98.0612 118.901 97.8079 118.648 97.8079 118.141C97.8079 117.634 98.0612 117.381 98.5679 117.381C99.0746 117.381 99.3279 117.634 99.3279 118.141C99.3279 118.648 99.0746 118.901 98.5679 118.901ZM86.4079 118.901C85.9012 118.901 85.6479 118.648 85.6479 118.141C85.6479 117.634 85.9012 117.381 86.4079 117.381C86.9146 117.381 87.1679 117.634 87.1679 118.141C87.1679 118.648 86.9146 118.901 86.4079 118.901ZM97.0479 118.901C96.5412 118.901 96.2879 118.648 96.2879 118.141C96.2879 117.634 96.5412 117.381 97.0479 117.381C97.5546 117.381 97.8079 117.634 97.8079 118.141C97.8079 118.648 97.5546 118.901 97.0479 118.901ZM103.128 120.421C102.621 120.421 102.368 120.168 102.368 119.661C102.368 119.154 102.621 118.901 103.128 118.901C103.635 118.901 103.888 119.154 103.888 119.661C103.888 120.168 103.635 120.421 103.128 120.421ZM97.0479 120.421C96.5412 120.421 96.2879 120.168 96.2879 119.661C96.2879 119.154 96.5412 118.901 97.0479 118.901C97.5546 118.901 97.8079 119.154 97.8079 119.661C97.8079 120.168 97.5546 120.421 97.0479 120.421ZM95.5279 120.421C95.0212 120.421 94.7679 120.168 94.7679 119.661C94.7679 119.154 95.0212 118.901 95.5279 118.901C96.0346 118.901 96.2879 119.154 96.2879 119.661C96.2879 120.168 96.0346 120.421 95.5279 120.421ZM84.8879 120.421C84.3812 120.421 84.1279 120.168 84.1279 119.661C84.1279 119.154 84.3812 118.901 84.8879 118.901C85.3946 118.901 85.6479 119.154 85.6479 119.661C85.6479 120.168 85.3946 120.421 84.8879 120.421ZM101.608 120.421C101.101 120.421 100.848 120.168 100.848 119.661C100.848 119.154 101.101 118.901 101.608 118.901C102.115 118.901 102.368 119.154 102.368 119.661C102.368 120.168 102.115 120.421 101.608 120.421ZM86.4079 120.421C85.9012 120.421 85.6479 120.168 85.6479 119.661C85.6479 119.154 85.9012 118.901 86.4079 118.901C86.9146 118.901 87.1679 119.154 87.1679 119.661C87.1679 120.168 86.9146 120.421 86.4079 120.421ZM84.8879 121.941C84.3812 121.941 84.1279 121.688 84.1279 121.181C84.1279 120.674 84.3812 120.421 84.8879 120.421C85.3946 120.421 85.6479 120.674 85.6479 121.181C85.6479 121.688 85.3946 121.941 84.8879 121.941ZM103.128 121.941C102.621 121.941 102.368 121.688 102.368 121.181C102.368 120.674 102.621 120.421 103.128 120.421C103.635 120.421 103.888 120.674 103.888 121.181C103.888 121.688 103.635 121.941 103.128 121.941ZM97.0479 121.941C96.5412 121.941 96.2879 121.688 96.2879 121.181C96.2879 120.674 96.5412 120.421 97.0479 120.421C97.5546 120.421 97.8079 120.674 97.8079 121.181C97.8079 121.688 97.5546 121.941 97.0479 121.941ZM86.4079 121.941C85.9012 121.941 85.6479 121.688 85.6479 121.181C85.6479 120.674 85.9012 120.421 86.4079 120.421C86.9146 120.421 87.1679 120.674 87.1679 121.181C87.1679 121.688 86.9146 121.941 86.4079 121.941ZM95.5279 121.941C95.0212 121.941 94.7679 121.688 94.7679 121.181C94.7679 120.674 95.0212 120.421 95.5279 120.421C96.0346 120.421 96.2879 120.674 96.2879 121.181C96.2879 121.688 96.0346 121.941 95.5279 121.941ZM101.608 121.941C101.101 121.941 100.848 121.688 100.848 121.181C100.848 120.674 101.101 120.421 101.608 120.421C102.115 120.421 102.368 120.674 102.368 121.181C102.368 121.688 102.115 121.941 101.608 121.941ZM94.0079 123.461C93.5012 123.461 93.2479 123.208 93.2479 122.701C93.2479 122.194 93.5012 121.941 94.0079 121.941C94.5146 121.941 94.7679 122.194 94.7679 122.701C94.7679 123.208 94.5146 123.461 94.0079 123.461ZM86.4079 123.461C85.9012 123.461 85.6479 123.208 85.6479 122.701C85.6479 122.194 85.9012 121.941 86.4079 121.941C86.9146 121.941 87.1679 122.194 87.1679 122.701C87.1679 123.208 86.9146 123.461 86.4079 123.461ZM84.8879 123.461C84.3812 123.461 84.1279 123.208 84.1279 122.701C84.1279 122.194 84.3812 121.941 84.8879 121.941C85.3946 121.941 85.6479 122.194 85.6479 122.701C85.6479 123.208 85.3946 123.461 84.8879 123.461ZM95.5279 123.461C95.0212 123.461 94.7679 123.208 94.7679 122.701C94.7679 122.194 95.0212 121.941 95.5279 121.941C96.0346 121.941 96.2879 122.194 96.2879 122.701C96.2879 123.208 96.0346 123.461 95.5279 123.461ZM101.608 123.461C101.101 123.461 100.848 123.208 100.848 122.701C100.848 122.194 101.101 121.941 101.608 121.941C102.115 121.941 102.368 122.194 102.368 122.701C102.368 123.208 102.115 123.461 101.608 123.461ZM103.128 123.461C102.621 123.461 102.368 123.208 102.368 122.701C102.368 122.194 102.621 121.941 103.128 121.941C103.635 121.941 103.888 122.194 103.888 122.701C103.888 123.208 103.635 123.461 103.128 123.461ZM94.0079 124.981C93.5012 124.981 93.2479 124.728 93.2479 124.221C93.2479 123.714 93.5012 123.461 94.0079 123.461C94.5146 123.461 94.7679 123.714 94.7679 124.221C94.7679 124.728 94.5146 124.981 94.0079 124.981ZM95.5279 124.981C95.0212 124.981 94.7679 124.728 94.7679 124.221C94.7679 123.714 95.0212 123.461 95.5279 123.461C96.0346 123.461 96.2879 123.714 96.2879 124.221C96.2879 124.728 96.0346 124.981 95.5279 124.981ZM86.4079 124.981C85.9012 124.981 85.6479 124.728 85.6479 124.221C85.6479 123.714 85.9012 123.461 86.4079 123.461C86.9146 123.461 87.1679 123.714 87.1679 124.221C87.1679 124.728 86.9146 124.981 86.4079 124.981ZM103.128 124.981C102.621 124.981 102.368 124.728 102.368 124.221C102.368 123.714 102.621 123.461 103.128 123.461C103.635 123.461 103.888 123.714 103.888 124.221C103.888 124.728 103.635 124.981 103.128 124.981ZM101.608 124.981C101.101 124.981 100.848 124.728 100.848 124.221C100.848 123.714 101.101 123.461 101.608 123.461C102.115 123.461 102.368 123.714 102.368 124.221C102.368 124.728 102.115 124.981 101.608 124.981ZM84.8879 124.981C84.3812 124.981 84.1279 124.728 84.1279 124.221C84.1279 123.714 84.3812 123.461 84.8879 123.461C85.3946 123.461 85.6479 123.714 85.6479 124.221C85.6479 124.728 85.3946 124.981 84.8879 124.981ZM103.128 126.501C102.621 126.501 102.368 126.248 102.368 125.741C102.368 125.234 102.621 124.981 103.128 124.981C103.635 124.981 103.888 125.234 103.888 125.741C103.888 126.248 103.635 126.501 103.128 126.501ZM92.4879 126.501C91.9812 126.501 91.7279 126.248 91.7279 125.741C91.7279 125.234 91.9812 124.981 92.4879 124.981C92.9946 124.981 93.2479 125.234 93.2479 125.741C93.2479 126.248 92.9946 126.501 92.4879 126.501ZM101.608 126.501C101.101 126.501 100.848 126.248 100.848 125.741C100.848 125.234 101.101 124.981 101.608 124.981C102.115 124.981 102.368 125.234 102.368 125.741C102.368 126.248 102.115 126.501 101.608 126.501ZM94.0079 126.501C93.5012 126.501 93.2479 126.248 93.2479 125.741C93.2479 125.234 93.5012 124.981 94.0079 124.981C94.5146 124.981 94.7679 125.234 94.7679 125.741C94.7679 126.248 94.5146 126.501 94.0079 126.501ZM84.8879 126.501C84.3812 126.501 84.1279 126.248 84.1279 125.741C84.1279 125.234 84.3812 124.981 84.8879 124.981C85.3946 124.981 85.6479 125.234 85.6479 125.741C85.6479 126.248 85.3946 126.501 84.8879 126.501ZM86.4079 126.501C85.9012 126.501 85.6479 126.248 85.6479 125.741C85.6479 125.234 85.9012 124.981 86.4079 124.981C86.9146 124.981 87.1679 125.234 87.1679 125.741C87.1679 126.248 86.9146 126.501 86.4079 126.501ZM94.0079 128.021C93.5012 128.021 93.2479 127.768 93.2479 127.261C93.2479 126.754 93.5012 126.501 94.0079 126.501C94.5146 126.501 94.7679 126.754 94.7679 127.261C94.7679 127.768 94.5146 128.021 94.0079 128.021ZM92.4879 128.021C91.9812 128.021 91.7279 127.768 91.7279 127.261C91.7279 126.754 91.9812 126.501 92.4879 126.501C92.9946 126.501 93.2479 126.754 93.2479 127.261C93.2479 127.768 92.9946 128.021 92.4879 128.021ZM101.608 128.021C101.101 128.021 100.848 127.768 100.848 127.261C100.848 126.754 101.101 126.501 101.608 126.501C102.115 126.501 102.368 126.754 102.368 127.261C102.368 127.768 102.115 128.021 101.608 128.021ZM86.4079 128.021C85.9012 128.021 85.6479 127.768 85.6479 127.261C85.6479 126.754 85.9012 126.501 86.4079 126.501C86.9146 126.501 87.1679 126.754 87.1679 127.261C87.1679 127.768 86.9146 128.021 86.4079 128.021ZM84.8879 128.021C84.3812 128.021 84.1279 127.768 84.1279 127.261C84.1279 126.754 84.3812 126.501 84.8879 126.501C85.3946 126.501 85.6479 126.754 85.6479 127.261C85.6479 127.768 85.3946 128.021 84.8879 128.021ZM103.128 128.021C102.621 128.021 102.368 127.768 102.368 127.261C102.368 126.754 102.621 126.501 103.128 126.501C103.635 126.501 103.888 126.754 103.888 127.261C103.888 127.768 103.635 128.021 103.128 128.021ZM92.4879 129.541C91.9812 129.541 91.7279 129.288 91.7279 128.781C91.7279 128.274 91.9812 128.021 92.4879 128.021C92.9946 128.021 93.2479 128.274 93.2479 128.781C93.2479 129.288 92.9946 129.541 92.4879 129.541ZM90.9679 129.541C90.4612 129.541 90.2079 129.288 90.2079 128.781C90.2079 128.274 90.4612 128.021 90.9679 128.021C91.4746 128.021 91.7279 128.274 91.7279 128.781C91.7279 129.288 91.4746 129.541 90.9679 129.541ZM84.8879 129.541C84.3812 129.541 84.1279 129.288 84.1279 128.781C84.1279 128.274 84.3812 128.021 84.8879 128.021C85.3946 128.021 85.6479 128.274 85.6479 128.781C85.6479 129.288 85.3946 129.541 84.8879 129.541ZM86.4079 129.541C85.9012 129.541 85.6479 129.288 85.6479 128.781C85.6479 128.274 85.9012 128.021 86.4079 128.021C86.9146 128.021 87.1679 128.274 87.1679 128.781C87.1679 129.288 86.9146 129.541 86.4079 129.541ZM103.128 129.541C102.621 129.541 102.368 129.288 102.368 128.781C102.368 128.274 102.621 128.021 103.128 128.021C103.635 128.021 103.888 128.274 103.888 128.781C103.888 129.288 103.635 129.541 103.128 129.541ZM101.608 129.541C101.101 129.541 100.848 129.288 100.848 128.781C100.848 128.274 101.101 128.021 101.608 128.021C102.115 128.021 102.368 128.274 102.368 128.781C102.368 129.288 102.115 129.541 101.608 129.541ZM90.9679 131.061C90.4612 131.061 90.2079 130.808 90.2079 130.301C90.2079 129.794 90.4612 129.541 90.9679 129.541C91.4746 129.541 91.7279 129.794 91.7279 130.301C91.7279 130.808 91.4746 131.061 90.9679 131.061ZM92.4879 131.061C91.9812 131.061 91.7279 130.808 91.7279 130.301C91.7279 129.794 91.9812 129.541 92.4879 129.541C92.9946 129.541 93.2479 129.794 93.2479 130.301C93.2479 130.808 92.9946 131.061 92.4879 131.061ZM86.4079 131.061C85.9012 131.061 85.6479 130.808 85.6479 130.301C85.6479 129.794 85.9012 129.541 86.4079 129.541C86.9146 129.541 87.1679 129.794 87.1679 130.301C87.1679 130.808 86.9146 131.061 86.4079 131.061ZM84.8879 131.061C84.3812 131.061 84.1279 130.808 84.1279 130.301C84.1279 129.794 84.3812 129.541 84.8879 129.541C85.3946 129.541 85.6479 129.794 85.6479 130.301C85.6479 130.808 85.3946 131.061 84.8879 131.061ZM103.128 131.061C102.621 131.061 102.368 130.808 102.368 130.301C102.368 129.794 102.621 129.541 103.128 129.541C103.635 129.541 103.888 129.794 103.888 130.301C103.888 130.808 103.635 131.061 103.128 131.061ZM101.608 131.061C101.101 131.061 100.848 130.808 100.848 130.301C100.848 129.794 101.101 129.541 101.608 129.541C102.115 129.541 102.368 129.794 102.368 130.301C102.368 130.808 102.115 131.061 101.608 131.061ZM86.4079 132.581C85.9012 132.581 85.6479 132.328 85.6479 131.821C85.6479 131.314 85.9012 131.061 86.4079 131.061C86.9146 131.061 87.1679 131.314 87.1679 131.821C87.1679 132.328 86.9146 132.581 86.4079 132.581ZM101.608 132.581C101.101 132.581 100.848 132.328 100.848 131.821C100.848 131.314 101.101 131.061 101.608 131.061C102.115 131.061 102.368 131.314 102.368 131.821C102.368 132.328 102.115 132.581 101.608 132.581ZM100.088 132.581C99.5812 132.581 99.3279 132.328 99.3279 131.821C99.3279 131.314 99.5812 131.061 100.088 131.061C100.595 131.061 100.848 131.314 100.848 131.821C100.848 132.328 100.595 132.581 100.088 132.581ZM87.9279 132.581C87.4212 132.581 87.1679 132.328 87.1679 131.821C87.1679 131.314 87.4212 131.061 87.9279 131.061C88.4346 131.061 88.6879 131.314 88.6879 131.821C88.6879 132.328 88.4346 132.581 87.9279 132.581ZM90.9679 132.581C90.4612 132.581 90.2079 132.328 90.2079 131.821C90.2079 131.314 90.4612 131.061 90.9679 131.061C91.4746 131.061 91.7279 131.314 91.7279 131.821C91.7279 132.328 91.4746 132.581 90.9679 132.581ZM89.4479 132.581C88.9412 132.581 88.6879 132.328 88.6879 131.821C88.6879 131.314 88.9412 131.061 89.4479 131.061C89.9546 131.061 90.2079 131.314 90.2079 131.821C90.2079 132.328 89.9546 132.581 89.4479 132.581ZM90.9679 134.101C90.4612 134.101 90.2079 133.848 90.2079 133.341C90.2079 132.834 90.4612 132.581 90.9679 132.581C91.4746 132.581 91.7279 132.834 91.7279 133.341C91.7279 133.848 91.4746 134.101 90.9679 134.101ZM89.4479 134.101C88.9412 134.101 88.6879 133.848 88.6879 133.341C88.6879 132.834 88.9412 132.581 89.4479 132.581C89.9546 132.581 90.2079 132.834 90.2079 133.341C90.2079 133.848 89.9546 134.101 89.4479 134.101ZM86.4079 134.101C85.9012 134.101 85.6479 133.848 85.6479 133.341C85.6479 132.834 85.9012 132.581 86.4079 132.581C86.9146 132.581 87.1679 132.834 87.1679 133.341C87.1679 133.848 86.9146 134.101 86.4079 134.101ZM87.9279 134.101C87.4212 134.101 87.1679 133.848 87.1679 133.341C87.1679 132.834 87.4212 132.581 87.9279 132.581C88.4346 132.581 88.6879 132.834 88.6879 133.341C88.6879 133.848 88.4346 134.101 87.9279 134.101ZM100.088 134.101C99.5812 134.101 99.3279 133.848 99.3279 133.341C99.3279 132.834 99.5812 132.581 100.088 132.581C100.595 132.581 100.848 132.834 100.848 133.341C100.848 133.848 100.595 134.101 100.088 134.101ZM101.608 134.101C101.101 134.101 100.848 133.848 100.848 133.341C100.848 132.834 101.101 132.581 101.608 132.581C102.115 132.581 102.368 132.834 102.368 133.341C102.368 133.848 102.115 134.101 101.608 134.101ZM87.9279 135.621C87.4212 135.621 87.1679 135.368 87.1679 134.861C87.1679 134.354 87.4212 134.101 87.9279 134.101C88.4346 134.101 88.6879 134.354 88.6879 134.861C88.6879 135.368 88.4346 135.621 87.9279 135.621ZM100.088 135.621C99.5812 135.621 99.3279 135.368 99.3279 134.861C99.3279 134.354 99.5812 134.101 100.088 134.101C100.595 134.101 100.848 134.354 100.848 134.861C100.848 135.368 100.595 135.621 100.088 135.621ZM89.4479 135.621C88.9412 135.621 88.6879 135.368 88.6879 134.861C88.6879 134.354 88.9412 134.101 89.4479 134.101C89.9546 134.101 90.2079 134.354 90.2079 134.861C90.2079 135.368 89.9546 135.621 89.4479 135.621ZM98.5679 135.621C98.0612 135.621 97.8079 135.368 97.8079 134.861C97.8079 134.354 98.0612 134.101 98.5679 134.101C99.0746 134.101 99.3279 134.354 99.3279 134.861C99.3279 135.368 99.0746 135.621 98.5679 135.621ZM98.5679 137.141C98.0612 137.141 97.8079 136.888 97.8079 136.381C97.8079 135.874 98.0612 135.621 98.5679 135.621C99.0746 135.621 99.3279 135.874 99.3279 136.381C99.3279 136.888 99.0746 137.141 98.5679 137.141ZM87.9279 137.141C87.4212 137.141 87.1679 136.888 87.1679 136.381C87.1679 135.874 87.4212 135.621 87.9279 135.621C88.4346 135.621 88.6879 135.874 88.6879 136.381C88.6879 136.888 88.4346 137.141 87.9279 137.141ZM100.088 137.141C99.5812 137.141 99.3279 136.888 99.3279 136.381C99.3279 135.874 99.5812 135.621 100.088 135.621C100.595 135.621 100.848 135.874 100.848 136.381C100.848 136.888 100.595 137.141 100.088 137.141ZM89.4479 137.141C88.9412 137.141 88.6879 136.888 88.6879 136.381C88.6879 135.874 88.9412 135.621 89.4479 135.621C89.9546 135.621 90.2079 135.874 90.2079 136.381C90.2079 136.888 89.9546 137.141 89.4479 137.141ZM90.9679 137.141C90.4612 137.141 90.2079 136.888 90.2079 136.381C90.2079 135.874 90.4612 135.621 90.9679 135.621C91.4746 135.621 91.7279 135.874 91.7279 136.381C91.7279 136.888 91.4746 137.141 90.9679 137.141ZM92.4879 137.141C91.9812 137.141 91.7279 136.888 91.7279 136.381C91.7279 135.874 91.9812 135.621 92.4879 135.621C92.9946 135.621 93.2479 135.874 93.2479 136.381C93.2479 136.888 92.9946 137.141 92.4879 137.141ZM94.0079 137.141C93.5012 137.141 93.2479 136.888 93.2479 136.381C93.2479 135.874 93.5012 135.621 94.0079 135.621C94.5146 135.621 94.7679 135.874 94.7679 136.381C94.7679 136.888 94.5146 137.141 94.0079 137.141ZM95.5279 137.141C95.0212 137.141 94.7679 136.888 94.7679 136.381C94.7679 135.874 95.0212 135.621 95.5279 135.621C96.0346 135.621 96.2879 135.874 96.2879 136.381C96.2879 136.888 96.0346 137.141 95.5279 137.141ZM97.0479 137.141C96.5412 137.141 96.2879 136.888 96.2879 136.381C96.2879 135.874 96.5412 135.621 97.0479 135.621C97.5546 135.621 97.8079 135.874 97.8079 136.381C97.8079 136.888 97.5546 137.141 97.0479 137.141ZM97.0479 138.661C96.5412 138.661 96.2879 138.408 96.2879 137.901C96.2879 137.394 96.5412 137.141 97.0479 137.141C97.5546 137.141 97.8079 137.394 97.8079 137.901C97.8079 138.408 97.5546 138.661 97.0479 138.661ZM92.4879 138.661C91.9812 138.661 91.7279 138.408 91.7279 137.901C91.7279 137.394 91.9812 137.141 92.4879 137.141C92.9946 137.141 93.2479 137.394 93.2479 137.901C93.2479 138.408 92.9946 138.661 92.4879 138.661ZM94.0079 138.661C93.5012 138.661 93.2479 138.408 93.2479 137.901C93.2479 137.394 93.5012 137.141 94.0079 137.141C94.5146 137.141 94.7679 137.394 94.7679 137.901C94.7679 138.408 94.5146 138.661 94.0079 138.661ZM95.5279 138.661C95.0212 138.661 94.7679 138.408 94.7679 137.901C94.7679 137.394 95.0212 137.141 95.5279 137.141C96.0346 137.141 96.2879 137.394 96.2879 137.901C96.2879 138.408 96.0346 138.661 95.5279 138.661ZM90.9679 138.661C90.4612 138.661 90.2079 138.408 90.2079 137.901C90.2079 137.394 90.4612 137.141 90.9679 137.141C91.4746 137.141 91.7279 137.394 91.7279 137.901C91.7279 138.408 91.4746 138.661 90.9679 138.661ZM125.94 111.301C125.434 111.301 125.18 111.048 125.18 110.541C125.18 110.034 125.434 109.781 125.94 109.781C126.447 109.781 126.7 110.034 126.7 110.541C126.7 111.048 126.447 111.301 125.94 111.301ZM124.42 111.301C123.914 111.301 123.66 111.048 123.66 110.541C123.66 110.034 123.914 109.781 124.42 109.781C124.927 109.781 125.18 110.034 125.18 110.541C125.18 111.048 124.927 111.301 124.42 111.301ZM124.42 112.821C123.914 112.821 123.66 112.568 123.66 112.061C123.66 111.554 123.914 111.301 124.42 111.301C124.927 111.301 125.18 111.554 125.18 112.061C125.18 112.568 124.927 112.821 124.42 112.821ZM125.94 112.821C125.434 112.821 125.18 112.568 125.18 112.061C125.18 111.554 125.434 111.301 125.94 111.301C126.447 111.301 126.7 111.554 126.7 112.061C126.7 112.568 126.447 112.821 125.94 112.821ZM122.9 114.341C122.394 114.341 122.14 114.088 122.14 113.581C122.14 113.074 122.394 112.821 122.9 112.821C123.407 112.821 123.66 113.074 123.66 113.581C123.66 114.088 123.407 114.341 122.9 114.341ZM124.42 114.341C123.914 114.341 123.66 114.088 123.66 113.581C123.66 113.074 123.914 112.821 124.42 112.821C124.927 112.821 125.18 113.074 125.18 113.581C125.18 114.088 124.927 114.341 124.42 114.341ZM125.94 114.341C125.434 114.341 125.18 114.088 125.18 113.581C125.18 113.074 125.434 112.821 125.94 112.821C126.447 112.821 126.7 113.074 126.7 113.581C126.7 114.088 126.447 114.341 125.94 114.341ZM124.42 115.861C123.914 115.861 123.66 115.608 123.66 115.101C123.66 114.594 123.914 114.341 124.42 114.341C124.927 114.341 125.18 114.594 125.18 115.101C125.18 115.608 124.927 115.861 124.42 115.861ZM125.94 115.861C125.434 115.861 125.18 115.608 125.18 115.101C125.18 114.594 125.434 114.341 125.94 114.341C126.447 114.341 126.7 114.594 126.7 115.101C126.7 115.608 126.447 115.861 125.94 115.861ZM122.9 115.861C122.394 115.861 122.14 115.608 122.14 115.101C122.14 114.594 122.394 114.341 122.9 114.341C123.407 114.341 123.66 114.594 123.66 115.101C123.66 115.608 123.407 115.861 122.9 115.861ZM121.38 115.861C120.874 115.861 120.62 115.608 120.62 115.101C120.62 114.594 120.874 114.341 121.38 114.341C121.887 114.341 122.14 114.594 122.14 115.101C122.14 115.608 121.887 115.861 121.38 115.861ZM122.9 117.381C122.394 117.381 122.14 117.128 122.14 116.621C122.14 116.114 122.394 115.861 122.9 115.861C123.407 115.861 123.66 116.114 123.66 116.621C123.66 117.128 123.407 117.381 122.9 117.381ZM119.86 117.381C119.354 117.381 119.1 117.128 119.1 116.621C119.1 116.114 119.354 115.861 119.86 115.861C120.367 115.861 120.62 116.114 120.62 116.621C120.62 117.128 120.367 117.381 119.86 117.381ZM124.42 117.381C123.914 117.381 123.66 117.128 123.66 116.621C123.66 116.114 123.914 115.861 124.42 115.861C124.927 115.861 125.18 116.114 125.18 116.621C125.18 117.128 124.927 117.381 124.42 117.381ZM125.94 117.381C125.434 117.381 125.18 117.128 125.18 116.621C125.18 116.114 125.434 115.861 125.94 115.861C126.447 115.861 126.7 116.114 126.7 116.621C126.7 117.128 126.447 117.381 125.94 117.381ZM121.38 117.381C120.874 117.381 120.62 117.128 120.62 116.621C120.62 116.114 120.874 115.861 121.38 115.861C121.887 115.861 122.14 116.114 122.14 116.621C122.14 117.128 121.887 117.381 121.38 117.381ZM119.86 118.901C119.354 118.901 119.1 118.648 119.1 118.141C119.1 117.634 119.354 117.381 119.86 117.381C120.367 117.381 120.62 117.634 120.62 118.141C120.62 118.648 120.367 118.901 119.86 118.901ZM118.34 118.901C117.834 118.901 117.58 118.648 117.58 118.141C117.58 117.634 117.834 117.381 118.34 117.381C118.847 117.381 119.1 117.634 119.1 118.141C119.1 118.648 118.847 118.901 118.34 118.901ZM124.42 118.901C123.914 118.901 123.66 118.648 123.66 118.141C123.66 117.634 123.914 117.381 124.42 117.381C124.927 117.381 125.18 117.634 125.18 118.141C125.18 118.648 124.927 118.901 124.42 118.901ZM125.94 118.901C125.434 118.901 125.18 118.648 125.18 118.141C125.18 117.634 125.434 117.381 125.94 117.381C126.447 117.381 126.7 117.634 126.7 118.141C126.7 118.648 126.447 118.901 125.94 118.901ZM121.38 118.901C120.874 118.901 120.62 118.648 120.62 118.141C120.62 117.634 120.874 117.381 121.38 117.381C121.887 117.381 122.14 117.634 122.14 118.141C122.14 118.648 121.887 118.901 121.38 118.901ZM119.86 120.421C119.354 120.421 119.1 120.168 119.1 119.661C119.1 119.154 119.354 118.901 119.86 118.901C120.367 118.901 120.62 119.154 120.62 119.661C120.62 120.168 120.367 120.421 119.86 120.421ZM116.82 120.421C116.314 120.421 116.06 120.168 116.06 119.661C116.06 119.154 116.314 118.901 116.82 118.901C117.327 118.901 117.58 119.154 117.58 119.661C117.58 120.168 117.327 120.421 116.82 120.421ZM118.34 120.421C117.834 120.421 117.58 120.168 117.58 119.661C117.58 119.154 117.834 118.901 118.34 118.901C118.847 118.901 119.1 119.154 119.1 119.661C119.1 120.168 118.847 120.421 118.34 120.421ZM124.42 120.421C123.914 120.421 123.66 120.168 123.66 119.661C123.66 119.154 123.914 118.901 124.42 118.901C124.927 118.901 125.18 119.154 125.18 119.661C125.18 120.168 124.927 120.421 124.42 120.421ZM125.94 120.421C125.434 120.421 125.18 120.168 125.18 119.661C125.18 119.154 125.434 118.901 125.94 118.901C126.447 118.901 126.7 119.154 126.7 119.661C126.7 120.168 126.447 120.421 125.94 120.421ZM118.34 121.941C117.834 121.941 117.58 121.688 117.58 121.181C117.58 120.674 117.834 120.421 118.34 120.421C118.847 120.421 119.1 120.674 119.1 121.181C119.1 121.688 118.847 121.941 118.34 121.941ZM115.3 121.941C114.794 121.941 114.54 121.688 114.54 121.181C114.54 120.674 114.794 120.421 115.3 120.421C115.807 120.421 116.06 120.674 116.06 121.181C116.06 121.688 115.807 121.941 115.3 121.941ZM125.94 121.941C125.434 121.941 125.18 121.688 125.18 121.181C125.18 120.674 125.434 120.421 125.94 120.421C126.447 120.421 126.7 120.674 126.7 121.181C126.7 121.688 126.447 121.941 125.94 121.941ZM124.42 121.941C123.914 121.941 123.66 121.688 123.66 121.181C123.66 120.674 123.914 120.421 124.42 120.421C124.927 120.421 125.18 120.674 125.18 121.181C125.18 121.688 124.927 121.941 124.42 121.941ZM116.82 121.941C116.314 121.941 116.06 121.688 116.06 121.181C116.06 120.674 116.314 120.421 116.82 120.421C117.327 120.421 117.58 120.674 117.58 121.181C117.58 121.688 117.327 121.941 116.82 121.941ZM115.3 123.461C114.794 123.461 114.54 123.208 114.54 122.701C114.54 122.194 114.794 121.941 115.3 121.941C115.807 121.941 116.06 122.194 116.06 122.701C116.06 123.208 115.807 123.461 115.3 123.461ZM113.78 123.461C113.274 123.461 113.02 123.208 113.02 122.701C113.02 122.194 113.274 121.941 113.78 121.941C114.287 121.941 114.54 122.194 114.54 122.701C114.54 123.208 114.287 123.461 113.78 123.461ZM124.42 123.461C123.914 123.461 123.66 123.208 123.66 122.701C123.66 122.194 123.914 121.941 124.42 121.941C124.927 121.941 125.18 122.194 125.18 122.701C125.18 123.208 124.927 123.461 124.42 123.461ZM125.94 123.461C125.434 123.461 125.18 123.208 125.18 122.701C125.18 122.194 125.434 121.941 125.94 121.941C126.447 121.941 126.7 122.194 126.7 122.701C126.7 123.208 126.447 123.461 125.94 123.461ZM116.82 123.461C116.314 123.461 116.06 123.208 116.06 122.701C116.06 122.194 116.314 121.941 116.82 121.941C117.327 121.941 117.58 122.194 117.58 122.701C117.58 123.208 117.327 123.461 116.82 123.461ZM125.94 124.981C125.434 124.981 125.18 124.728 125.18 124.221C125.18 123.714 125.434 123.461 125.94 123.461C126.447 123.461 126.7 123.714 126.7 124.221C126.7 124.728 126.447 124.981 125.94 124.981ZM113.78 124.981C113.274 124.981 113.02 124.728 113.02 124.221C113.02 123.714 113.274 123.461 113.78 123.461C114.287 123.461 114.54 123.714 114.54 124.221C114.54 124.728 114.287 124.981 113.78 124.981ZM115.3 124.981C114.794 124.981 114.54 124.728 114.54 124.221C114.54 123.714 114.794 123.461 115.3 123.461C115.807 123.461 116.06 123.714 116.06 124.221C116.06 124.728 115.807 124.981 115.3 124.981ZM112.26 124.981C111.754 124.981 111.5 124.728 111.5 124.221C111.5 123.714 111.754 123.461 112.26 123.461C112.767 123.461 113.02 123.714 113.02 124.221C113.02 124.728 112.767 124.981 112.26 124.981ZM124.42 124.981C123.914 124.981 123.66 124.728 123.66 124.221C123.66 123.714 123.914 123.461 124.42 123.461C124.927 123.461 125.18 123.714 125.18 124.221C125.18 124.728 124.927 124.981 124.42 124.981ZM125.94 126.501C125.434 126.501 125.18 126.248 125.18 125.741C125.18 125.234 125.434 124.981 125.94 124.981C126.447 124.981 126.7 125.234 126.7 125.741C126.7 126.248 126.447 126.501 125.94 126.501ZM110.74 126.501C110.234 126.501 109.98 126.248 109.98 125.741C109.98 125.234 110.234 124.981 110.74 124.981C111.247 124.981 111.5 125.234 111.5 125.741C111.5 126.248 111.247 126.501 110.74 126.501ZM113.78 126.501C113.274 126.501 113.02 126.248 113.02 125.741C113.02 125.234 113.274 124.981 113.78 124.981C114.287 124.981 114.54 125.234 114.54 125.741C114.54 126.248 114.287 126.501 113.78 126.501ZM124.42 126.501C123.914 126.501 123.66 126.248 123.66 125.741C123.66 125.234 123.914 124.981 124.42 124.981C124.927 124.981 125.18 125.234 125.18 125.741C125.18 126.248 124.927 126.501 124.42 126.501ZM112.26 126.501C111.754 126.501 111.5 126.248 111.5 125.741C111.5 125.234 111.754 124.981 112.26 124.981C112.767 124.981 113.02 125.234 113.02 125.741C113.02 126.248 112.767 126.501 112.26 126.501ZM112.26 128.021C111.754 128.021 111.5 127.768 111.5 127.261C111.5 126.754 111.754 126.501 112.26 126.501C112.767 126.501 113.02 126.754 113.02 127.261C113.02 127.768 112.767 128.021 112.26 128.021ZM110.74 128.021C110.234 128.021 109.98 127.768 109.98 127.261C109.98 126.754 110.234 126.501 110.74 126.501C111.247 126.501 111.5 126.754 111.5 127.261C111.5 127.768 111.247 128.021 110.74 128.021ZM124.42 128.021C123.914 128.021 123.66 127.768 123.66 127.261C123.66 126.754 123.914 126.501 124.42 126.501C124.927 126.501 125.18 126.754 125.18 127.261C125.18 127.768 124.927 128.021 124.42 128.021ZM125.94 128.021C125.434 128.021 125.18 127.768 125.18 127.261C125.18 126.754 125.434 126.501 125.94 126.501C126.447 126.501 126.7 126.754 126.7 127.261C126.7 127.768 126.447 128.021 125.94 128.021ZM124.42 129.541C123.914 129.541 123.66 129.288 123.66 128.781C123.66 128.274 123.914 128.021 124.42 128.021C124.927 128.021 125.18 128.274 125.18 128.781C125.18 129.288 124.927 129.541 124.42 129.541ZM109.22 129.541C108.714 129.541 108.46 129.288 108.46 128.781C108.46 128.274 108.714 128.021 109.22 128.021C109.727 128.021 109.98 128.274 109.98 128.781C109.98 129.288 109.727 129.541 109.22 129.541ZM110.74 129.541C110.234 129.541 109.98 129.288 109.98 128.781C109.98 128.274 110.234 128.021 110.74 128.021C111.247 128.021 111.5 128.274 111.5 128.781C111.5 129.288 111.247 129.541 110.74 129.541ZM125.94 129.541C125.434 129.541 125.18 129.288 125.18 128.781C125.18 128.274 125.434 128.021 125.94 128.021C126.447 128.021 126.7 128.274 126.7 128.781C126.7 129.288 126.447 129.541 125.94 129.541ZM116.82 131.061C116.314 131.061 116.06 130.808 116.06 130.301C116.06 129.794 116.314 129.541 116.82 129.541C117.327 129.541 117.58 129.794 117.58 130.301C117.58 130.808 117.327 131.061 116.82 131.061ZM115.3 131.061C114.794 131.061 114.54 130.808 114.54 130.301C114.54 129.794 114.794 129.541 115.3 129.541C115.807 129.541 116.06 129.794 116.06 130.301C116.06 130.808 115.807 131.061 115.3 131.061ZM110.74 131.061C110.234 131.061 109.98 130.808 109.98 130.301C109.98 129.794 110.234 129.541 110.74 129.541C111.247 129.541 111.5 129.794 111.5 130.301C111.5 130.808 111.247 131.061 110.74 131.061ZM112.26 131.061C111.754 131.061 111.5 130.808 111.5 130.301C111.5 129.794 111.754 129.541 112.26 129.541C112.767 129.541 113.02 129.794 113.02 130.301C113.02 130.808 112.767 131.061 112.26 131.061ZM109.22 131.061C108.714 131.061 108.46 130.808 108.46 130.301C108.46 129.794 108.714 129.541 109.22 129.541C109.727 129.541 109.98 129.794 109.98 130.301C109.98 130.808 109.727 131.061 109.22 131.061ZM128.98 131.061C128.474 131.061 128.22 130.808 128.22 130.301C128.22 129.794 128.474 129.541 128.98 129.541C129.487 129.541 129.74 129.794 129.74 130.301C129.74 130.808 129.487 131.061 128.98 131.061ZM125.94 131.061C125.434 131.061 125.18 130.808 125.18 130.301C125.18 129.794 125.434 129.541 125.94 129.541C126.447 129.541 126.7 129.794 126.7 130.301C126.7 130.808 126.447 131.061 125.94 131.061ZM113.78 131.061C113.274 131.061 113.02 130.808 113.02 130.301C113.02 129.794 113.274 129.541 113.78 129.541C114.287 129.541 114.54 129.794 114.54 130.301C114.54 130.808 114.287 131.061 113.78 131.061ZM124.42 131.061C123.914 131.061 123.66 130.808 123.66 130.301C123.66 129.794 123.914 129.541 124.42 129.541C124.927 129.541 125.18 129.794 125.18 130.301C125.18 130.808 124.927 131.061 124.42 131.061ZM127.46 131.061C126.954 131.061 126.7 130.808 126.7 130.301C126.7 129.794 126.954 129.541 127.46 129.541C127.967 129.541 128.22 129.794 128.22 130.301C128.22 130.808 127.967 131.061 127.46 131.061ZM122.9 131.061C122.394 131.061 122.14 130.808 122.14 130.301C122.14 129.794 122.394 129.541 122.9 129.541C123.407 129.541 123.66 129.794 123.66 130.301C123.66 130.808 123.407 131.061 122.9 131.061ZM121.38 131.061C120.874 131.061 120.62 130.808 120.62 130.301C120.62 129.794 120.874 129.541 121.38 129.541C121.887 129.541 122.14 129.794 122.14 130.301C122.14 130.808 121.887 131.061 121.38 131.061ZM119.86 131.061C119.354 131.061 119.1 130.808 119.1 130.301C119.1 129.794 119.354 129.541 119.86 129.541C120.367 129.541 120.62 129.794 120.62 130.301C120.62 130.808 120.367 131.061 119.86 131.061ZM118.34 131.061C117.834 131.061 117.58 130.808 117.58 130.301C117.58 129.794 117.834 129.541 118.34 129.541C118.847 129.541 119.1 129.794 119.1 130.301C119.1 130.808 118.847 131.061 118.34 131.061ZM128.98 132.581C128.474 132.581 128.22 132.328 128.22 131.821C128.22 131.314 128.474 131.061 128.98 131.061C129.487 131.061 129.74 131.314 129.74 131.821C129.74 132.328 129.487 132.581 128.98 132.581ZM109.22 132.581C108.714 132.581 108.46 132.328 108.46 131.821C108.46 131.314 108.714 131.061 109.22 131.061C109.727 131.061 109.98 131.314 109.98 131.821C109.98 132.328 109.727 132.581 109.22 132.581ZM124.42 132.581C123.914 132.581 123.66 132.328 123.66 131.821C123.66 131.314 123.914 131.061 124.42 131.061C124.927 131.061 125.18 131.314 125.18 131.821C125.18 132.328 124.927 132.581 124.42 132.581ZM110.74 132.581C110.234 132.581 109.98 132.328 109.98 131.821C109.98 131.314 110.234 131.061 110.74 131.061C111.247 131.061 111.5 131.314 111.5 131.821C111.5 132.328 111.247 132.581 110.74 132.581ZM127.46 132.581C126.954 132.581 126.7 132.328 126.7 131.821C126.7 131.314 126.954 131.061 127.46 131.061C127.967 131.061 128.22 131.314 128.22 131.821C128.22 132.328 127.967 132.581 127.46 132.581ZM122.9 132.581C122.394 132.581 122.14 132.328 122.14 131.821C122.14 131.314 122.394 131.061 122.9 131.061C123.407 131.061 123.66 131.314 123.66 131.821C123.66 132.328 123.407 132.581 122.9 132.581ZM121.38 132.581C120.874 132.581 120.62 132.328 120.62 131.821C120.62 131.314 120.874 131.061 121.38 131.061C121.887 131.061 122.14 131.314 122.14 131.821C122.14 132.328 121.887 132.581 121.38 132.581ZM119.86 132.581C119.354 132.581 119.1 132.328 119.1 131.821C119.1 131.314 119.354 131.061 119.86 131.061C120.367 131.061 120.62 131.314 120.62 131.821C120.62 132.328 120.367 132.581 119.86 132.581ZM118.34 132.581C117.834 132.581 117.58 132.328 117.58 131.821C117.58 131.314 117.834 131.061 118.34 131.061C118.847 131.061 119.1 131.314 119.1 131.821C119.1 132.328 118.847 132.581 118.34 132.581ZM116.82 132.581C116.314 132.581 116.06 132.328 116.06 131.821C116.06 131.314 116.314 131.061 116.82 131.061C117.327 131.061 117.58 131.314 117.58 131.821C117.58 132.328 117.327 132.581 116.82 132.581ZM115.3 132.581C114.794 132.581 114.54 132.328 114.54 131.821C114.54 131.314 114.794 131.061 115.3 131.061C115.807 131.061 116.06 131.314 116.06 131.821C116.06 132.328 115.807 132.581 115.3 132.581ZM113.78 132.581C113.274 132.581 113.02 132.328 113.02 131.821C113.02 131.314 113.274 131.061 113.78 131.061C114.287 131.061 114.54 131.314 114.54 131.821C114.54 132.328 114.287 132.581 113.78 132.581ZM112.26 132.581C111.754 132.581 111.5 132.328 111.5 131.821C111.5 131.314 111.754 131.061 112.26 131.061C112.767 131.061 113.02 131.314 113.02 131.821C113.02 132.328 112.767 132.581 112.26 132.581ZM125.94 132.581C125.434 132.581 125.18 132.328 125.18 131.821C125.18 131.314 125.434 131.061 125.94 131.061C126.447 131.061 126.7 131.314 126.7 131.821C126.7 132.328 126.447 132.581 125.94 132.581ZM125.94 134.101C125.434 134.101 125.18 133.848 125.18 133.341C125.18 132.834 125.434 132.581 125.94 132.581C126.447 132.581 126.7 132.834 126.7 133.341C126.7 133.848 126.447 134.101 125.94 134.101ZM124.42 134.101C123.914 134.101 123.66 133.848 123.66 133.341C123.66 132.834 123.914 132.581 124.42 132.581C124.927 132.581 125.18 132.834 125.18 133.341C125.18 133.848 124.927 134.101 124.42 134.101ZM125.94 135.621C125.434 135.621 125.18 135.368 125.18 134.861C125.18 134.354 125.434 134.101 125.94 134.101C126.447 134.101 126.7 134.354 126.7 134.861C126.7 135.368 126.447 135.621 125.94 135.621ZM124.42 135.621C123.914 135.621 123.66 135.368 123.66 134.861C123.66 134.354 123.914 134.101 124.42 134.101C124.927 134.101 125.18 134.354 125.18 134.861C125.18 135.368 124.927 135.621 124.42 135.621ZM125.94 137.141C125.434 137.141 125.18 136.888 125.18 136.381C125.18 135.874 125.434 135.621 125.94 135.621C126.447 135.621 126.7 135.874 126.7 136.381C126.7 136.888 126.447 137.141 125.94 137.141ZM124.42 137.141C123.914 137.141 123.66 136.888 123.66 136.381C123.66 135.874 123.914 135.621 124.42 135.621C124.927 135.621 125.18 135.874 125.18 136.381C125.18 136.888 124.927 137.141 124.42 137.141ZM125.94 138.661C125.434 138.661 125.18 138.408 125.18 137.901C125.18 137.394 125.434 137.141 125.94 137.141C126.447 137.141 126.7 137.394 126.7 137.901C126.7 138.408 126.447 138.661 125.94 138.661ZM124.42 138.661C123.914 138.661 123.66 138.408 123.66 137.901C123.66 137.394 123.914 137.141 124.42 137.141C124.927 137.141 125.18 137.394 125.18 137.901C125.18 138.408 124.927 138.661 124.42 138.661Z" fill="#717171"/>
</svg>
