<svg width="171" height="35" viewBox="0 0 171 35" fill="none" xmlns="http://www.w3.org/2000/svg">
<path d="M-1.52588e-05 28.9309V0.202585H4.35938V27.3124L2.05859 24.9251H18.3256V28.9309H-1.52588e-05Z" fill="#231F20"/>
<path d="M19.8186 28.9306V7.40463H24.0973V28.9306H19.8186ZM19.7379 4.28902V0H24.178V4.28902H19.7379Z" fill="#231F20"/>
<path d="M27.3235 28.9306V7.40463H31.2389L31.4004 13.1503L30.8756 12.8671C31.1178 11.4644 31.5753 10.3314 32.248 9.46821C32.9208 8.60501 33.7415 7.9711 34.7103 7.56648C35.679 7.13488 36.7285 6.91908 37.8587 6.91908C39.4733 6.91908 40.8054 7.28324 41.8549 8.01156C42.9312 8.71291 43.7385 9.68401 44.2767 10.9249C44.8418 12.1387 45.1244 13.5279 45.1244 15.0925V28.9306H40.8457V16.3873C40.8457 15.1195 40.7112 14.0539 40.4421 13.1908C40.173 12.3276 39.729 11.6667 39.11 11.2081C38.4911 10.7495 37.6838 10.5202 36.6882 10.5202C35.1812 10.5202 33.9568 11.0193 33.015 12.0173C32.0731 13.0154 31.6022 14.4721 31.6022 16.3873V28.9306H27.3235Z" fill="#231F20"/>
<path d="M57.5205 29.4162C55.4215 29.4162 53.6051 28.9576 52.0712 28.0405C50.5643 27.1233 49.3937 25.815 48.5595 24.1156C47.7522 22.4162 47.3486 20.4335 47.3486 18.1676C47.3486 15.9017 47.7522 13.9326 48.5595 12.2601C49.3937 10.5607 50.5643 9.25241 52.0712 8.33526C53.5782 7.39114 55.3542 6.91908 57.3994 6.91908C59.3369 6.91908 61.0457 7.37765 62.5257 8.2948C64.0057 9.18497 65.1494 10.4798 65.9567 12.1792C66.7909 13.8786 67.208 15.9287 67.208 18.3295V19.422H51.7887C51.8963 21.526 52.448 23.104 53.4436 24.1561C54.4662 25.2081 55.8386 25.7341 57.5608 25.7341C58.8256 25.7341 59.8751 25.4374 60.7093 24.8439C61.5435 24.2505 62.1221 23.4547 62.445 22.4566L66.8851 22.7399C66.32 24.736 65.2032 26.3545 63.5348 27.5954C61.8933 28.8092 59.8885 29.4162 57.5205 29.4162ZM51.7887 16.185H62.6872C62.5526 14.2697 62.001 12.8536 61.0322 11.9364C60.0904 11.0193 58.8794 10.5607 57.3994 10.5607C55.8655 10.5607 54.6007 11.0462 53.6051 12.0173C52.6363 12.9615 52.0309 14.3507 51.7887 16.185Z" fill="#231F20"/>
<path d="M78.1604 28.9306V0.202312H84.1344L92.6514 23.7919L101.168 0.202312H107.142V28.9306H102.783V7.89017L95.0733 28.8902H90.2295L82.5198 7.89017V28.9306H78.1604Z" fill="#231F20"/>
<path d="M117.229 29.4162C114.995 29.4162 113.206 28.9037 111.86 27.8786C110.542 26.8536 109.882 25.4104 109.882 23.5491C109.882 21.6879 110.434 20.2447 111.537 19.2197C112.668 18.1676 114.403 17.4123 116.744 16.9538L124.131 15.5376C124.131 13.8651 123.741 12.6243 122.961 11.815C122.18 10.9788 121.023 10.5607 119.489 10.5607C118.117 10.5607 117.04 10.8709 116.26 11.4913C115.48 12.0848 114.941 12.975 114.645 14.1619L110.246 13.8786C110.649 11.7206 111.645 10.0212 113.233 8.78035C114.847 7.5395 116.933 6.91908 119.489 6.91908C122.395 6.91908 124.602 7.70135 126.109 9.2659C127.643 10.8035 128.41 12.975 128.41 15.7803V24.1561C128.41 24.6686 128.491 25.0328 128.652 25.2486C128.84 25.4374 129.136 25.5318 129.54 25.5318H130.307V28.9306C130.172 28.9576 129.957 28.9846 129.661 29.0116C129.365 29.0385 129.056 29.052 128.733 29.052C127.818 29.052 127.024 28.9037 126.351 28.6069C125.705 28.3102 125.221 27.8247 124.898 27.1503C124.575 26.4489 124.414 25.5183 124.414 24.3584L124.858 24.5607C124.642 25.5048 124.172 26.341 123.445 27.0694C122.745 27.7977 121.844 28.3777 120.741 28.8092C119.664 29.2139 118.494 29.4162 117.229 29.4162ZM117.915 26.0173C119.207 26.0173 120.31 25.7746 121.225 25.289C122.14 24.7765 122.853 24.0751 123.364 23.185C123.875 22.2948 124.131 21.2832 124.131 20.1503V18.7746L117.834 19.9884C116.543 20.2312 115.628 20.6224 115.089 21.1619C114.578 21.6744 114.323 22.3353 114.323 23.1445C114.323 24.0617 114.632 24.7765 115.251 25.289C115.897 25.7746 116.785 26.0173 117.915 26.0173Z" fill="#231F20"/>
<path d="M131.901 35V7.40463H135.938L136.059 12.0173L135.575 11.7746C136.113 10.183 137.001 8.98266 138.239 8.17341C139.476 7.33719 140.903 6.91908 142.517 6.91908C144.616 6.91908 146.338 7.44509 147.684 8.49711C149.056 9.52216 150.066 10.8844 150.711 12.5838C151.384 14.2832 151.72 16.1445 151.72 18.1676C151.72 20.1908 151.384 22.052 150.711 23.7514C150.066 25.4509 149.056 26.8266 147.684 27.8786C146.338 28.9037 144.616 29.4162 142.517 29.4162C141.441 29.4162 140.432 29.2274 139.49 28.8497C138.548 28.4721 137.741 27.9461 137.068 27.2717C136.422 26.5703 135.965 25.7476 135.696 24.8035L136.18 24.3179V35H131.901ZM141.75 25.6936C143.473 25.6936 144.818 25.0328 145.787 23.711C146.783 22.3892 147.28 20.5414 147.28 18.1676C147.28 15.7938 146.783 13.9461 145.787 12.6243C144.818 11.3025 143.473 10.6416 141.75 10.6416C140.62 10.6416 139.638 10.9249 138.804 11.4913C137.97 12.0308 137.324 12.8671 136.866 14C136.409 15.1329 136.18 16.5222 136.18 18.1676C136.18 19.8131 136.395 21.2023 136.826 22.3353C137.283 23.4682 137.929 24.3179 138.763 24.8844C139.624 25.4239 140.62 25.6936 141.75 25.6936Z" fill="#231F20"/>
<path d="M162.322 29.4162C160.25 29.4162 158.514 29.106 157.115 28.4855C155.742 27.8651 154.693 27.0154 153.966 25.9364C153.24 24.8304 152.822 23.5626 152.715 22.1329L157.115 21.9306C157.33 23.1175 157.828 24.0617 158.608 24.763C159.388 25.4644 160.626 25.815 162.322 25.815C163.667 25.815 164.69 25.5992 165.389 25.1676C166.116 24.736 166.479 24.0482 166.479 23.104C166.479 22.5645 166.358 22.1195 166.116 21.7688C165.874 21.4181 165.403 21.1214 164.703 20.8786C164.003 20.6089 162.967 20.3526 161.595 20.1098C159.496 19.7052 157.855 19.2331 156.671 18.6936C155.513 18.1272 154.693 17.4393 154.208 16.6301C153.724 15.7938 153.482 14.7823 153.482 13.5954C153.482 11.6262 154.222 10.0212 155.702 8.78035C157.182 7.5395 159.321 6.91908 162.12 6.91908C164.084 6.91908 165.699 7.25626 166.964 7.93063C168.228 8.57803 169.184 9.44123 169.829 10.5202C170.475 11.5992 170.865 12.7592 171 14L166.6 14.2428C166.573 13.5684 166.385 12.948 166.035 12.3815C165.712 11.815 165.228 11.3699 164.582 11.0462C163.936 10.6956 163.089 10.5202 162.039 10.5202C160.64 10.5202 159.604 10.79 158.931 11.3295C158.258 11.869 157.922 12.5703 157.922 13.4335C157.922 14.0809 158.056 14.6069 158.325 15.0116C158.595 15.4162 159.065 15.7534 159.738 16.0231C160.411 16.2659 161.312 16.4817 162.443 16.6705C164.622 17.0212 166.331 17.4798 167.569 18.0462C168.807 18.5857 169.668 19.2736 170.152 20.1098C170.664 20.9191 170.919 21.9037 170.919 23.0636C170.919 25.0867 170.125 26.6513 168.538 27.7572C166.977 28.8632 164.905 29.4162 162.322 29.4162Z" fill="#231F20"/>
</svg>
