<svg width="139" height="37" viewBox="0 0 139 37" fill="none" xmlns="http://www.w3.org/2000/svg">
<path d="M11.1266 32.2519C9.4927 32.2519 8.05458 31.9169 6.81223 31.2467C5.56988 30.5691 4.60235 29.6166 3.90964 28.3893C3.21693 27.1545 2.87058 25.7051 2.87058 24.0411C2.87058 22.8289 3.07388 21.7183 3.48046 20.7093C3.88705 19.7004 4.46305 18.827 5.20846 18.0891C5.95388 17.3437 6.83105 16.7714 7.83999 16.3724C8.85646 15.9658 9.96705 15.7625 11.1718 15.7625C12.4518 15.7625 13.536 15.9244 14.4245 16.2481C15.3129 16.5719 16.1111 17.0274 16.8188 17.6147L15.1247 20.3592C14.6654 19.9074 14.1195 19.5686 13.4871 19.3427C12.8621 19.1169 12.1656 19.0039 11.3976 19.0039C10.6146 19.0039 9.91058 19.1206 9.28564 19.354C8.66823 19.5874 8.14117 19.9225 7.70446 20.3592C7.27529 20.7884 6.94399 21.3117 6.71058 21.9291C6.4847 22.539 6.37176 23.2279 6.37176 23.9959C6.37176 25.05 6.57505 25.9498 6.98164 26.6952C7.39576 27.4331 7.98305 28.0016 8.74352 28.4006C9.51152 28.7997 10.4263 28.9992 11.488 28.9992C12.2259 28.9992 12.9487 28.8863 13.6565 28.6604C14.3718 28.4345 15.0456 28.0731 15.6781 27.5761L17.2141 30.3884C16.4687 30.9606 15.5953 31.4161 14.5939 31.755C13.5925 32.0863 12.4367 32.2519 11.1266 32.2519ZM19.2977 31.9131V15.6496H22.5956V22.9907L21.9066 22.1888C22.4036 21.5488 22.9984 21.0519 23.6911 20.698C24.3838 20.3441 25.133 20.1672 25.9386 20.1672C27.0003 20.1672 27.8812 20.378 28.5815 20.7997C29.2892 21.2213 29.8163 21.771 30.1626 22.4486C30.5165 23.1263 30.6935 23.8491 30.6935 24.6171V31.9131H27.3956V25.5545C27.3956 24.8467 27.1848 24.2745 26.7631 23.8378C26.3415 23.3936 25.7617 23.1677 25.0238 23.1601C24.5269 23.1601 24.0939 23.2656 23.725 23.4764C23.3636 23.6797 23.085 23.9771 22.8892 24.3686C22.6935 24.7526 22.5956 25.2044 22.5956 25.7239V31.9131H19.2977ZM33.7903 31.9131V20.506H37.0882V31.9131H33.7903ZM35.4393 18.699C34.8896 18.699 34.4153 18.5296 34.0162 18.1907C33.6172 17.8444 33.4176 17.3851 33.4176 16.8129C33.4176 16.2331 33.6172 15.7738 34.0162 15.435C34.4153 15.0886 34.8896 14.9154 35.4393 14.9154C35.9889 14.9154 36.4633 15.0886 36.8623 15.435C37.2614 15.7738 37.4609 16.2331 37.4609 16.8129C37.4609 17.3851 37.2614 17.8444 36.8623 18.1907C36.4633 18.5296 35.9889 18.699 35.4393 18.699ZM45.2445 32.2519C44.0248 32.2519 43.061 31.9093 42.3532 31.2241C41.653 30.5314 41.3029 29.4886 41.3029 28.0957V17.2194H44.6008V20.506H47.4356V23.1489H44.6008V27.4971C44.6008 28.1672 44.7401 28.6378 45.0186 28.9089C45.2972 29.1799 45.6699 29.3154 46.1368 29.3154C46.3777 29.3154 46.6111 29.2891 46.837 29.2364C47.0704 29.1761 47.285 29.0933 47.4808 28.9879L47.9438 31.5856C47.605 31.7738 47.1984 31.9319 46.7241 32.0599C46.2572 32.1879 45.7641 32.2519 45.2445 32.2519ZM38.9876 23.1489V20.506H41.6304V23.1489H38.9876ZM55.6109 32.2519C54.3836 32.2519 53.2956 31.9771 52.3469 31.4274C51.3982 30.8778 50.6528 30.1474 50.1107 29.2364C49.5761 28.3178 49.3088 27.3089 49.3088 26.2096C49.3088 25.4039 49.4632 24.6397 49.7719 23.9169C50.0806 23.1865 50.5173 22.5427 51.082 21.9856C51.6467 21.4208 52.3131 20.9766 53.0811 20.6528C53.8491 20.3291 54.6923 20.1672 55.6109 20.1672C56.8382 20.1672 57.9225 20.442 58.8636 20.9917C59.8123 21.5413 60.554 22.2754 61.0886 23.194C61.6307 24.1051 61.9018 25.1103 61.9018 26.2096C61.9018 27.0077 61.7474 27.7719 61.4387 28.5023C61.13 29.2326 60.6933 29.8801 60.1286 30.4449C59.5714 31.002 58.9088 31.4425 58.1408 31.7663C57.3728 32.09 56.5295 32.2519 55.6109 32.2519ZM55.6109 29.3945C56.1907 29.3945 56.7102 29.2665 57.1695 29.0105C57.6288 28.747 57.9902 28.378 58.2538 27.9037C58.5173 27.4218 58.6491 26.8571 58.6491 26.2096C58.6491 25.5545 58.5173 24.9898 58.2538 24.5154C57.9978 24.0411 57.6401 23.6759 57.1808 23.4199C56.7215 23.1564 56.1982 23.0246 55.6109 23.0246C55.0236 23.0246 54.4966 23.1564 54.0298 23.4199C53.5705 23.6759 53.2091 24.0411 52.9455 24.5154C52.6895 24.9898 52.5615 25.5545 52.5615 26.2096C52.5615 26.8646 52.6933 27.4293 52.9568 27.9037C53.2203 28.378 53.5818 28.747 54.0411 29.0105C54.5003 29.2665 55.0236 29.3945 55.6109 29.3945ZM68.299 32.2406C67.2825 32.2406 66.3451 32.1089 65.4868 31.8453C64.6284 31.5743 63.8943 31.2053 63.2844 30.7385L64.3573 28.4345C64.9522 28.8411 65.5959 29.1611 66.2886 29.3945C66.9813 29.6204 67.6477 29.7333 68.2877 29.7333C68.9202 29.7333 69.4058 29.6392 69.7446 29.451C70.091 29.2552 70.2642 28.9766 70.2642 28.6152C70.2642 28.2914 70.1098 28.0543 69.8011 27.9037C69.4999 27.7456 68.9126 27.5761 68.0392 27.3954C66.5333 27.1244 65.4341 26.699 64.7413 26.1192C64.0486 25.5319 63.7023 24.7263 63.7023 23.7023C63.7023 22.9794 63.9018 22.3432 64.3009 21.7936C64.7075 21.2439 65.2646 20.8185 65.9724 20.5173C66.6802 20.2086 67.4933 20.0543 68.4119 20.0543C69.3155 20.0543 70.1663 20.1785 70.9644 20.427C71.7701 20.6679 72.459 21.0067 73.0312 21.4434L71.9922 23.7587C71.691 23.5178 71.3446 23.307 70.9531 23.1263C70.5691 22.9456 70.1625 22.8063 69.7333 22.7084C69.3117 22.603 68.8976 22.5503 68.491 22.5503C67.9413 22.5503 67.4971 22.6444 67.1583 22.8326C66.8195 23.0133 66.6501 23.2693 66.6501 23.6006C66.6501 23.9319 66.8044 24.1766 67.1131 24.3347C67.4218 24.4929 67.9978 24.666 68.8411 24.8543C70.4148 25.1856 71.5329 25.626 72.1955 26.1757C72.8656 26.7178 73.2006 27.482 73.2006 28.4684C73.2006 29.2289 72.9936 29.8914 72.5795 30.4561C72.1729 31.0209 71.6006 31.4613 70.8628 31.7776C70.1324 32.0863 69.2778 32.2406 68.299 32.2406ZM81.0771 32.2519C79.8347 32.2519 78.7429 31.9997 77.8018 31.4952C76.8606 30.9907 76.1265 30.2867 75.5994 29.3832C75.0723 28.4797 74.8088 27.4218 74.8088 26.2096C74.8088 25.3286 74.9594 24.5192 75.2606 23.7813C75.5693 23.0434 75.9985 22.4072 76.5481 21.8726C77.1053 21.3305 77.7566 20.9126 78.502 20.619C79.2549 20.3178 80.0794 20.1672 80.9754 20.1672C81.9618 20.1672 82.8352 20.3404 83.5956 20.6867C84.3636 21.0331 84.9999 21.5187 85.5043 22.1437C86.0088 22.7611 86.3589 23.4877 86.5547 24.3234C86.758 25.1592 86.7768 26.0665 86.6112 27.0453H77.8695C77.8695 27.5724 78.0051 28.0317 78.2761 28.4232C78.5547 28.8147 78.9425 29.1234 79.4394 29.3493C79.9439 29.5677 80.5312 29.6769 81.2013 29.6769C81.8639 29.6769 82.4963 29.5865 83.0987 29.4058C83.7011 29.2251 84.2695 28.9503 84.8041 28.5813L85.8996 30.8401C85.5382 31.1187 85.0865 31.3672 84.5443 31.5856C84.0022 31.7964 83.4262 31.9583 82.8163 32.0712C82.214 32.1917 81.6342 32.2519 81.0771 32.2519ZM78.0615 24.7752H83.4488C83.4262 24.1051 83.1891 23.5743 82.7373 23.1827C82.2931 22.7912 81.6794 22.5954 80.8963 22.5954C80.1133 22.5954 79.462 22.7912 78.9425 23.1827C78.4305 23.5743 78.1368 24.1051 78.0615 24.7752Z" fill="url(#paint0_linear_778_13108)"/>
<path d="M90.3529 32.2519C89.7806 32.2519 89.2837 32.0712 88.8621 31.7098C88.4479 31.3409 88.2409 30.8514 88.2409 30.2416C88.2409 29.8274 88.335 29.4698 88.5232 29.1686C88.719 28.8674 88.975 28.634 89.2912 28.4684C89.615 28.3027 89.9689 28.2199 90.3529 28.2199C90.9326 28.2199 91.4296 28.4044 91.8437 28.7733C92.2653 29.1347 92.4762 29.6241 92.4762 30.2416C92.4762 30.6557 92.3783 31.0133 92.1825 31.3145C91.9868 31.6157 91.727 31.8453 91.4032 32.0034C91.087 32.1691 90.7369 32.2519 90.3529 32.2519ZM102.296 32.2519C100.662 32.2519 99.2237 31.9169 97.9813 31.2467C96.739 30.5691 95.7715 29.6166 95.0788 28.3893C94.3861 27.1545 94.0397 25.7051 94.0397 24.0411C94.0397 22.8289 94.243 21.7183 94.6496 20.7093C95.0562 19.7004 95.6322 18.827 96.3776 18.0891C97.123 17.3437 98.0002 16.7714 99.0091 16.3724C100.026 15.9658 101.136 15.7625 102.341 15.7625C103.621 15.7625 104.705 15.9244 105.594 16.2481C106.482 16.5719 107.28 17.0274 107.988 17.6147L106.294 20.3592C105.835 19.9074 105.289 19.5686 104.656 19.3427C104.031 19.1169 103.335 19.0039 102.567 19.0039C101.784 19.0039 101.08 19.1206 100.455 19.354C99.8373 19.5874 99.3103 19.9225 98.8736 20.3592C98.4444 20.7884 98.1131 21.3117 97.8797 21.9291C97.6538 22.539 97.5409 23.2279 97.5409 23.9959C97.5409 25.05 97.7442 25.9498 98.1508 26.6952C98.5649 27.4331 99.1522 28.0016 99.9126 28.4006C100.681 28.7997 101.595 28.9992 102.657 28.9992C103.395 28.9992 104.118 28.8863 104.826 28.6604C105.541 28.4345 106.215 28.0731 106.847 27.5761L108.383 30.3884C107.638 30.9606 106.764 31.4161 105.763 31.755C104.762 32.0863 103.606 32.2519 102.296 32.2519ZM110.467 31.9131V20.506H113.765V31.9131H110.467ZM112.116 18.699C111.566 18.699 111.092 18.5296 110.693 18.1907C110.294 17.8444 110.094 17.3851 110.094 16.8129C110.094 16.2331 110.294 15.7738 110.693 15.435C111.092 15.0886 111.566 14.9154 112.116 14.9154C112.665 14.9154 113.14 15.0886 113.539 15.435C113.938 15.7738 114.137 16.2331 114.137 16.8129C114.137 17.3851 113.938 17.8444 113.539 18.1907C113.14 18.5296 112.665 18.699 112.116 18.699ZM121.921 32.2519C120.701 32.2519 119.737 31.9093 119.03 31.2241C118.329 30.5314 117.979 29.4886 117.979 28.0957V17.2194H121.277V20.506H124.112V23.1489H121.277V27.4971C121.277 28.1672 121.417 28.6378 121.695 28.9089C121.974 29.1799 122.346 29.3154 122.813 29.3154C123.054 29.3154 123.288 29.2891 123.513 29.2364C123.747 29.1761 123.961 29.0933 124.157 28.9879L124.62 31.5856C124.281 31.7738 123.875 31.9319 123.401 32.0599C122.934 32.1879 122.441 32.2519 121.921 32.2519ZM115.664 23.1489V20.506H118.307V23.1489H115.664ZM128.424 36.9616C127.942 36.9616 127.468 36.9126 127.001 36.8147C126.534 36.7169 126.093 36.555 125.679 36.3291L126.391 33.5507C126.632 33.6863 126.895 33.7917 127.181 33.867C127.475 33.9423 127.746 33.9799 127.995 33.9799C128.446 33.9799 128.819 33.882 129.113 33.6863C129.406 33.4905 129.625 33.1705 129.768 32.7263L130.005 32.0034L125.555 20.506H129.135L131.868 28.6604L134.523 20.506H138.012L133.224 33.2119C132.847 34.1606 132.414 34.906 131.925 35.4481C131.436 35.9978 130.897 36.3856 130.31 36.6114C129.723 36.8449 129.094 36.9616 128.424 36.9616Z" fill="#383838"/>
<path opacity="0.86" d="M6.82324 1.63867L9.41992 4.23535L9.00391 4.65137L7.40918 6.24512C8.41483 6.68373 9.12724 7.6672 9.17285 8.82324H12.4707V9.95605L16.5879 11.626L20.7061 9.95605V6.27344L21.001 6.10352L27.5889 2.31348L27.8818 2.14453L28.1758 2.31348L34.7637 6.10352L35.0586 6.27344V9.94434L42.207 12.625L42.5879 12.7686V16H41.4121V13.583L35.0586 11.2012V14.1172H33.8818V6.9541L27.8818 3.50098L21.8818 6.9541V9.47949H21.8828V14.1172H20.7061V11.2256L16.8096 12.8057L16.5889 12.8955L16.3672 12.8057L12.4707 11.2246V14.1172H11.2939V10H8V8.94141C8 7.96692 7.20979 7.17698 6.23535 7.17676C5.26093 7.17699 4.4707 7.96693 4.4707 8.94141V10H1.17578V32H0V8.82324H3.29688C3.34247 7.66738 4.05516 6.68384 5.06055 6.24512L3.46582 4.65137L3.0498 4.23535L5.64648 1.63867V0H6.82324V1.63867ZM47.2949 6H48.2363V8.82324H49.8389L49.625 9.57324L48.7139 12.7578L49.2549 18.2959L49.2578 18.3242V18.8232H48.0811V18.3799L47.5332 12.7627L47.5215 12.6514L47.5527 12.5439L48.2803 10H45.1328L45.8604 12.5439L45.8906 12.6514L45.8799 12.7627L45.6074 15.5566V16H44.4307V15.501L44.4336 15.4727L44.6982 12.7578L43.7881 9.57324L43.5732 8.82324H45.1768V6H46.1182V0H47.2949V6ZM70.8232 9.76465H75.2939V6H80.832L86.8232 11.9912V18.8232H85.6475V12.4795L80.3438 7.17578H76.4707V18.8232H75.2939V10.9404H70.8232V18.8232H69.6465V3.41113H61.4111V12.1182H61.4121V18.8232H60.2354V13.2939H52V18.8232H50.8242V12.1182H60.2354V2.23535H70.8232V9.76465ZM68.4658 5.24902L67.9951 9.01367L67.9307 9.5293H63.1279L63.0635 9.01367L62.5928 5.24902L62.5098 4.58789H68.5488L68.4658 5.24902ZM46.3535 8.82324H47.0596V7.17676H46.3535V8.82324ZM64.166 8.35254H66.8926L67.2158 5.76465H63.8428L64.166 8.35254ZM4.71387 4.23438L6.23438 5.75586L7.75586 4.23438L6.23438 2.71387L4.71387 4.23438Z" fill="url(#paint1_linear_778_13108)"/>
<defs>
<linearGradient id="paint0_linear_778_13108" x1="1.92188" y1="23.9131" x2="138.922" y2="23.9131" gradientUnits="userSpaceOnUse">
<stop stop-color="#00AA82"/>
<stop offset="1" stop-color="#08795E"/>
</linearGradient>
<linearGradient id="paint1_linear_778_13108" x1="32.9605" y1="-0.136316" x2="32.9605" y2="31.9059" gradientUnits="userSpaceOnUse">
<stop stop-color="#00926F"/>
<stop offset="0.568824" stop-color="#00926F" stop-opacity="0.431176"/>
<stop offset="1" stop-color="#00926F" stop-opacity="0"/>
</linearGradient>
</defs>
</svg>
