<svg width="329" height="264" viewBox="0 0 329 264" fill="none" xmlns="http://www.w3.org/2000/svg">
<mask id="mask0_884_2265" style="mask-type:alpha" maskUnits="userSpaceOnUse" x="65" y="6" width="199" height="158">
<rect x="65.5" y="6" width="198" height="158" fill="#D9D9D9"/>
</mask>
<g mask="url(#mask0_884_2265)">
<path d="M84.5 0V170" stroke="#01A9AA" stroke-width="8"/>
<path d="M59.5 25H269.5" stroke="#E70034" stroke-width="8"/>
<path d="M59.5 85H269.5" stroke="#D19708" stroke-width="8"/>
<path d="M164.5 170V0" stroke="#019BC1" stroke-width="8"/>
<path d="M269.5 145H59.5" stroke="#C23931" stroke-width="8"/>
<path d="M244.5 0V170" stroke="#D6A7A1" stroke-width="8"/>
<rect x="156.5" y="137" width="16" height="16" rx="6" fill="white" stroke="#231F20" stroke-width="3"/>
<rect x="156.5" y="77" width="16" height="16" rx="6" fill="white" stroke="#231F20" stroke-width="3"/>
<rect x="156.5" y="17" width="16" height="16" rx="6" fill="white" stroke="#231F20" stroke-width="3"/>
<rect x="236.5" y="77" width="16" height="16" rx="6" fill="white" stroke="#231F20" stroke-width="3"/>
<rect x="236.5" y="17" width="16" height="16" rx="6" fill="white" stroke="#231F20" stroke-width="3"/>
<rect x="236.5" y="137" width="16" height="16" rx="6" fill="white" stroke="#231F20" stroke-width="3"/>
<rect x="76.5" y="17" width="16" height="16" rx="6" fill="white" stroke="#231F20" stroke-width="3"/>
<rect x="76.5" y="77" width="16" height="16" rx="6" fill="white" stroke="#231F20" stroke-width="3"/>
<rect x="76.5" y="137" width="16" height="16" rx="6" fill="white" stroke="#231F20" stroke-width="3"/>
<path opacity="0.5" d="M96.0356 36.5361L105.107 36.5361M96.0356 36.5361L106.4 46.9001M96.0356 36.5361L96.0356 45.6072" stroke="#231F20" stroke-width="2"/>
<path opacity="0.5" d="M232.864 36.5361L223.793 36.5361M232.864 36.5361L222.5 46.9001M232.864 36.5361L232.864 45.6072" stroke="#231F20" stroke-width="2"/>
<path opacity="0.5" d="M96.0356 132.9H105.107M96.0356 132.9L106.4 122.536M96.0356 132.9L96.0356 123.829" stroke="#231F20" stroke-width="2"/>
<path opacity="0.5" d="M232.864 132.9H223.793M232.864 132.9L222.5 122.536M232.864 132.9L232.864 123.829" stroke="#231F20" stroke-width="2"/>
</g>
<path d="M103.426 189.206C102.292 187.622 100.996 186.128 99.538 184.724L101.374 183.266C102.67 184.436 103.984 185.876 105.316 187.586L103.426 189.206ZM106.126 184.211H121.786V205.028C121.786 205.928 121.57 206.576 121.138 206.972C120.724 207.386 120.022 207.593 119.032 207.593H116.278L115.792 205.46H114.091C113.137 205.46 112.462 205.262 112.066 204.866C111.688 204.47 111.499 203.786 111.499 202.814V198.845H109.447C109.375 200.609 108.898 202.049 108.016 203.165C107.152 204.281 105.694 205.28 103.642 206.162L102.481 204.164C104.173 203.57 105.37 202.877 106.072 202.085C106.792 201.275 107.188 200.195 107.26 198.845H104.128V191.771H107.395C106.801 190.655 106.207 189.719 105.613 188.963L107.53 187.856C108.304 188.954 108.925 189.971 109.393 190.907L107.665 191.771H111.256C112.048 190.511 112.696 189.197 113.2 187.829L115.306 188.531C114.82 189.755 114.289 190.835 113.713 191.771H116.683V198.845H113.713V202.733C113.713 203.057 113.767 203.273 113.875 203.381C113.983 203.489 114.19 203.543 114.496 203.543H115.981V200.519L117.979 201.221V203.462C117.979 203.948 117.907 204.344 117.763 204.65C117.637 204.938 117.421 205.145 117.115 205.271H119.248V186.56H106.153L106.126 184.211ZM101.698 207.944H99.187V189.611H101.698V207.944ZM114.415 193.715H106.369V196.901H114.415V193.715ZM145.222 195.335C145.618 194.831 145.987 194.291 146.329 193.715C146.671 193.121 146.932 192.572 147.112 192.068H133.504V190.016H140.2V187.829H134.098V185.804H140.2V183.401H142.549V185.804H148.921V187.829H142.549V190.016H149.542V191.717C149.128 193.265 148.327 194.84 147.139 196.442L145.222 195.335ZM130.723 189.719C130.111 188.963 129.391 188.153 128.563 187.289C127.753 186.425 127.015 185.696 126.349 185.102L127.969 183.536C129.355 184.85 130.804 186.38 132.316 188.126L130.723 189.719ZM133.396 203.786C132.712 204.326 131.893 204.929 130.939 205.595C129.985 206.261 129.121 206.828 128.347 207.296L127.348 205.298C127.69 205.082 127.915 204.866 128.023 204.65C128.131 204.416 128.185 204.038 128.185 203.516V193.526H125.08V191.393H130.426V203.354C131.182 202.832 131.884 202.319 132.532 201.815L133.396 203.786ZM139.363 196.685C138.211 195.695 136.888 194.75 135.394 193.85L136.528 192.365C137.878 193.157 139.201 194.102 140.497 195.2L139.363 196.685ZM149.893 206.297L148.705 208.16L142.036 204.002C141.874 203.894 141.739 203.84 141.631 203.84C141.505 203.84 141.379 203.903 141.253 204.029C140.497 204.767 139.507 205.46 138.283 206.108C137.059 206.756 135.475 207.422 133.531 208.106L132.586 206.108C135.034 205.262 136.825 204.506 137.959 203.84C139.111 203.156 139.912 202.337 140.362 201.383H132.991V199.25H137.5C136.222 198.206 134.899 197.306 133.531 196.55L134.692 195.065C136.024 195.803 137.365 196.73 138.715 197.846L137.608 199.25H140.875C140.929 198.782 140.956 198.278 140.956 197.738V192.959H143.17V197.576C143.17 198.044 143.152 198.602 143.116 199.25H149.839V201.383H142.738C142.594 201.959 142.333 202.535 141.955 203.111L142.144 203.219L142.684 202.679C142.882 202.481 143.08 202.382 143.278 202.382C143.458 202.382 143.647 202.445 143.845 202.571L149.893 206.297ZM176.461 195.065H164.905C164.311 197.873 163.132 200.303 161.368 202.355C159.604 204.407 157.039 206.261 153.673 207.917L152.323 205.622C155.275 204.236 157.534 202.706 159.1 201.032C160.666 199.34 161.728 197.351 162.286 195.065H152.539V192.716H162.691C162.799 191.744 162.853 190.727 162.853 189.665V187.1H153.646V184.724H175.354V187.1H165.418V189.476C165.418 190.61 165.364 191.69 165.256 192.716H176.461V195.065ZM174.301 199.898L176.704 200.627V204.704C176.704 205.658 176.488 206.351 176.056 206.783C175.624 207.233 174.958 207.458 174.058 207.458H168.685C167.335 207.458 166.372 207.197 165.796 206.675C165.238 206.153 164.959 205.28 164.959 204.056V196.847H167.524V203.516C167.524 204.146 167.632 204.56 167.848 204.758C168.064 204.956 168.514 205.055 169.198 205.055H174.301V199.898ZM184.021 186.803V190.826C184.021 194.516 183.787 197.774 183.319 200.6C182.851 203.426 182.068 205.847 180.97 207.863L178.837 205.919C179.791 204.209 180.457 202.148 180.835 199.736C181.231 197.306 181.429 194.318 181.429 190.772V184.454H203.569V186.803H184.021ZM195.037 196.469V204.812H203.839V207.161H183.967V204.812H192.472V196.469H185.56V194.147H192.472V188.072H195.037V194.147H202.57V196.469H195.037ZM200.194 203.786C199.168 202.004 198.052 200.429 196.846 199.061L198.736 197.846C200.068 199.286 201.193 200.834 202.111 202.49L200.194 203.786ZM229.273 188.504V190.259C229.273 196.379 228.976 200.744 228.382 203.354C228.04 204.794 227.419 205.811 226.519 206.405C225.637 207.017 224.368 207.323 222.712 207.323H218.824L218.203 204.731H222.307C223.387 204.731 224.179 204.578 224.683 204.272C225.187 203.948 225.556 203.372 225.79 202.544C226.042 201.554 226.24 200.132 226.384 198.278C226.528 196.424 226.6 194.453 226.6 192.365V190.934H218.014C217.888 193.67 217.51 196.028 216.88 198.008C216.25 199.988 215.233 201.788 213.829 203.408C212.425 205.01 210.499 206.513 208.051 207.917L206.431 205.649C208.609 204.425 210.328 203.129 211.588 201.761C212.848 200.375 213.766 198.827 214.342 197.117C214.918 195.407 215.269 193.346 215.395 190.934H207.025V188.504H215.449V188.153V183.509H218.068V188.288V188.504H229.273Z" fill="#231F20"/>
<path d="M9.652 224.736V220.64H10.868V235.2H9.652V231.088C8.36133 231.877 6.95867 232.539 5.444 233.072L5.06 231.904C6.93733 231.275 8.468 230.555 9.652 229.744V225.888H5.236V224.736H9.652ZM18.404 233.92V230.112L19.556 230.464V233.872C19.556 234.309 19.46 234.619 19.268 234.8C19.0867 234.992 18.7773 235.088 18.34 235.088H15.556C14.82 235.088 14.2973 234.933 13.988 234.624C13.6787 234.325 13.524 233.813 13.524 233.088V220.64H14.74V226.176C16.276 225.387 17.6147 224.416 18.756 223.264L19.556 224.128C18.9693 224.715 18.2547 225.301 17.412 225.888C16.5693 226.464 15.6787 226.992 14.74 227.472V232.976C14.74 233.339 14.8093 233.589 14.948 233.728C15.0973 233.856 15.364 233.92 15.748 233.92H18.404ZM35.748 222.336V223.44H21.252V222.336H28.052C27.8173 221.867 27.54 221.376 27.22 220.864L28.324 220.432C28.772 221.221 29.1027 221.856 29.316 222.336H35.748ZM33.796 229.152H29.204V233.712C29.204 234.171 29.092 234.507 28.868 234.72C28.6547 234.933 28.3133 235.04 27.844 235.04H25.828L25.556 233.936H27.988V229.152H23.204V224.656H33.796V229.152ZM32.612 225.712H24.388V228.096H32.612V225.712ZM25.828 230.576C25.3907 231.355 24.836 232.101 24.164 232.816C23.5027 233.531 22.772 234.165 21.972 234.72L21.22 233.808C22.0413 233.253 22.7453 232.672 23.332 232.064C23.9293 231.445 24.4307 230.763 24.836 230.016L25.828 230.576ZM32.084 230.128C33.396 231.28 34.6067 232.533 35.716 233.888L34.82 234.688C34.2227 233.931 33.6413 233.253 33.076 232.656C32.5107 232.059 31.9027 231.472 31.252 230.896L32.084 230.128ZM51.684 224H45.012V226.192H50.628V232.208C50.628 232.688 50.5107 233.04 50.276 233.264C50.052 233.477 49.7 233.584 49.22 233.584H46.852L46.516 232.448H49.396V227.312H45.012V235.2H43.732V227.312H39.716V233.776H38.484V226.192H43.732V224H37.332V222.864H44.372C43.9347 222.192 43.4707 221.584 42.98 221.04L43.988 220.4C44.4787 220.955 44.9853 221.627 45.508 222.416L44.772 222.864H51.684V224ZM55.3 222.48V233.264H67.46V234.448H54.036V221.312H67.332V222.48H55.3ZM56.324 231.376C57.9667 230.341 59.4653 229.173 60.82 227.872C59.4227 226.635 58.1213 225.568 56.916 224.672L57.748 223.728C59.0387 224.709 60.3507 225.797 61.684 226.992C62.8467 225.765 63.8173 224.512 64.596 223.232L65.652 223.92C64.8307 225.221 63.8173 226.517 62.612 227.808C64.0947 229.173 65.3213 230.368 66.292 231.392L65.428 232.304C64.2653 231.088 63.0333 229.888 61.732 228.704C60.292 230.112 58.7507 231.349 57.108 232.416L56.324 231.376ZM83.252 223.024V225.072C83.252 226.181 83.2147 227.397 83.14 228.72C83.076 230.032 82.9747 231.184 82.836 232.176C82.708 233.189 82.452 233.915 82.068 234.352C81.684 234.789 81.0653 235.008 80.212 235.008H78.1L77.78 233.84H80.084C80.5853 233.84 80.948 233.707 81.172 233.44C81.396 233.173 81.5507 232.731 81.636 232.112C81.7747 231.216 81.876 230.123 81.94 228.832C82.004 227.541 82.036 226.293 82.036 225.088V224.176H77.828C77.22 225.488 76.5373 226.603 75.78 227.52L74.996 226.72V233.84H70.884V235.2H69.684V222.448H71.428C71.6627 221.936 71.876 221.285 72.068 220.496L73.204 220.768C73.044 221.376 72.8413 221.936 72.596 222.448H74.996V226.544C75.668 225.723 76.244 224.784 76.724 223.728C77.2147 222.672 77.5827 221.589 77.828 220.48L78.964 220.768C78.8147 221.451 78.5907 222.203 78.292 223.024H83.252ZM73.828 227.36V223.52H70.868V227.36H73.828ZM79.604 231.056C79.284 230.373 78.9 229.653 78.452 228.896C78.0147 228.139 77.5773 227.461 77.14 226.864L78.052 226.192C78.4893 226.768 78.932 227.44 79.38 228.208C79.828 228.965 80.228 229.701 80.58 230.416L79.604 231.056ZM70.868 228.432V232.768H73.828V228.432H70.868ZM91.876 231.584C90.8093 231.808 90.0467 231.957 89.588 232.032V235.216H88.468V232.24C87.636 232.379 86.5747 232.544 85.284 232.736L85.076 231.664C85.94 231.547 87.0707 231.376 88.468 231.152V228.56H85.588V227.632C86.0147 226.683 86.4467 225.339 86.884 223.6H85.236V222.544H87.14C87.2787 221.904 87.4067 221.253 87.524 220.592L88.628 220.768L88.26 222.544H91.46V223.6H88.004C87.5773 225.328 87.172 226.629 86.788 227.504H88.516V224.752H89.588V227.504H91.412V228.56H89.588V230.944C90.0787 230.859 90.804 230.72 91.764 230.528L91.876 231.584ZM98.868 230.048L99.892 230.448V233.808C99.892 234.213 99.8067 234.501 99.636 234.672C99.476 234.853 99.2147 234.944 98.852 234.944H98.02C97.4973 234.944 97.1293 234.827 96.916 234.592C96.7133 234.368 96.612 233.979 96.612 233.424V224.8H94.756C94.7453 226.432 94.66 227.867 94.5 229.104C94.34 230.331 94.052 231.461 93.636 232.496C93.2307 233.52 92.66 234.448 91.924 235.28L91.028 234.32C92.0093 233.221 92.6867 231.941 93.06 230.48C93.4333 229.019 93.62 227.125 93.62 224.8H91.716V223.68H93.62L93.604 220.624H94.74L94.756 223.68H97.78V233.2C97.78 233.456 97.812 233.621 97.876 233.696C97.9507 233.771 98.1053 233.808 98.34 233.808H98.868V230.048ZM109.348 224.8C109.561 224.437 109.753 224.021 109.924 223.552H105.476V222.544H111.54C112.02 221.883 112.409 221.221 112.708 220.56L113.78 220.928C113.471 221.525 113.129 222.064 112.756 222.544H115.668V223.552H111.076C110.937 223.936 110.756 224.352 110.532 224.8H114.676V232.416H106.388V224.8H109.348ZM108.196 222.448C107.993 222.021 107.668 221.525 107.22 220.96L108.308 220.576C108.735 221.099 109.06 221.605 109.284 222.096L108.196 222.448ZM104.02 224.576C103.743 224.075 103.396 223.536 102.98 222.96C102.575 222.373 102.196 221.867 101.844 221.44L102.804 220.784C103.156 221.221 103.535 221.728 103.94 222.304C104.345 222.88 104.697 223.424 104.996 223.936L104.02 224.576ZM107.508 227.008H113.492V225.776H107.508V227.008ZM116.004 233.76L115.78 234.864H108.516C107.705 234.864 107.049 234.816 106.548 234.72C106.057 234.624 105.652 234.48 105.332 234.288C105.023 234.096 104.697 233.824 104.356 233.472C104.239 233.355 104.143 233.275 104.068 233.232C104.004 233.189 103.94 233.168 103.876 233.168C103.748 233.168 103.54 233.317 103.252 233.616C102.964 233.904 102.548 234.395 102.004 235.088L101.14 234.256C101.993 233.136 102.681 232.443 103.204 232.176V227.136H101.268V226.048H104.372V232.16C104.511 232.235 104.665 232.363 104.836 232.544C105.113 232.843 105.396 233.077 105.684 233.248C105.972 233.419 106.335 233.547 106.772 233.632C107.209 233.717 107.775 233.76 108.468 233.76H116.004ZM113.492 227.936H107.508V229.168H113.492V227.936ZM107.508 230.096V231.44H113.492V230.096H107.508ZM131.748 222.816V223.984H117.252V222.816H124.116C123.849 222.219 123.513 221.584 123.108 220.912L124.276 220.416C124.735 221.248 125.129 222.048 125.46 222.816H131.748ZM122.804 224.912C121.588 226.469 120.047 227.707 118.18 228.624L117.492 227.616C119.412 226.624 120.863 225.477 121.844 224.176L122.804 224.912ZM130.724 228.768C129.231 227.307 127.743 226.091 126.26 225.12L127.028 224.208C127.817 224.709 128.569 225.259 129.284 225.856C130.009 226.443 130.767 227.104 131.556 227.84L130.724 228.768ZM128.34 227.92C127.412 229.349 126.436 230.512 125.412 231.408C126.191 231.92 127.039 232.336 127.956 232.656C128.873 232.976 130.127 233.349 131.716 233.776L131.284 234.944C129.769 234.571 128.473 234.181 127.396 233.776C126.319 233.36 125.327 232.832 124.42 232.192C123.535 232.832 122.559 233.36 121.492 233.776C120.436 234.192 119.177 234.581 117.716 234.944L117.284 233.776C118.767 233.392 119.967 233.035 120.884 232.704C121.812 232.373 122.665 231.947 123.444 231.424C122.441 230.549 121.487 229.424 120.58 228.048L121.572 227.392C122.511 228.779 123.46 229.872 124.42 230.672C125.412 229.829 126.383 228.693 127.332 227.264L128.34 227.92ZM136.356 224.56C136.036 224.069 135.652 223.536 135.204 222.96C134.756 222.384 134.34 221.893 133.956 221.488L134.9 220.768C135.284 221.184 135.7 221.68 136.148 222.256C136.607 222.821 136.996 223.355 137.316 223.856L136.356 224.56ZM138.916 229.872V232.704H137.796V224.304H141.972C141.065 223.888 140.196 223.52 139.364 223.2L140.036 222.448C140.847 222.768 141.663 223.12 142.484 223.504C143.081 223.216 143.583 222.96 143.988 222.736C144.404 222.501 144.772 222.261 145.092 222.016H137.988V221.04H146.804V221.952C146.068 222.667 144.996 223.36 143.588 224.032L144.132 224.304H147.252V231.568C147.252 231.952 147.177 232.219 147.028 232.368C146.879 232.507 146.623 232.576 146.26 232.576H144.436L144.212 231.696H146.132V229.872H142.98V232.624H141.876V229.872H138.916ZM141.876 226.64V225.248H138.916V226.64H141.876ZM142.98 226.64H146.132V225.248H142.98V226.64ZM148.004 233.76L147.78 234.864H140.532C139.721 234.864 139.065 234.816 138.564 234.72C138.073 234.624 137.668 234.48 137.348 234.288C137.028 234.096 136.697 233.824 136.356 233.472C136.239 233.355 136.143 233.275 136.068 233.232C136.004 233.189 135.94 233.168 135.876 233.168C135.748 233.168 135.54 233.317 135.252 233.616C134.964 233.904 134.548 234.395 134.004 235.088L133.14 234.256C133.983 233.157 134.671 232.469 135.204 232.192V227.136H133.268V226.064H136.372V232.176C136.553 232.272 136.703 232.395 136.82 232.544C137.108 232.843 137.396 233.077 137.684 233.248C137.972 233.419 138.335 233.547 138.772 233.632C139.22 233.717 139.791 233.76 140.484 233.76H148.004ZM138.916 227.552V228.96H141.876V227.552H138.916ZM142.98 227.552V228.96H146.132V227.552H142.98ZM150.724 222.992V224.88H149.604V221.968H156.004C155.833 221.648 155.604 221.269 155.316 220.832L156.388 220.416C156.772 221.035 157.065 221.552 157.268 221.968H163.396V224.912H162.244V222.992H150.724ZM157.076 225.744C156.745 225.445 156.356 225.141 155.908 224.832C155.471 224.523 155.039 224.251 154.612 224.016L155.252 223.216C155.636 223.419 156.063 223.685 156.532 224.016C157.012 224.336 157.423 224.64 157.764 224.928L157.076 225.744ZM154.82 229.632C154.265 229.632 153.855 229.509 153.588 229.264C152.287 229.819 150.916 230.304 149.476 230.72L149.076 229.696C150.612 229.291 151.999 228.827 153.236 228.304C153.225 228.251 153.22 228.155 153.22 228.016V224.56H154.356V227.808C155.497 227.253 156.5 226.645 157.364 225.984C158.228 225.312 159.007 224.565 159.7 223.744L160.612 224.4C159.247 226.032 157.359 227.445 154.948 228.64H155.044H159.684V226.8L160.772 227.104V228.528C160.772 228.923 160.676 229.205 160.484 229.376C160.303 229.547 159.999 229.632 159.572 229.632H154.82ZM152.564 225.456C152.052 226.597 151.252 227.669 150.164 228.672L149.316 227.936C150.329 227.051 151.087 226.059 151.588 224.96L152.564 225.456ZM161.252 225.008C161.711 225.435 162.185 225.952 162.676 226.56C163.177 227.157 163.577 227.717 163.876 228.24L162.98 228.912C162.66 228.379 162.255 227.808 161.764 227.2C161.273 226.592 160.815 226.08 160.388 225.664L161.252 225.008ZM156.996 233.472L161.204 233.408V230.752H162.388V235.216H161.204V234.432L150.66 234.624V230.928H151.828V233.536L155.78 233.488V230.272H156.996V233.472ZM179.732 221.776V222.816H167.556V225.856C167.556 228.171 167.449 230.048 167.236 231.488C167.033 232.917 166.649 234.16 166.084 235.216L165.06 234.4C165.561 233.472 165.903 232.363 166.084 231.072C166.276 229.781 166.372 228.037 166.372 225.84V221.776H172.5C172.383 221.552 172.175 221.216 171.876 220.768L172.964 220.384C173.199 220.704 173.465 221.168 173.764 221.776H179.732ZM175.908 223.392H177.076V224.896H179.732V225.904H177.076V228.368H170.356V225.904H168.1V224.896H170.356V223.392H171.508V224.896H175.908V223.392ZM171.508 227.408H175.908V225.872H171.508V227.408ZM178.292 230.208C177.577 231.339 176.484 232.315 175.012 233.136C176.271 233.573 177.823 233.92 179.668 234.176L179.348 235.216C177.129 234.907 175.247 234.421 173.7 233.76C172.057 234.453 170.084 234.944 167.78 235.232L167.476 234.192C169.332 233.989 170.969 233.632 172.388 233.12C171.503 232.651 170.617 232.048 169.732 231.312L170.5 230.56C171.513 231.403 172.575 232.08 173.684 232.592C174.996 231.984 176.009 231.248 176.724 230.384H168.468V229.392H178.292V230.208ZM195.604 222.8V223.872H187.22V222.8H191.14C190.799 222.149 190.404 221.525 189.956 220.928L190.9 220.432C191.412 221.136 191.833 221.824 192.164 222.496L191.54 222.8H195.604ZM186.836 231.568L184.996 232V235.216H183.876V232.224C183.033 232.395 182.169 232.555 181.284 232.704L181.06 231.648C181.924 231.52 182.863 231.349 183.876 231.136V228.544H181.492V227.648C181.876 226.624 182.249 225.264 182.612 223.568H181.188V222.544H182.82C182.948 221.904 183.06 221.253 183.156 220.592L184.244 220.768L183.924 222.544H186.756V223.568H183.7C183.337 225.264 182.98 226.576 182.628 227.504H183.956V224.704H184.996V227.504H186.452V228.544H184.996V230.912L186.74 230.512L186.836 231.568ZM190.468 224.608C189.807 226.165 188.799 227.525 187.444 228.688L186.788 227.744C187.385 227.264 187.913 226.715 188.372 226.096C188.841 225.467 189.22 224.811 189.508 224.128L190.468 224.608ZM193.14 224.144C194.164 225.317 195.065 226.64 195.844 228.112L194.916 228.768C194.148 227.264 193.268 225.931 192.276 224.768L193.14 224.144ZM192.068 231.696C193.028 232.763 194.292 233.643 195.86 234.336L195.284 235.408C193.652 234.651 192.329 233.712 191.316 232.592C190.281 233.712 188.911 234.651 187.204 235.408L186.612 234.352C188.255 233.669 189.577 232.779 190.58 231.68C189.833 230.645 189.215 229.392 188.724 227.92L189.748 227.44C190.143 228.709 190.665 229.819 191.316 230.768C191.999 229.808 192.527 228.688 192.9 227.408L193.956 227.872C193.476 229.365 192.847 230.64 192.068 231.696ZM211.588 222.032V223.024H197.412V222.032H204.02C203.935 221.861 203.7 221.467 203.316 220.848L204.372 220.432C204.681 220.944 204.964 221.477 205.22 222.032H211.588ZM199.652 227.12V223.888H209.348V227.12H199.652ZM200.804 226.192H208.18V224.816H200.804V226.192ZM197.764 235.216V228.128H211.22V233.696C211.22 234.155 211.108 234.491 210.884 234.704C210.66 234.928 210.319 235.04 209.86 235.04H207.636L207.364 234.032H210.052V229.104H198.932V235.216H197.764ZM200.82 230.112H208.068V233.328H201.94V234.176H200.82V230.112ZM201.94 232.432H206.948V230.992H201.94V232.432ZM213.22 236.192C213.572 235.819 213.844 235.477 214.036 235.168C214.239 234.859 214.388 234.523 214.484 234.16C214.249 234.117 214.073 234.016 213.956 233.856C213.839 233.685 213.78 233.477 213.78 233.232V232.992C213.78 232.683 213.865 232.437 214.036 232.256C214.217 232.075 214.484 231.984 214.836 231.984C215.188 231.984 215.449 232.075 215.62 232.256C215.801 232.437 215.892 232.683 215.892 232.992V233.232C215.892 233.723 215.753 234.24 215.476 234.784C215.209 235.339 214.847 235.808 214.388 236.192H213.22ZM229.748 235.28V221.2H243.252V235.28H242.02V234.288H230.98V235.28H229.748ZM230.98 222.32V233.168H242.02V222.32H230.98ZM241.092 231.248L240.404 232.176L236.564 228.88C236.511 228.827 236.463 228.8 236.42 228.8C236.367 228.8 236.308 228.837 236.244 228.912C235.508 230.107 234.244 231.216 232.452 232.24L231.828 231.2C233.151 230.496 234.111 229.792 234.708 229.088C235.316 228.373 235.673 227.573 235.78 226.688H232.052V225.616H235.812V223.136H237.012V225.616H240.948V226.688H236.996C236.943 227.328 236.825 227.856 236.644 228.272L236.724 228.32L236.948 228.112C237.033 228.027 237.113 227.984 237.188 227.984C237.263 227.984 237.353 228.027 237.46 228.112L241.092 231.248ZM258.42 233.744V230L259.54 230.352V233.712C259.54 234.128 259.444 234.427 259.252 234.608C259.071 234.8 258.777 234.896 258.372 234.896H256.132C255.439 234.896 254.943 234.741 254.644 234.432C254.345 234.133 254.196 233.637 254.196 232.944V220.64H255.38V225.968C256.681 225.189 257.796 224.288 258.724 223.264L259.54 224.112C259.017 224.656 258.393 225.2 257.668 225.744C256.943 226.288 256.18 226.789 255.38 227.248V232.848C255.38 233.2 255.449 233.44 255.588 233.568C255.727 233.685 255.977 233.744 256.34 233.744H258.42ZM250.916 232.688C251.545 232.549 252.377 232.336 253.412 232.048L253.524 233.216C250.911 233.973 248.159 234.603 245.268 235.104L245.092 233.872L246.516 233.632V222.944H247.716V233.392C248.164 233.307 248.825 233.168 249.7 232.976V220.656H250.916V225.456H253.364V226.608H250.916V232.688ZM275.748 226.24H270.916C271.076 227.819 271.38 229.195 271.828 230.368C272.799 229.344 273.62 228.197 274.292 226.928L275.268 227.472C274.415 229.029 273.439 230.357 272.34 231.456C272.884 232.459 273.577 233.232 274.42 233.776L274.708 230.576L275.732 230.992L275.428 234.016C275.396 234.357 275.3 234.613 275.14 234.784C274.991 234.965 274.793 235.056 274.548 235.056C274.249 235.056 273.929 234.928 273.588 234.672C272.713 234.085 271.993 233.296 271.428 232.304C270.18 233.349 268.772 234.208 267.204 234.88L266.692 233.792C268.249 233.195 269.652 232.352 270.9 231.264C270.313 229.909 269.913 228.235 269.7 226.24H266.132V228.848C267.22 228.645 268.175 228.421 268.996 228.176L269.172 229.184C268.34 229.44 267.327 229.696 266.132 229.952V233.712C266.132 234.139 266.036 234.448 265.844 234.64C265.663 234.832 265.369 234.928 264.964 234.928H262.276L261.972 233.824H264.932V230.176C263.769 230.379 262.628 230.533 261.508 230.64L261.3 229.552C262.367 229.456 263.577 229.296 264.932 229.072V226.24H261.252V225.152H264.932V222.64C263.919 222.779 262.863 222.875 261.764 222.928L261.572 221.904C264.367 221.755 266.527 221.413 268.052 220.88L268.596 221.824C267.903 222.059 267.081 222.267 266.132 222.448V225.152H269.62C269.567 224.277 269.54 223.456 269.54 222.688V220.72H270.74V222.672C270.74 223.44 270.767 224.267 270.82 225.152H275.748V226.24ZM274.052 224.272C273.785 223.792 273.455 223.291 273.06 222.768C272.665 222.245 272.271 221.765 271.876 221.328L272.82 220.736C273.204 221.12 273.604 221.589 274.02 222.144C274.447 222.688 274.793 223.2 275.06 223.68L274.052 224.272ZM281.124 220.752C280.889 221.968 280.553 223.136 280.116 224.256V235.2H279.012V226.592C278.532 227.413 278.047 228.096 277.556 228.64L276.916 227.616C277.684 226.699 278.324 225.659 278.836 224.496C279.348 223.333 279.759 221.984 280.068 220.448L281.124 220.752ZM282.66 220.8C283.001 221.141 283.353 221.541 283.716 222C284.079 222.448 284.393 222.875 284.66 223.28L283.812 224.016C283.556 223.611 283.236 223.173 282.852 222.704C282.468 222.235 282.116 221.84 281.796 221.52L282.66 220.8ZM285.076 221.328H291.316V233.616C291.316 234.085 291.215 234.421 291.012 234.624C290.82 234.827 290.489 234.928 290.02 234.928H287.78L287.556 233.824H290.116V222.416H285.076V221.328ZM283.236 235.12H282.052V224.432H283.236V235.12ZM293.092 230.512C293.999 230.043 294.809 229.531 295.524 228.976C296.239 228.411 296.889 227.787 297.476 227.104C296.473 227.232 295.188 227.36 293.62 227.488L293.412 226.448C294.287 225.797 295.177 224.757 296.084 223.328H293.252V222.256H296.996C296.74 221.765 296.463 221.301 296.164 220.864L297.268 220.416C297.673 221.077 298.004 221.691 298.26 222.256H301.508V223.328H297.46C296.681 224.544 295.908 225.536 295.14 226.304C295.865 226.251 296.927 226.149 298.324 226C298.665 225.509 299.028 224.928 299.412 224.256L300.388 224.896C299.535 226.389 298.575 227.669 297.508 228.736C296.452 229.792 295.161 230.731 293.636 231.552L293.092 230.512ZM305.972 220.784H307.156V233.616C307.156 234.085 307.049 234.421 306.836 234.624C306.633 234.837 306.297 234.944 305.828 234.944H303.508L303.172 233.744H305.972V220.784ZM302.58 221.568H303.748V231.872H302.58V221.568ZM298.66 231.616C298.799 231.531 298.916 231.488 299.012 231.488C299.129 231.488 299.252 231.552 299.38 231.68L301.732 233.968L300.98 234.864L298.196 232.192C298.089 232.085 297.993 232.059 297.908 232.112C296.692 233.179 295.247 234.149 293.572 235.024L293.028 233.936C294.692 233.104 296.111 232.149 297.284 231.072C298.468 229.995 299.561 228.677 300.564 227.12L301.508 227.792C300.548 229.317 299.508 230.608 298.388 231.664L298.468 231.744L298.66 231.616ZM323.716 224.288V225.232H309.284V224.288H313.316C313.209 224.085 313.065 223.856 312.884 223.6C312.713 223.333 312.548 223.115 312.388 222.944L313.268 222.608H309.908V221.664H315.908C315.705 221.344 315.524 221.077 315.364 220.864L316.388 220.448C316.612 220.789 316.852 221.195 317.108 221.664H323.092V222.608H319.332L320.212 222.96C319.913 223.408 319.572 223.851 319.188 224.288H323.716ZM313.492 222.608C313.641 222.779 313.812 222.997 314.004 223.264C314.196 223.531 314.345 223.765 314.452 223.968L313.588 224.288H317.812C318.249 223.861 318.676 223.301 319.092 222.608H313.492ZM310.884 226.096H322.116V230.784H310.884V226.096ZM320.964 228V226.992H312.036V228H320.964ZM312.036 228.832V229.888H320.964V228.832H312.036ZM317.812 233.312C317.076 232.725 316.217 232.171 315.236 231.648L315.908 230.896C316.825 231.365 317.679 231.899 318.468 232.496L317.812 233.312ZM321.3 231.28C322.324 232.176 323.172 233.083 323.844 234L322.996 234.688C322.388 233.824 321.545 232.907 320.468 231.936L321.3 231.28ZM309.14 233.92C309.631 233.568 310.073 233.168 310.468 232.72C310.863 232.272 311.172 231.829 311.396 231.392L312.292 231.888C311.737 232.965 310.937 233.909 309.892 234.72L309.14 233.92ZM319.444 233.936V232.24L320.564 232.576V233.824C320.564 234.219 320.468 234.501 320.276 234.672C320.095 234.853 319.785 234.944 319.348 234.944H314.868C314.399 234.944 314.036 234.891 313.78 234.784C313.535 234.677 313.359 234.501 313.252 234.256C313.156 234.021 313.108 233.685 313.108 233.248V231.408H314.26V233.28C314.26 233.547 314.308 233.723 314.404 233.808C314.5 233.893 314.697 233.936 314.996 233.936H319.444ZM16.692 248.176C16.308 247.749 15.86 247.291 15.348 246.8C14.8467 246.299 14.388 245.872 13.972 245.52L14.708 244.752C15.6893 245.605 16.596 246.491 17.428 247.408L16.692 248.176ZM18.356 245.104H27.348V257.728C27.348 258.187 27.268 258.512 27.108 258.704C26.948 258.907 26.66 259.008 26.244 259.008H24.34L24.036 257.904H26.26V246.112H19.428V250.048C19.428 252.352 19.3427 254.192 19.172 255.568C19.0013 256.933 18.66 258.165 18.148 259.264L17.14 258.576C17.6093 257.595 17.9293 256.464 18.1 255.184C18.2707 253.904 18.356 252.192 18.356 250.048V245.104ZM19.956 251.488V250.544H22.292V249.056H20.26V248.128H22.292V246.688H23.284V248.128H25.396V249.056H23.284V250.544H25.7V251.488H19.956ZM16.292 257.104H16.196C15.7267 257.616 15.3907 257.968 15.188 258.16L14.708 257.2L15.092 256.832C15.1667 256.683 15.204 256.459 15.204 256.16V250.24H13.236V249.232H16.292V255.584C16.6227 255.211 17.0013 254.752 17.428 254.208L17.86 255.168C17.4547 255.701 16.932 256.315 16.292 257.008V257.104ZM20.58 252.592H25.044V256.56H21.62V257.584H20.58V252.592ZM21.604 255.632H24.02V253.52H21.604V255.632ZM29.076 252.096C29.9613 251.691 30.6387 251.328 31.108 251.008C31.588 250.677 31.9347 250.352 32.148 250.032H29.892V247.2H32.692V246.464H29.3V245.552H32.692V244.64H33.668V245.552H36.948V246.464H33.668V247.2H36.42V248.624C37.6467 247.483 38.5 246.112 38.98 244.512L39.924 244.688C39.796 245.168 39.6093 245.675 39.364 246.208H43.604V247.168H42.516C42.2707 248.384 41.764 249.445 40.996 250.352C41.7427 250.928 42.724 251.472 43.94 251.984L43.492 252.912C42.1587 252.347 41.092 251.739 40.292 251.088C39.4813 251.813 38.4253 252.443 37.124 252.976L36.676 252.048C37.8173 251.611 38.7773 251.061 39.556 250.4C38.9587 249.771 38.4893 249.04 38.148 248.208C37.828 248.624 37.4653 249.019 37.06 249.392L36.42 248.752V250.032H33.668V250.736H33.78L33.956 250.496C34.02 250.4 34.1 250.352 34.196 250.352C34.26 250.352 34.3347 250.379 34.42 250.432L36.708 251.856L36.196 252.624L33.828 251.152L33.748 251.12C33.6947 251.12 33.668 251.157 33.668 251.232V252.88H32.692V250.304H32.564C32.4573 250.805 32.164 251.264 31.684 251.68C31.204 252.085 30.4947 252.507 29.556 252.944L29.076 252.096ZM38.868 247.168C38.8467 247.189 38.8253 247.221 38.804 247.264C39.1027 248.203 39.588 249.013 40.26 249.696C40.8893 248.949 41.3 248.107 41.492 247.168H38.868ZM32.692 248.016H30.836V249.216H32.692V248.016ZM35.476 249.216V248.016H33.668V249.216H35.476ZM42.292 256.48H36.788V257.856H43.684V258.848H29.316V257.856H31.828V255.168H32.964V257.856H35.636V254.288H29.956V253.344H43.044V254.288H36.788V255.536H42.292V256.48ZM48.58 258.784L48.292 257.552H52.1V249.776C53.1773 249.381 54.1853 248.907 55.124 248.352C56.0733 247.797 56.8093 247.243 57.332 246.688H45.828V245.456H59.14V246.448C58.596 247.237 57.828 247.979 56.836 248.672C55.8547 249.365 54.7027 250 53.38 250.576V257.312C53.38 257.835 53.2627 258.208 53.028 258.432C52.7933 258.667 52.42 258.784 51.908 258.784H48.58ZM68.5 246.128V247.2H61.524V246.128H64.612C64.3773 245.605 64.1693 245.173 63.988 244.832L64.996 244.416C65.2627 244.864 65.5347 245.435 65.812 246.128H68.5ZM73.62 250.416C74.2387 251.013 74.724 251.621 75.076 252.24C75.428 252.859 75.604 253.525 75.604 254.24C75.604 255.083 75.3907 255.744 74.964 256.224C74.5373 256.693 73.8867 256.928 73.012 256.928H71.988L71.748 255.712H72.804C73.4013 255.712 73.812 255.584 74.036 255.328C74.2707 255.072 74.388 254.656 74.388 254.08C74.388 253.493 74.2013 252.907 73.828 252.32C73.4547 251.723 72.932 251.109 72.26 250.48C73.1453 249.04 73.796 247.648 74.212 246.304H70.9V259.2H69.7V245.184H75.444V246.16C75.06 247.504 74.452 248.923 73.62 250.416ZM67.588 247.728C67.3853 248.539 67.06 249.451 66.612 250.464H68.772V251.536H61.156V250.464H65.492C65.8867 249.632 66.2387 248.619 66.548 247.424L67.588 247.728ZM63.252 250.192C63.06 249.403 62.788 248.619 62.436 247.84L63.396 247.44C63.7373 248.155 64.0253 248.944 64.26 249.808L63.252 250.192ZM63.076 259.2H61.956V253.056H68.1V258.208H63.076V259.2ZM66.996 254.08H63.076V257.152H66.996V254.08ZM82.964 245.136C82.3453 246.501 81.6253 247.723 80.804 248.8C79.9933 249.867 79.028 250.821 77.908 251.664L77.012 250.752C78.1107 249.952 79.0493 249.045 79.828 248.032C80.6173 247.019 81.2787 245.893 81.812 244.656L82.964 245.136ZM87.156 244.656C88.308 247.216 89.9507 249.269 92.084 250.816L91.188 251.76C89.012 250.075 87.2893 247.877 86.02 245.168L87.156 244.656ZM79.828 251.328V250.208H89.156C89.156 253.355 88.9693 255.605 88.596 256.96C88.468 257.451 88.2973 257.824 88.084 258.08C87.8707 258.336 87.604 258.512 87.284 258.608C86.964 258.704 86.548 258.752 86.036 258.752H84.308L84.004 257.6H85.956C86.4253 257.6 86.7613 257.525 86.964 257.376C87.1667 257.216 87.3107 256.939 87.396 256.544C87.5347 256.032 87.652 255.323 87.748 254.416C87.844 253.509 87.8973 252.48 87.908 251.328H83.684C83.5987 253.152 83.1347 254.699 82.292 255.968C81.46 257.237 80.1907 258.267 78.484 259.056L77.748 258.032C79.348 257.275 80.5107 256.373 81.236 255.328C81.972 254.272 82.3773 252.939 82.452 251.328H79.828ZM96.436 247.12H99.396V248.208H93.3V247.12H96.308C95.892 246.267 95.5027 245.552 95.14 244.976L96.196 244.496C96.6227 245.232 97.0013 245.968 97.332 246.704L96.436 247.12ZM107.764 247.424V248.48H103.652V251.488H107.108V259.136H105.972V258.224H100.98V259.136H99.86V251.488H102.5V244.656H103.652V247.424H107.764ZM98.996 255.536L99.14 256.624C97.22 257.307 95.2787 257.819 93.316 258.16L93.044 257.008C94.132 256.816 95.204 256.592 96.26 256.336C96.548 255.333 96.8147 254.181 97.06 252.88C97.316 251.568 97.5187 250.32 97.668 249.136L98.772 249.36C98.6547 250.341 98.4787 251.429 98.244 252.624C98.0093 253.808 97.7533 254.939 97.476 256.016L98.996 255.536ZM94.82 249.2C95.2253 251.067 95.5347 253.003 95.748 255.008L94.66 255.232C94.436 253.067 94.132 251.152 93.748 249.488L94.82 249.2ZM100.98 257.184H105.972V252.528H100.98V257.184ZM116.948 249.456H122.052V254.416H110.948V249.456H115.7V244.64H116.948V246.512H123.06V247.6H116.948V249.456ZM112.164 253.312H120.82V250.544H112.164V253.312ZM121.636 255.152C122.511 256.336 123.204 257.515 123.716 258.688L122.596 259.216C122.084 258.011 121.423 256.805 120.612 255.6L121.636 255.152ZM109.3 258.496C110.26 257.483 111.001 256.379 111.524 255.184L112.58 255.616C112.1 256.821 111.343 258.021 110.308 259.216L109.3 258.496ZM118.516 255.424C119.007 256.597 119.38 257.744 119.636 258.864L118.388 259.136C118.175 258.059 117.844 256.907 117.396 255.68L118.516 255.424ZM115.284 255.568C115.497 256.603 115.652 257.76 115.748 259.04L114.516 259.168C114.463 258.144 114.335 256.981 114.132 255.68L115.284 255.568ZM126.98 244.608C127.727 245.28 128.537 246.171 129.412 247.28L128.5 248.064C128.148 247.595 127.748 247.109 127.3 246.608C126.863 246.096 126.463 245.669 126.1 245.328L126.98 244.608ZM130.004 245.184H139.108V257.664C139.108 258.101 139.007 258.416 138.804 258.608C138.612 258.811 138.271 258.912 137.78 258.912H134.74L134.468 257.808H137.892V246.32H130.004V245.184ZM127.06 259.184H125.86V248.4H127.06V259.184ZM129.22 248.608H135.684V255.632H130.34V256.688H129.22V248.608ZM134.548 251.584V249.632H130.324V251.584H134.548ZM130.324 252.544V254.576H134.548V252.544H130.324ZM155.252 247.024V249.072C155.252 250.181 155.215 251.397 155.14 252.72C155.076 254.032 154.975 255.184 154.836 256.176C154.708 257.189 154.452 257.915 154.068 258.352C153.684 258.789 153.065 259.008 152.212 259.008H150.1L149.78 257.84H152.084C152.585 257.84 152.948 257.707 153.172 257.44C153.396 257.173 153.551 256.731 153.636 256.112C153.775 255.216 153.876 254.123 153.94 252.832C154.004 251.541 154.036 250.293 154.036 249.088V248.176H149.828C149.22 249.488 148.537 250.603 147.78 251.52L146.996 250.72V257.84H142.884V259.2H141.684V246.448H143.428C143.663 245.936 143.876 245.285 144.068 244.496L145.204 244.768C145.044 245.376 144.841 245.936 144.596 246.448H146.996V250.544C147.668 249.723 148.244 248.784 148.724 247.728C149.215 246.672 149.583 245.589 149.828 244.48L150.964 244.768C150.815 245.451 150.591 246.203 150.292 247.024H155.252ZM145.828 251.36V247.52H142.868V251.36H145.828ZM151.604 255.056C151.284 254.373 150.9 253.653 150.452 252.896C150.015 252.139 149.577 251.461 149.14 250.864L150.052 250.192C150.489 250.768 150.932 251.44 151.38 252.208C151.828 252.965 152.228 253.701 152.58 254.416L151.604 255.056ZM142.868 252.432V256.768H145.828V252.432H142.868ZM165.572 254.64V257.648H171.86V258.752H164.436V245.088H171.732V246.176H165.572V248.976H171.268V254.64H165.572ZM161.428 256.672C162.217 256.501 163.007 256.309 163.796 256.096L163.892 257.152C162.153 257.696 159.924 258.171 157.204 258.576L157.044 257.424L157.988 257.296V251.232H159.06V257.12C159.391 257.067 159.817 256.992 160.34 256.896V249.936H157.908V245.104H163.124V249.936H161.428V252.352H163.524V253.392H161.428V256.672ZM162.068 246.144H159.028V248.896H162.068V246.144ZM170.132 253.536V250.064H165.572V253.536H170.132ZM187.828 245.776V246.768H173.204V245.776H179.956C179.679 245.328 179.487 245.029 179.38 244.88L180.452 244.432C180.815 244.997 181.081 245.445 181.252 245.776H187.828ZM176.484 249.936C177.647 249.627 178.692 249.28 179.62 248.896C178.767 248.544 177.86 248.192 176.9 247.84L177.524 247.104C178.623 247.509 179.711 247.931 180.788 248.368C181.609 247.963 182.457 247.456 183.332 246.848L184.1 247.488C183.524 247.936 182.809 248.395 181.956 248.864C183.055 249.333 183.913 249.717 184.532 250.016L183.892 250.784C182.655 250.208 181.636 249.749 180.836 249.408C179.631 249.952 178.335 250.427 176.948 250.832L176.484 249.936ZM180.82 251.984C180.692 252.4 180.543 252.795 180.372 253.168H187.284V257.872C187.284 258.309 187.183 258.624 186.98 258.816C186.788 259.008 186.468 259.104 186.02 259.104H184.324L183.972 258.064H186.1V254.144H179.892C179.401 255.061 178.831 255.856 178.18 256.528C179.855 256.421 181.316 256.299 182.564 256.16C182.276 255.797 181.919 255.381 181.492 254.912L182.34 254.4C183.097 255.179 183.924 256.171 184.82 257.376L183.908 257.952C183.663 257.589 183.455 257.296 183.284 257.072C181.343 257.296 179.188 257.472 176.82 257.6L176.644 256.608C177.369 256 178.025 255.179 178.612 254.144H174.916V259.264H173.748V253.168H179.108C179.3 252.752 179.46 252.357 179.588 251.984H174.548V247.52H175.7V251.008H185.3V247.52H186.452V251.984H180.82ZM189.22 260.192C189.572 259.819 189.844 259.477 190.036 259.168C190.239 258.859 190.388 258.523 190.484 258.16C190.249 258.117 190.073 258.016 189.956 257.856C189.839 257.685 189.78 257.477 189.78 257.232V256.992C189.78 256.683 189.865 256.437 190.036 256.256C190.217 256.075 190.484 255.984 190.836 255.984C191.188 255.984 191.449 256.075 191.62 256.256C191.801 256.437 191.892 256.683 191.892 256.992V257.232C191.892 257.723 191.753 258.24 191.476 258.784C191.209 259.339 190.847 259.808 190.388 260.192H189.22ZM215.108 250.528V257.264H219.78V258.432H209.924V257.264H213.876V244.64H215.108V249.408H219.252V250.528H215.108ZM209.268 248.192C208.831 247.776 208.313 247.328 207.716 246.848C207.119 246.368 206.569 245.957 206.068 245.616L206.836 244.72C207.977 245.52 209.044 246.384 210.036 247.312L209.268 248.192ZM211.268 255.536C210.788 255.92 210.191 256.357 209.476 256.848C208.761 257.339 208.105 257.76 207.508 258.112L207.028 257.024C207.241 256.907 207.385 256.773 207.46 256.624C207.535 256.475 207.572 256.235 207.572 255.904V250.304H205.268V249.184H208.788V255.968C209.545 255.456 210.233 254.955 210.852 254.464L211.268 255.536ZM224.308 247.808C223.583 246.827 222.847 245.989 222.1 245.296L222.98 244.576C223.705 245.237 224.447 246.053 225.204 247.024L224.308 247.808ZM225.844 245.168H235.124V257.632C235.124 258.069 235.023 258.389 234.82 258.592C234.617 258.795 234.271 258.896 233.78 258.896H231.812L231.556 257.776H233.892V246.288H225.86L225.844 245.168ZM232.964 256.544C232.964 256.896 232.884 257.152 232.724 257.312C232.575 257.472 232.319 257.552 231.956 257.552H230.708C230.175 257.552 229.796 257.44 229.572 257.216C229.348 256.981 229.236 256.592 229.236 256.048V253.632H227.796C227.743 254.688 227.449 255.552 226.916 256.224C226.393 256.896 225.519 257.488 224.292 258L223.732 257.008C224.788 256.624 225.535 256.176 225.972 255.664C226.42 255.152 226.66 254.475 226.692 253.632H224.724V249.504H229.044C229.524 248.821 229.935 248.037 230.276 247.152L231.316 247.504C231.017 248.229 230.676 248.896 230.292 249.504H232.148V253.632H230.324V255.984C230.324 256.229 230.361 256.395 230.436 256.48C230.521 256.555 230.671 256.592 230.884 256.592H231.956V254.752L232.964 255.104V256.544ZM226.548 247.152C226.932 247.675 227.311 248.277 227.684 248.96L226.74 249.472C226.377 248.811 225.999 248.229 225.604 247.728L226.548 247.152ZM223.076 259.168H221.86V248.208H223.076V259.168ZM231.028 250.512H225.828V252.64H231.028V250.512ZM249.172 251.616C249.439 251.307 249.679 250.971 249.892 250.608C250.116 250.235 250.281 249.899 250.388 249.6H242.116V248.592H246.196V247.136H242.5V246.128H246.196V244.624H247.332V246.128H251.188V247.136H247.332V248.592H251.588V249.44C251.439 249.909 251.231 250.389 250.964 250.88C250.697 251.371 250.399 251.819 250.068 252.224L249.172 251.616ZM240.516 248.24C240.164 247.803 239.748 247.328 239.268 246.816C238.799 246.304 238.367 245.867 237.972 245.504L238.772 244.768C239.689 245.664 240.527 246.581 241.284 247.52L240.516 248.24ZM242.036 256.672C241.663 256.971 241.193 257.317 240.628 257.712C240.063 258.107 239.545 258.448 239.076 258.736L238.596 257.776C238.788 257.648 238.916 257.515 238.98 257.376C239.044 257.237 239.076 257.008 239.076 256.688V250.48H237.172V249.456H240.164V256.784C240.665 256.443 241.145 256.091 241.604 255.728L242.036 256.672ZM245.652 252.4C244.884 251.739 244.095 251.168 243.284 250.688L243.876 249.92C244.729 250.432 245.519 251.003 246.244 251.632L245.652 252.4ZM251.796 255.104H247.54C247.433 255.52 247.273 255.893 247.06 256.224L247.156 256.288L247.428 256.032C247.545 255.936 247.647 255.888 247.732 255.888C247.807 255.888 247.903 255.92 248.02 255.984L251.764 258.352L251.188 259.28L247.124 256.672C247.039 256.619 246.969 256.592 246.916 256.592C246.852 256.592 246.783 256.629 246.708 256.704C246.303 257.152 245.737 257.579 245.012 257.984C244.297 258.379 243.3 258.8 242.02 259.248L241.556 258.24C242.612 257.867 243.444 257.541 244.052 257.264C244.671 256.976 245.167 256.661 245.54 256.32C245.913 255.979 246.185 255.573 246.356 255.104H241.748V254.08H246.596C246.628 253.771 246.644 253.435 246.644 253.072V250.192H247.748V253.024C247.748 253.419 247.732 253.771 247.7 254.08H251.796V255.104ZM242.804 251.52C243.7 252.043 244.5 252.613 245.204 253.232L244.596 253.968C243.881 253.371 243.081 252.811 242.196 252.288L242.804 251.52ZM267.588 246.288H260.948V247.92H266.244V254.352H260.756C260.543 255.365 260.084 256.208 259.38 256.88C260.244 257.285 261.305 257.568 262.564 257.728C263.823 257.888 265.497 257.963 267.588 257.952L267.46 259.056C265.135 259.045 263.289 258.933 261.924 258.72C260.569 258.507 259.407 258.133 258.436 257.6C257.305 258.293 255.716 258.784 253.668 259.072L253.348 258.032C255.076 257.765 256.42 257.392 257.38 256.912C256.847 256.507 256.281 256 255.684 255.392L256.484 254.672C257.124 255.344 257.743 255.883 258.34 256.288C258.948 255.787 259.359 255.141 259.572 254.352H254.756V247.92H259.796V246.288H253.412V245.216H267.588V246.288ZM259.796 250.64V248.896H255.892V250.64H259.796ZM265.124 250.64V248.896H260.948V250.64H265.124ZM255.892 253.376H259.748C259.78 253.067 259.796 252.752 259.796 252.432V251.568H255.892V253.376ZM265.124 253.376V251.568H260.948V252.4C260.948 252.731 260.932 253.056 260.9 253.376H265.124ZM272.708 246.608C272.399 247.099 271.988 247.584 271.476 248.064C270.975 248.544 270.345 249.045 269.588 249.568L268.964 248.608C270.031 247.925 270.815 247.28 271.316 246.672C271.828 246.064 272.153 245.365 272.292 244.576L273.396 244.736C273.311 245.205 273.177 245.643 272.996 246.048L273.076 246.112L273.268 245.92C273.343 245.845 273.412 245.808 273.476 245.808C273.54 245.808 273.631 245.856 273.748 245.952L276.596 248.496L275.908 249.392L272.852 246.64C272.799 246.576 272.751 246.565 272.708 246.608ZM283.876 250.128V250.992C283.716 251.6 283.487 252.219 283.188 252.848C282.9 253.477 282.575 254.069 282.212 254.624L281.3 254.128C281.588 253.712 281.86 253.243 282.116 252.72C282.383 252.187 282.596 251.675 282.756 251.184H280.42V257.696C280.42 258.144 280.324 258.464 280.132 258.656C279.951 258.859 279.641 258.96 279.204 258.96H277.268L276.948 257.84H279.284V251.184H276.228V250.128H279.956C279.081 249.168 278.201 248.341 277.316 247.648L278.004 246.928C278.697 247.483 279.321 248.032 279.876 248.576C280.292 248.224 280.681 247.84 281.044 247.424C281.417 246.997 281.727 246.581 281.972 246.176H276.484V245.104H283.3V246.016C283.001 246.624 282.612 247.221 282.132 247.808C281.652 248.395 281.151 248.907 280.628 249.344C280.959 249.696 281.193 249.957 281.332 250.128H283.876ZM275.06 249.952H273.284V251.488H276.02V252.48H273.284V254.096H275.46V258.368H271.108V259.2H270.02V254.096H272.196V252.48H269.3V251.488H272.196V249.952H270.468V248.976H275.06V249.952ZM271.108 257.408H274.404V255.056H271.108V257.408ZM288.468 248.544C288.127 248.043 287.721 247.509 287.252 246.944C286.793 246.379 286.372 245.899 285.988 245.504L286.932 244.768C287.316 245.173 287.743 245.664 288.212 246.24C288.681 246.805 289.087 247.339 289.428 247.84L288.468 248.544ZM294.244 251.504V249.664H289.908V248.576H294.244V246.64C293.177 246.768 292.004 246.869 290.724 246.944L290.516 245.904C291.988 245.808 293.423 245.664 294.82 245.472C296.228 245.28 297.455 245.045 298.5 244.768L298.98 245.792C298.063 246.037 296.879 246.267 295.428 246.48V248.576H299.764V249.664H295.428V251.504H298.932V256.016H290.868V251.504H294.244ZM300.004 257.696L299.78 258.832H293.076C292.244 258.832 291.572 258.779 291.06 258.672C290.548 258.576 290.121 258.421 289.78 258.208C289.449 257.995 289.103 257.696 288.74 257.312C288.612 257.184 288.505 257.099 288.42 257.056C288.345 257.003 288.265 256.976 288.18 256.976C288.031 256.976 287.796 257.136 287.476 257.456C287.156 257.765 286.697 258.293 286.1 259.04L285.236 258.16C286.196 256.933 286.975 256.187 287.572 255.92V251.168H285.332V250.048H288.788V255.984C288.927 256.059 289.087 256.192 289.268 256.384C289.577 256.715 289.876 256.971 290.164 257.152C290.452 257.333 290.815 257.472 291.252 257.568C291.7 257.653 292.292 257.696 293.028 257.696H300.004ZM292.004 254.944H297.78V252.56H292.004V254.944ZM303.748 259.184C303.033 259.184 302.457 258.976 302.02 258.56C301.583 258.144 301.364 257.568 301.364 256.832C301.364 256.096 301.583 255.52 302.02 255.104C302.457 254.688 303.033 254.48 303.748 254.48C304.463 254.48 305.039 254.688 305.476 255.104C305.924 255.52 306.148 256.096 306.148 256.832C306.148 257.568 305.929 258.144 305.492 258.56C305.055 258.976 304.473 259.184 303.748 259.184ZM303.748 258.208C304.153 258.208 304.473 258.101 304.708 257.888C304.953 257.675 305.076 257.392 305.076 257.04V256.64C305.076 256.277 304.953 255.989 304.708 255.776C304.473 255.563 304.153 255.456 303.748 255.456C303.353 255.456 303.033 255.563 302.788 255.776C302.553 255.989 302.436 256.277 302.436 256.64V257.04C302.436 257.392 302.553 257.675 302.788 257.888C303.033 258.101 303.353 258.208 303.748 258.208Z" fill="#717171"/>
</svg>
