<svg width="329" height="181" viewBox="0 0 329 181" fill="none" xmlns="http://www.w3.org/2000/svg">
<rect width="24.1912" height="24.1912" rx="2.41912" fill="#E01735"/>
<path d="M11.8223 18.5957V8.80311H8.9194V7.11941H10.0999C10.616 7.11941 11.0353 7.0549 11.3579 6.92588C11.6804 6.78396 11.9127 6.55172 12.0546 6.22917C12.1965 5.89372 12.2675 5.4357 12.2675 4.85512H13.9125V18.5957H11.8223Z" fill="white"/>
<rect x="33.8677" width="24.1912" height="24.1912" rx="2.41912" fill="#87C63F"/>
<path d="M41.0102 18.5957C41.0102 17.5635 41.165 16.6411 41.4746 15.8282C41.7843 15.0154 42.3133 14.2606 43.0616 13.5639C43.8099 12.8672 44.842 12.1705 46.158 11.4738C46.7902 11.1513 47.2934 10.8545 47.6676 10.5836C48.0546 10.2997 48.332 10.0094 48.4997 9.7127C48.6675 9.41596 48.7513 9.0547 48.7513 8.62894C48.7513 8.19027 48.6546 7.81612 48.461 7.50647C48.2804 7.18392 48.0095 6.93233 47.6482 6.7517C47.287 6.55817 46.8289 6.46141 46.2742 6.46141C45.3968 6.46141 44.7001 6.7001 44.184 7.17747C43.6809 7.64194 43.3648 8.31284 43.2357 9.19017L41.0682 9.0547C41.223 7.67419 41.7456 6.57753 42.6358 5.7647C43.5389 4.95188 44.7517 4.54547 46.2742 4.54547C47.2547 4.54547 48.0869 4.71964 48.7707 5.068C49.4674 5.40345 49.9964 5.87437 50.3576 6.48076C50.7318 7.08715 50.9189 7.79031 50.9189 8.59023C50.9189 9.28694 50.8027 9.88688 50.5705 10.3901C50.3383 10.8932 49.9512 11.3642 49.4093 11.8028C48.8675 12.2286 48.132 12.6866 47.2031 13.1769C46.0161 13.8091 45.1194 14.4348 44.513 15.0541C43.9067 15.6605 43.5841 16.2024 43.5454 16.6798H50.9189V18.5957H41.0102Z" fill="#231F20"/>
<rect x="67.7354" width="24.1912" height="24.1912" rx="2.41912" fill="#F9D108"/>
<path d="M79.7633 18.9054C78.1764 18.9054 76.9507 18.5376 76.0863 17.8022C75.2347 17.0668 74.7767 16.0992 74.7122 14.8993L76.8604 14.7832C76.9378 15.5702 77.2345 16.1379 77.7506 16.4862C78.2796 16.8217 78.9505 16.9894 79.7633 16.9894C80.3052 16.9894 80.8019 16.9184 81.2535 16.7765C81.718 16.6217 82.0857 16.3766 82.3566 16.0411C82.6405 15.6928 82.7824 15.2412 82.7824 14.6864C82.7824 13.8607 82.505 13.2543 81.9502 12.8672C81.3954 12.4673 80.66 12.2673 79.744 12.2673H78.6021V10.4481H79.744C80.4794 10.4481 81.0922 10.2997 81.5825 10.003C82.0728 9.70625 82.3179 9.19017 82.3179 8.45476C82.3179 7.80966 82.1115 7.31939 81.6986 6.98394C81.2858 6.63559 80.6536 6.46141 79.802 6.46141C78.9763 6.46141 78.3506 6.62268 77.9248 6.94523C77.499 7.26778 77.2474 7.70645 77.17 8.26123L75.0218 8.14512C75.1509 7.06135 75.6218 6.19047 76.4346 5.53247C77.2603 4.87447 78.3828 4.54547 79.802 4.54547C80.7826 4.54547 81.6212 4.70029 82.3179 5.00994C83.0146 5.30668 83.55 5.7389 83.9242 6.30659C84.2984 6.87427 84.4854 7.53872 84.4854 8.29994C84.4854 9.13857 84.2145 9.82237 83.6726 10.3514C83.1436 10.8803 82.3631 11.2416 81.3309 11.4351V11.0868C82.4534 11.2287 83.3372 11.6286 83.9823 12.2866C84.6274 12.9317 84.9499 13.7575 84.9499 14.7638C84.9499 15.6283 84.7306 16.3766 84.2919 17.0088C83.8532 17.6281 83.2468 18.099 82.4727 18.4215C81.6986 18.7441 80.7955 18.9054 79.7633 18.9054Z" fill="#231F20"/>
<rect x="101.603" width="24.1912" height="24.1912" rx="2.41912" fill="#441D87"/>
<path d="M115.083 18.5957V15.7315H108.155V13.951L114.832 4.85512H117.173V13.8349H118.857V15.7315H117.173V18.5957H115.083ZM110.535 13.8349H115.083V7.75806L110.535 13.8349Z" fill="white"/>
<rect x="135.471" width="24.1912" height="24.1912" rx="2.41912" fill="#944D9D"/>
<path d="M147.541 18.9054C146.522 18.9054 145.651 18.7441 144.928 18.4215C144.206 18.0861 143.638 17.6216 143.225 17.0281C142.812 16.4346 142.574 15.7508 142.509 14.9767L144.657 14.8412C144.761 15.5637 145.064 16.1056 145.567 16.4669C146.083 16.8152 146.741 16.9894 147.541 16.9894C148.444 16.9894 149.154 16.7378 149.67 16.2346C150.199 15.7315 150.463 15.0283 150.463 14.1252C150.463 13.5317 150.341 13.0221 150.096 12.5963C149.863 12.1576 149.528 11.8222 149.089 11.5899C148.651 11.3448 148.128 11.2222 147.522 11.2222C146.915 11.2222 146.373 11.3513 145.896 11.6093C145.419 11.8673 145.077 12.2221 144.87 12.6737H142.703L143.632 4.85512H151.683V6.77106H145.49L144.909 11.4738L144.58 11.1835C144.799 10.7965 145.077 10.4804 145.412 10.2352C145.748 9.97719 146.135 9.78366 146.573 9.65464C147.025 9.51272 147.502 9.44176 148.005 9.44176C148.934 9.44176 149.741 9.64174 150.425 10.0417C151.121 10.4417 151.663 10.9964 152.05 11.7061C152.437 12.4157 152.631 13.222 152.631 14.1252C152.631 15.067 152.418 15.8992 151.992 16.6217C151.566 17.3442 150.973 17.9054 150.212 18.3054C149.45 18.7054 148.56 18.9054 147.541 18.9054Z" fill="white"/>
<rect x="169.338" width="24.1912" height="24.1912" rx="2.41912" fill="#D41971"/>
<path d="M181.555 18.9054C180.471 18.9054 179.555 18.6667 178.807 18.1893C178.058 17.699 177.491 16.9959 177.104 16.0798C176.717 15.1509 176.523 14.0284 176.523 12.7124C176.523 11.5641 176.62 10.4997 176.813 9.51917C177.02 8.52572 177.342 7.66129 177.781 6.92588C178.22 6.17757 178.787 5.59698 179.484 5.18412C180.194 4.75835 181.058 4.54547 182.077 4.54547C183.342 4.54547 184.322 4.85512 185.019 5.47441C185.729 6.0808 186.219 6.89362 186.49 7.91288L184.419 8.08706C184.264 7.58388 184.006 7.18392 183.645 6.88717C183.297 6.59043 182.774 6.44206 182.077 6.44206C181.019 6.44206 180.187 6.89363 179.581 7.79676C178.974 8.6999 178.645 10.0804 178.594 11.9383L178.226 11.8609C178.368 11.4222 178.607 11.0223 178.942 10.661C179.291 10.2868 179.716 9.9901 180.22 9.77076C180.736 9.53853 181.316 9.42241 181.961 9.42241C182.877 9.42241 183.677 9.61594 184.361 10.003C185.058 10.3772 185.593 10.9126 185.967 11.6093C186.354 12.306 186.548 13.1188 186.548 14.0478C186.548 15.0541 186.335 15.925 185.909 16.6604C185.496 17.3829 184.916 17.9377 184.168 18.3248C183.419 18.7118 182.548 18.9054 181.555 18.9054ZM181.574 17.0475C182.413 17.0475 183.097 16.783 183.626 16.254C184.155 15.7121 184.419 14.9767 184.419 14.0478C184.419 13.4672 184.303 12.964 184.071 12.5382C183.851 12.0996 183.535 11.7641 183.122 11.5319C182.723 11.2996 182.252 11.1835 181.71 11.1835C181.142 11.1835 180.632 11.2996 180.181 11.5319C179.729 11.7641 179.374 12.0996 179.116 12.5382C178.858 12.964 178.729 13.4672 178.729 14.0478C178.729 14.6284 178.845 15.1444 179.078 15.596C179.31 16.0476 179.639 16.4024 180.065 16.6604C180.49 16.9184 180.994 17.0475 181.574 17.0475Z" fill="white"/>
<rect x="203.206" width="24.1912" height="24.1912" rx="2.41912" fill="#EE6E01"/>
<path d="M213.509 18.5957C213.509 17.1765 213.696 15.7766 214.07 14.3961C214.457 13.0027 214.999 11.6674 215.696 10.3901C216.406 9.09986 217.251 7.89353 218.231 6.77106H210.548V4.85512H220.438V6.63559C219.354 7.87417 218.451 9.11276 217.728 10.3514C217.019 11.577 216.49 12.8672 216.141 14.2219C215.806 15.5637 215.638 17.0217 215.638 18.5957H213.509Z" fill="#231F20"/>
<rect x="237.074" width="24.1912" height="24.1912" rx="2.41912" fill="#159FD2"/>
<path d="M249.169 18.9054C248.124 18.9054 247.202 18.7505 246.402 18.4409C245.602 18.1312 244.976 17.6732 244.525 17.0668C244.086 16.4604 243.867 15.7186 243.867 14.8412C243.867 13.8349 244.17 13.0027 244.776 12.3447C245.395 11.6867 246.208 11.248 247.215 11.0287L247.253 11.4158C246.428 11.2222 245.763 10.8674 245.26 10.3514C244.77 9.83527 244.525 9.15792 244.525 8.31929C244.525 7.58388 244.712 6.93233 245.086 6.36464C245.473 5.79696 246.008 5.35184 246.692 5.02929C247.389 4.70674 248.214 4.54547 249.169 4.54547C250.124 4.54547 250.95 4.70674 251.646 5.02929C252.343 5.35184 252.879 5.79696 253.253 6.36464C253.627 6.93233 253.814 7.58388 253.814 8.31929C253.814 9.15792 253.562 9.83527 253.059 10.3514C252.569 10.8545 251.911 11.2093 251.085 11.4158L251.124 11.0287C252.143 11.248 252.956 11.6867 253.562 12.3447C254.169 13.0027 254.472 13.8349 254.472 14.8412C254.472 15.7186 254.246 16.4604 253.795 17.0668C253.356 17.6732 252.737 18.1312 251.937 18.4409C251.15 18.7505 250.227 18.9054 249.169 18.9054ZM249.169 16.9894C250.124 16.9894 250.885 16.7959 251.453 16.4088C252.021 16.0089 252.304 15.4154 252.304 14.6284C252.304 13.88 252.046 13.2801 251.53 12.8285C251.014 12.377 250.227 12.1512 249.169 12.1512C248.124 12.1512 247.337 12.377 246.808 12.8285C246.292 13.2801 246.034 13.88 246.034 14.6284C246.034 15.4154 246.318 16.0089 246.886 16.4088C247.453 16.7959 248.214 16.9894 249.169 16.9894ZM249.169 10.4288C249.956 10.4288 250.563 10.2675 250.988 9.94494C251.427 9.60949 251.646 9.09986 251.646 8.41606C251.646 7.82257 251.434 7.34519 251.008 6.98394C250.595 6.62268 249.982 6.44206 249.169 6.44206C248.369 6.44206 247.756 6.62268 247.331 6.98394C246.905 7.34519 246.692 7.82257 246.692 8.41606C246.692 9.09986 246.905 9.60949 247.331 9.94494C247.769 10.2675 248.382 10.4288 249.169 10.4288Z" fill="white"/>
<rect x="270.941" width="24.1912" height="24.1912" rx="2.41912" fill="#78C6EC"/>
<path d="M282.51 18.9054C281.336 18.9054 280.375 18.6215 279.627 18.0538C278.891 17.4861 278.382 16.7314 278.098 15.7895L280.207 15.6541C280.362 16.0798 280.627 16.4153 281.001 16.6604C281.388 16.8926 281.891 17.0088 282.51 17.0088C283.594 17.0088 284.413 16.583 284.968 15.7315C285.536 14.8799 285.826 13.4994 285.839 11.5899L286.245 11.6867C285.91 12.4995 285.42 13.1188 284.775 13.5446C284.129 13.9704 283.362 14.1832 282.472 14.1832C281.581 14.1832 280.794 13.9897 280.111 13.6026C279.427 13.2027 278.885 12.6479 278.485 11.9383C278.098 11.2287 277.904 10.403 277.904 9.46111C277.904 8.44186 278.111 7.57098 278.524 6.84847C278.949 6.11306 279.53 5.54537 280.265 5.14541C281.014 4.74545 281.859 4.54547 282.801 4.54547C283.988 4.54547 284.962 4.80996 285.723 5.33894C286.484 5.86792 287.045 6.61623 287.407 7.58388C287.781 8.53863 287.968 9.6869 287.968 11.0287C287.968 12.1899 287.865 13.2543 287.658 14.2219C287.465 15.1896 287.155 16.0218 286.729 16.7185C286.303 17.4152 285.742 17.9571 285.046 18.3441C284.362 18.7183 283.517 18.9054 282.51 18.9054ZM282.762 12.3834C283.342 12.3834 283.852 12.2673 284.291 12.0351C284.729 11.8028 285.071 11.4738 285.316 11.0481C285.574 10.6094 285.704 10.0804 285.704 9.46111C285.704 8.86763 285.587 8.3451 285.355 7.89353C285.123 7.42906 284.794 7.0678 284.368 6.80976C283.942 6.53882 283.433 6.40335 282.839 6.40335C282.259 6.40335 281.762 6.53237 281.349 6.79041C280.936 7.04845 280.614 7.4097 280.381 7.87417C280.162 8.32574 280.052 8.84827 280.052 9.44176C280.052 10.0482 280.169 10.5707 280.401 11.0094C280.633 11.448 280.949 11.7899 281.349 12.0351C281.749 12.2673 282.22 12.3834 282.762 12.3834Z" fill="#231F20"/>
<rect x="304.809" width="24.1912" height="24.1912" rx="2.41912" fill="#BDA7D0"/>
<path d="M310.234 18.5957V8.80311H307.331V7.11941H308.511C309.027 7.11941 309.446 7.0549 309.769 6.92588C310.092 6.78396 310.324 6.55172 310.466 6.22917C310.608 5.89372 310.679 5.4357 310.679 4.85512H312.324V18.5957H310.234ZM320.714 18.9054C319.578 18.9054 318.591 18.6151 317.753 18.0345C316.914 17.4539 316.269 16.6282 315.817 15.5573C315.366 14.4864 315.14 13.2156 315.14 11.7448C315.14 10.2739 315.366 9.0031 315.817 7.93223C316.282 6.84847 316.927 6.01629 317.753 5.4357C318.591 4.84221 319.578 4.54547 320.714 4.54547C321.862 4.54547 322.849 4.84221 323.675 5.4357C324.513 6.01629 325.158 6.84202 325.61 7.91288C326.074 8.98374 326.307 10.261 326.307 11.7448C326.307 13.2156 326.081 14.4864 325.629 15.5573C325.178 16.6282 324.533 17.4539 323.694 18.0345C322.855 18.6151 321.862 18.9054 320.714 18.9054ZM320.714 16.9894C321.81 16.9894 322.655 16.5378 323.249 15.6347C323.842 14.7316 324.139 13.4349 324.139 11.7448C324.139 10.6094 324.004 9.64819 323.733 8.86117C323.475 8.07415 323.088 7.48066 322.572 7.0807C322.068 6.66784 321.449 6.46141 320.714 6.46141C319.991 6.46141 319.372 6.66784 318.856 7.0807C318.353 7.48066 317.966 8.07415 317.695 8.86117C317.437 9.64819 317.308 10.6094 317.308 11.7448C317.308 13.4349 317.604 14.7316 318.198 15.6347C318.791 16.5378 319.63 16.9894 320.714 16.9894Z" fill="#231F20"/>
<rect x="7.30371" y="40.1904" width="24.1912" height="24.1912" rx="2.41912" fill="#792032"/>
<path d="M15.5824 58.7861V48.9935H12.6795V47.3098H13.86C14.3761 47.3098 14.7954 47.2453 15.118 47.1163C15.4405 46.9744 15.6727 46.7422 15.8147 46.4196C15.9566 46.0842 16.0275 45.6261 16.0275 45.0455H17.6725V58.7861H15.5824ZM22.6697 58.7861V48.9935H19.7667V47.3098H20.9473C21.4633 47.3098 21.8827 47.2453 22.2052 47.1163C22.5278 46.9744 22.76 46.7422 22.9019 46.4196C23.0438 46.0842 23.1148 45.6261 23.1148 45.0455H24.7598V58.7861H22.6697Z" fill="white"/>
<rect x="41.1714" y="40.1904" width="24.1912" height="24.1912" rx="2.41912" fill="#017960"/>
<path d="M46.9932 58.7861V48.9935H44.0902V47.3098H45.2708C45.7869 47.3098 46.2062 47.2453 46.5287 47.1163C46.8513 46.9744 47.0835 46.7422 47.2254 46.4196C47.3673 46.0842 47.4383 45.6261 47.4383 45.0455H49.0833V58.7861H46.9932ZM52.1504 58.7861C52.1504 57.754 52.3053 56.8315 52.6149 56.0187C52.9246 55.2058 53.4535 54.4511 54.2019 53.7544C54.9502 53.0577 55.9823 52.361 57.2983 51.6643C57.9305 51.3417 58.4337 51.045 58.8079 50.774C59.1949 50.4902 59.4723 50.1999 59.64 49.9031C59.8078 49.6064 59.8916 49.2451 59.8916 48.8194C59.8916 48.3807 59.7949 48.0065 59.6013 47.6969C59.4207 47.3743 59.1498 47.1228 58.7885 46.9421C58.4272 46.7486 57.9692 46.6518 57.4144 46.6518C56.5371 46.6518 55.8404 46.8905 55.3243 47.3679C54.8211 47.8324 54.505 48.5033 54.376 49.3806L52.2085 49.2451C52.3633 47.8646 52.8859 46.768 53.7761 45.9551C54.6792 45.1423 55.892 44.7359 57.4144 44.7359C58.395 44.7359 59.2272 44.9101 59.911 45.2584C60.6077 45.5939 61.1367 46.0648 61.4979 46.6712C61.8721 47.2776 62.0591 47.9807 62.0591 48.7807C62.0591 49.4774 61.943 50.0773 61.7108 50.5805C61.4786 51.0837 61.0915 51.5546 60.5496 51.9933C60.0077 52.419 59.2723 52.877 58.3434 53.3673C57.1564 53.9995 56.2597 54.6253 55.6533 55.2445C55.0469 55.8509 54.7244 56.3928 54.6857 56.8702H62.0591V58.7861H52.1504Z" fill="white"/>
<rect x="75.0391" y="40.1904" width="24.1912" height="24.1912" rx="2.41912" fill="#E697BF"/>
<path d="M80.8136 58.7861V48.9935H77.9107V47.3098H79.0912C79.6073 47.3098 80.0266 47.2453 80.3491 47.1163C80.6717 46.9744 80.9039 46.7422 81.0458 46.4196C81.1878 46.0842 81.2587 45.6261 81.2587 45.0455H82.9037V58.7861H80.8136ZM90.9981 59.0958C89.4112 59.0958 88.1855 58.7281 87.321 57.9927C86.4695 57.2573 86.0115 56.2896 85.947 55.0897L88.0952 54.9736C88.1726 55.7606 88.4693 56.3283 88.9854 56.6767C89.5144 57.0121 90.1853 57.1798 90.9981 57.1798C91.54 57.1798 92.0367 57.1089 92.4883 56.967C92.9527 56.8121 93.3204 56.567 93.5914 56.2315C93.8752 55.8832 94.0172 55.4316 94.0172 54.8768C94.0172 54.0511 93.7398 53.4447 93.185 53.0577C92.6302 52.6577 91.8948 52.4577 90.9787 52.4577H89.8369V50.6385H90.9787C91.7142 50.6385 92.327 50.4902 92.8173 50.1934C93.3075 49.8967 93.5527 49.3806 93.5527 48.6452C93.5527 48.0001 93.3463 47.5098 92.9334 47.1744C92.5205 46.826 91.8883 46.6518 91.0368 46.6518C90.2111 46.6518 89.5853 46.8131 89.1596 47.1357C88.7338 47.4582 88.4822 47.8969 88.4048 48.4517L86.2566 48.3355C86.3856 47.2518 86.8566 46.3809 87.6694 45.7229C88.4951 45.0649 89.6176 44.7359 91.0368 44.7359C92.0174 44.7359 92.856 44.8907 93.5527 45.2004C94.2494 45.4971 94.7848 45.9293 95.159 46.497C95.5331 47.0647 95.7202 47.7292 95.7202 48.4904C95.7202 49.329 95.4493 50.0128 94.9074 50.5418C94.3784 51.0708 93.5978 51.432 92.5657 51.6255V51.2772C93.6882 51.4191 94.5719 51.8191 95.217 52.4771C95.8621 53.1222 96.1847 53.9479 96.1847 54.9543C96.1847 55.8187 95.9654 56.567 95.5267 57.1992C95.088 57.8185 94.4816 58.2894 93.7075 58.612C92.9334 58.9345 92.0303 59.0958 90.9981 59.0958Z" fill="#231F20"/>
<rect x="108.907" y="40.1904" width="24.1912" height="24.1912" rx="2.41912" fill="#605E34"/>
<path d="M114.832 58.7861V48.9935H111.93V47.3098H113.11C113.626 47.3098 114.045 47.2453 114.368 47.1163C114.691 46.9744 114.923 46.7422 115.065 46.4196C115.207 46.0842 115.278 45.6261 115.278 45.0455H116.923V58.7861H114.832ZM126.129 58.7861V55.9219H119.201V54.1414L125.878 45.0455H128.219V54.0253H129.903V55.9219H128.219V58.7861H126.129ZM121.581 54.0253H126.129V47.9485L121.581 54.0253Z" fill="white"/>
<rect x="142.774" y="40.1904" width="24.1912" height="24.1912" rx="2.41912" fill="#C7B28F"/>
<path d="M148.398 58.7861V48.9935H145.495V47.3098H146.675C147.191 47.3098 147.611 47.2453 147.933 47.1163C148.256 46.9744 148.488 46.7422 148.63 46.4196C148.772 46.0842 148.843 45.6261 148.843 45.0455H150.488V58.7861H148.398ZM158.776 59.0958C157.757 59.0958 156.886 58.9345 156.163 58.612C155.441 58.2765 154.873 57.812 154.46 57.2185C154.047 56.6251 153.809 55.9413 153.744 55.1671L155.892 55.0317C155.995 55.7542 156.299 56.2961 156.802 56.6573C157.318 57.0057 157.976 57.1798 158.776 57.1798C159.679 57.1798 160.389 56.9283 160.905 56.4251C161.434 55.9219 161.698 55.2187 161.698 54.3156C161.698 53.7221 161.576 53.2125 161.33 52.7867C161.098 52.3481 160.763 52.0126 160.324 51.7804C159.885 51.5352 159.363 51.4127 158.756 51.4127C158.15 51.4127 157.608 51.5417 157.131 51.7997C156.653 52.0578 156.312 52.4126 156.105 52.8641H153.938L154.866 45.0455H162.917V46.9615H156.724L156.144 51.6643L155.815 51.374C156.034 50.9869 156.312 50.6708 156.647 50.4257C156.982 50.1676 157.369 49.9741 157.808 49.8451C158.26 49.7032 158.737 49.6322 159.24 49.6322C160.169 49.6322 160.976 49.8322 161.659 50.2321C162.356 50.6321 162.898 51.1869 163.285 51.8965C163.672 52.6061 163.866 53.4125 163.866 54.3156C163.866 55.2574 163.653 56.0896 163.227 56.8121C162.801 57.5346 162.208 58.0959 161.446 58.4958C160.685 58.8958 159.795 59.0958 158.776 59.0958Z" fill="#231F20"/>
<rect x="176.642" y="40.1904" width="24.1912" height="24.1912" rx="2.41912" fill="#8CD1BE"/>
<path d="M182.738 58.7861V48.9935H179.835V47.3098H181.016C181.532 47.3098 181.951 47.2453 182.273 47.1163C182.596 46.9744 182.828 46.7422 182.97 46.4196C183.112 46.0842 183.183 45.6261 183.183 45.0455H184.828V58.7861H182.738ZM192.676 59.0958C191.593 59.0958 190.676 58.8571 189.928 58.3797C189.18 57.8894 188.612 57.1863 188.225 56.2703C187.838 55.3413 187.645 54.2188 187.645 52.9028C187.645 51.7546 187.741 50.6902 187.935 49.7096C188.141 48.7162 188.464 47.8517 188.902 47.1163C189.341 46.368 189.909 45.7874 190.606 45.3745C191.315 44.9488 192.18 44.7359 193.199 44.7359C194.463 44.7359 195.444 45.0455 196.14 45.6648C196.85 46.2712 197.34 47.0841 197.611 48.1033L195.541 48.2775C195.386 47.7743 195.128 47.3743 194.766 47.0776C194.418 46.7809 193.896 46.6325 193.199 46.6325C192.141 46.6325 191.309 47.0841 190.702 47.9872C190.096 48.8903 189.767 50.2708 189.715 52.1287L189.348 52.0513C189.489 51.6126 189.728 51.2127 190.064 50.8514C190.412 50.4773 190.838 50.1805 191.341 49.9612C191.857 49.729 192.438 49.6128 193.083 49.6128C193.999 49.6128 194.799 49.8064 195.482 50.1934C196.179 50.5676 196.715 51.103 197.089 51.7997C197.476 52.4964 197.669 53.3093 197.669 54.2382C197.669 55.2445 197.456 56.1154 197.031 56.8508C196.618 57.5733 196.037 58.1281 195.289 58.5152C194.541 58.9023 193.67 59.0958 192.676 59.0958ZM192.696 57.2379C193.534 57.2379 194.218 56.9734 194.747 56.4444C195.276 55.9025 195.541 55.1671 195.541 54.2382C195.541 53.6576 195.424 53.1544 195.192 52.7287C194.973 52.29 194.657 51.9545 194.244 51.7223C193.844 51.4901 193.373 51.374 192.831 51.374C192.263 51.374 191.754 51.4901 191.302 51.7223C190.851 51.9545 190.496 52.29 190.238 52.7287C189.98 53.1544 189.851 53.6576 189.851 54.2382C189.851 54.8188 189.967 55.3349 190.199 55.7864C190.431 56.238 190.76 56.5928 191.186 56.8508C191.612 57.1089 192.115 57.2379 192.696 57.2379Z" fill="#231F20"/>
<rect x="210.51" y="40.1904" width="24.1912" height="24.1912" rx="2.41912" fill="#B37875"/>
<path d="M217.399 58.7861V48.9935H214.496V47.3098H215.677C216.193 47.3098 216.612 47.2453 216.935 47.1163C217.257 46.9744 217.49 46.7422 217.632 46.4196C217.774 46.0842 217.844 45.6261 217.844 45.0455H219.489V58.7861H217.399ZM224.536 58.7861C224.536 57.3669 224.723 55.9671 225.097 54.5865C225.484 53.1931 226.026 51.8578 226.723 50.5805C227.433 49.2903 228.278 48.084 229.258 46.9615H221.575V45.0455H231.464V46.826C230.381 48.0646 229.478 49.3032 228.755 50.5418C228.045 51.7675 227.516 53.0577 227.168 54.4124C226.833 55.7542 226.665 57.2121 226.665 58.7861H224.536Z" fill="white"/>
<rect x="244.377" y="40.1904" width="24.1912" height="24.1912" rx="2.41912" fill="#C4984F"/>
<path d="M250.35 58.7861V48.9935H247.447V47.3098H248.628C249.144 47.3098 249.563 47.2453 249.886 47.1163C250.209 46.9744 250.441 46.7422 250.583 46.4196C250.725 46.0842 250.796 45.6261 250.796 45.0455H252.441V58.7861H250.35ZM260.215 59.0958C259.17 59.0958 258.247 58.941 257.448 58.6313C256.648 58.3217 256.022 57.8636 255.57 57.2573C255.132 56.6509 254.912 55.909 254.912 55.0317C254.912 54.0253 255.215 53.1931 255.822 52.5351C256.441 51.8771 257.254 51.4385 258.26 51.2191L258.299 51.6062C257.473 51.4127 256.809 51.0579 256.306 50.5418C255.815 50.0257 255.57 49.3483 255.57 48.5097C255.57 47.7743 255.757 47.1228 256.132 46.5551C256.519 45.9874 257.054 45.5423 257.738 45.2197C258.435 44.8972 259.26 44.7359 260.215 44.7359C261.17 44.7359 261.995 44.8972 262.692 45.2197C263.389 45.5423 263.924 45.9874 264.298 46.5551C264.673 47.1228 264.86 47.7743 264.86 48.5097C264.86 49.3483 264.608 50.0257 264.105 50.5418C263.615 51.045 262.957 51.3998 262.131 51.6062L262.17 51.2191C263.189 51.4385 264.002 51.8771 264.608 52.5351C265.214 53.1931 265.518 54.0253 265.518 55.0317C265.518 55.909 265.292 56.6509 264.84 57.2573C264.402 57.8636 263.782 58.3217 262.982 58.6313C262.195 58.941 261.273 59.0958 260.215 59.0958ZM260.215 57.1798C261.17 57.1798 261.931 56.9863 262.499 56.5993C263.066 56.1993 263.35 55.6058 263.35 54.8188C263.35 54.0705 263.092 53.4705 262.576 53.019C262.06 52.5674 261.273 52.3416 260.215 52.3416C259.17 52.3416 258.383 52.5674 257.854 53.019C257.338 53.4705 257.08 54.0705 257.08 54.8188C257.08 55.6058 257.364 56.1993 257.931 56.5993C258.499 56.9863 259.26 57.1798 260.215 57.1798ZM260.215 50.6192C261.002 50.6192 261.608 50.4579 262.034 50.1354C262.473 49.7999 262.692 49.2903 262.692 48.6065C262.692 48.013 262.479 47.5356 262.054 47.1744C261.641 46.8131 261.028 46.6325 260.215 46.6325C259.415 46.6325 258.802 46.8131 258.376 47.1744C257.951 47.5356 257.738 48.013 257.738 48.6065C257.738 49.2903 257.951 49.7999 258.376 50.1354C258.815 50.4579 259.428 50.6192 260.215 50.6192Z" fill="#231F20"/>
<rect x="278.245" y="40.1904" width="43.451" height="24.1912" rx="2.41912" fill="#B6B6B6"/>
<path d="M286.258 44.7352C286.858 45.0384 287.399 45.3835 287.883 45.7706L287.419 46.4963C286.871 46.0964 286.329 45.7513 285.793 45.461L286.258 44.7352ZM294.241 46.5254H291.377V47.2705H293.912V52.6119C293.912 52.9344 293.838 53.1699 293.689 53.3183C293.541 53.4666 293.305 53.5408 292.983 53.5408H292.141L291.947 52.7473H293.07V51.2765H291.377V53.4731H290.535V51.2765H288.967V53.6085H288.125V47.2705H290.525V46.5254H287.98V45.7416H290.525V44.7836H291.377V45.7416H292.992C292.638 45.5545 292.293 45.3965 291.957 45.2674L292.422 44.7546C292.893 44.9159 293.305 45.0997 293.66 45.3061L293.254 45.7416H294.241V46.5254ZM287.119 48.9735C286.525 48.5349 285.913 48.1413 285.28 47.793L285.764 47.0769C286.383 47.3866 287 47.7801 287.612 48.2575L287.119 48.9735ZM290.535 48.9348V48.0155H288.967V48.9348H290.535ZM291.377 48.9348H293.07V48.0155H291.377V48.9348ZM288.967 49.6509V50.5701H290.535V49.6509H288.967ZM291.377 49.6509V50.5701H293.07V49.6509H291.377ZM285.367 53.0086C285.967 52.2151 286.49 51.183 286.935 49.9121L287.709 50.2605C287.522 50.8282 287.29 51.4152 287.012 52.0216C286.735 52.6215 286.435 53.1538 286.113 53.6182L285.367 53.0086ZM297.376 46.5447C296.744 46.1254 296.115 45.7738 295.489 45.49L295.934 44.7449C296.56 45.0029 297.186 45.3513 297.811 45.79L297.376 46.5447ZM301.305 46.119V52.2925H303.869V53.1731H297.647V52.2925H300.366V46.119H297.976V45.2578H303.704V46.119H301.305ZM297.037 49.0025C296.341 48.5381 295.644 48.1478 294.947 47.8317L295.402 47.0866C296.105 47.3769 296.802 47.7672 297.492 48.2575L297.037 49.0025ZM295.034 52.9796C295.705 52.1797 296.286 51.1539 296.776 49.9025L297.55 50.2798C297.337 50.8475 297.073 51.4313 296.757 52.0313C296.447 52.6312 296.118 53.1602 295.77 53.6182L295.034 52.9796ZM306.443 48.422C305.869 48.5381 305.365 48.6252 304.933 48.6832L304.72 47.9285C304.978 47.6511 305.256 47.2156 305.553 46.6221C305.849 46.0222 306.114 45.3868 306.346 44.7159L307.13 44.9965C306.93 45.5319 306.707 46.048 306.462 46.5447C306.217 47.035 305.975 47.4575 305.736 47.8123C306.169 47.7543 306.569 47.6769 306.936 47.5801C307.072 47.335 307.227 47.0414 307.401 46.6995L308.117 47.0769C307.794 47.6962 307.443 48.2929 307.062 48.8671C306.681 49.4412 306.336 49.8896 306.027 50.2121C306.446 50.1089 307.017 49.9476 307.739 49.7283L307.875 50.5024C306.959 50.7733 306.023 51.012 305.069 51.2185L304.817 50.483C305.043 50.296 305.298 50.0218 305.582 49.6605C305.865 49.2993 306.152 48.8864 306.443 48.422ZM312.965 51.1701L313.681 51.5281L313.507 52.9409C313.481 53.1409 313.413 53.2957 313.303 53.4053C313.194 53.5215 313.055 53.5795 312.887 53.5795C312.745 53.5795 312.591 53.5408 312.423 53.4634C311.804 53.1925 311.278 52.699 310.846 51.9829C310.123 52.3958 309.307 52.7377 308.397 53.0086L308.078 52.2248C308.962 51.9861 309.765 51.67 310.488 51.2765C310.288 50.812 310.113 50.2702 309.965 49.6509L308.252 49.9218L308.117 49.1283L309.82 48.8671C309.755 48.5123 309.704 48.1026 309.665 47.6382L308.301 47.822L308.185 47.0382L309.607 46.8544C309.581 46.4609 309.568 45.9932 309.568 45.4513V44.7836H310.391V45.4513C310.391 45.9029 310.4 46.3383 310.42 46.7576L313.042 46.4189L313.158 47.1737L310.478 47.5317C310.517 47.951 310.565 48.3542 310.623 48.7413L313.381 48.3155L313.507 49.08L310.778 49.5154C310.9 50.0444 311.039 50.4895 311.194 50.8508C311.736 50.4895 312.229 50.0605 312.674 49.5638L313.265 50.0476C312.762 50.6153 312.187 51.1185 311.542 51.5571C311.884 52.1313 312.3 52.5312 312.791 52.757L312.965 51.1701ZM312.171 46.4286C311.971 46.2544 311.723 46.0674 311.426 45.8674C311.136 45.6609 310.884 45.5029 310.671 45.3932L311.117 44.832C311.342 44.9481 311.597 45.1029 311.881 45.2965C312.165 45.49 312.413 45.6738 312.626 45.848L312.171 46.4286ZM304.682 52.3506C305.862 52.0861 306.907 51.8055 307.817 51.5088L307.962 52.3022C307.033 52.6119 306.014 52.8957 304.904 53.1538L304.682 52.3506Z" fill="white"/>
<path d="M282.025 59.6895V55.1093H283.735C284.26 55.1093 284.668 55.2361 284.961 55.4899C285.253 55.7393 285.399 56.0877 285.399 56.5349C285.399 56.8317 285.333 57.0897 285.199 57.309C285.066 57.5241 284.875 57.6896 284.625 57.8058C284.38 57.9176 284.083 57.9735 283.735 57.9735H282.722V59.6895H282.025ZM282.722 57.3413H283.716C284.03 57.3413 284.268 57.2746 284.432 57.1413C284.595 57.0037 284.677 56.8016 284.677 56.5349C284.677 56.2726 284.595 56.0769 284.432 55.9479C284.268 55.8146 284.03 55.7479 283.716 55.7479H282.722V57.3413ZM287.141 59.7669C286.796 59.7669 286.521 59.6529 286.315 59.425C286.113 59.1927 286.012 58.8723 286.012 58.4638V56.2575H286.695V58.2896C286.695 58.5992 286.749 58.8272 286.857 58.9734C286.964 59.1196 287.128 59.1927 287.347 59.1927C287.596 59.1927 287.79 59.1132 287.928 58.954C288.069 58.7906 288.14 58.5627 288.14 58.2702V56.2575H288.824V59.6895H288.186L288.173 58.7928L288.269 58.8315C288.209 59.1325 288.082 59.3648 287.889 59.5282C287.695 59.6873 287.446 59.7669 287.141 59.7669ZM289.263 60.6571V60.0959H289.573C289.689 60.0959 289.781 60.0701 289.85 60.0185C289.919 59.9668 289.953 59.8679 289.953 59.7217V56.2575H290.637V59.7475C290.637 60.0744 290.562 60.3066 290.411 60.4442C290.265 60.5861 290.02 60.6571 289.676 60.6571H289.263ZM289.94 55.7608V55.077H290.65V55.7608H289.94ZM291.492 59.6895V56.2575H292.176V59.6895H291.492ZM291.479 55.7608V55.077H292.189V55.7608H291.479ZM294.041 59.7669C293.684 59.7669 293.398 59.6852 293.183 59.5217C292.972 59.3583 292.867 59.1282 292.867 58.8315C292.867 58.5347 292.955 58.3046 293.132 58.1412C293.312 57.9735 293.59 57.8531 293.964 57.78L295.144 57.5542C295.144 57.2875 295.082 57.0897 294.957 56.9607C294.832 56.8274 294.648 56.7607 294.402 56.7607C294.183 56.7607 294.011 56.8102 293.886 56.9091C293.762 57.0037 293.676 57.1456 293.628 57.3348L292.925 57.2897C292.99 56.9456 293.149 56.6747 293.402 56.4769C293.661 56.279 293.994 56.1801 294.402 56.1801C294.867 56.1801 295.22 56.3048 295.46 56.5543C295.705 56.7994 295.828 57.1456 295.828 57.5929V58.9282C295.828 59.0099 295.841 59.068 295.867 59.1024C295.897 59.1325 295.944 59.1476 296.009 59.1476H296.131V59.6895C296.11 59.6938 296.075 59.6981 296.028 59.7024C295.981 59.7067 295.931 59.7088 295.88 59.7088C295.733 59.7088 295.607 59.6852 295.499 59.6378C295.396 59.5905 295.318 59.5131 295.267 59.4056C295.215 59.2938 295.189 59.1454 295.189 58.9605L295.26 58.9927C295.226 59.1433 295.151 59.2766 295.035 59.3927C294.923 59.5088 294.779 59.6013 294.602 59.6701C294.43 59.7346 294.243 59.7669 294.041 59.7669ZM294.151 59.225C294.357 59.225 294.534 59.1863 294.68 59.1089C294.826 59.0272 294.94 58.9153 295.022 58.7734C295.103 58.6315 295.144 58.4702 295.144 58.2896V58.0703L294.138 58.2638C293.931 58.3025 293.785 58.3649 293.699 58.4509C293.618 58.5326 293.577 58.6379 293.577 58.767C293.577 58.9132 293.626 59.0272 293.725 59.1089C293.828 59.1863 293.97 59.225 294.151 59.225ZM296.709 59.6895V56.2575H297.334L297.36 57.1736L297.276 57.1284C297.315 56.9048 297.388 56.7242 297.496 56.5865C297.603 56.4489 297.734 56.3478 297.889 56.2833C298.044 56.2145 298.212 56.1801 298.392 56.1801C298.65 56.1801 298.863 56.2382 299.031 56.3543C299.203 56.4661 299.332 56.6209 299.418 56.8188C299.508 57.0123 299.554 57.2338 299.554 57.4832V59.6895H298.87V57.6896C298.87 57.4875 298.848 57.3176 298.805 57.18C298.762 57.0424 298.691 56.937 298.592 56.8639C298.493 56.7908 298.364 56.7543 298.205 56.7543C297.964 56.7543 297.769 56.8338 297.618 56.9929C297.468 57.1521 297.392 57.3843 297.392 57.6896V59.6895H296.709ZM301.825 60.7345C301.554 60.7345 301.315 60.6937 301.109 60.6119C300.902 60.5302 300.733 60.4141 300.599 60.2636C300.466 60.1174 300.376 59.9453 300.328 59.7475L301.038 59.7024C301.085 59.8443 301.167 59.9561 301.283 60.0378C301.403 60.1238 301.584 60.1668 301.825 60.1668C302.109 60.1668 302.326 60.1066 302.476 59.9862C302.631 59.8658 302.709 59.683 302.709 59.4379V58.9411C302.627 59.1175 302.496 59.2572 302.315 59.3605C302.135 59.4637 301.932 59.5153 301.709 59.5153C301.421 59.5153 301.165 59.4443 300.941 59.3024C300.717 59.1605 300.543 58.9648 300.419 58.7154C300.294 58.4659 300.232 58.1778 300.232 57.8509C300.232 57.5198 300.292 57.2295 300.412 56.98C300.537 56.7306 300.709 56.5349 300.928 56.393C301.152 56.2511 301.403 56.1801 301.683 56.1801C301.928 56.1801 302.143 56.236 302.328 56.3478C302.517 56.4597 302.653 56.6102 302.734 56.7994V56.2575H303.392V59.4185C303.392 59.7024 303.328 59.941 303.199 60.1346C303.074 60.3324 302.894 60.4808 302.657 60.5797C302.425 60.6829 302.147 60.7345 301.825 60.7345ZM301.818 58.9347C302.085 58.9347 302.298 58.8379 302.457 58.6444C302.621 58.4509 302.704 58.1842 302.709 57.8445C302.713 57.6208 302.679 57.4295 302.605 57.2703C302.532 57.1069 302.427 56.9822 302.289 56.8962C302.156 56.8059 301.999 56.7607 301.818 56.7607C301.539 56.7607 301.322 56.8596 301.167 57.0575C301.016 57.251 300.941 57.5133 300.941 57.8445C300.941 58.1799 301.019 58.4466 301.173 58.6444C301.332 58.8379 301.548 58.9347 301.818 58.9347ZM306.002 59.6895V55.1093H306.699V59.4314L306.331 59.0508H308.931V59.6895H306.002ZM309.409 59.6895V56.2575H310.093V59.6895H309.409ZM309.396 55.7608V55.077H310.106V55.7608H309.396ZM311.097 59.6895V56.2575H311.723L311.749 57.1736L311.665 57.1284C311.704 56.9048 311.777 56.7242 311.884 56.5865C311.992 56.4489 312.123 56.3478 312.278 56.2833C312.433 56.2145 312.6 56.1801 312.781 56.1801C313.039 56.1801 313.252 56.2382 313.42 56.3543C313.592 56.4661 313.721 56.6209 313.807 56.8188C313.897 57.0123 313.942 57.2338 313.942 57.4832V59.6895H313.258V57.6896C313.258 57.4875 313.237 57.3176 313.194 57.18C313.151 57.0424 313.08 56.937 312.981 56.8639C312.882 56.7908 312.753 56.7543 312.594 56.7543C312.353 56.7543 312.157 56.8338 312.007 56.9929C311.856 57.1521 311.781 57.3843 311.781 57.6896V59.6895H311.097ZM316.246 59.7669C315.91 59.7669 315.62 59.6938 315.375 59.5475C315.134 59.4013 314.947 59.1927 314.814 58.9218C314.685 58.6508 314.62 58.3347 314.62 57.9735C314.62 57.6122 314.685 57.2983 314.814 57.0316C314.947 56.7607 315.134 56.5521 315.375 56.4059C315.616 56.2554 315.9 56.1801 316.227 56.1801C316.536 56.1801 316.809 56.2532 317.046 56.3995C317.282 56.5414 317.465 56.7478 317.594 57.0187C317.727 57.2897 317.794 57.6165 317.794 57.9993V58.1735H315.33C315.347 58.5089 315.435 58.7605 315.594 58.9282C315.758 59.096 315.977 59.1798 316.252 59.1798C316.454 59.1798 316.622 59.1325 316.755 59.0379C316.889 58.9433 316.981 58.8164 317.033 58.6573L317.742 58.7025C317.652 59.0207 317.474 59.2787 317.207 59.4766C316.945 59.6701 316.624 59.7669 316.246 59.7669ZM315.33 57.6574H317.072C317.05 57.352 316.962 57.1263 316.807 56.98C316.657 56.8338 316.463 56.7607 316.227 56.7607C315.981 56.7607 315.779 56.8381 315.62 56.9929C315.465 57.1435 315.369 57.3649 315.33 57.6574Z" fill="white"/>
<path d="M41.2019 102.387C41.2019 103.707 40.1321 104.784 38.8051 104.784H19.4007C18.0804 104.784 17.0039 103.707 17.0039 102.387V82.9828C17.0039 81.6558 18.0804 80.5928 19.4007 80.5928H38.8051C40.1254 80.5928 41.2019 81.6625 41.2019 82.9828V102.387Z" fill="#0C7573"/>
<path d="M35.0814 91.676H29.8004V87.8777H34.3254C34.7429 87.8777 35.0814 88.2161 35.0814 88.6336V91.676ZM28.4056 91.676H23.1314V88.6336C23.1314 88.2161 23.4698 87.8777 23.8874 87.8777H28.4056V91.676ZM32.1498 84.1064L30.4368 84.0591L30.166 84.0524L29.1098 82.1024V82.082L29.103 82.0888V82.082L29.0962 82.1024L28.0468 84.0524L27.7692 84.0591L26.063 84.1064C23.7656 84.2302 21.1243 84.8186 20.8091 87.4781V94.391C20.8091 94.391 21.0934 94.9935 21.6486 95.2846C22.2038 95.5757 22.7319 95.6164 22.7319 95.6164H35.4876C35.4876 95.6164 36.0225 95.5825 36.5709 95.2846C37.1193 94.9935 37.4105 94.391 37.4105 94.391V88.376C37.4105 87.7782 37.4027 87.1667 37.1807 86.6117C36.4136 84.6935 34.2138 84.2176 32.1498 84.1064ZM36.8011 96.0091C36.2676 96.3214 35.6093 96.3002 34.991 96.3002H23.2287C22.6103 96.3002 21.9487 96.3273 21.4184 96.0091C21.1408 95.8466 20.8971 95.6909 20.8971 95.6909V99.2502C20.8971 99.5935 20.9302 99.9381 21.0533 100.259C21.1845 100.6 21.4025 101.039 21.7231 101.304C21.8842 101.437 22.0459 101.549 22.1955 101.642C22.6363 101.916 23.1596 101.994 23.6784 101.994H25.0542V100.153H23.4608C23.0433 100.153 22.7048 99.8143 22.7048 99.3968V98.0471C22.7048 98.0471 22.7048 97.7965 22.9689 97.6882C22.9689 97.6882 25.2302 97.6882 27.3291 97.6882H29.103H30.8836C32.9893 97.6882 35.2371 97.6882 35.2439 97.6882C35.5079 97.7965 35.5079 98.0471 35.5079 98.0471V99.3968C35.5079 99.8143 35.1695 100.153 34.752 100.153H33.1721V101.994H34.5718C35.075 101.994 35.5829 101.921 36.0115 101.657C36.1664 101.562 36.3351 101.444 36.5032 101.304C36.8163 101.042 37.0332 100.61 37.1659 100.271C37.2943 99.9426 37.3292 99.5887 37.3292 99.2363V95.6909C37.3292 95.6909 37.0787 95.8466 36.8011 96.0091Z" fill="white"/>
<path d="M57.7165 87.4854V91.0722H62.9805V91.9753H51.6783V91.0722H56.7359V87.4854H52.1557V86.6081H56.7359V85.0599H54.0394V84.3761C53.3685 84.7803 52.6073 85.176 51.7558 85.5631L51.2655 84.647C52.8223 83.9675 54.0093 83.3138 54.8264 82.6859C55.6521 82.0494 56.2499 81.3613 56.6198 80.6216H57.8326C58.1852 81.3441 58.7959 82.0236 59.6647 82.6601C60.542 83.2966 61.7849 83.9589 63.3933 84.647L62.9159 85.5631C62.0128 85.1588 61.2387 84.776 60.5936 84.4148V85.0599H57.7165V86.6081H62.5031V87.4854H57.7165ZM57.1746 81.099C57.0025 81.6581 56.6843 82.1913 56.2198 82.6988C55.764 83.2063 55.1318 83.7095 54.3232 84.2083H60.2452C59.3937 83.7095 58.7271 83.2063 58.2454 82.6988C57.7638 82.1913 57.4369 81.6581 57.2649 81.099H57.1746ZM59.1873 90.1561C59.4195 89.8207 59.6431 89.4508 59.8582 89.0466C60.0818 88.6337 60.2581 88.251 60.3872 87.8983L61.2774 88.2596C61.1226 88.6466 60.9333 89.0509 60.7097 89.4723C60.4861 89.8938 60.2667 90.2594 60.0517 90.569L59.1873 90.1561ZM54.091 88.0015C54.3146 88.3198 54.5469 88.6853 54.7877 89.0982C55.0285 89.5025 55.2307 89.8809 55.3941 90.2336L54.5168 90.6077C54.1727 89.868 53.7513 89.1283 53.2524 88.3886L54.091 88.0015ZM75.405 92.4269H74.3987V91.4851L65.0577 91.7818V82.7375H66.064V90.7883L69.625 90.6851V80.699H70.6442V90.6593L74.3987 90.5432V82.7375H75.405V92.4269ZM79.0563 82.944C78.652 83.7611 78.1962 84.4922 77.6887 85.1373L77.0694 84.4277C77.4995 83.946 77.8822 83.3697 78.2177 82.6988C78.5531 82.0193 78.8155 81.2839 79.0047 80.4926L79.882 80.7506C79.753 81.1979 79.6025 81.6409 79.4305 82.0795H82.0754V82.944H79.0563ZM86.1653 86.9436C86.3115 87.8123 86.6168 88.6036 87.0813 89.3175C87.5458 90.0314 88.2296 90.7668 89.1327 91.5238L88.5779 92.4011C87.5802 91.5152 86.8491 90.6679 86.3846 89.8594C85.9287 89.0423 85.6793 88.1649 85.6363 87.2274H85.546C85.5288 88.1477 85.3008 89.0208 84.8622 89.8465C84.4321 90.6636 83.7526 91.5152 82.8237 92.4011L82.2689 91.5238C83.1118 90.7754 83.7483 90.04 84.1784 89.3175C84.6084 88.595 84.8923 87.8037 85.0299 86.9436H82.256V86.0662H85.1202C85.1374 85.7394 85.146 85.4899 85.146 85.3179V83.6794H83.5978C83.357 84.4621 83.1032 85.0857 82.8366 85.5501L82.127 84.9696C82.4108 84.4879 82.6473 83.8944 82.8366 83.1891C83.0344 82.4838 83.172 81.7914 83.2494 81.1119L84.0623 81.2667C84.0021 81.8172 83.9203 82.3333 83.8171 82.8149H85.146V80.5958H86.0492V82.8149H88.6683V83.6794H86.0492V85.3179C86.0492 85.4899 86.0578 85.7394 86.075 86.0662H88.9521V86.9436H86.1653ZM82.2818 90.4142C81.2152 91.0765 80.2003 91.6227 79.2369 92.0527L78.8886 91.2915C79.052 91.1969 79.1681 91.1023 79.2369 91.0077C79.3057 90.9045 79.3401 90.7496 79.3401 90.5432V87.7951H77.3145V86.9565H79.3401V85.2663H78.2822V84.4406H81.7786V85.2663H80.2433V86.9565H82.1141V87.7951H80.2433V90.6206C80.725 90.3712 81.3012 90.0486 81.9721 89.653L82.2818 90.4142ZM99.4156 85.0341C100.138 85.5501 101.037 86.0662 102.112 86.5823L101.661 87.3951C100.499 86.8188 99.5145 86.2297 98.706 85.6276C97.8373 86.2899 96.7148 86.9178 95.3386 87.5112L94.887 86.7242C96.1514 86.1995 97.1879 85.6448 97.9964 85.0599C97.4201 84.5524 96.9255 84.0277 96.5126 83.4858C96.1342 83.9073 95.6955 84.3159 95.1967 84.7115L94.6677 84.0277C95.3042 83.5288 95.8417 82.9827 96.2804 82.3892C96.7191 81.7957 97.0588 81.1807 97.2997 80.5442L98.177 80.6732C98.0738 80.9829 97.9276 81.3312 97.7383 81.7183H101.286V82.3634C100.848 83.3955 100.224 84.2858 99.4156 85.0341ZM93.3517 90.2207C93.9452 90.0572 94.4913 89.8852 94.9902 89.7046L95.0676 90.5303C94.3967 90.7969 93.6742 91.0335 92.9001 91.2399C92.1346 91.4377 91.2314 91.6442 90.1907 91.8592L90.0488 90.9432L90.7455 90.8141V85.9372H91.5712V90.6464C91.7862 90.6034 92.1002 90.5303 92.513 90.4271V84.8792H90.7068V80.9829H94.5645V84.8792H93.3517V86.8145H94.8741V87.6403H93.3517V90.2207ZM93.7516 81.8215H91.5712V84.0664H93.7516V81.8215ZM97.0803 82.7891C97.5534 83.4342 98.0953 84.0019 98.706 84.4922C99.3941 83.8815 99.9016 83.2278 100.228 82.5311H97.2481L97.0803 82.7891ZM96.8352 92.3624H95.945V87.3048H101.054V92.3624H100.164V91.6012H96.8352V92.3624ZM100.164 88.1434H96.8352V90.7367H100.164V88.1434Z" fill="#231F20"/>
<path d="M53.7136 103.149C53.2879 103.149 52.9105 103.049 52.5815 102.849C52.2525 102.643 51.9944 102.359 51.8074 101.997C51.6267 101.636 51.5332 101.22 51.5267 100.749L52.3783 100.691C52.3847 101.22 52.5041 101.627 52.7363 101.91C52.9685 102.194 53.2943 102.336 53.7136 102.336C54.1523 102.336 54.4877 102.185 54.72 101.881C54.9587 101.578 55.078 101.149 55.078 100.594V96.1238H55.9102V100.594C55.9102 101.117 55.8199 101.572 55.6392 101.959C55.4586 102.339 55.2038 102.633 54.8748 102.839C54.5523 103.046 54.1652 103.149 53.7136 103.149ZM57.568 102.994V97.8656H58.3809V102.994H57.568ZM57.5487 97.0625V96.1142H58.4002V97.0625H57.5487ZM59.9872 102.994V97.8656H60.7322L60.7613 99.1719L60.6645 99.0848C60.729 98.7817 60.8419 98.5333 61.0032 98.3398C61.1645 98.1398 61.358 97.9914 61.5838 97.8946C61.816 97.7979 62.0644 97.7495 62.3289 97.7495C62.7224 97.7495 63.0449 97.8366 63.2965 98.0108C63.5545 98.1849 63.7448 98.4204 63.8674 98.7171C63.9964 99.0074 64.0609 99.3332 64.0609 99.6945V102.994H63.2481V99.9267C63.2481 99.6106 63.2094 99.3461 63.132 99.1332C63.061 98.9139 62.9449 98.7494 62.7837 98.6397C62.6224 98.5236 62.4127 98.4656 62.1547 98.4656C61.7612 98.4656 61.4354 98.5913 61.1774 98.8429C60.9258 99.0881 60.8 99.4493 60.8 99.9267V102.994H59.9872ZM67.3639 103.11C66.893 103.11 66.4962 103.036 66.1737 102.888C65.8576 102.739 65.6124 102.536 65.4383 102.278C65.2705 102.014 65.1738 101.714 65.148 101.378L65.9995 101.32C66.0511 101.63 66.1769 101.878 66.3769 102.065C66.5833 102.246 66.9123 102.336 67.3639 102.336C67.7122 102.336 67.9799 102.281 68.167 102.172C68.3605 102.056 68.4573 101.872 68.4573 101.62C68.4573 101.485 68.4251 101.372 68.3605 101.281C68.3025 101.191 68.1831 101.114 68.0025 101.049C67.8219 100.978 67.5574 100.91 67.209 100.846C66.7317 100.756 66.3575 100.643 66.0866 100.507C65.8156 100.372 65.6253 100.207 65.5157 100.014C65.406 99.8203 65.3512 99.588 65.3512 99.3171C65.3512 98.8591 65.5189 98.4849 65.8543 98.1946C66.1962 97.8979 66.6768 97.7495 67.2961 97.7495C67.7477 97.7495 68.1154 97.8301 68.3993 97.9914C68.6895 98.1462 68.9089 98.3494 69.0573 98.601C69.2056 98.8526 69.2959 99.1171 69.3282 99.3945L68.4767 99.4526C68.4638 99.2913 68.4154 99.1397 68.3315 98.9978C68.2477 98.8558 68.1219 98.7429 67.9541 98.6591C67.7864 98.5688 67.5606 98.5236 67.2768 98.5236C66.9091 98.5236 66.6381 98.5946 66.464 98.7365C66.2898 98.8784 66.2027 99.059 66.2027 99.2784C66.2027 99.4461 66.235 99.5848 66.2995 99.6945C66.3704 99.7977 66.4898 99.8848 66.6575 99.9557C66.8317 100.02 67.0671 100.078 67.3639 100.13C67.867 100.214 68.2606 100.32 68.5444 100.449C68.8282 100.578 69.025 100.74 69.1347 100.933C69.2508 101.12 69.3088 101.349 69.3088 101.62C69.3088 102.091 69.125 102.459 68.7573 102.723C68.396 102.981 67.9316 103.11 67.3639 103.11ZM70.429 102.994V96.1238H71.2419V98.9978L71.1451 98.9784C71.2096 98.6946 71.3193 98.4623 71.4741 98.2817C71.6289 98.1011 71.8192 97.9688 72.045 97.885C72.2708 97.7947 72.5192 97.7495 72.7901 97.7495C73.1578 97.7495 73.4675 97.8334 73.719 98.0011C73.9771 98.1624 74.1706 98.3914 74.2996 98.6881C74.4351 98.9784 74.5028 99.3139 74.5028 99.6945V102.994H73.69V99.9267C73.69 99.43 73.5997 99.0623 73.4191 98.8236C73.2449 98.5849 72.9772 98.4656 72.6159 98.4656C72.2031 98.4656 71.8708 98.5913 71.6192 98.8429C71.3677 99.0945 71.2419 99.459 71.2419 99.9364V102.994H70.429ZM77.3408 103.11C76.8119 103.11 76.3893 102.988 76.0732 102.743C75.7636 102.497 75.6088 102.156 75.6088 101.717C75.6088 101.278 75.7378 100.933 75.9958 100.681C76.2539 100.43 76.6635 100.252 77.2247 100.149L79.0439 99.8106C79.0439 99.3784 78.9407 99.0558 78.7343 98.8429C78.5343 98.6301 78.2311 98.5236 77.8247 98.5236C77.4699 98.5236 77.1892 98.6042 76.9828 98.7655C76.7764 98.9203 76.6345 99.1461 76.557 99.4429L75.6958 99.3751C75.7926 98.8913 76.0248 98.501 76.3925 98.2043C76.7667 97.9011 77.2441 97.7495 77.8247 97.7495C78.4827 97.7495 78.9858 97.9366 79.3342 98.3107C79.6825 98.6784 79.8567 99.1881 79.8567 99.8396V101.959C79.8567 102.075 79.8761 102.159 79.9148 102.21C79.9599 102.256 80.0309 102.278 80.1277 102.278H80.3309V102.994C80.3051 103.001 80.2631 103.004 80.2051 103.004C80.147 103.01 80.0857 103.013 80.0212 103.013C79.789 103.013 79.5987 102.978 79.4503 102.907C79.3084 102.83 79.2052 102.714 79.1407 102.559C79.0762 102.397 79.0439 102.188 79.0439 101.93L79.1407 101.949C79.0955 102.168 78.9858 102.368 78.8117 102.549C78.6375 102.723 78.4214 102.862 78.1633 102.965C77.9053 103.062 77.6311 103.11 77.3408 103.11ZM77.4183 102.394C77.7602 102.394 78.0504 102.33 78.2891 102.201C78.5343 102.065 78.7214 101.885 78.8504 101.659C78.9794 101.427 79.0439 101.169 79.0439 100.885V100.517L77.3795 100.827C77.0312 100.891 76.7893 100.991 76.6538 101.127C76.5248 101.256 76.4603 101.427 76.4603 101.639C76.4603 101.878 76.5441 102.065 76.7119 102.201C76.886 102.33 77.1215 102.394 77.4183 102.394ZM81.2489 102.994V97.8656H81.994L82.023 99.1719L81.9263 99.0848C81.9908 98.7817 82.1037 98.5333 82.265 98.3398C82.4262 98.1398 82.6198 97.9914 82.8455 97.8946C83.0778 97.7979 83.3261 97.7495 83.5906 97.7495C83.9841 97.7495 84.3067 97.8366 84.5583 98.0108C84.8163 98.1849 85.0066 98.4204 85.1292 98.7171C85.2582 99.0074 85.3227 99.3332 85.3227 99.6945V102.994H84.5099V99.9267C84.5099 99.6106 84.4712 99.3461 84.3938 99.1332C84.3228 98.9139 84.2067 98.7494 84.0454 98.6397C83.8842 98.5236 83.6745 98.4656 83.4165 98.4656C83.0229 98.4656 82.6972 98.5913 82.4391 98.8429C82.1875 99.0881 82.0617 99.4493 82.0617 99.9267V102.994H81.2489ZM89.4067 102.994V96.1238H92.0097C92.4935 96.1238 92.9096 96.2077 93.258 96.3754C93.6063 96.5432 93.874 96.7851 94.0611 97.1012C94.2546 97.4108 94.3514 97.7785 94.3514 98.2043C94.3514 98.5139 94.2772 98.7913 94.1288 99.0365C93.9869 99.2752 93.8031 99.4655 93.5773 99.6074C93.3515 99.7493 93.116 99.8267 92.8709 99.8396L92.8128 99.7525C93.2321 99.7525 93.5611 99.8493 93.7998 100.043C94.045 100.236 94.1869 100.546 94.2256 100.972L94.4191 102.994H93.5773L93.4031 101.059C93.3773 100.775 93.2741 100.565 93.0935 100.43C92.9193 100.294 92.6322 100.227 92.2322 100.227H90.2389V102.994H89.4067ZM90.2389 99.4138H92.1161C92.5354 99.4138 92.8677 99.3074 93.1128 99.0945C93.3579 98.8816 93.4805 98.5784 93.4805 98.1849C93.4805 97.785 93.3547 97.4786 93.1031 97.2657C92.8515 97.0463 92.4871 96.9367 92.0097 96.9367H90.2389V99.4138ZM97.1379 103.11C96.6089 103.11 96.1864 102.988 95.8703 102.743C95.5607 102.497 95.4058 102.156 95.4058 101.717C95.4058 101.278 95.5348 100.933 95.7929 100.681C96.0509 100.43 96.4606 100.252 97.0218 100.149L98.841 99.8106C98.841 99.3784 98.7378 99.0558 98.5313 98.8429C98.3313 98.6301 98.0282 98.5236 97.6217 98.5236C97.2669 98.5236 96.9863 98.6042 96.7799 98.7655C96.5735 98.9203 96.4315 99.1461 96.3541 99.4429L95.4929 99.3751C95.5897 98.8913 95.8219 98.501 96.1896 98.2043C96.5638 97.9011 97.0412 97.7495 97.6217 97.7495C98.2797 97.7495 98.7829 97.9366 99.1313 98.3107C99.4796 98.6784 99.6538 99.1881 99.6538 99.8396V101.959C99.6538 102.075 99.6732 102.159 99.7119 102.21C99.757 102.256 99.828 102.278 99.9247 102.278H100.128V102.994C100.102 103.001 100.06 103.004 100.002 103.004C99.9441 103.01 99.8828 103.013 99.8183 103.013C99.5861 103.013 99.3958 102.978 99.2474 102.907C99.1055 102.83 99.0023 102.714 98.9377 102.559C98.8732 102.397 98.841 102.188 98.841 101.93L98.9377 101.949C98.8926 102.168 98.7829 102.368 98.6087 102.549C98.4346 102.723 98.2185 102.862 97.9604 102.965C97.7024 103.062 97.4282 103.11 97.1379 103.11ZM97.2153 102.394C97.5572 102.394 97.8475 102.33 98.0862 102.201C98.3313 102.065 98.5184 101.885 98.6474 101.659C98.7765 101.427 98.841 101.169 98.841 100.885V100.517L97.1766 100.827C96.8283 100.891 96.5864 100.991 96.4509 101.127C96.3219 101.256 96.2574 101.427 96.2574 101.639C96.2574 101.878 96.3412 102.065 96.5089 102.201C96.6831 102.33 96.9186 102.394 97.2153 102.394ZM101.008 102.994V97.8656H101.821V102.994H101.008ZM100.989 97.0625V96.1142H101.84V97.0625H100.989ZM104.282 102.994C103.986 102.994 103.744 102.917 103.557 102.762C103.37 102.607 103.276 102.362 103.276 102.026V96.1238H104.089V101.959C104.089 102.062 104.115 102.143 104.166 102.201C104.224 102.252 104.305 102.278 104.408 102.278H104.853V102.994H104.282ZM106.645 102.994L105.058 97.8656H105.949L107.149 102.143L108.368 97.8656H109.239L110.458 102.143L111.667 97.8656H112.558L110.971 102.994H109.945L108.803 99.0945L107.661 102.994H106.645ZM114.714 103.11C114.185 103.11 113.763 102.988 113.447 102.743C113.137 102.497 112.982 102.156 112.982 101.717C112.982 101.278 113.111 100.933 113.369 100.681C113.627 100.43 114.037 100.252 114.598 100.149L116.417 99.8106C116.417 99.3784 116.314 99.0558 116.108 98.8429C115.908 98.6301 115.605 98.5236 115.198 98.5236C114.843 98.5236 114.563 98.6042 114.356 98.7655C114.15 98.9203 114.008 99.1461 113.931 99.4429L113.069 99.3751C113.166 98.8913 113.398 98.501 113.766 98.2043C114.14 97.9011 114.618 97.7495 115.198 97.7495C115.856 97.7495 116.359 97.9366 116.708 98.3107C117.056 98.6784 117.23 99.1881 117.23 99.8396V101.959C117.23 102.075 117.25 102.159 117.288 102.21C117.333 102.256 117.404 102.278 117.501 102.278H117.704V102.994C117.679 103.001 117.637 103.004 117.579 103.004C117.52 103.01 117.459 103.013 117.395 103.013C117.162 103.013 116.972 102.978 116.824 102.907C116.682 102.83 116.579 102.714 116.514 102.559C116.45 102.397 116.417 102.188 116.417 101.93L116.514 101.949C116.469 102.168 116.359 102.368 116.185 102.549C116.011 102.723 115.795 102.862 115.537 102.965C115.279 103.062 115.005 103.11 114.714 103.11ZM114.792 102.394C115.134 102.394 115.424 102.33 115.663 102.201C115.908 102.065 116.095 101.885 116.224 101.659C116.353 101.427 116.417 101.169 116.417 100.885V100.517L114.753 100.827C114.405 100.891 114.163 100.991 114.027 101.127C113.898 101.256 113.834 101.427 113.834 101.639C113.834 101.878 113.918 102.065 114.085 102.201C114.26 102.33 114.495 102.394 114.792 102.394ZM118.647 104.446V103.73H119.237C119.417 103.73 119.55 103.701 119.634 103.642C119.724 103.591 119.792 103.504 119.837 103.381L120.021 102.897H119.74L117.863 97.8656H118.753L120.282 102.143L121.743 97.8656H122.633L120.553 103.642C120.456 103.92 120.311 104.123 120.117 104.252C119.924 104.381 119.656 104.446 119.314 104.446H118.647Z" fill="#231F20"/>
<path d="M138.193 87.5112L137.535 88.1047L136.232 85.8985C136.215 85.8641 136.197 85.8469 136.18 85.8469C136.163 85.8469 136.154 85.8684 136.154 85.9114V92.414H135.251V85.6405H135.148C135.096 86.3372 134.946 87.0081 134.696 87.6532C134.447 88.2897 134.056 88.9434 133.522 89.6143L132.916 88.8401C133.604 87.9972 134.116 87.1629 134.451 86.3372C134.795 85.5028 135.015 84.6599 135.109 83.8084H133.187V82.9311H135.251V80.5442H136.154V82.9311H138.115V83.8084H136.154V85.4598H136.232L136.438 85.2792C136.533 85.2104 136.606 85.176 136.658 85.176C136.726 85.176 136.808 85.2491 136.903 85.3953L138.193 87.5112ZM144.05 88.2854L144.876 88.5563V91.3044C144.876 91.6141 144.807 91.8377 144.67 91.9753C144.541 92.1129 144.313 92.1818 143.986 92.1818H143.328C142.889 92.1818 142.571 92.0871 142.373 91.8979C142.175 91.7087 142.076 91.3861 142.076 90.9303V81.7957H139.535V83.9503C139.535 85.3781 139.483 86.5737 139.38 87.5371C139.285 88.4918 139.105 89.3691 138.838 90.1691C138.571 90.9604 138.18 91.7302 137.664 92.4785L136.954 91.7173C137.427 91.0378 137.78 90.354 138.012 89.6659C138.253 88.9692 138.412 88.1865 138.49 87.3177C138.576 86.449 138.614 85.3265 138.606 83.9503V80.9441H143.018V90.8141C143.018 91.0206 143.044 91.1539 143.096 91.2141C143.156 91.2743 143.276 91.3044 143.457 91.3044H144.05V88.2854ZM149.998 88.8143C148.932 89.339 147.62 89.8422 146.063 90.3239L145.805 89.4336C146.347 89.2788 146.876 89.1111 147.392 88.9305V84.7373H145.986V83.86H147.392V80.6087H148.308V83.86H149.74V84.7373H148.308V88.595C148.893 88.3628 149.413 88.1434 149.869 87.937L149.998 88.8143ZM157.481 84.9051C157.464 86.178 157.43 87.2231 157.378 88.0402C157.335 88.8488 157.271 89.6358 157.185 90.4013C157.099 91.0378 156.901 91.4894 156.591 91.756C156.29 92.0226 155.826 92.156 155.198 92.156H154.282L154.036 91.3044H155.004C155.408 91.3044 155.705 91.2184 155.894 91.0464C156.084 90.8744 156.204 90.5862 156.256 90.182C156.419 88.9004 156.514 87.4123 156.539 85.7179H155.507C155.034 88.3929 153.912 90.5905 152.14 92.3108L151.482 91.6141C153.073 90.1605 154.11 88.1951 154.591 85.7179H153.198C152.862 86.8705 152.389 87.937 151.779 88.9176C151.177 89.8895 150.471 90.7238 149.663 91.4205L149.043 90.7109C149.775 90.126 150.415 89.4078 150.966 88.5563C151.525 87.6962 151.955 86.75 152.256 85.7179H150.308V84.9696C151.271 84.5395 152.166 84.0578 152.991 83.5245C153.826 82.9913 154.57 82.4365 155.223 81.8602H150.321V81.0216H156.656V81.7441C155.314 83.0429 153.839 84.0965 152.23 84.9051H157.481ZM167.79 87.4983C167.876 88.0574 168.035 88.552 168.267 88.9821C168.508 89.4121 168.826 89.8207 169.222 90.2078C169.626 90.5862 170.16 91.012 170.822 91.4851L170.267 92.414C169.57 91.8893 169.016 91.4119 168.603 90.9819C168.19 90.5518 167.876 90.1002 167.661 89.6272C167.446 89.1455 167.313 88.595 167.261 87.9757H167.171C167.145 88.595 167.033 89.1455 166.835 89.6272C166.637 90.1002 166.341 90.5518 165.945 90.9819C165.549 91.4119 165.016 91.8893 164.345 92.414L163.79 91.4851C164.427 91.012 164.934 90.5862 165.313 90.2078C165.691 89.8207 165.988 89.4164 166.203 88.995C166.427 88.5649 166.577 88.066 166.655 87.4983H163.971V86.5952H166.732C166.741 86.492 166.745 86.3243 166.745 86.092V84.2212H164.139V83.3439H167.88C168.25 82.5698 168.573 81.6753 168.848 80.6603L169.764 80.97C169.48 81.8559 169.179 82.6472 168.861 83.3439H170.461V84.2212H167.687V86.092C167.687 86.3243 167.691 86.492 167.7 86.5952H170.603V87.4983H167.79ZM165.803 83.2536C165.545 82.5053 165.205 81.7828 164.784 81.0861L165.597 80.6861C165.984 81.2796 166.332 82.0064 166.642 82.8665L165.803 83.2536ZM163.906 89.4336C163.416 89.5971 163.171 89.6788 163.171 89.6788V92.3624H162.307V89.9368C161.154 90.2809 160.032 90.5776 158.939 90.8271L158.72 89.8981L159.571 89.7304V81.7828H158.849V80.9829H163.713V81.7828H163.171V88.8272L163.765 88.6466L163.906 89.4336ZM162.307 83.7439V81.7828H160.449V83.7439H162.307ZM162.307 84.518H160.449V86.492H162.307V84.518ZM160.449 89.5369C161.154 89.3734 161.773 89.2186 162.307 89.0724V87.2661H160.449V89.5369ZM174.383 85.3437C173.531 85.5157 172.761 85.6448 172.073 85.7308L171.841 84.9051C172.185 84.5438 172.577 83.9503 173.015 83.1246C173.454 82.2903 173.841 81.4258 174.176 80.5313L175.028 80.8538C174.744 81.5849 174.422 82.3032 174.06 83.0085C173.699 83.7052 173.355 84.2901 173.028 84.7631C173.69 84.6685 174.327 84.5567 174.938 84.4277C175.127 84.0922 175.346 83.688 175.596 83.2149L176.396 83.6407C175.931 84.518 175.424 85.3652 174.873 86.1823C174.323 86.9909 173.824 87.6231 173.376 88.0789C174.271 87.8897 175.144 87.679 175.996 87.4467L176.138 88.3112C174.83 88.638 173.531 88.9219 172.241 89.1627L171.983 88.337C172.319 88.0617 172.697 87.6618 173.118 87.1371C173.54 86.6038 173.961 86.006 174.383 85.3437ZM180.937 85.047C181.72 85.5545 182.7 86.0619 183.879 86.5694L183.44 87.408C182.184 86.8403 181.109 86.2469 180.215 85.6276C179.234 86.3071 178.004 86.935 176.525 87.5112L176.086 86.7113C177.402 86.2211 178.524 85.6706 179.453 85.0599C178.808 84.5352 178.258 83.989 177.802 83.4213C177.518 83.7052 177.221 83.9632 176.912 84.1954L176.37 83.4987C176.912 83.1031 177.38 82.6558 177.776 82.1569C178.172 81.6495 178.486 81.1162 178.718 80.5571L179.608 80.6861C179.436 81.1076 179.273 81.4473 179.118 81.7054H182.911V82.3763C182.455 83.4084 181.797 84.2987 180.937 85.047ZM178.408 82.7504C178.916 83.4127 179.509 84.0019 180.189 84.518C180.903 83.9245 181.449 83.2665 181.827 82.544H178.563L178.408 82.7504ZM178.124 92.3624H177.208V87.3177H182.718V92.3624H181.801V91.5883H178.124V92.3624ZM181.801 88.1434H178.124V90.7238H181.801V88.1434ZM171.777 90.8529C173.454 90.5604 174.959 90.2422 176.292 89.8981L176.421 90.7883C175.002 91.141 173.531 91.4592 172.009 91.7431L171.777 90.8529ZM187.736 84.3632C187.891 84.0965 188.106 83.6966 188.381 83.1633L189.156 83.5761C188.708 84.4449 188.218 85.2835 187.685 86.092C187.151 86.892 186.67 87.5155 186.24 87.9628C186.807 87.8252 187.637 87.6016 188.73 87.2919L188.885 88.1305C187.62 88.4918 186.369 88.8014 185.13 89.0595L184.859 88.2596C185.177 87.9929 185.539 87.6016 185.943 87.0855C186.347 86.5694 186.76 85.9759 187.182 85.305C186.485 85.4512 185.745 85.576 184.962 85.6792L184.73 84.8534C185.066 84.5008 185.444 83.9159 185.866 83.0988C186.296 82.2731 186.666 81.4172 186.975 80.5313L187.827 80.8409C187.543 81.5806 187.229 82.2946 186.885 82.9827C186.541 83.6708 186.21 84.2471 185.891 84.7115C186.562 84.6169 187.177 84.5008 187.736 84.3632ZM195.787 89.1498L196.587 89.5498L196.355 91.5754C196.329 91.799 196.252 91.971 196.123 92.0914C196.002 92.2205 195.843 92.285 195.645 92.285C195.499 92.285 195.336 92.2463 195.155 92.1689C194.269 91.7904 193.529 91.0894 192.936 90.0658C191.93 90.6593 190.803 91.141 189.556 91.5109L189.194 90.6593C190.441 90.3239 191.555 89.8723 192.536 89.3046C192.226 88.6337 191.968 87.8596 191.762 86.9823L189.388 87.3693L189.246 86.5049L191.581 86.1307C191.487 85.6233 191.405 85.0083 191.336 84.2858L189.452 84.5438L189.323 83.7052L191.272 83.4471C191.237 82.9052 191.22 82.2601 191.22 81.5118V80.6087H192.123V81.5118C192.123 82.2085 192.14 82.8149 192.175 83.331L195.761 82.8536L195.878 83.6794L192.239 84.1696C192.282 84.6771 192.36 85.2835 192.471 85.9888L196.226 85.3953L196.355 86.2211L192.652 86.8274C192.824 87.5586 193.039 88.2252 193.297 88.8272C194.097 88.2768 194.789 87.6661 195.374 86.9952L196.007 87.5371C195.344 88.294 194.574 88.9778 193.697 89.5885C194.222 90.4744 194.841 91.0722 195.555 91.3818L195.787 89.1498ZM194.652 82.7504C194.368 82.501 194.033 82.2386 193.645 81.9634C193.258 81.6882 192.919 81.4817 192.626 81.3441L193.116 80.7119C193.426 80.8753 193.77 81.0861 194.149 81.3441C194.527 81.6021 194.863 81.8559 195.155 82.1053L194.652 82.7504ZM184.666 90.7883C186.171 90.4615 187.564 90.0916 188.846 89.6788L189.014 90.5561C187.62 90.9862 186.253 91.356 184.911 91.6657L184.666 90.7883Z" fill="#231F20"/>
<path d="M132.748 102.994L135.225 96.1238H136.348L138.825 102.994H137.915L137.228 101.039H134.345L133.658 102.994H132.748ZM134.625 100.227H136.948L135.787 96.8496L134.625 100.227ZM139.603 102.994V97.8656H140.416V102.994H139.603ZM139.584 97.0625V96.1142H140.436V97.0625H139.584ZM142.023 102.994V97.8656H142.739L142.777 99.1623L142.7 99.1332C142.764 98.6946 142.903 98.3752 143.116 98.1753C143.335 97.9688 143.626 97.8656 143.987 97.8656H144.49V98.6397H143.997C143.738 98.6397 143.522 98.6881 143.348 98.7849C143.18 98.8752 143.051 99.0139 142.961 99.201C142.877 99.3816 142.835 99.6138 142.835 99.8977V102.994H142.023ZM145.302 104.446V97.8656H146.056L146.076 98.9687L145.96 98.9107C146.089 98.5301 146.301 98.243 146.598 98.0495C146.901 97.8495 147.25 97.7495 147.643 97.7495C148.153 97.7495 148.569 97.8753 148.892 98.1269C149.221 98.3785 149.462 98.7075 149.617 99.1139C149.779 99.5203 149.859 99.959 149.859 100.43C149.859 100.901 149.779 101.339 149.617 101.746C149.462 102.152 149.221 102.481 148.892 102.733C148.569 102.984 148.153 103.11 147.643 103.11C147.379 103.11 147.13 103.065 146.898 102.975C146.672 102.884 146.479 102.759 146.318 102.597C146.163 102.436 146.056 102.246 145.998 102.026L146.114 101.891V104.446H145.302ZM147.566 102.336C148.011 102.336 148.363 102.168 148.621 101.833C148.879 101.498 149.008 101.03 149.008 100.43C149.008 99.8299 148.879 99.3622 148.621 99.0268C148.363 98.6913 148.011 98.5236 147.566 98.5236C147.269 98.5236 147.011 98.5946 146.792 98.7365C146.579 98.8784 146.411 99.0913 146.289 99.3751C146.172 99.659 146.114 100.011 146.114 100.43C146.114 100.849 146.172 101.201 146.289 101.485C146.405 101.768 146.572 101.981 146.792 102.123C147.011 102.265 147.269 102.336 147.566 102.336ZM152.965 103.11C152.494 103.11 152.081 103.001 151.726 102.781C151.372 102.562 151.097 102.252 150.904 101.852C150.71 101.446 150.614 100.972 150.614 100.43C150.614 99.8815 150.71 99.4074 150.904 99.0074C151.097 98.6075 151.372 98.2978 151.726 98.0785C152.081 97.8592 152.494 97.7495 152.965 97.7495C153.436 97.7495 153.845 97.8592 154.194 98.0785C154.549 98.2978 154.823 98.6075 155.016 99.0074C155.21 99.4074 155.307 99.8815 155.307 100.43C155.307 100.972 155.21 101.446 155.016 101.852C154.823 102.252 154.549 102.562 154.194 102.781C153.845 103.001 153.436 103.11 152.965 103.11ZM152.965 102.336C153.436 102.336 153.8 102.168 154.058 101.833C154.323 101.491 154.455 101.023 154.455 100.43C154.455 99.8364 154.323 99.3719 154.058 99.0365C153.8 98.6946 153.436 98.5236 152.965 98.5236C152.494 98.5236 152.126 98.6946 151.862 99.0365C151.597 99.3719 151.465 99.8364 151.465 100.43C151.465 101.023 151.597 101.491 151.862 101.833C152.126 102.168 152.494 102.336 152.965 102.336ZM156.414 102.994V97.8656H157.13L157.169 99.1623L157.092 99.1332C157.156 98.6946 157.295 98.3752 157.508 98.1753C157.727 97.9688 158.017 97.8656 158.379 97.8656H158.882V98.6397H158.388C158.13 98.6397 157.914 98.6881 157.74 98.7849C157.572 98.8752 157.443 99.0139 157.353 99.201C157.269 99.3816 157.227 99.6138 157.227 99.8977V102.994H156.414ZM161.476 102.994C161.012 102.994 160.667 102.888 160.441 102.675C160.221 102.462 160.112 102.13 160.112 101.678V96.6657H160.925V101.659C160.925 101.891 160.976 102.052 161.079 102.143C161.183 102.233 161.341 102.278 161.554 102.278H162.289V102.994H161.476ZM159.357 98.5817V97.8656H162.289V98.5817H159.357ZM165.923 102.994V96.1238H166.756V102.607L166.34 102.181H170.191V102.994H165.923ZM170.939 102.994V97.8656H171.751V102.994H170.939ZM170.919 97.0625V96.1142H171.771V97.0625H170.919ZM173.358 102.994V97.8656H174.103L174.132 99.1719L174.035 99.0848C174.1 98.7817 174.212 98.5333 174.374 98.3398C174.535 98.1398 174.728 97.9914 174.954 97.8946C175.186 97.7979 175.435 97.7495 175.699 97.7495C176.093 97.7495 176.415 97.8366 176.667 98.0108C176.925 98.1849 177.115 98.4204 177.238 98.7171C177.367 99.0074 177.431 99.3332 177.431 99.6945V102.994H176.619V99.9267C176.619 99.6106 176.58 99.3461 176.502 99.1332C176.432 98.9139 176.315 98.7494 176.154 98.6397C175.993 98.5236 175.783 98.4656 175.525 98.4656C175.132 98.4656 174.806 98.5913 174.548 98.8429C174.296 99.0881 174.17 99.4493 174.17 99.9267V102.994H173.358ZM178.924 102.994V96.1238H179.736V100.623L182.233 97.8656H183.317L181.294 100.043L183.404 102.994H182.417L180.743 100.594L179.736 101.659V102.994H178.924ZM187.166 102.994V96.1238H187.999V102.607L187.582 102.181H191.434V102.994H187.166ZM192.181 102.994V97.8656H192.994V102.994H192.181ZM192.162 97.0625V96.1142H193.014V97.0625H192.162ZM194.601 102.994V97.8656H195.346L195.375 99.1719L195.278 99.0848C195.342 98.7817 195.455 98.5333 195.617 98.3398C195.778 98.1398 195.971 97.9914 196.197 97.8946C196.429 97.7979 196.678 97.7495 196.942 97.7495C197.336 97.7495 197.658 97.8366 197.91 98.0108C198.168 98.1849 198.358 98.4204 198.481 98.7171C198.61 99.0074 198.674 99.3332 198.674 99.6945V102.994H197.861V99.9267C197.861 99.6106 197.823 99.3461 197.745 99.1332C197.674 98.9139 197.558 98.7494 197.397 98.6397C197.236 98.5236 197.026 98.4656 196.768 98.4656C196.375 98.4656 196.049 98.5913 195.791 98.8429C195.539 99.0881 195.413 99.4493 195.413 99.9267V102.994H194.601ZM202.113 103.11C201.629 103.11 201.21 103.001 200.855 102.781C200.506 102.562 200.235 102.252 200.042 101.852C199.855 101.446 199.761 100.972 199.761 100.43C199.761 99.888 199.855 99.4171 200.042 99.0171C200.235 98.6172 200.503 98.3075 200.845 98.0882C201.193 97.8624 201.603 97.7495 202.074 97.7495C202.519 97.7495 202.913 97.8559 203.255 98.0688C203.596 98.2752 203.861 98.5784 204.048 98.9784C204.242 99.3784 204.338 99.8654 204.338 100.44V100.681H200.613C200.645 101.23 200.79 101.643 201.048 101.92C201.313 102.197 201.668 102.336 202.113 102.336C202.448 102.336 202.722 102.259 202.935 102.104C203.155 101.943 203.306 101.733 203.39 101.475L204.261 101.543C204.125 102.001 203.867 102.378 203.487 102.675C203.113 102.965 202.655 103.11 202.113 103.11ZM200.613 99.9654H203.448C203.409 99.4687 203.264 99.1042 203.013 98.872C202.767 98.6397 202.455 98.5236 202.074 98.5236C201.68 98.5236 201.355 98.6462 201.097 98.8913C200.845 99.13 200.684 99.488 200.613 99.9654Z" fill="#231F20"/>
<rect x="228.75" y="102.412" width="4.98054" height="2.37168" fill="#716F6E"/>
<rect x="218.789" y="80.5928" width="10.9097" height="2.37168" fill="#716F6E"/>
<rect x="232.782" y="80.5928" width="10.9097" height="2.37168" fill="#716F6E"/>
<rect x="229.699" y="91.9766" width="3.08319" height="11.6213" fill="#716F6E"/>
<path d="M224.244 82.9648H227.801L232.782 94.5861H229.699L224.244 82.9648Z" fill="#716F6E"/>
<path d="M238.236 82.9648H234.679L229.698 94.5861H232.781L238.236 82.9648Z" fill="#716F6E"/>
<path d="M220.923 85.3369H224.171L225.284 87.7086H220.923C217.366 87.7086 216.062 92.452 216.062 94.8237C216.062 96.3652 216.299 97.6697 216.654 98.7369C216.575 98.0254 216.417 96.2467 216.417 94.8237C216.536 92.6496 217.674 88.3015 220.805 88.3015H225.563L226.676 90.6732H220.805C218.054 90.6732 217.129 94.0609 217.129 96.2467C217.129 97.3851 217.247 98.7369 217.722 99.567C217.485 98.4998 217.485 97.6697 217.485 96.2467C217.485 92.9263 219.856 91.2661 220.686 91.2661H226.954L228.068 93.6378H220.686C218.315 93.6378 218.315 96.9582 218.315 98.144C218.315 99.0927 218.552 102.887 223.058 102.887H225.43C225.809 102.887 225.904 102.571 225.904 102.413V100.99C225.904 100.611 225.588 100.516 225.43 100.516H222.346C220.639 100.516 220.212 99.0927 220.212 98.3812V96.3652C220.212 95.6537 220.639 94.2307 222.346 94.2307H228.513V96.6024H223.058C222.679 96.6024 222.584 96.9186 222.584 97.0767V98.144C222.584 98.5235 222.9 98.6183 223.058 98.6183H226.141C227.849 98.6183 228.276 100.041 228.276 100.753V102.65C228.276 103.362 227.849 104.785 226.141 104.785H223.058C219.856 104.785 219.5 104.073 218.552 103.362C217.603 102.65 215.231 99.4484 215.231 94.8237C215.231 90.9104 216.749 85.3369 220.923 85.3369Z" fill="#004C98"/>
<path fill-rule="evenodd" clip-rule="evenodd" d="M238.547 85.3369H241.794C245.968 85.3369 247.486 90.9104 247.486 94.8237C247.486 99.4484 245.115 102.65 244.166 103.362C244.035 103.46 243.916 103.558 243.799 103.654C243.065 104.256 242.421 104.785 239.66 104.785H236.577H234.205V96.6024V94.2307H239.66C241.367 94.2307 242.506 95.5352 242.506 97.0767V100.753C242.506 101.283 242.269 102.207 241.443 102.645C244.233 101.793 244.403 98.9475 244.403 98.144C244.403 96.9582 244.403 93.6378 242.031 93.6378H234.65L235.763 91.2661H242.031C242.862 91.2661 245.233 92.9263 245.233 96.2467C245.233 97.6697 245.233 98.4998 244.996 99.567C245.47 98.7369 245.589 97.3851 245.589 96.2467C245.589 94.0609 244.664 90.6732 241.913 90.6732H236.042L237.155 88.3015H241.913C245.043 88.3015 246.182 92.6496 246.3 94.8237C246.3 96.2467 246.142 98.0254 246.063 98.7369C246.419 97.6697 246.656 96.3652 246.656 94.8237C246.656 92.452 245.352 87.7086 241.794 87.7086H237.433L238.547 85.3369ZM236.577 102.887H238.237H239.66C239.91 102.887 240.147 102.876 240.371 102.853L240.134 100.753V97.5511C240.134 96.9582 239.778 96.6024 239.185 96.6024H236.577V102.887Z" fill="#004C98"/>
<path d="M240.371 102.853C240.147 102.876 239.91 102.887 239.66 102.887H238.237C239.185 102.887 240.134 101.702 240.134 100.753L240.371 102.853Z" fill="#004C98"/>
<rect x="255.55" y="80.5928" width="24.1912" height="24.1912" rx="12.0956" fill="#B12534"/>
<path d="M267.372 99.1885V89.3959H264.469V87.7122H265.65C266.166 87.7122 266.585 87.6477 266.908 87.5187C267.23 87.3767 267.462 87.1445 267.604 86.8219C267.746 86.4865 267.817 86.0285 267.817 85.4479H269.462V99.1885H267.372Z" fill="white"/>
<rect x="287.805" y="80.5928" width="24.1912" height="24.1912" rx="12.0956" fill="#148E51"/>
<path d="M294.947 99.1885C294.947 98.1563 295.102 97.2338 295.412 96.421C295.721 95.6082 296.25 94.8534 296.999 94.1567C297.747 93.46 298.779 92.7633 300.095 92.0666C300.727 91.744 301.23 91.4473 301.605 91.1764C301.992 90.8925 302.269 90.6022 302.437 90.3055C302.604 90.0087 302.688 89.6475 302.688 89.2217C302.688 88.783 302.592 88.4089 302.398 88.0992C302.217 87.7767 301.946 87.5251 301.585 87.3445C301.224 87.1509 300.766 87.0542 300.211 87.0542C299.334 87.0542 298.637 87.2929 298.121 87.7702C297.618 88.2347 297.302 88.9056 297.173 89.7829L295.005 89.6475C295.16 88.267 295.683 87.1703 296.573 86.3575C297.476 85.5447 298.689 85.1382 300.211 85.1382C301.192 85.1382 302.024 85.3124 302.708 85.6608C303.404 85.9962 303.933 86.4671 304.295 87.0735C304.669 87.6799 304.856 88.3831 304.856 89.183C304.856 89.8797 304.74 90.4797 304.508 90.9828C304.275 91.486 303.888 91.9569 303.346 92.3956C302.804 92.8214 302.069 93.2794 301.14 93.7697C299.953 94.4018 299.056 95.0276 298.45 95.6469C297.844 96.2533 297.521 96.7952 297.482 97.2725H304.856V99.1885H294.947Z" fill="white"/>
<path d="M136.069 137.866H111.931V135.166H136.069V137.866ZM163.285 126.958V129.199H143.089V132.925C143.089 136.561 142.891 139.684 142.495 142.294C142.117 144.904 141.46 147.1 140.524 148.882L138.364 147.073C139.156 145.561 139.723 143.707 140.065 141.511C140.425 139.297 140.605 136.489 140.605 133.087V126.958H150.919C150.523 126.202 150.082 125.5 149.596 124.852L151.999 123.961C152.647 124.951 153.196 125.95 153.646 126.958H163.285ZM153.16 141.214C152.764 139.612 152.287 137.983 151.729 136.327C151.171 134.671 150.613 133.213 150.055 131.953L152.458 131.116C152.98 132.322 153.511 133.762 154.051 135.436C154.609 137.11 155.086 138.721 155.482 140.269L153.16 141.214ZM163.366 145.75V148.099H143.224V145.75H154.159C155.311 143.788 156.382 141.574 157.372 139.108C158.38 136.624 159.226 134.149 159.91 131.683L162.367 132.547C161.683 134.869 160.864 137.173 159.91 139.459C158.974 141.745 157.975 143.842 156.913 145.75H163.366ZM146.41 132.682C147.796 135.562 149.056 138.73 150.19 142.186L147.895 143.158C147.085 140.386 145.843 137.209 144.169 133.627L146.41 132.682ZM173.41 124.636C172.942 126.778 172.258 128.83 171.358 130.792V148.99H168.982V135.031C168.244 136.129 167.398 137.155 166.444 138.109L165.175 135.841C166.633 134.311 167.839 132.601 168.793 130.711C169.747 128.803 170.539 126.553 171.169 123.961L173.41 124.636ZM188.395 124.933V141.538H190.393V143.563H172.789V141.538H174.841V124.933H188.395ZM185.992 129.145V126.904H177.19V129.145H185.992ZM177.19 133.249H185.992V131.035H177.19V133.249ZM185.992 137.353V135.139H177.19V137.353H185.992ZM185.992 139.243H177.19V141.538H185.992V139.243ZM184.561 143.59C185.407 144.022 186.352 144.58 187.396 145.264C188.458 145.93 189.403 146.596 190.231 147.262L188.665 149.098C187.801 148.342 186.865 147.613 185.857 146.911C184.849 146.227 183.886 145.642 182.968 145.156L184.561 143.59ZM172.789 147.073C173.851 146.623 174.877 146.101 175.867 145.507C176.875 144.895 177.712 144.274 178.378 143.644L180.025 145.075C179.287 145.813 178.378 146.542 177.298 147.262C176.236 147.982 175.165 148.594 174.085 149.098L172.789 147.073ZM213.262 135.463H206.053V139.324H214.693V141.538H206.053V145.939H216.259V148.234H193.741V145.939H203.515V141.538H195.307V139.324H203.515V135.463H196.792V133.708C196.234 134.05 195.118 134.644 193.444 135.49L192.094 133.087C195.352 131.539 197.818 130.09 199.492 128.74C201.166 127.372 202.381 125.869 203.137 124.231H206.431C207.169 125.833 208.42 127.327 210.184 128.713C211.966 130.081 214.54 131.548 217.906 133.114L216.583 135.49C215.359 134.914 214.252 134.347 213.262 133.789V135.463ZM204.676 125.473C204.334 126.895 203.596 128.227 202.462 129.469C201.328 130.711 199.699 131.971 197.575 133.249H212.29C210.058 131.953 208.348 130.684 207.16 129.442C205.99 128.2 205.234 126.877 204.892 125.473H204.676Z" fill="#231F20"/>
<path d="M20.98 166.543V172.063H24.26V173.167H20.98V176.127H19.748V173.167H16.66V172.063H19.748V166.543H19.636C19.4973 167.674 18.9853 168.778 18.1 169.855C17.2147 170.932 15.8173 172.143 13.908 173.487L13.14 172.495C14.8467 171.322 16.212 170.175 17.236 169.055C18.26 167.935 18.964 166.756 19.348 165.519H13.46V164.367H19.748V161.535H20.98V164.367H27.54V165.519H21.396C21.78 166.735 22.5053 167.903 23.572 169.023C24.6493 170.143 26.0787 171.306 27.86 172.511L27.14 173.503C25.156 172.106 23.684 170.874 22.724 169.807C21.7747 168.73 21.2307 167.642 21.092 166.543H20.98ZM29.652 176.191V161.967H43.348V176.191H42.18V175.231H30.836V176.191H29.652ZM30.82 174.159H42.18V163.007H30.82V174.159ZM31.444 169.023C33.0333 168.682 34.4467 168.244 35.684 167.711C34.9907 167.252 34.3987 166.762 33.908 166.239C33.364 166.719 32.7827 167.124 32.164 167.455L31.604 166.575C32.372 166.191 33.06 165.716 33.668 165.151C34.276 164.586 34.7347 163.994 35.044 163.375L36.036 163.711C35.9187 163.935 35.7213 164.244 35.444 164.639H40.196V165.439C39.6093 166.292 38.7827 167.06 37.716 167.743C38.8147 168.266 40.1107 168.698 41.604 169.039L41.204 170.015C39.54 169.61 38.036 169.044 36.692 168.319C35.3587 169.012 33.7213 169.583 31.78 170.031L31.444 169.023ZM34.628 165.567C35.1933 166.175 35.892 166.724 36.724 167.215C37.6413 166.714 38.3453 166.164 38.836 165.567H34.644H34.628ZM34.74 169.295C36.1053 169.54 37.5507 169.898 39.076 170.367L38.66 171.295C37.0173 170.762 35.572 170.394 34.324 170.191L34.74 169.295ZM33.268 171.087C35.5613 171.45 37.8493 171.967 40.132 172.639L39.748 173.615C37.6147 172.932 35.3427 172.41 32.932 172.047L33.268 171.087ZM58.26 172.319L59.412 172.671V174.575C59.412 174.97 59.3107 175.263 59.108 175.455C58.9053 175.658 58.5747 175.759 58.116 175.759H49.748C49.1613 175.759 48.7027 175.69 48.372 175.551C48.0413 175.423 47.8013 175.21 47.652 174.911C47.5133 174.623 47.444 174.218 47.444 173.695V166.735H47.476V166.463C46.996 166.975 46.4733 167.45 45.908 167.887L45.14 166.879C46.1213 166.143 46.9427 165.295 47.604 164.335C48.2653 163.375 48.7453 162.346 49.044 161.247L50.26 161.503C50.1213 162.047 49.956 162.532 49.764 162.959H58.724V163.727C58.724 165.018 58.6813 166.244 58.596 167.407C58.5213 168.57 58.4147 169.498 58.276 170.191C58.148 170.831 57.924 171.274 57.604 171.519C57.2947 171.764 56.8307 171.887 56.212 171.887H55.156L54.884 170.815H55.956C56.34 170.815 56.612 170.746 56.772 170.607C56.932 170.468 57.0493 170.191 57.124 169.775C57.2307 169.22 57.316 168.431 57.38 167.407C57.444 166.372 57.4813 165.252 57.492 164.047H49.236C48.82 164.772 48.3507 165.444 47.828 166.063H54.66V171.055H48.644V173.615C48.644 173.999 48.7187 174.266 48.868 174.415C49.0173 174.554 49.3 174.623 49.716 174.623H58.26V172.319ZM48.644 169.983H53.476V167.151H48.644V169.983ZM69.14 161.551C69.5773 162.308 70.34 163.018 71.428 163.679C72.516 164.33 74.052 164.986 76.036 165.647L75.54 166.783C73.396 166.015 71.7587 165.268 70.628 164.543C69.4973 163.807 68.7613 163.002 68.42 162.127H68.308C67.9667 163.002 67.252 163.807 66.164 164.543C65.0867 165.279 63.5187 166.026 61.46 166.783L60.964 165.647C62.8733 164.996 64.34 164.346 65.364 163.695C66.3987 163.044 67.1453 162.33 67.604 161.551H69.14ZM67.316 164.191C68.2973 164.639 69.3373 165.167 70.436 165.775L69.86 166.719C68.8787 166.132 67.8173 165.588 66.676 165.087L67.316 164.191ZM73.492 168.127C72.9907 169.034 72.3827 169.855 71.668 170.591H73.972V176.111H72.772V175.391H64.228V176.111H63.028V170.591H70.148C70.9907 169.802 71.62 169.039 72.036 168.303H63.06V167.263H73.492V168.127ZM64.228 174.335H72.772V171.631H64.228V174.335ZM91.652 175.295H77.348V174.079H83.428V161.711H84.724V166.783H90.916V167.999H84.724V174.079H91.652V175.295ZM99.364 164.303C98.8733 165.156 98.2867 165.94 97.604 166.655L96.724 165.855C97.3533 165.236 97.8973 164.543 98.356 163.775C98.8253 162.996 99.1827 162.212 99.428 161.423L100.532 161.663C100.361 162.207 100.164 162.719 99.94 163.199H107.604V164.303H99.364ZM96.628 164.399C95.7853 163.674 94.884 163.023 93.924 162.447L94.58 161.535C95.444 162.015 96.3507 162.66 97.3 163.471L96.628 164.399ZM95.78 168.303C94.9373 167.556 94.0413 166.874 93.092 166.255L93.78 165.359C94.2387 165.626 94.708 165.946 95.188 166.319C95.668 166.682 96.1053 167.039 96.5 167.391L95.78 168.303ZM107.828 170.191H106.564C106.521 170.895 106.452 171.711 106.356 172.639H107.588V173.695H106.196L106.084 174.271C105.956 174.89 105.743 175.316 105.444 175.551C105.145 175.796 104.708 175.919 104.132 175.919H102.564L102.244 174.927H103.988C104.319 174.927 104.548 174.863 104.676 174.735C104.804 174.607 104.911 174.351 104.996 173.967C105.028 173.828 105.049 173.738 105.06 173.695H97.604C97.828 172.682 98.0307 171.514 98.212 170.191H96.98V169.151H98.324C98.4413 168.052 98.5267 166.916 98.58 165.743H106.692C106.692 167.076 106.671 168.212 106.628 169.151H107.828V170.191ZM99.636 166.783C99.604 167.53 99.54 168.319 99.444 169.151H105.508C105.54 168.394 105.556 167.604 105.556 166.783H99.636ZM101.78 166.895C102.111 167.055 102.457 167.263 102.82 167.519C103.193 167.775 103.524 168.031 103.812 168.287L103.156 169.071C102.612 168.559 101.94 168.09 101.14 167.663L101.78 166.895ZM93.252 175.263C94.212 173.855 94.996 172.116 95.604 170.047L96.66 170.463C96.404 171.391 96.0627 172.356 95.636 173.359C95.22 174.351 94.756 175.242 94.244 176.031L93.252 175.263ZM105.236 172.639C105.343 171.86 105.417 171.044 105.46 170.191H99.332C99.236 170.948 99.1133 171.764 98.964 172.639H105.236ZM103.076 172.511C102.447 171.956 101.759 171.482 101.012 171.087L101.636 170.303C101.977 170.484 102.34 170.708 102.724 170.975C103.108 171.231 103.433 171.471 103.7 171.695L103.076 172.511ZM123.86 166.639V167.711H121.748V176.127H120.596V167.711H117.956C117.913 169.663 117.689 171.3 117.284 172.623C116.879 173.935 116.239 175.124 115.364 176.191L114.5 175.247C115.321 174.287 115.913 173.178 116.276 171.919C116.639 170.66 116.82 169.039 116.82 167.055V162.975C118.175 162.826 119.343 162.644 120.324 162.431C121.305 162.218 122.169 161.956 122.916 161.647L123.54 162.623C122.047 163.231 120.185 163.658 117.956 163.903V166.639H123.86ZM115.588 171.039H111.028C110.985 172.106 110.879 173.039 110.708 173.839C110.548 174.628 110.292 175.412 109.94 176.191L108.964 175.295C109.337 174.495 109.588 173.626 109.716 172.687C109.855 171.748 109.924 170.388 109.924 168.607V163.007C112.303 162.698 114.116 162.271 115.364 161.727L115.972 162.751C115.353 163.007 114.612 163.242 113.748 163.455C112.895 163.668 112.004 163.839 111.076 163.967V165.567H115.588V171.039ZM111.06 169.983H114.484V166.623H111.06V169.583V169.983ZM139.604 164.223H130.884C130.617 164.863 130.303 165.498 129.94 166.127H137.924V174.351C137.924 174.863 137.807 175.231 137.572 175.455C137.337 175.69 136.964 175.807 136.452 175.807H133.748L133.444 174.767H136.74V172.831H129.492V176.111H128.308V168.447C127.551 169.332 126.724 170.127 125.828 170.831L125.092 169.855C127.161 168.266 128.665 166.388 129.604 164.223H125.444V163.087H130.036C130.207 162.586 130.345 162.084 130.452 161.583L131.652 161.727C131.567 162.132 131.444 162.586 131.284 163.087H139.604V164.223ZM129.492 168.959H136.74V167.215H129.492V168.959ZM129.492 169.999V171.791H136.74V169.999H129.492ZM144.484 165.455C144.153 164.964 143.753 164.436 143.284 163.871C142.815 163.295 142.383 162.81 141.988 162.415L142.932 161.679C143.305 162.063 143.727 162.543 144.196 163.119C144.665 163.695 145.076 164.239 145.428 164.751L144.484 165.455ZM146.676 162.479H154.772V163.615H146.676V162.479ZM146.42 171.615C146.932 171.039 147.449 170.335 147.972 169.503C148.505 168.671 148.943 167.855 149.284 167.055H145.812V165.935H155.684V167.055H150.612C150.271 167.834 149.871 168.623 149.412 169.423C148.953 170.212 148.489 170.911 148.02 171.519C149.855 171.391 151.567 171.236 153.156 171.055C152.601 170.17 152.052 169.359 151.508 168.623L152.484 168.015C152.996 168.698 153.524 169.455 154.068 170.287C154.612 171.119 155.097 171.93 155.524 172.719L154.5 173.343L154.308 173.007C154.02 172.474 153.849 172.17 153.796 172.095C151.087 172.426 148.708 172.655 146.66 172.783L146.42 171.615ZM156.004 174.639L155.78 175.775H148.772C147.951 175.775 147.289 175.722 146.788 175.615C146.287 175.519 145.871 175.37 145.54 175.167C145.22 174.964 144.879 174.682 144.516 174.319C144.399 174.191 144.303 174.106 144.228 174.063C144.153 174.02 144.079 173.999 144.004 173.999C143.865 173.999 143.641 174.154 143.332 174.463C143.033 174.762 142.607 175.268 142.052 175.983L141.188 175.119C142.095 173.946 142.82 173.236 143.364 172.991V168.063H141.284V166.959H144.548V172.991C144.708 173.066 144.868 173.194 145.028 173.375C145.327 173.695 145.62 173.946 145.908 174.127C146.196 174.298 146.559 174.426 146.996 174.511C147.433 174.596 148.009 174.639 148.724 174.639H156.004ZM167.572 161.519V162.783H171.78V163.775H167.572V164.767H166.452V163.775H162.26V164.767H161.156V163.775H157.22V162.783H161.156V161.519H162.26V162.783H166.452V161.519H167.572ZM157.636 165.295H171.364V168.367H170.228V166.271H158.772V168.367H157.636V165.295ZM159.988 170.735V167.311H168.98V170.735H159.988ZM161.108 169.791H167.86V168.223H161.108V169.791ZM159.636 176.111H158.484V171.727H170.516V176.111H169.364V175.487H159.636V176.111ZM169.364 172.671H159.636V174.543H169.364V172.671ZM180.996 161.551V164.575H186.916V172.767H185.7V171.487H180.996V176.111H179.748V171.487H175.3V172.767H174.084V164.575H179.748V161.551H180.996ZM175.3 165.711V170.367H179.748V165.711H175.3ZM180.996 170.367H185.7V165.711H180.996V170.367ZM203.252 163.935V165.983C203.252 167.092 203.215 168.308 203.14 169.631C203.076 170.943 202.975 172.095 202.836 173.087C202.708 174.1 202.452 174.826 202.068 175.263C201.684 175.7 201.065 175.919 200.212 175.919H198.1L197.78 174.751H200.084C200.585 174.751 200.948 174.618 201.172 174.351C201.396 174.084 201.551 173.642 201.636 173.023C201.775 172.127 201.876 171.034 201.94 169.743C202.004 168.452 202.036 167.204 202.036 165.999V165.087H197.828C197.22 166.399 196.537 167.514 195.78 168.431L194.996 167.631V174.751H190.884V176.111H189.684V163.359H191.428C191.663 162.847 191.876 162.196 192.068 161.407L193.204 161.679C193.044 162.287 192.841 162.847 192.596 163.359H194.996V167.455C195.668 166.634 196.244 165.695 196.724 164.639C197.215 163.583 197.583 162.5 197.828 161.391L198.964 161.679C198.815 162.362 198.591 163.114 198.292 163.935H203.252ZM193.828 168.271V164.431H190.868V168.271H193.828ZM199.604 171.967C199.284 171.284 198.9 170.564 198.452 169.807C198.015 169.05 197.577 168.372 197.14 167.775L198.052 167.103C198.489 167.679 198.932 168.351 199.38 169.119C199.828 169.876 200.228 170.612 200.58 171.327L199.604 171.967ZM190.868 169.343V173.679H193.828V169.343H190.868ZM211.876 172.495C210.809 172.719 210.047 172.868 209.588 172.943V176.127H208.468V173.151C207.636 173.29 206.575 173.455 205.284 173.647L205.076 172.575C205.94 172.458 207.071 172.287 208.468 172.063V169.471H205.588V168.543C206.015 167.594 206.447 166.25 206.884 164.511H205.236V163.455H207.14C207.279 162.815 207.407 162.164 207.524 161.503L208.628 161.679L208.26 163.455H211.46V164.511H208.004C207.577 166.239 207.172 167.54 206.788 168.415H208.516V165.663H209.588V168.415H211.412V169.471H209.588V171.855C210.079 171.77 210.804 171.631 211.764 171.439L211.876 172.495ZM218.868 170.959L219.892 171.359V174.719C219.892 175.124 219.807 175.412 219.636 175.583C219.476 175.764 219.215 175.855 218.852 175.855H218.02C217.497 175.855 217.129 175.738 216.916 175.503C216.713 175.279 216.612 174.89 216.612 174.335V165.711H214.756C214.745 167.343 214.66 168.778 214.5 170.015C214.34 171.242 214.052 172.372 213.636 173.407C213.231 174.431 212.66 175.359 211.924 176.191L211.028 175.231C212.009 174.132 212.687 172.852 213.06 171.391C213.433 169.93 213.62 168.036 213.62 165.711H211.716V164.591H213.62L213.604 161.535H214.74L214.756 164.591H217.78V174.111C217.78 174.367 217.812 174.532 217.876 174.607C217.951 174.682 218.105 174.719 218.34 174.719H218.868V170.959ZM229.348 165.711C229.561 165.348 229.753 164.932 229.924 164.463H225.476V163.455H231.54C232.02 162.794 232.409 162.132 232.708 161.471L233.78 161.839C233.471 162.436 233.129 162.975 232.756 163.455H235.668V164.463H231.076C230.937 164.847 230.756 165.263 230.532 165.711H234.676V173.327H226.388V165.711H229.348ZM228.196 163.359C227.993 162.932 227.668 162.436 227.22 161.871L228.308 161.487C228.735 162.01 229.06 162.516 229.284 163.007L228.196 163.359ZM224.02 165.487C223.743 164.986 223.396 164.447 222.98 163.871C222.575 163.284 222.196 162.778 221.844 162.351L222.804 161.695C223.156 162.132 223.535 162.639 223.94 163.215C224.345 163.791 224.697 164.335 224.996 164.847L224.02 165.487ZM227.508 167.919H233.492V166.687H227.508V167.919ZM236.004 174.671L235.78 175.775H228.516C227.705 175.775 227.049 175.727 226.548 175.631C226.057 175.535 225.652 175.391 225.332 175.199C225.023 175.007 224.697 174.735 224.356 174.383C224.239 174.266 224.143 174.186 224.068 174.143C224.004 174.1 223.94 174.079 223.876 174.079C223.748 174.079 223.54 174.228 223.252 174.527C222.964 174.815 222.548 175.306 222.004 175.999L221.14 175.167C221.993 174.047 222.681 173.354 223.204 173.087V168.047H221.268V166.959H224.372V173.071C224.511 173.146 224.665 173.274 224.836 173.455C225.113 173.754 225.396 173.988 225.684 174.159C225.972 174.33 226.335 174.458 226.772 174.543C227.209 174.628 227.775 174.671 228.468 174.671H236.004ZM233.492 168.847H227.508V170.079H233.492V168.847ZM227.508 171.007V172.351H233.492V171.007H227.508ZM251.748 163.727V164.895H237.252V163.727H244.116C243.849 163.13 243.513 162.495 243.108 161.823L244.276 161.327C244.735 162.159 245.129 162.959 245.46 163.727H251.748ZM242.804 165.823C241.588 167.38 240.047 168.618 238.18 169.535L237.492 168.527C239.412 167.535 240.863 166.388 241.844 165.087L242.804 165.823ZM250.724 169.679C249.231 168.218 247.743 167.002 246.26 166.031L247.028 165.119C247.817 165.62 248.569 166.17 249.284 166.767C250.009 167.354 250.767 168.015 251.556 168.751L250.724 169.679ZM248.34 168.831C247.412 170.26 246.436 171.423 245.412 172.319C246.191 172.831 247.039 173.247 247.956 173.567C248.873 173.887 250.127 174.26 251.716 174.687L251.284 175.855C249.769 175.482 248.473 175.092 247.396 174.687C246.319 174.271 245.327 173.743 244.42 173.103C243.535 173.743 242.559 174.271 241.492 174.687C240.436 175.103 239.177 175.492 237.716 175.855L237.284 174.687C238.767 174.303 239.967 173.946 240.884 173.615C241.812 173.284 242.665 172.858 243.444 172.335C242.441 171.46 241.487 170.335 240.58 168.959L241.572 168.303C242.511 169.69 243.46 170.783 244.42 171.583C245.412 170.74 246.383 169.604 247.332 168.175L248.34 168.831ZM256.356 165.471C256.036 164.98 255.652 164.447 255.204 163.871C254.756 163.295 254.34 162.804 253.956 162.399L254.9 161.679C255.284 162.095 255.7 162.591 256.148 163.167C256.607 163.732 256.996 164.266 257.316 164.767L256.356 165.471ZM258.916 170.783V173.615H257.796V165.215H261.972C261.065 164.799 260.196 164.431 259.364 164.111L260.036 163.359C260.847 163.679 261.663 164.031 262.484 164.415C263.081 164.127 263.583 163.871 263.988 163.647C264.404 163.412 264.772 163.172 265.092 162.927H257.988V161.951H266.804V162.863C266.068 163.578 264.996 164.271 263.588 164.943L264.132 165.215H267.252V172.479C267.252 172.863 267.177 173.13 267.028 173.279C266.879 173.418 266.623 173.487 266.26 173.487H264.436L264.212 172.607H266.132V170.783H262.98V173.535H261.876V170.783H258.916ZM261.876 167.551V166.159H258.916V167.551H261.876ZM262.98 167.551H266.132V166.159H262.98V167.551ZM268.004 174.671L267.78 175.775H260.532C259.721 175.775 259.065 175.727 258.564 175.631C258.073 175.535 257.668 175.391 257.348 175.199C257.028 175.007 256.697 174.735 256.356 174.383C256.239 174.266 256.143 174.186 256.068 174.143C256.004 174.1 255.94 174.079 255.876 174.079C255.748 174.079 255.54 174.228 255.252 174.527C254.964 174.815 254.548 175.306 254.004 175.999L253.14 175.167C253.983 174.068 254.671 173.38 255.204 173.103V168.047H253.268V166.975H256.372V173.087C256.553 173.183 256.703 173.306 256.82 173.455C257.108 173.754 257.396 173.988 257.684 174.159C257.972 174.33 258.335 174.458 258.772 174.543C259.22 174.628 259.791 174.671 260.484 174.671H268.004ZM258.916 168.463V169.871H261.876V168.463H258.916ZM262.98 168.463V169.871H266.132V168.463H262.98ZM272.932 166.207C273.124 165.876 273.391 165.38 273.732 164.719L274.692 165.231C274.137 166.308 273.529 167.348 272.868 168.351C272.207 169.343 271.609 170.116 271.076 170.671C271.78 170.5 272.809 170.223 274.164 169.839L274.356 170.879C272.788 171.327 271.236 171.711 269.7 172.031L269.364 171.039C269.759 170.708 270.207 170.223 270.708 169.583C271.209 168.943 271.721 168.207 272.244 167.375C271.38 167.556 270.463 167.711 269.492 167.839L269.204 166.815C269.62 166.378 270.089 165.652 270.612 164.639C271.145 163.615 271.604 162.554 271.988 161.455L273.044 161.839C272.692 162.756 272.303 163.642 271.876 164.495C271.449 165.348 271.039 166.063 270.644 166.639C271.476 166.522 272.239 166.378 272.932 166.207ZM282.916 172.143L283.908 172.639L283.62 175.151C283.588 175.428 283.492 175.642 283.332 175.791C283.183 175.951 282.985 176.031 282.74 176.031C282.559 176.031 282.356 175.983 282.132 175.887C281.033 175.418 280.116 174.548 279.38 173.279C278.132 174.015 276.735 174.612 275.188 175.071L274.74 174.015C276.287 173.599 277.668 173.039 278.884 172.335C278.5 171.503 278.18 170.543 277.924 169.455L274.98 169.935L274.804 168.863L277.7 168.399C277.583 167.77 277.481 167.007 277.396 166.111L275.06 166.431L274.9 165.391L277.316 165.071C277.273 164.399 277.252 163.599 277.252 162.671V161.551H278.372V162.671C278.372 163.535 278.393 164.287 278.436 164.927L282.884 164.335L283.028 165.359L278.516 165.967C278.569 166.596 278.665 167.348 278.804 168.223L283.46 167.487L283.62 168.511L279.028 169.263C279.241 170.17 279.508 170.996 279.828 171.743C280.82 171.06 281.679 170.303 282.404 169.471L283.188 170.143C282.367 171.082 281.412 171.93 280.324 172.687C280.975 173.786 281.743 174.527 282.628 174.911L282.916 172.143ZM281.508 164.207C281.156 163.898 280.74 163.572 280.26 163.231C279.78 162.89 279.359 162.634 278.996 162.463L279.604 161.679C279.988 161.882 280.415 162.143 280.884 162.463C281.353 162.783 281.769 163.098 282.132 163.407L281.508 164.207ZM269.124 174.175C270.991 173.77 272.719 173.311 274.308 172.799L274.516 173.887C272.788 174.42 271.092 174.879 269.428 175.263L269.124 174.175ZM296.692 167.039C297.588 167.679 298.703 168.319 300.036 168.959L299.476 169.967C298.036 169.252 296.815 168.522 295.812 167.775C294.735 168.596 293.343 169.375 291.636 170.111L291.076 169.135C292.644 168.484 293.929 167.796 294.932 167.071C294.217 166.442 293.604 165.791 293.092 165.119C292.623 165.642 292.079 166.148 291.46 166.639L290.804 165.791C291.593 165.172 292.26 164.495 292.804 163.759C293.348 163.023 293.769 162.26 294.068 161.471L295.156 161.631C295.028 162.015 294.847 162.447 294.612 162.927H299.012V163.727C298.468 165.007 297.695 166.111 296.692 167.039ZM289.172 173.471C289.908 173.268 290.585 173.055 291.204 172.831L291.3 173.855C290.468 174.186 289.572 174.479 288.612 174.735C287.663 174.98 286.543 175.236 285.252 175.503L285.076 174.367L285.94 174.207V168.159H286.964V173.999C287.231 173.946 287.62 173.855 288.132 173.727V166.847H285.892V162.015H290.676V166.847H289.172V169.247H291.06V170.271H289.172V173.471ZM289.668 163.055H286.964V165.839H289.668V163.055ZM293.796 164.255C294.383 165.055 295.055 165.759 295.812 166.367C296.665 165.61 297.295 164.799 297.7 163.935H294.004L293.796 164.255ZM293.492 176.127H292.388V169.855H298.724V176.127H297.62V175.183H293.492V176.127ZM297.62 170.895H293.492V174.111H297.62V170.895ZM303.748 176.095C303.033 176.095 302.457 175.887 302.02 175.471C301.583 175.055 301.364 174.479 301.364 173.743C301.364 173.007 301.583 172.431 302.02 172.015C302.457 171.599 303.033 171.391 303.748 171.391C304.463 171.391 305.039 171.599 305.476 172.015C305.924 172.431 306.148 173.007 306.148 173.743C306.148 174.479 305.929 175.055 305.492 175.471C305.055 175.887 304.473 176.095 303.748 176.095ZM303.748 175.119C304.153 175.119 304.473 175.012 304.708 174.799C304.953 174.586 305.076 174.303 305.076 173.951V173.551C305.076 173.188 304.953 172.9 304.708 172.687C304.473 172.474 304.153 172.367 303.748 172.367C303.353 172.367 303.033 172.474 302.788 172.687C302.553 172.9 302.436 173.188 302.436 173.551V173.951C302.436 174.303 302.553 174.586 302.788 174.799C303.033 175.012 303.353 175.119 303.748 175.119Z" fill="#717171"/>
</svg>
