<svg width="12" height="29" viewBox="0 0 12 29" fill="none" xmlns="http://www.w3.org/2000/svg">
<rect width="12" height="1.81253" transform="matrix(-1 0 0 1 12 0)" fill="#F1A900"/>
<rect width="12" height="1.81253" transform="matrix(-1 0 0 1 12 1.8125)" fill="#E4002B"/>
<rect width="12" height="1.81253" transform="matrix(-1 0 0 1 12 3.625)" fill="#007B34"/>
<rect width="12" height="1.81253" transform="matrix(-1 0 0 1 12 5.4375)" fill="#003DA6"/>
<rect width="12" height="1.81253" transform="matrix(-1 0 0 1 12 7.25)" fill="#00A3E0"/>
<rect width="12" height="1.81253" transform="matrix(-1 0 0 1 12 9.0625)" fill="#F67599"/>
<rect width="12" height="1.81253" transform="matrix(-1 0 0 1 12 10.875)" fill="#008C95"/>
<rect width="12" height="1.81253" transform="matrix(-1 0 0 1 12 12.6875)" fill="#871F42"/>
<rect width="12" height="1.81253" transform="matrix(-1 0 0 1 12 14.5)" fill="#5F249E"/>
<rect width="12" height="1.81253" transform="matrix(-1 0 0 1 12 16.3125)" fill="#0057B7"/>
<rect width="12" height="1.81253" transform="matrix(-1 0 0 1 12 18.125)" fill="#9F5CC0"/>
<rect width="12" height="1.81253" transform="matrix(-1 0 0 1 12 19.9375)" fill="#2CD5C5"/>
<rect width="12" height="1.81253" transform="matrix(-1 0 0 1 12 21.75)" fill="#D6A148"/>
<rect width="12" height="1.81253" transform="matrix(-1 0 0 1 12 23.5625)" fill="#685BC7"/>
<rect width="12" height="1.81253" transform="matrix(-1 0 0 1 12 25.375)" fill="#007DCE"/>
<rect width="12" height="1.81253" transform="matrix(-1 0 0 1 12 27.1875)" fill="#B6B6B6"/>
</svg>
