<svg width="88" height="12" viewBox="0 0 88 12" fill="none" xmlns="http://www.w3.org/2000/svg">
<path d="M3.3359 9.21027C2.9399 9.21027 2.5819 9.15027 2.2619 9.03027C1.9419 8.91427 1.6639 8.75227 1.4279 8.54427C1.1959 8.33627 1.0039 8.09827 0.851899 7.83027L1.0139 7.59027V9.03027H-0.000101507V0.390273H1.0979V4.51227L0.881899 4.26627C1.1419 3.88227 1.4719 3.57027 1.8719 3.33027C2.2759 3.09027 2.7599 2.97027 3.3239 2.97027C3.9119 2.97027 4.4279 3.11027 4.8719 3.39027C5.3199 3.67027 5.6679 4.04627 5.9159 4.51827C6.1679 4.99027 6.2939 5.51427 6.2939 6.09027C6.2939 6.53027 6.2219 6.94027 6.0779 7.32027C5.9339 7.69627 5.7299 8.02627 5.4659 8.31027C5.2059 8.59427 4.8959 8.81627 4.5359 8.97627C4.1759 9.13227 3.7759 9.21027 3.3359 9.21027ZM3.1379 8.21427C3.5339 8.21427 3.8839 8.12827 4.1879 7.95627C4.4959 7.78027 4.7359 7.53427 4.9079 7.21827C5.0839 6.89827 5.1719 6.52227 5.1719 6.09027C5.1719 5.65427 5.0839 5.27827 4.9079 4.96227C4.7359 4.64227 4.4959 4.39627 4.1879 4.22427C3.8839 4.05227 3.5339 3.96627 3.1379 3.96627C2.7419 3.96627 2.3899 4.05227 2.0819 4.22427C1.7779 4.39627 1.5379 4.64227 1.3619 4.96227C1.1859 5.27827 1.0979 5.65427 1.0979 6.09027C1.0979 6.52227 1.1859 6.89827 1.3619 7.21827C1.5379 7.53427 1.7779 7.78027 2.0819 7.95627C2.3899 8.12827 2.7419 8.21427 3.1379 8.21427ZM7.98909 11.7243C7.79709 11.7243 7.60709 11.7003 7.41909 11.6523C7.23109 11.6083 7.04109 11.5283 6.84909 11.4123L7.10709 10.4583C7.23109 10.5383 7.36509 10.5983 7.50909 10.6383C7.65309 10.6783 7.78109 10.6983 7.89309 10.6983C8.18909 10.6983 8.41909 10.6263 8.58309 10.4823C8.74709 10.3383 8.87909 10.1183 8.97909 9.82227L9.21309 9.15027L6.88509 3.15027H8.09709L9.83709 7.89027L11.5351 3.15027H12.7051L10.1311 9.96627C9.95509 10.4303 9.75909 10.7883 9.54309 11.0403C9.33109 11.2963 9.09709 11.4743 8.84109 11.5743C8.58509 11.6743 8.30109 11.7243 7.98909 11.7243ZM62.6538 9.21027C62.3498 9.21027 62.0858 9.11427 61.8618 8.92227C61.6418 8.72627 61.5318 8.46627 61.5318 8.14227C61.5318 7.92227 61.5818 7.73227 61.6818 7.57227C61.7858 7.41227 61.9218 7.28827 62.0898 7.20027C62.2618 7.11227 62.4498 7.06827 62.6538 7.06827C62.9618 7.06827 63.2258 7.16627 63.4458 7.36227C63.6698 7.55427 63.7818 7.81427 63.7818 8.14227C63.7818 8.36227 63.7298 8.55227 63.6258 8.71227C63.5218 8.87227 63.3838 8.99427 63.2118 9.07827C63.0438 9.16627 62.8578 9.21027 62.6538 9.21027ZM68.9984 9.21027C68.1304 9.21027 67.3664 9.03227 66.7064 8.67627C66.0464 8.31627 65.5324 7.81027 65.1644 7.15827C64.7964 6.50227 64.6124 5.73227 64.6124 4.84827C64.6124 4.20427 64.7204 3.61427 64.9364 3.07827C65.1524 2.54227 65.4584 2.07827 65.8544 1.68627C66.2504 1.29027 66.7164 0.986273 67.2524 0.774273C67.7924 0.558273 68.3824 0.450273 69.0224 0.450273C69.7024 0.450273 70.2784 0.536273 70.7504 0.708273C71.2224 0.880273 71.6464 1.12227 72.0224 1.43427L71.1224 2.89227C70.8784 2.65227 70.5884 2.47227 70.2524 2.35227C69.9204 2.23227 69.5504 2.17227 69.1424 2.17227C68.7264 2.17227 68.3524 2.23427 68.0204 2.35827C67.6924 2.48227 67.4124 2.66027 67.1804 2.89227C66.9524 3.12027 66.7764 3.39827 66.6524 3.72627C66.5324 4.05027 66.4724 4.41627 66.4724 4.82427C66.4724 5.38427 66.5804 5.86227 66.7964 6.25827C67.0164 6.65027 67.3284 6.95227 67.7324 7.16427C68.1404 7.37627 68.6264 7.48227 69.1904 7.48227C69.5824 7.48227 69.9664 7.42227 70.3424 7.30227C70.7224 7.18227 71.0804 6.99027 71.4164 6.72627L72.2324 8.22027C71.8364 8.52427 71.3724 8.76627 70.8404 8.94627C70.3084 9.12227 69.6944 9.21027 68.9984 9.21027ZM73.3393 9.03027V2.97027H75.0913V9.03027H73.3393ZM74.2153 2.01027C73.9233 2.01027 73.6713 1.92027 73.4593 1.74027C73.2473 1.55627 73.1413 1.31227 73.1413 1.00827C73.1413 0.700273 73.2473 0.456273 73.4593 0.276273C73.6713 0.0922728 73.9233 0.000272751 74.2153 0.000272751C74.5073 0.000272751 74.7593 0.0922728 74.9713 0.276273C75.1833 0.456273 75.2893 0.700273 75.2893 1.00827C75.2893 1.31227 75.1833 1.55627 74.9713 1.74027C74.7593 1.92027 74.5073 2.01027 74.2153 2.01027ZM79.4243 9.21027C78.7763 9.21027 78.2643 9.02827 77.8883 8.66427C77.5163 8.29627 77.3303 7.74227 77.3303 7.00227V1.22427H79.0823V2.97027H80.5883V4.37427H79.0823V6.68427C79.0823 7.04027 79.1563 7.29027 79.3043 7.43427C79.4523 7.57827 79.6503 7.65027 79.8983 7.65027C80.0263 7.65027 80.1503 7.63627 80.2703 7.60827C80.3943 7.57627 80.5083 7.53227 80.6123 7.47627L80.8583 8.85627C80.6783 8.95627 80.4623 9.04027 80.2103 9.10827C79.9623 9.17627 79.7003 9.21027 79.4243 9.21027ZM76.1003 4.37427V2.97027H77.5043V4.37427H76.1003ZM82.8789 11.7123C82.6229 11.7123 82.3709 11.6863 82.1229 11.6343C81.8749 11.5823 81.6409 11.4963 81.4209 11.3763L81.7989 9.90027C81.9269 9.97227 82.0669 10.0283 82.2189 10.0683C82.3749 10.1083 82.5189 10.1283 82.6509 10.1283C82.8909 10.1283 83.0889 10.0763 83.2449 9.97227C83.4009 9.86827 83.5169 9.69827 83.5929 9.46227L83.7189 9.07827L81.3549 2.97027H83.2569L84.7089 7.30227L86.1189 2.97027H87.9729L85.4289 9.72027C85.2289 10.2243 84.9989 10.6203 84.7389 10.9083C84.4789 11.2003 84.1929 11.4063 83.8809 11.5263C83.5689 11.6503 83.2349 11.7123 82.8789 11.7123Z" fill="#383838"/>
<path d="M20.5648 9.21027C19.6968 9.21027 18.9328 9.03227 18.2728 8.67627C17.6128 8.31627 17.0988 7.81027 16.7308 7.15827C16.3628 6.50227 16.1788 5.73227 16.1788 4.84827C16.1788 4.20427 16.2868 3.61427 16.5028 3.07827C16.7188 2.54227 17.0248 2.07827 17.4208 1.68627C17.8168 1.29027 18.2828 0.986273 18.8188 0.774273C19.3588 0.558273 19.9488 0.450273 20.5888 0.450273C21.2688 0.450273 21.8448 0.536273 22.3168 0.708273C22.7888 0.880273 23.2128 1.12227 23.5888 1.43427L22.6888 2.89227C22.4448 2.65227 22.1548 2.47227 21.8188 2.35227C21.4868 2.23227 21.1168 2.17227 20.7088 2.17227C20.2928 2.17227 19.9188 2.23427 19.5868 2.35827C19.2588 2.48227 18.9788 2.66027 18.7468 2.89227C18.5188 3.12027 18.3428 3.39827 18.2188 3.72627C18.0988 4.05027 18.0388 4.41627 18.0388 4.82427C18.0388 5.38427 18.1468 5.86227 18.3628 6.25827C18.5828 6.65027 18.8948 6.95227 19.2988 7.16427C19.7068 7.37627 20.1928 7.48227 20.7568 7.48227C21.1488 7.48227 21.5328 7.42227 21.9088 7.30227C22.2888 7.18227 22.6468 6.99027 22.9828 6.72627L23.7988 8.22027C23.4028 8.52427 22.9388 8.76627 22.4068 8.94627C21.8748 9.12227 21.2608 9.21027 20.5648 9.21027ZM24.9057 9.03027V0.390273H26.6577V4.29027L26.2917 3.86427C26.5557 3.52427 26.8717 3.26027 27.2397 3.07227C27.6077 2.88427 28.0057 2.79027 28.4337 2.79027C28.9977 2.79027 29.4657 2.90227 29.8377 3.12627C30.2137 3.35027 30.4937 3.64227 30.6777 4.00227C30.8657 4.36227 30.9597 4.74627 30.9597 5.15427V9.03027H29.2077V5.65227C29.2077 5.27627 29.0957 4.97227 28.8717 4.74027C28.6477 4.50427 28.3397 4.38427 27.9477 4.38027C27.6837 4.38027 27.4537 4.43627 27.2577 4.54827C27.0657 4.65627 26.9177 4.81427 26.8137 5.02227C26.7097 5.22627 26.6577 5.46627 26.6577 5.74227V9.03027H24.9057ZM32.6049 9.03027V2.97027H34.3569V9.03027H32.6049ZM33.4809 2.01027C33.1889 2.01027 32.9369 1.92027 32.7249 1.74027C32.5129 1.55627 32.4069 1.31227 32.4069 1.00827C32.4069 0.700273 32.5129 0.456273 32.7249 0.276273C32.9369 0.0922728 33.1889 0.000272751 33.4809 0.000272751C33.7729 0.000272751 34.0249 0.0922728 34.2369 0.276273C34.4489 0.456273 34.5549 0.700273 34.5549 1.00827C34.5549 1.31227 34.4489 1.55627 34.2369 1.74027C34.0249 1.92027 33.7729 2.01027 33.4809 2.01027ZM38.69 9.21027C38.042 9.21027 37.53 9.02827 37.154 8.66427C36.782 8.29627 36.596 7.74227 36.596 7.00227V1.22427H38.348V2.97027H39.854V4.37427H38.348V6.68427C38.348 7.04027 38.422 7.29027 38.57 7.43427C38.718 7.57827 38.916 7.65027 39.164 7.65027C39.292 7.65027 39.416 7.63627 39.536 7.60827C39.66 7.57627 39.774 7.53227 39.878 7.47627L40.124 8.85627C39.944 8.95627 39.728 9.04027 39.476 9.10827C39.228 9.17627 38.966 9.21027 38.69 9.21027ZM35.366 4.37427V2.97027H36.77V4.37427H35.366ZM44.1971 9.21027C43.5451 9.21027 42.9671 9.06427 42.4631 8.77227C41.9591 8.48027 41.5631 8.09227 41.2751 7.60827C40.9911 7.12027 40.8491 6.58427 40.8491 6.00027C40.8491 5.57227 40.9311 5.16627 41.0951 4.78227C41.2591 4.39427 41.4911 4.05227 41.7911 3.75627C42.0911 3.45627 42.4451 3.22027 42.8531 3.04827C43.2611 2.87627 43.7091 2.79027 44.1971 2.79027C44.8491 2.79027 45.4251 2.93627 45.9251 3.22827C46.4291 3.52027 46.8231 3.91027 47.1071 4.39827C47.3951 4.88227 47.5391 5.41627 47.5391 6.00027C47.5391 6.42427 47.4571 6.83027 47.2931 7.21827C47.1291 7.60627 46.8971 7.95027 46.5971 8.25027C46.3011 8.54627 45.9491 8.78027 45.5411 8.95227C45.1331 9.12427 44.6851 9.21027 44.1971 9.21027ZM44.1971 7.69227C44.5051 7.69227 44.7811 7.62427 45.0251 7.48827C45.2691 7.34827 45.4611 7.15227 45.6011 6.90027C45.7411 6.64427 45.8111 6.34427 45.8111 6.00027C45.8111 5.65227 45.7411 5.35227 45.6011 5.10027C45.4651 4.84827 45.2751 4.65427 45.0311 4.51827C44.7871 4.37827 44.5091 4.30827 44.1971 4.30827C43.8851 4.30827 43.6051 4.37827 43.3571 4.51827C43.1131 4.65427 42.9211 4.84827 42.7811 5.10027C42.6451 5.35227 42.5771 5.65227 42.5771 6.00027C42.5771 6.34827 42.6471 6.64827 42.7871 6.90027C42.9271 7.15227 43.1191 7.34827 43.3631 7.48827C43.6071 7.62427 43.8851 7.69227 44.1971 7.69227ZM50.9376 9.20427C50.3976 9.20427 49.8996 9.13427 49.4436 8.99427C48.9876 8.85027 48.5976 8.65427 48.2736 8.40627L48.8436 7.18227C49.1596 7.39827 49.5016 7.56827 49.8696 7.69227C50.2376 7.81227 50.5916 7.87227 50.9316 7.87227C51.2676 7.87227 51.5256 7.82227 51.7056 7.72227C51.8896 7.61827 51.9816 7.47027 51.9816 7.27827C51.9816 7.10627 51.8996 6.98027 51.7356 6.90027C51.5756 6.81627 51.2636 6.72627 50.7996 6.63027C49.9996 6.48627 49.4156 6.26027 49.0476 5.95227C48.6796 5.64027 48.4956 5.21227 48.4956 4.66827C48.4956 4.28427 48.6016 3.94627 48.8136 3.65427C49.0296 3.36227 49.3256 3.13627 49.7016 2.97627C50.0776 2.81227 50.5096 2.73027 50.9976 2.73027C51.4776 2.73027 51.9296 2.79627 52.3536 2.92827C52.7816 3.05627 53.1476 3.23627 53.4516 3.46827L52.8996 4.69827C52.7396 4.57027 52.5556 4.45827 52.3476 4.36227C52.1436 4.26627 51.9276 4.19227 51.6996 4.14027C51.4756 4.08427 51.2556 4.05627 51.0396 4.05627C50.7476 4.05627 50.5116 4.10627 50.3316 4.20627C50.1516 4.30227 50.0616 4.43827 50.0616 4.61427C50.0616 4.79027 50.1436 4.92027 50.3076 5.00427C50.4716 5.08827 50.7776 5.18027 51.2256 5.28027C52.0616 5.45627 52.6556 5.69027 53.0076 5.98227C53.3636 6.27027 53.5416 6.67627 53.5416 7.20027C53.5416 7.60427 53.4316 7.95627 53.2116 8.25627C52.9956 8.55627 52.6916 8.79027 52.2996 8.95827C51.9116 9.12227 51.4576 9.20427 50.9376 9.20427ZM57.726 9.21027C57.066 9.21027 56.486 9.07627 55.986 8.80827C55.486 8.54027 55.096 8.16627 54.816 7.68627C54.536 7.20627 54.396 6.64427 54.396 6.00027C54.396 5.53227 54.476 5.10227 54.636 4.71027C54.8 4.31827 55.028 3.98027 55.32 3.69627C55.616 3.40827 55.962 3.18627 56.358 3.03027C56.758 2.87027 57.196 2.79027 57.672 2.79027C58.196 2.79027 58.66 2.88227 59.064 3.06627C59.472 3.25027 59.81 3.50827 60.078 3.84027C60.346 4.16827 60.532 4.55427 60.636 4.99827C60.744 5.44227 60.754 5.92427 60.666 6.44427H56.022C56.022 6.72427 56.094 6.96827 56.238 7.17627C56.386 7.38427 56.592 7.54827 56.856 7.66827C57.124 7.78427 57.436 7.84227 57.792 7.84227C58.144 7.84227 58.48 7.79427 58.8 7.69827C59.12 7.60227 59.422 7.45627 59.706 7.26027L60.288 8.46027C60.096 8.60827 59.856 8.74027 59.568 8.85627C59.28 8.96827 58.974 9.05427 58.65 9.11427C58.33 9.17827 58.022 9.21027 57.726 9.21027ZM56.124 5.23827H58.986C58.974 4.88227 58.848 4.60027 58.608 4.39227C58.372 4.18427 58.046 4.08027 57.63 4.08027C57.214 4.08027 56.868 4.18427 56.592 4.39227C56.32 4.60027 56.164 4.88227 56.124 5.23827Z" fill="url(#paint0_linear_778_12360)"/>
<defs>
<linearGradient id="paint0_linear_778_12360" x1="-0.954102" y1="5.03027" x2="88.0459" y2="5.03027" gradientUnits="userSpaceOnUse">
<stop stop-color="#00AA82"/>
<stop offset="1" stop-color="#08795E"/>
</linearGradient>
</defs>
</svg>
