<svg width="329" height="6" viewBox="0 0 329 6" fill="none" xmlns="http://www.w3.org/2000/svg" preserveAspectRatio="none" shape-rendering="crispEdges">
<rect width="6" height="20.5625" transform="matrix(0 1 1 0 0 0)" fill="#F1A900"/>
<rect width="6" height="20.5625" transform="matrix(0 1 1 0 20.5625 0)" fill="#E4002B"/>
<rect width="6" height="20.5625" transform="matrix(0 1 1 0 41.1245 0)" fill="#007B34"/>
<rect width="6" height="20.5625" transform="matrix(0 1 1 0 61.687 0)" fill="#003DA6"/>
<rect width="6" height="20.5625" transform="matrix(0 1 1 0 82.2495 0)" fill="#00A3E0"/>
<rect width="6" height="20.5625" transform="matrix(0 1 1 0 102.813 0)" fill="#F67599"/>
<rect width="6" height="20.5625" transform="matrix(0 1 1 0 123.375 0)" fill="#008C95"/>
<rect width="6" height="20.5625" transform="matrix(0 1 1 0 143.938 0)" fill="#871F42"/>
<rect width="6" height="20.5625" transform="matrix(0 1 1 0 164.5 0)" fill="#5F249E"/>
<rect width="6" height="20.5625" transform="matrix(0 1 1 0 185.062 0)" fill="#0057B7"/>
<rect width="6" height="20.5625" transform="matrix(0 1 1 0 205.625 0)" fill="#9F5CC0"/>
<rect width="6" height="20.5625" transform="matrix(0 1 1 0 226.187 0)" fill="#2CD5C5"/>
<rect width="6" height="20.5625" transform="matrix(0 1 1 0 246.75 0)" fill="#D6A148"/>
<rect width="6" height="20.5625" transform="matrix(0 1 1 0 267.312 0)" fill="#685BC7"/>
<rect width="6" height="20.5625" transform="matrix(0 1 1 0 287.875 0)" fill="#007DCE"/>
<rect width="6" height="20.5625" transform="matrix(0 1 1 0 308.438 0)" fill="#B6B6B6"/>
</svg>
