<svg width="329" height="6" viewBox="0 0 329 6" fill="none" xmlns="http://www.w3.org/2000/svg" preserveAspectRatio="none" shape-rendering="crispEdges">
<rect width="6" height="12.1852" transform="matrix(0 1 1 0 0 0)" fill="#E01735"/>
<rect width="6" height="12.1852" transform="matrix(0 1 1 0 12.186 0)" fill="#87C63F"/>
<rect width="6" height="12.1852" transform="matrix(0 1 1 0 24.3701 0)" fill="#F9D108"/>
<rect width="6" height="12.1852" transform="matrix(0 1 1 0 36.5562 0)" fill="#441D87"/>
<rect width="6" height="12.1852" transform="matrix(0 1 1 0 48.7407 0)" fill="#944D9D"/>
<rect width="6" height="12.1852" transform="matrix(0 1 1 0 60.9263 0)" fill="#D41971"/>
<rect width="6" height="12.1852" transform="matrix(0 1 1 0 73.1108 0)" fill="#EE6E01"/>
<rect width="6" height="12.1852" transform="matrix(0 1 1 0 85.2969 0)" fill="#159FD2"/>
<rect width="6" height="12.1852" transform="matrix(0 1 1 0 97.481 0)" fill="#78C6EC"/>
<rect width="6" height="12.1852" transform="matrix(0 1 1 0 109.667 0)" fill="#BDA7D0"/>
<rect width="6" height="12.1852" transform="matrix(0 1 1 0 121.851 0)" fill="#792032"/>
<rect width="6" height="12.1852" transform="matrix(0 1 1 0 134.037 0)" fill="#017960"/>
<rect width="6" height="12.1852" transform="matrix(0 1 1 0 146.221 0)" fill="#E697BF"/>
<rect width="6" height="12.1852" transform="matrix(0 1 1 0 158.407 0)" fill="#605E34"/>
<rect width="6" height="12.1852" transform="matrix(0 1 1 0 170.593 0)" fill="#C7B28F"/>
<rect width="6" height="12.1852" transform="matrix(0 1 1 0 182.777 0)" fill="#8CD1BE"/>
<rect width="6" height="12.1852" transform="matrix(0 1 1 0 194.963 0)" fill="#B37875"/>
<rect width="6" height="12.1852" transform="matrix(0 1 1 0 207.147 0)" fill="#C4984F"/>
<rect width="6" height="12.1852" transform="matrix(0 1 1 0 231.518 0)" fill="#5F376F"/>
<rect width="6" height="12.1852" transform="matrix(0 1 1 0 243.704 0)" fill="#B0D478"/>
<rect width="6" height="12.1852" transform="matrix(0 1 1 0 255.888 0)" fill="#B6B6B6"/>
<rect width="6" height="12.1852" transform="matrix(0 1 1 0 268.074 0)" fill="#888889"/>
<rect width="6" height="12.1852" transform="matrix(0 1 1 0 280.258 0)" fill="#B12534"/>
<rect width="6" height="12.1852" transform="matrix(0 1 1 0 292.444 0)" fill="#148E51"/>
<rect width="6" height="12.1852" transform="matrix(0 1 1 0 304.629 0)" fill="#2E8185"/>
<rect width="6" height="12.1852" transform="matrix(0 1 1 0 316.814 0)" fill="#D77E2C"/>
<rect width="6" height="12.1852" transform="matrix(0 1 1 0 219.333 0)" fill="#F7AF00"/>
</svg>
