<svg width="28" height="32" viewBox="0 0 28 32" fill="none" xmlns="http://www.w3.org/2000/svg">
<path d="M18.7686 24.8539C20.9143 23.7629 22.63 21.981 23.6392 19.7957C24.6483 17.6103 24.8921 15.1487 24.3312 12.8079C23.7702 10.467 22.4373 8.38326 20.5472 6.89262C18.6572 5.40198 16.3202 4.5913 13.9131 4.5913C11.5059 4.5913 9.16893 5.40198 7.27889 6.89262C5.38884 8.38326 4.05589 10.467 3.49495 12.8079C2.93401 15.1487 3.17778 17.6103 4.18694 19.7957C5.1961 21.981 6.91184 23.7629 9.05754 24.8539L7.08857 27.4287C4.60624 26.0314 2.6126 23.9059 1.37701 21.3393C0.141415 18.7726 -0.27658 15.8886 0.179495 13.0768C0.635569 10.265 1.94373 7.66089 3.92725 5.6164C5.91076 3.5719 8.47403 2.1855 11.2707 1.64452C11.2442 1.45782 11.256 1.26769 11.3052 1.08566C11.3544 0.903638 11.4401 0.733519 11.5571 0.585641C11.6741 0.437763 11.82 0.315211 11.9858 0.225431C12.1516 0.13565 12.334 0.0805147 12.5218 0.0633723C13.4474 -0.0211241 14.3787 -0.0211241 15.3044 0.0633723C15.4921 0.0805147 15.6745 0.13565 15.8403 0.225431C16.0061 0.315211 16.152 0.437763 16.269 0.585641C16.386 0.733519 16.4717 0.903638 16.5209 1.08566C16.5702 1.26769 16.5819 1.45782 16.5554 1.64452C19.3521 2.1855 21.9154 3.5719 23.8989 5.6164C25.8824 7.66089 27.1905 10.265 27.6466 13.0768C28.1027 15.8886 27.6847 18.7726 26.4491 21.3393C25.2135 23.9059 23.2199 26.0314 20.7375 27.4287L18.7686 24.8539ZM22.5092 30.241C22.6353 30.2662 22.7488 30.3343 22.8304 30.4338C22.912 30.5333 22.9565 30.658 22.9565 30.7867V32H4.86958V30.7867C4.86958 30.658 4.91415 30.5333 4.99572 30.4338C5.07728 30.3343 5.1908 30.2662 5.31696 30.241L11.2342 29.0575C11.6757 28.9692 12.073 28.7306 12.3585 28.3824C12.644 28.0342 12.8 27.5978 12.8 27.1475V19.2358C12.8 18.9335 12.7015 18.6393 12.5195 18.398C12.3374 18.1566 12.0816 17.9811 11.7909 17.898L9.04349 17.113V14.5851C9.04349 14.0951 9.22815 13.6231 9.56066 13.2632C9.89317 12.9034 10.3491 12.682 10.8375 12.6433C12.8847 12.4812 14.9414 12.4812 16.9886 12.6433C17.477 12.682 17.9329 12.9034 18.2655 13.2632C18.598 13.6231 18.7826 14.0951 18.7826 14.5851V17.113L16.0352 17.898C15.7445 17.9811 15.4887 18.1566 15.3067 18.398C15.1246 18.6393 15.0261 18.9335 15.0261 19.2358V27.1475C15.0261 27.5978 15.1821 28.0342 15.4676 28.3824C15.7531 28.7306 16.1504 28.9692 16.5919 29.0575L22.5092 30.241Z" fill="#231F20"/>
</svg>
