<svg width="32" height="32" viewBox="0 0 32 32" fill="none" xmlns="http://www.w3.org/2000/svg">
<g clip-path="url(#clip0_305_3769)">
<path d="M23.8322 15.9991C23.8322 13.3457 23.1849 10.8428 22.042 8.63951H8.64379V23.3597H22.042C22.7133 22.067 23.2116 20.6692 23.5103 19.2H28.0624C26.6492 24.5405 21.7846 28.4781 15.9991 28.4781C9.10855 28.4781 3.52189 22.8915 3.52189 15.9991C3.52189 9.10856 9.10855 3.52193 15.9991 3.52193C21.7846 3.52193 26.6492 7.45865 28.0624 12.8H31.679C30.196 5.49717 23.7401 0 15.9991 0C7.16342 0 0 7.16342 0 15.9991C0 24.8366 7.16342 32 15.9991 32C24.8357 32 32 24.8366 32 16H23.8322V15.9991ZM18.0794 20.1614C18.0527 20.1614 18.026 20.1605 18.0002 20.1597H12.2939V11.8403H17.9856C18.0174 11.8386 18.0476 11.8377 18.0794 11.8377C19.1785 11.8377 20.0693 12.7294 20.0693 13.8276C20.0693 14.7933 19.3816 15.5981 18.4701 15.7797C18.4633 15.7814 18.4572 15.7831 18.4504 15.7839C18.3935 15.7985 18.3531 15.8493 18.3531 15.9104C18.3531 15.9724 18.3953 16.0241 18.4521 16.0378C18.4572 16.0387 18.4615 16.0395 18.4667 16.0404C19.4289 16.222 20.1571 17.0672 20.1571 18.0828C20.1571 19.2301 19.2267 20.1614 18.0794 20.1614Z" fill="#231F20"/>
</g>
<defs>
<clipPath id="clip0_305_3769">
<rect width="32" height="32" fill="white"/>
</clipPath>
</defs>
</svg>
