<svg width="37" height="32" viewBox="0 0 37 32" fill="none" xmlns="http://www.w3.org/2000/svg">
<path d="M7.39282 12.2225C7.39282 10.4469 9.01119 8.3962 9.82038 7.5928C8.51846 9.63655 7.99503 11.4045 10.6933 12.4129C18.1519 15.2005 31.2018 10.7534 36.7945 8.18147C36.7875 11.4395 36.4119 13.2547 34.6723 16.4519C31.8401 17.4802 27.2778 18.5161 21.098 18.5161C9.59648 18.5161 7.39282 14.442 7.39282 12.2225Z" fill="#231F20"/>
<path d="M36.2804 5.35375C34.8979 6.16413 34.1242 6.55245 32.7457 7.15211C32.0429 3.6587 29.3764 1.3229 24.3327 1.3229C19.289 1.3229 14.1814 4.00121 11.4755 5.56042C14.3071 3.44433 20.9014 0 27.0199 0C33.1385 0 35.743 3.56917 36.2804 5.35375Z" fill="#231F20"/>
<path d="M9.94584 31.9998C-1.76334 31.9998 -1.03152 21.4705 1.64779 16.4652C-1.28362 23.6557 1.16354 29.3195 9.04034 29.3195C16.9171 29.3195 24.2076 23.5681 26.8683 20.6923C27.3542 20.6366 28.565 20.4916 29.521 20.3578C30.4769 20.2239 31.879 19.9237 32.4606 19.7903C30.6157 22.1894 26.5537 25.8465 24.881 26.9219C22.7901 28.266 16.704 31.9998 9.94584 31.9998Z" fill="#231F20"/>
<path d="M3.04049 14.8632C4.15465 12.5139 7.50125 9.22621 9.03528 7.87603C7.86596 8.95375 5.75197 11.8261 6.74612 15.0763C7.83767 18.6448 14.6325 21.02 22.6856 21.02C20.9033 22.5997 18.0226 24.5914 15.1111 25.6579C9.5821 27.6831 5.04551 27.035 2.7367 24.6655C0.427897 22.2959 1.64779 17.7998 3.04049 14.8632Z" fill="#231F20"/>
<path d="M26.4261 3.11327C29.0119 3.79963 29.7781 6.87095 29.8379 8.32082C21.857 11.3536 11.527 12.716 10.0053 10.0168C8.45025 7.25842 14.1354 4.45005 17.3877 3.39257C20.6399 2.3351 23.1938 2.25532 26.4261 3.11327Z" fill="#231F20"/>
</svg>
