<svg width="329" height="6" viewBox="0 0 329 6" fill="none" xmlns="http://www.w3.org/2000/svg" preserveAspectRatio="none" shape-rendering="crispEdges">
<rect x="316.346" width="12.6538" height="6" fill="#717171"/>
<rect x="88.5767" width="12.6538" height="6" fill="#009B6B"/>
<rect x="101.23" width="12.6538" height="6" fill="#90C320"/>
<rect x="113.884" width="12.6538" height="6" fill="#019BC1"/>
<rect x="126.539" width="12.6538" height="6" fill="#ED796A"/>
<rect x="139.192" width="12.6538" height="6" fill="#C66B00"/>
<rect x="151.846" width="12.6538" height="6" fill="#F6E614"/>
<rect x="164.5" width="12.6538" height="6" fill="#D6A7A1"/>
<rect x="177.154" width="12.6538" height="6" fill="#6A347F"/>
<rect x="189.808" width="12.6538" height="6" fill="#77A22E"/>
<rect x="202.461" width="12.6538" height="6" fill="#01A9AA"/>
<rect x="215.116" width="12.6538" height="6" fill="#D6AAC1"/>
<rect x="227.77" width="12.6538" height="6" fill="#E46022"/>
<rect x="240.423" width="12.6538" height="6" fill="#E40177"/>
<rect x="253.077" width="12.6538" height="6" fill="#DE82B3"/>
<rect x="265.73" width="12.6538" height="6" fill="#B35A22"/>
<rect x="278.384" width="12.6538" height="6" fill="#A29BBC"/>
<rect x="291.039" width="12.6538" height="6" fill="#034BA0"/>
<rect x="303.692" width="12.6538" height="6" fill="#E50619"/>
<rect x="75.9233" width="12.6538" height="6" fill="#FDCF6F"/>
<rect x="63.2695" width="12.6538" height="6" fill="#D19708"/>
<rect x="50.6157" width="12.6538" height="6" fill="#A71C81"/>
<rect x="37.9614" width="12.6538" height="6" fill="#008E9C"/>
<rect x="25.3076" width="12.6538" height="6" fill="#E70034"/>
<rect x="12.6538" width="12.6538" height="6" fill="#156097"/>
<rect width="12.6538" height="6" fill="#C23931"/>
</svg>
