<svg width="16" height="16" viewBox="0 0 16 16" fill="none" xmlns="http://www.w3.org/2000/svg">
<path d="M14.4189 0C15.2921 0 16.0039 0.707853 16.0039 1.58105V14.4141C16.0039 15.2873 15.2966 16 14.4189 16H1.58496C0.711869 15.9999 0 15.2872 0 14.4141V1.58105C0 0.703455 0.711869 0.000128536 1.58496 0H14.4189ZM13.0938 10.1963C12.7409 10.4028 12.3053 10.3887 11.8965 10.3887H3.80664C3.49462 10.3838 3.18294 10.3541 2.91992 10.1963C2.74154 10.0919 2.58398 9.99193 2.5752 9.98633V12.3398C2.5752 12.5668 2.59639 12.795 2.67773 13.0068C2.76447 13.2325 2.90907 13.5232 3.12109 13.6982C3.22767 13.7862 3.33468 13.8605 3.43359 13.9219C3.72505 14.1028 4.07101 14.1552 4.41406 14.1553H5.32422V12.9375H4.27051C3.9945 12.9375 3.77072 12.7135 3.77051 12.4375V11.5439C3.77067 11.5343 3.77606 11.3761 3.94531 11.3066H12.0635C12.2327 11.3761 12.2381 11.5343 12.2383 11.5439V12.4375C12.2381 12.7134 12.0143 12.9375 11.7383 12.9375H10.6934V14.1553H11.6191C11.952 14.1553 12.2878 14.106 12.5713 13.9316C12.6737 13.8686 12.7853 13.7913 12.8965 13.6982C13.1035 13.5253 13.2472 13.2401 13.335 13.0156C13.4198 12.7985 13.4424 12.5641 13.4424 12.3311V9.98633C13.4331 9.99207 13.2719 10.092 13.0938 10.1963ZM8.00195 0.990234V0.985352L7.99805 0.999023L7.30371 2.28809L7.12012 2.29297L5.99121 2.32422C4.47182 2.40609 2.72509 2.79579 2.5166 4.55469V9.12598C2.5166 9.12598 2.70507 9.52522 3.07227 9.71777C3.43334 9.90698 3.77705 9.93563 3.78809 9.93652H12.2246C12.2246 9.93652 12.5787 9.91476 12.9414 9.71777C13.3041 9.52522 13.4961 9.12598 13.4961 9.12598V5.14844C13.4961 4.75319 13.4914 4.34845 13.3447 3.98145C12.8374 2.71292 11.3826 2.39779 10.0176 2.32422L8.88379 2.29297L8.70508 2.28809L8.00684 0.999023V0.985352L8.00195 0.990234ZM7.54102 7.33105H4.05273V5.31836C4.05281 5.04229 4.27664 4.81836 4.55273 4.81836H7.54102V7.33105ZM11.4561 4.81836C11.7321 4.81836 11.956 5.04229 11.9561 5.31836V7.33105H8.46289V4.81836H11.4561Z" fill="#231F20"/>
</svg>
