<svg width="17" height="16" viewBox="0 0 17 16" fill="none" xmlns="http://www.w3.org/2000/svg">
<path d="M6.81276 1.46772V3.88578L6.40674 4.29042H4.57022C3.88094 4.29042 3.32381 4.85023 3.32381 5.53708V10.4297C3.32381 11.1166 3.88094 11.6764 4.57022 11.6716H6.72777L10.5519 7.86114H8.7154L6.18957 10.3779H4.62215V5.58887H6.94497L8.11108 4.42684V1.36425C11.7417 1.41128 14.6782 4.37046 14.6782 8.0023C14.6782 10.6838 13.073 13.0031 10.7691 14.0475L8.84287 15.9668C12.8842 15.5528 16.0474 12.1375 16.0474 8.0023C16.0474 3.67888 12.5915 0.141149 8.28577 6.67572e-06L6.81276 1.46772Z" fill="#231F20"/>
<path d="M7.75682 15.999L9.23454 14.5266V12.0708L9.63582 11.6663H11.4724C12.1617 11.6663 12.7188 11.1064 12.7188 10.4243V5.53173C12.7188 4.84484 12.1617 4.2897 11.4724 4.2897H9.31479L5.49536 8.10031H7.3319L9.85299 5.58341H11.4251V10.3726H9.10233L7.93622 11.5346V14.6348C4.30564 14.5878 1.36908 11.6286 1.36908 7.99673C1.36908 5.3152 2.97426 2.99591 5.27819 1.95154L7.20443 0.0322332C3.16312 0.446227 -6.19888e-05 3.85683 -6.19888e-05 7.99673C-0.00480175 12.3202 3.45112 15.8579 7.75682 15.999Z" fill="#231F20"/>
</svg>
