<svg width="26" height="29" viewBox="0 0 26 29" fill="none" xmlns="http://www.w3.org/2000/svg">
<path d="M24 0C24.5523 0 25 0.447715 25 1C25 1.55228 24.5523 2 24 2H2C1.44772 2 1 1.55228 1 1C1 0.447715 1.44772 0 2 0H24Z" fill="#231F20"/>
<path d="M24 8C24.5523 8 25 8.44772 25 9C25 9.55228 24.5523 10 24 10H2C1.44772 10 1 9.55228 1 9C1 8.44772 1.44772 8 2 8H24Z" fill="#231F20"/>
<path d="M24 16C24.5523 16 25 16.4477 25 17C25 17.5523 24.5523 18 24 18H2C1.44772 18 1 17.5523 1 17C1 16.4477 1.44772 16 2 16H24Z" fill="#231F20"/>
<path d="M1.38097 28V22.32H2.56497L4.25297 26.984L5.94097 22.32H7.12497V28H6.26097V23.84L4.73297 27.992H3.77297L2.24497 23.84V28H1.38097ZM8.75753 28V22.32H12.4535V23.112H9.62153V24.768H12.3575V25.536H9.62153V27.208H12.5175V28H8.75753ZM13.9622 28V22.32H15.0582L17.6822 26.952V22.32H18.5462V28H17.4102L14.8262 23.472V28H13.9622ZM22.5283 28.128C22.0803 28.128 21.6883 28.0427 21.3523 27.872C21.0217 27.696 20.7657 27.448 20.5843 27.128C20.4083 26.808 20.3203 26.4293 20.3203 25.992V22.312H21.1843V25.992C21.1843 26.424 21.3017 26.7573 21.5363 26.992C21.771 27.2213 22.1017 27.336 22.5283 27.336C22.955 27.336 23.2857 27.2213 23.5203 26.992C23.755 26.7573 23.8723 26.424 23.8723 25.992V22.312H24.7363V25.992C24.7363 26.4293 24.6457 26.808 24.4643 27.128C24.2883 27.448 24.035 27.696 23.7043 27.872C23.3737 28.0427 22.9817 28.128 22.5283 28.128Z" fill="#231F20"/>
</svg>
