<svg width="141" height="82" viewBox="0 0 141 82" fill="none" xmlns="http://www.w3.org/2000/svg">
<path fill-rule="evenodd" clip-rule="evenodd" d="M1.8283 53.1876C-1.19594 56.6101 1.23401 62 5.80126 62H45.8166V39.716H40.0177L44.3254 34.8284H53.2108C55.5691 34.8284 57.8155 33.8233 59.3871 32.0651L70.1716 20H34.8886C32.5138 20 30.2533 21.0191 28.6808 22.7987L1.8283 53.1876ZM7.46153 56.284H40.1006V44.6864H27.426L40.5148 29.9408H53.1065L57.5385 24.9704L35.2959 24.8876L7.46153 56.284Z" fill="#231F20"/>
<path d="M94.2781 62H71.9112L109.107 20H141L125.952 37.0047C124.38 38.7815 122.121 39.7988 119.748 39.7988H113.994L94.2781 62Z" fill="#231F20"/>
<path d="M69.5917 62H52.1953V39.7988H60.9763L78.4556 20H100.822L85.7324 37.012C84.1602 38.7844 81.9043 39.7988 79.5351 39.7988H69.5917V62Z" fill="#231F20"/>
</svg>
