<svg width="33" height="32" viewBox="0 0 33 32" fill="none" xmlns="http://www.w3.org/2000/svg">
<path d="M0 31.9599L2.08864 26.6196C5.30071 26.8253 12.7075 27.1133 16.6379 26.6196C20.5684 26.1259 26.9862 25.0056 30.6176 21.9202C30.6176 26.0499 26.6644 27.8336 20.6713 29.8718C14.6782 31.9101 4.3933 32.1131 0 31.9599Z" fill="#231F20"/>
<path d="M12.4132 0.108079L11.1552 3.12237C19.5335 1.98317 32.184 4.26168 27.271 11.477C32.0891 7.79813 29.8011 4.45154 26.5352 2.17302C23.2693 -0.105498 15.7597 -0.15299 12.4132 0.108079Z" fill="#231F20"/>
<path d="M23.4315 10.1265C32.6399 13.5623 35.1145 20.6461 30.5155 25.1931C35.5659 15.2116 16.1432 14.0012 10.8224 14.0012C5.08999 14.0012 2.74422 14.7196 2.16529 13.5332C1.44521 12.0577 4.42937 8.76793 8.71191 8.24877C12.0996 7.83808 17.5747 7.94128 23.4315 10.1265Z" fill="#231F20"/>
<path d="M19.6321 15.7163C15.3348 14.8568 9.20162 14.7898 6.67216 14.8637L6.19469 16.1255C8.29783 16.0005 13.4284 15.8595 17.1253 16.2961L17.174 16.3018C20.8768 16.739 27.0636 17.4694 30.1705 20.6104C27.8684 17.7114 23.9293 16.5757 19.6321 15.7163Z" fill="#231F20"/>
</svg>
